M48
;Layer_Color=9474304
;FILE_FORMAT=2:5
INCH,LZ
;TYPE=PLATED
T1F00S00C0.01000
T2F00S00C0.01500
T3F00S00C0.02800
T4F00S00C0.03543
T5F00S00C0.05500
T6F00S00C0.08000
;TYPE=NON_PLATED
T7F00S00C0.11811
%
T01
X00065Y00063
X00135Y00387
X00163
X00192
X00268Y00378
X00318
X00368
X00383Y00514
X00343
Y00554
Y00594
Y00634
X00303
Y00594
Y00554
Y00514
X00263
Y00554
Y00594
Y00634
X00383
X00423
Y00594
X00383
Y00554
X00423
Y00514
X00059Y00703
X00586Y00037
X01051Y00042
X01094Y00539
X01295Y00554
X01572Y00124
X02316Y00144
X02772Y00041
X03253Y0005
X03777Y00041
X03894Y00352
X03676Y00528
X03423Y00724
X02982Y00726
X04251Y00307
X04298Y0006
X05006Y00058
X05627Y00055
X05133Y00761
X04668Y00619
X04674Y00521
X06203Y00598
X06192Y00106
X06199Y01019
X06201Y01458
X06196Y01966
X061778Y020952
X0619945Y0217187
Y0221518
X0615615
Y0217187
X0628Y02164
X0619748Y0229451
X0613243Y0229457
X06059Y02254
Y02134
X06018Y0198
X05723Y01716
X05421Y01661
X05482Y01418
X05148Y01773
X05115Y02241
X05564Y02215
X04757Y01895
X04626Y01852
X04579Y01907
X04504Y02133
X04253Y01926
X04202Y01481
X04344Y01322
X04402Y01348
X04452Y0127
X04502Y01382
X04602Y01523
X04673
X04298Y0126
X04579Y0078
X03879Y00913
X0368Y00911
Y01268
X0377Y0127
X03832Y01382
X03902Y01438
X04002Y01481
X04103Y01482
X03805Y01721
X03733Y01799
X03757Y01916
X04Y02129
X0328Y01912
X02774Y01909
X02693Y01495
X02644
X02778Y01273
X03273Y01274
X02567Y0149
X02565Y01609
X02486
X02488Y01737
X02342
X02293Y01751
X02362Y01845
X02393Y01844
X02271Y01913
X02179Y01609
X02193Y01453
X02157Y01408
X02245
X02317
X02368
X02442Y01495
X02093Y01453
X02042Y01495
X01942Y01482
X01864Y01485
X01854Y01579
X0192Y0161
X01832Y01667
X01783
X01693Y01703
X01637Y0171
X01642Y01681
X01542Y01693
X01468Y01691
X01483Y01609
X01489Y01557
X01493Y01507
X01542Y01565
X01593
X01412Y01557
X01368Y01616
X01282Y01579
X01239
X01193Y01558
Y0147
X01242Y01437
X01291Y01422
X01342Y01424
X01393Y01437
X01392Y01762
X01442
Y01811
X0134Y01775
X01332Y01718
X01242Y0174
X01231Y01677
X01142Y01644
Y01768
Y0181
X01096Y01861
X01336Y01857
X01764Y01882
X01742Y01809
X01957Y01752
X01992Y01753
X0099657Y0176194
X00997Y01795
X00909Y01792
X0090883Y0176186
X0092955Y0167918
X0097285
Y0163587
X0092955
X009542Y015532
X00954Y01524
Y0143
X00882Y01475
X00806Y01598
Y01718
X00823Y01784
X00693Y0188
X0062Y01472
X00423Y01477
Y01517
Y01557
X00383
X00343
Y01517
Y01477
Y01437
X00303
X00263
Y01477
X00303
Y01517
X00263
Y01557
X00303
X00383Y01517
Y01477
Y01437
X00423
X00368Y01301
X00318
X00268
X00192Y0131
X00163
X00135
X00062Y01177
X00828Y01095
X00936Y01091
X00965
X00993
X01066Y0115
X01052Y01628
Y0168705
X00554Y0225
X00368Y02276
X00318
X00268
X00192Y02285
X00163
X00135
X00053Y02124
X00693Y0078
X00423Y02412
Y02452
Y02492
Y02532
X00383
X00343
Y02492
Y02452
Y02412
X00303
X00263
Y02452
X00303
Y02492
X00263
Y02532
X00303
X00383Y02492
Y02452
Y02412
X00054Y02725
X00059Y03185
X00583Y03178
X01069Y03183
X00895Y02565
X01797Y02566
X01575Y03188
X02079Y03185
X02774Y03183
X03166Y03186
X03568Y03183
X04047Y0318
X02914Y02758
X02919Y02609
X04496Y03182
X05019
X05494Y03181
X05613Y02755
X05568Y02644
X05616Y02504
X05137Y02521
X05135Y02811
X05951Y03172
X06242Y03144
X06197Y02488
X06124Y02361
T02
X0038Y0008
X0035Y0015
X0038Y0022
X0045Y0025
X0052Y0022
X0055Y0015
X0052Y0008
X0045Y0005
X04732Y0008
X04702Y0015
X04732Y0022
X04802Y0025
X04872Y0022
X04902Y0015
X04872Y0008
X04802Y0005
X0047Y03008
X005Y03078
X0047Y03148
X004Y03178
X0033Y03148
X003Y03078
X0033Y03008
X004Y02978
X04732Y03008
X04702Y03078
X04732Y03148
X04802Y03178
X04872Y03148
X04902Y03078
X04872Y03008
X04802Y02978
T03
X00772Y01411
Y01511
T04
X00642Y00364
Y00464
X00742
Y00364
X00842
Y00464
X00942
Y00364
X01042
Y00464
Y00614
Y00714
X00942
Y00614
X00842
Y00714
X00742
Y00614
X00642
Y00714
X01142
X01242
X01342
X01442
X01542
X01642
X01742
X01842
X01942
X02042
X02142
X02242
X02342
X02442
X02542
Y00614
X02442
X02342
X02242
X02142
X02042
X01942
X01842
X01742
X01642
X01542
X01442
X01342
X01242
X01142
Y00464
Y00364
X01242
Y00464
X01342
Y00364
X01442
Y00464
X01542
Y00364
X01642
Y00464
X01742
Y00364
X01842
Y00464
X01942
Y00364
X02042
Y00464
X02142
Y00364
X02242
Y00464
X02342
Y00364
X02442
Y00464
X02542
Y00364
X02642
Y00464
X02742
Y00364
X02842
Y00464
Y00614
Y00714
X02742
Y00614
X02642
Y00714
X03881Y00577
Y00477
X03981
Y00577
X04081
Y00477
X04181
Y00577
X04281
Y00477
X04381
Y00577
X04481
Y00477
X04581
Y00577
X0530338Y0056028
Y0046028
Y0036028
Y0026028
X0540338
Y0036028
Y0046028
Y0056028
Y0066028
X0530338
Y0076028
X0540338
X0585476Y0076028
Y0066028
Y0056028
Y0046028
Y0036028
Y0026028
X0595476
Y0036028
Y0046028
Y0056028
Y0066028
Y0076028
Y0086028
X0585476
X0585495Y0096028
Y0106028
Y0116028
Y0126028
Y0136028
Y0146028
Y0156028
Y0166028
Y0176028
Y0186028
Y0196028
Y0206028
Y0216028
Y0226028
X0595495
Y0216028
Y0206028
Y0196028
Y0186028
Y0176028
Y0166028
Y0156028
Y0146028
Y0136028
Y0126028
Y0116028
Y0106028
Y0096028
X0540338Y0086028
X0530338
X04579Y00891
X04479
X04379
X04279
Y00991
X04379
X04479
X04579
X04552Y01982
X04452
X04352
Y02082
Y0217964
X04452
Y02082
X04552
Y0217964
X04652
Y02082
Y01982
X04152
X04052
X03952
X03852
Y02082
Y0217964
X03952
Y02082
X04052
Y0217964
X04152
Y02082
X04179Y00991
X04079
X03979
Y00891
X04079
X04179
X02842Y00864
X02742
X02642
Y00964
X02742
X02842
Y02264
X02742
X02642
X02542
X02442
X02342
X02242
X02142
X02042
X01942
X01842
X01742
X01642
X01542
X01442
X01342
X01242
X01142
Y00964
Y00864
X01242
Y00964
X01342
Y00864
X01442
Y00964
X01542
Y00864
X01642
Y00964
X01742
Y00864
X01842
Y00964
X01942
Y00864
X02042
Y00964
X02142
Y00864
X02242
Y00964
X02342
Y00864
X02442
Y00964
X02542
Y00864
X01042
X00942
X00842
X00742
X00642
Y00964
X00742
X00842
X00942
X01042
Y02264
X00942
X00842
X00742
X00642
Y02364
X00742
X00842
X00942
X01042
Y02514
Y02614
X00942
Y02514
X00842
Y02614
X00742
Y02514
X00642
Y02614
Y02764
Y02864
X00742
Y02764
X00842
Y02864
X00942
Y02764
X01042
Y02864
X01142
Y02764
X01242
Y02864
X01342
Y02764
X01442
Y02864
X01542
Y02764
X01642
Y02864
X01742
Y02764
X01842
Y02864
X01942
Y02764
X02042
Y02864
X02142
Y02764
X02242
Y02864
X02342
Y02764
X02442
Y02864
X02542
Y02764
Y02614
Y02514
X02442
Y02614
X02342
Y02514
X02242
Y02614
X02142
Y02514
X02042
Y02614
X01942
Y02514
X01842
Y02614
X01742
Y02514
X01642
Y02614
X01542
Y02514
X01442
Y02614
X01342
Y02514
X01242
Y02614
X01142
Y02514
Y02364
X01242
X01342
X01442
X01542
X01642
X01742
X01842
X01942
X02042
X02142
X02242
X02342
X02442
X02542
X02642
X02742
X02842
Y02514
Y02614
X02742
Y02514
X02642
Y02614
Y02764
Y02864
X02742
Y02764
X02842
Y02864
X0530338Y0286028
Y0296028
X0540338
Y0286028
Y0276028
X0530338
Y0266028
X0540338
Y0256028
X0530338
Y0246028
X0540338
Y0236028
X0530338
X0585495
X0595495
Y0246028
X0585495
Y0256028
X0595495
Y0266028
X0585495
Y0276028
X0595495
Y0286028
X0585495
Y0296028
X0595495
T05
X00147Y00834
X00347
Y01757
X00147
Y02732
X00347
X03222
X03422
T06
X04995Y01155
X00579Y01762
T07
X0045Y0015
X04802
X004Y03078
X04802
M30
