M48
;Layer_Color=9474304
;FILE_FORMAT=2:5
INCH,LZ
;TYPE=PLATED
T1F00S00C0.01000
T2F00S00C0.01500
T3F00S00C0.03543
T4F00S00C0.03800
T5F00S00C0.05500
T6F00S00C0.08000
T7F00S00C0.08700
;TYPE=NON_PLATED
T8F00S00C0.11811
%
T01
X00065Y00063
X00135Y00387
X00163
X00192
X00268Y00378
X00318
X00368
X00383Y00514
X00423
Y00554
X00383
Y00594
X00423
Y00634
X00383
X00343
X00303
X00263
Y00594
X00303
Y00554
X00263
Y00514
X00303
X00343
Y00554
Y00594
X0061Y00709
X00609Y00462
X00862Y00461
X00907Y00181
X00831Y00059
X00059Y00703
X01094Y00505
X01388Y00188
X01391Y00064
X01821Y00062
X01817Y00183
X02281Y00182
X02284Y00064
X0275Y00056
X03253Y0005
X03299Y00533
X03499
X0371322Y00499
X03894Y00352
X03933Y00618
X04132Y00626
X03776Y00062
X02923Y00585
X02879Y006
Y0063
Y0066
Y00689
X02837Y00695
Y00666
Y00724
X027807Y00735
Y00706
Y00677
X02741Y007
X02817Y00627
X04332
X04532
X04668Y00619
X04674Y00521
X04807Y00484
X04843Y00536
X0488938Y00584
X04938Y00635
X04987Y00686
X05169Y00685
X05122Y00635
X05068Y00584
X05019Y00535
X04967Y00484
X04917Y00435
X0487006Y00385
X04815Y0032576
X04766Y00436
X04638Y00306
X04608Y00165
X04298Y0006
X04251Y00307
X05006Y00058
X05627Y00055
X05643Y00422
X05642Y00537
Y00638
X05547Y0036
X06203Y00598
X06192Y00106
X06199Y01019
X06201Y01458
X06196Y01966
X061778Y020952
X0619945Y0217187
X0615615
Y0221518
X0619945
X0619748Y0229451
X0613243Y0229457
X06059Y02254
Y02134
X06018Y0198
X05901Y01912
Y01723
X0628Y02164
X05594Y02266
X05115Y02241
X05088Y01747
X05412Y01636
X0551Y01617
X05599Y01605
X057Y01598
X05682Y00897
X05657Y00823
X05463Y00813
X04516Y00838
X04493Y01299
X0444Y01273
X04386Y01223
X04675Y01176
X04702Y01497
X04602
X04576Y01929
X04676
X0478Y01905
X04474Y01928
X04376Y01929
X04254Y0194
X04246Y02082
X04502Y02157
X04202Y01406
X04103
X04002
X03902Y01351
X03869Y01248
X03771Y01237
X03689Y01227
X03598Y0123
X03533Y01232
X0357Y01406
X03627Y01366
X03441Y01442
X03394Y01429
X03302Y01481
X03155Y01467
Y01542
X031Y01508
Y01595
X03224Y01602
X03184Y0167
X03268Y01674
X0331
X03324Y01718
X03377Y01674
X03462Y01549
X03501Y0151
X03205Y01359
X03155Y01286
Y01257
Y01228
X03086
Y01257
Y01286
X03029
Y01257
Y01228
X0295988Y0122788
X0296Y01257
Y01286
X02961Y01314
X0290673Y0114527
X0299335Y0110196
X0303665
Y0105865
X0307996
Y0101535
X0303665
Y0097204
X0299335
Y0101535
X0295004
Y0105865
X0299335
X0312327Y0114527
X03268Y0117
Y012
X03335Y01005
X0339
Y0095
X03356
X03341Y00905
X03312
X03282
X0312327Y0092873
X0310297Y008576
X03061Y00832
X0290673Y0092873
X02673Y01029
X02643
X02746Y01391
Y01433
X0284Y01481
X02828Y01605
X02802Y0168
X02707Y01679
X02694Y01647
X02651Y01624
X02665Y01723
X02802Y0183
X02798Y01893
X02782Y02023
Y02053
X02922Y02083
X02925Y01955
X0296Y01872
X02972Y01775
X03001
X0303
X031
X03129Y01798
X03268Y01796
X03173Y01954
X03186Y02182
X03051Y02139
X03297Y02115
X03513Y01959
X03649Y02083
X03644Y0221815
X04002Y02206
X03973Y01927
X03877
X03803Y01928
X03734Y01851
X0381Y01679
X04076Y01927
X04175
X03831Y01141
X03805Y01047
X03733Y01068
X03712Y00984
X0344Y01089
X0343007Y00778
X03948Y00802
X02959Y01611
X02973Y01642
X02639Y01569
X02626Y01537
X02612Y01412
X02451Y01362
X02497Y01582
X0256348Y01702
X02626Y01723
X02369Y01743
X02365Y01654
X02533Y01156
X0257Y01082
X02599
X02629Y0108237
X02613Y01029
X02532Y00973
X02138Y00871
X01519Y00881
X01618Y01664
X0162Y01739
X01052Y0168705
Y01628
X0097285Y0163587
X0092955
Y0167918
X0097285
X00997Y01795
X0090883Y0176186
X00919Y01863
X00693Y0188
X00614Y01978
X00608Y02194
X00368Y02276
X00318
X00268
X00192Y02285
X00163
X00135
X00053Y02124
Y01629
X00263Y01557
X00303
Y01517
X00263
Y01477
X00303
Y01437
X00263
X00343
X00383
X00423
Y01477
X00383
Y01517
X00423
Y01557
X00383
X00343
Y01517
Y01477
X00318Y01301
X00268
X00192Y0131
X00163
X00135
X00062Y01177
X00368Y01301
X00615Y01176
X0062Y01472
X00882Y01475
X00954Y0143
X009542Y015532
X00806Y01598
X0085Y01659
X00806Y01718
X00858Y013005
X00883Y0086
X00891Y02309
X00608Y02408
X00423Y02412
X00383
Y02452
X00423
Y02492
X00383
Y02532
X00423
X00343
X00303
X00263
Y02492
X00303
Y02452
X00263
Y02412
X00303
X00343
Y02452
Y02492
X00612Y02654
X00604Y028
X00583Y03178
X01069Y03183
X00059Y03185
X00054Y02725
X0172Y02485
X01575Y03188
X02079Y03185
X02606Y02617
X02774Y03183
X03166Y03186
X03568Y03183
X04047Y0318
X03541Y0262
X04513Y0244
X05137Y02521
X05135Y02811
X05019Y03182
X05494Y03181
X05588Y02759
X0549Y02632
X05646Y02575
X04496Y03182
X05951Y03172
X06242Y03144
X06197Y02488
X06124Y02361
T02
X0038Y0008
X0045Y0005
X0052Y0008
X0055Y0015
X0052Y0022
X0045Y0025
X0038Y0022
X0035Y0015
X02848Y00508
X0306975
X03056Y00554
X03126Y00588
Y0069
X03146Y00751
X03076Y00744
X03025Y0069
X031863Y007107
X03235Y00711
X03333Y00309
X03374Y0030905
X04732Y0022
X04802Y0025
X04872Y0022
X04902Y0015
X04872Y0008
X04802Y0005
X04732Y0008
X04702Y0015
X05097Y0076
X05114Y00843
X05073
X05133Y0088
X05092Y01133
X04796Y01046
X04735
X0483Y01012
Y00953
Y00894
X04797Y0086028
X04735Y0086
X03235Y00822
Y00783
X03222Y01108
X03319Y0111613
X02813Y01166
X02711
X02709Y01029
Y00977
X02807Y0102913
X02844Y012437
X02886Y01244
Y01341
X02844Y013407
X0271Y00781
X0256348Y0121852
X0223915Y0141715
X0223985Y0145485
X00803Y01484
X0047Y03008
X004Y02978
X0033Y03008
X003Y03078
X0033Y03148
X004Y03178
X0047Y03148
X005Y03078
X04702
X04732Y03148
X04802Y03178
X04872Y03148
X04902Y03078
X04872Y03008
X04802Y02978
X04732Y03008
T03
X0335Y00475
X0345
X0355
X0365
Y00575
X0355
X0345
X0335
X03881Y00577
X03981
X04081
X04181
Y00477
X04081
X03981
X03881
X04281
X04381
X04481
X04581
Y00577
X04481
X04381
X04281
X0530338Y0056028
Y0066028
Y0076028
X0540338
Y0066028
Y0056028
Y0046028
X0530338
Y0036028
X0540338
Y0026028
X0530338
X0585476Y0026028
Y0036028
Y0046028
Y0056028
Y0066028
Y0076028
X0595476
Y0066028
Y0056028
Y0046028
Y0036028
Y0026028
Y0086028
X0585476
X0585495Y0096028
X0595495
Y0106028
X0585495
Y0116028
X0595495
Y0126028
X0585495
Y0136028
X0595495
Y0146028
X0585495
Y0156028
X0595495
Y0166028
X0585495
Y0176028
X0595495
Y0186028
X0585495
Y0196028
X0595495
Y0206028
X0585495
Y0216028
X0595495
Y0226028
X0585495
X04652Y0217964
Y02082
Y01982
X04552
Y02082
Y0217964
X04452
Y02082
Y01982
X04352
Y02082
Y0217964
X04655Y0099979
Y0089979
X0530338Y0086028
X0540338
X04152Y01982
Y02082
Y0217964
X04052
Y02082
Y01982
X03952
Y02082
Y0217964
X03852
Y02082
Y01982
X0530338Y0236028
X0540338
Y0246028
X0530338
Y0256028
X0540338
Y0266028
X0530338
Y0276028
X0540338
Y0286028
X0530338
Y0296028
X0540338
X0585495
X0595495
Y0286028
X0585495
Y0276028
X0595495
Y0266028
X0585495
Y0256028
X0595495
Y0246028
X0585495
Y0236028
X0595495
T04
X0292101Y00347
Y00426
X0302022
Y00347
T05
X00147Y00834
X00347
Y01757
X00147
Y02732
X00347
X008
X01
T06
X00579Y01762
X04244Y02767
T07
X02734Y0024
X0320722
T08
X0045Y0015
X04802
X004Y03078
X04802
M30
