G04*
G04 #@! TF.GenerationSoftware,Altium Limited,Altium Designer,18.1.6 (161)*
G04*
G04 Layer_Color=2752767*
%FSLAX25Y25*%
%MOIN*%
G70*
G01*
G75*
%ADD13C,0.01000*%
%ADD14C,0.00600*%
%ADD16C,0.00200*%
%ADD153C,0.00267*%
G54D13*
X0Y-8100D02*
X6000Y-6100D01*
X0Y-8100D02*
X6000Y-10100D01*
X626500D02*
X632500Y-8100D01*
X626500Y-6100D02*
X632500Y-8100D01*
X0D02*
X291057D01*
X338243D02*
X632500D01*
X0Y-9100D02*
Y-1100D01*
X632500Y-9100D02*
Y-1100D01*
X-13500Y6000D02*
X-11500Y0D01*
X-9500Y6000D01*
X-11500Y322800D02*
X-9500Y316800D01*
X-13500D02*
X-11500Y322800D01*
Y0D02*
Y139206D01*
Y180394D02*
Y322800D01*
X-12500Y0D02*
X-1100D01*
X-12500Y322800D02*
X-1100D01*
G54D14*
X292657Y-11699D02*
X294656D01*
X293657D01*
Y-5701D01*
X292657Y-6701D01*
X301654Y-5701D02*
X299655Y-6701D01*
X297656Y-8700D01*
Y-10699D01*
X298655Y-11699D01*
X300655D01*
X301654Y-10699D01*
Y-9700D01*
X300655Y-8700D01*
X297656D01*
X303654Y-6701D02*
X304653Y-5701D01*
X306653D01*
X307652Y-6701D01*
Y-10699D01*
X306653Y-11699D01*
X304653D01*
X303654Y-10699D01*
Y-6701D01*
X309652Y-11699D02*
Y-10699D01*
X310651D01*
Y-11699D01*
X309652D01*
X318649Y-5701D02*
X316649Y-6701D01*
X314650Y-8700D01*
Y-10699D01*
X315650Y-11699D01*
X317649D01*
X318649Y-10699D01*
Y-9700D01*
X317649Y-8700D01*
X314650D01*
X324647Y-5701D02*
X322647Y-6701D01*
X320648Y-8700D01*
Y-10699D01*
X321648Y-11699D01*
X323647D01*
X324647Y-10699D01*
Y-9700D01*
X323647Y-8700D01*
X320648D01*
X326646Y-11699D02*
Y-7700D01*
X327646D01*
X328645Y-8700D01*
Y-11699D01*
Y-8700D01*
X329645Y-7700D01*
X330645Y-8700D01*
Y-11699D01*
X332644D02*
Y-7700D01*
X333644D01*
X334644Y-8700D01*
Y-11699D01*
Y-8700D01*
X335643Y-7700D01*
X336643Y-8700D01*
Y-11699D01*
X-12899Y140806D02*
X-13899Y141806D01*
Y143805D01*
X-12899Y144805D01*
X-11900D01*
X-10900Y143805D01*
X-9900Y144805D01*
X-8901D01*
X-7901Y143805D01*
Y141806D01*
X-8901Y140806D01*
X-9900D01*
X-10900Y141806D01*
X-11900Y140806D01*
X-12899D01*
X-10900Y141806D02*
Y143805D01*
X-7901Y146804D02*
Y148803D01*
Y147804D01*
X-13899D01*
X-12899Y146804D01*
X-7901Y151803D02*
X-8901D01*
Y152802D01*
X-7901D01*
Y151803D01*
X-8901Y156801D02*
X-7901Y157801D01*
Y159800D01*
X-8901Y160800D01*
X-12899D01*
X-13899Y159800D01*
Y157801D01*
X-12899Y156801D01*
X-11900D01*
X-10900Y157801D01*
Y160800D01*
X-8901Y162799D02*
X-7901Y163799D01*
Y165798D01*
X-8901Y166798D01*
X-12899D01*
X-13899Y165798D01*
Y163799D01*
X-12899Y162799D01*
X-11900D01*
X-10900Y163799D01*
Y166798D01*
X-7901Y168797D02*
X-11900D01*
Y169797D01*
X-10900Y170796D01*
X-7901D01*
X-10900D01*
X-11900Y171796D01*
X-10900Y172796D01*
X-7901D01*
Y174795D02*
X-11900D01*
Y175795D01*
X-10900Y176795D01*
X-7901D01*
X-10900D01*
X-11900Y177794D01*
X-10900Y178794D01*
X-7901D01*
G54D16*
X301222Y41800D02*
Y43400D01*
X302822D01*
Y41800D01*
X301222D01*
X291301D02*
Y43400D01*
X292901D01*
Y41800D01*
X291301D01*
Y33900D02*
Y35500D01*
X292901D01*
Y33900D01*
X291301D01*
X301222D02*
Y35500D01*
X302822D01*
Y33900D01*
X301222D01*
X465500Y99179D02*
X464700Y100779D01*
X466300D01*
X465500Y99179D01*
Y89179D02*
X464700Y90779D01*
X466300D01*
X465500Y89179D01*
X365000Y46700D02*
X364200Y48300D01*
X365800D01*
X365000Y46700D01*
Y56700D02*
X364200Y58300D01*
X365800D01*
X365000Y56700D01*
X355000Y46700D02*
X354200Y48300D01*
X355800D01*
X355000Y46700D01*
Y56700D02*
X354200Y58300D01*
X355800D01*
X355000Y56700D01*
X345000Y46700D02*
X344200Y48300D01*
X345800D01*
X345000Y46700D01*
Y56700D02*
X344200Y58300D01*
X345800D01*
X345000Y56700D01*
X335000Y46700D02*
X334200Y48300D01*
X335800D01*
X335000Y46700D01*
Y56700D02*
X334200Y58300D01*
X335800D01*
X335000Y56700D01*
X465200Y197400D02*
X464400Y199000D01*
X466000D01*
X465200Y197400D01*
Y207400D02*
X464400Y209000D01*
X466000D01*
X465200Y207400D01*
Y217164D02*
X464400Y218764D01*
X466000D01*
X465200Y217164D01*
X455200Y197400D02*
X454400Y199000D01*
X456000D01*
X455200Y197400D01*
Y207400D02*
X454400Y209000D01*
X456000D01*
X455200Y207400D01*
Y217164D02*
X454400Y218764D01*
X456000D01*
X455200Y217164D01*
X445200Y197400D02*
X444400Y199000D01*
X446000D01*
X445200Y197400D01*
Y207400D02*
X444400Y209000D01*
X446000D01*
X445200Y207400D01*
Y217164D02*
X444400Y218764D01*
X446000D01*
X445200Y217164D01*
X435200Y197400D02*
X434400Y199000D01*
X436000D01*
X435200Y197400D01*
Y207400D02*
X434400Y209000D01*
X436000D01*
X435200Y207400D01*
Y217164D02*
X434400Y218764D01*
X436000D01*
X435200Y217164D01*
X415200Y197400D02*
X414400Y199000D01*
X416000D01*
X415200Y197400D01*
Y207400D02*
X414400Y209000D01*
X416000D01*
X415200Y207400D01*
Y217164D02*
X414400Y218764D01*
X416000D01*
X415200Y217164D01*
X405200Y197400D02*
X404400Y199000D01*
X406000D01*
X405200Y197400D01*
Y207400D02*
X404400Y209000D01*
X406000D01*
X405200Y207400D01*
Y217164D02*
X404400Y218764D01*
X406000D01*
X405200Y217164D01*
X395200Y197400D02*
X394400Y199000D01*
X396000D01*
X395200Y197400D01*
Y207400D02*
X394400Y209000D01*
X396000D01*
X395200Y207400D01*
Y217164D02*
X394400Y218764D01*
X396000D01*
X395200Y217164D01*
X385200Y197400D02*
X384400Y199000D01*
X386000D01*
X385200Y197400D01*
Y207400D02*
X384400Y209000D01*
X386000D01*
X385200Y207400D01*
Y217164D02*
X384400Y218764D01*
X386000D01*
X385200Y217164D01*
X57900Y175400D02*
X58300Y175800D01*
X58700D01*
X58300Y176200D01*
X58700Y176600D01*
X58300D01*
X57900Y177000D01*
X57500Y176600D01*
X57100D01*
X57500Y176200D01*
X57100Y175800D01*
X57500D01*
X57900Y175400D01*
X424400Y275900D02*
X424800Y276300D01*
X425200D01*
X424800Y276700D01*
X425200Y277100D01*
X424800D01*
X424400Y277500D01*
X424000Y277100D01*
X423600D01*
X424000Y276700D01*
X423600Y276300D01*
X424000D01*
X424400Y275900D01*
X79200Y272400D02*
X79600Y273200D01*
X79200Y274000D01*
X80000Y273600D01*
X80800Y274000D01*
X80400Y273200D01*
X80800Y272400D01*
X80000Y272800D01*
X79200Y272400D01*
X99200D02*
X99600Y273200D01*
X99200Y274000D01*
X100000Y273600D01*
X100800Y274000D01*
X100400Y273200D01*
X100800Y272400D01*
X100000Y272800D01*
X99200Y272400D01*
X13900Y82600D02*
X14300Y83400D01*
X13900Y84200D01*
X14700Y83800D01*
X15500Y84200D01*
X15100Y83400D01*
X15500Y82600D01*
X14700Y83000D01*
X13900Y82600D01*
X33900D02*
X34300Y83400D01*
X33900Y84200D01*
X34700Y83800D01*
X35500Y84200D01*
X35100Y83400D01*
X35500Y82600D01*
X34700Y83000D01*
X33900Y82600D01*
X13900Y174900D02*
X14300Y175700D01*
X13900Y176500D01*
X14700Y176100D01*
X15500Y176500D01*
X15100Y175700D01*
X15500Y174900D01*
X14700Y175300D01*
X13900Y174900D01*
X33900D02*
X34300Y175700D01*
X33900Y176500D01*
X34700Y176100D01*
X35500Y176500D01*
X35100Y175700D01*
X35500Y174900D01*
X34700Y175300D01*
X33900Y174900D01*
X13900Y272400D02*
X14300Y273200D01*
X13900Y274000D01*
X14700Y273600D01*
X15500Y274000D01*
X15100Y273200D01*
X15500Y272400D01*
X14700Y272800D01*
X13900Y272400D01*
X33900D02*
X34300Y273200D01*
X33900Y274000D01*
X34700Y273600D01*
X35500Y274000D01*
X35100Y273200D01*
X35500Y272400D01*
X34700Y272800D01*
X33900Y272400D01*
X458100Y56900D02*
X457300Y58500D01*
X458900D01*
X458100Y56900D01*
Y46900D02*
X457300Y48500D01*
X458900D01*
X458100Y46900D01*
X540338Y85228D02*
X539538Y86828D01*
X541138D01*
X540338Y85228D01*
X530338D02*
X529538Y86828D01*
X531138D01*
X530338Y85228D01*
X540338Y75228D02*
X539538Y76828D01*
X541138D01*
X540338Y75228D01*
X530338D02*
X529538Y76828D01*
X531138D01*
X530338Y75228D01*
X540338Y65228D02*
X539538Y66828D01*
X541138D01*
X540338Y65228D01*
X530338D02*
X529538Y66828D01*
X531138D01*
X530338Y65228D01*
X540338Y55228D02*
X539538Y56828D01*
X541138D01*
X540338Y55228D01*
X530338D02*
X529538Y56828D01*
X531138D01*
X530338Y55228D01*
X540338Y45228D02*
X539538Y46828D01*
X541138D01*
X540338Y45228D01*
X530338D02*
X529538Y46828D01*
X531138D01*
X530338Y45228D01*
X540338Y35228D02*
X539538Y36828D01*
X541138D01*
X540338Y35228D01*
X530338D02*
X529538Y36828D01*
X531138D01*
X530338Y35228D01*
X540338Y25228D02*
X539538Y26828D01*
X541138D01*
X540338Y25228D01*
X530338D02*
X529538Y26828D01*
X531138D01*
X530338Y25228D01*
Y235228D02*
X529538Y236828D01*
X531138D01*
X530338Y235228D01*
X540338D02*
X539538Y236828D01*
X541138D01*
X540338Y235228D01*
X530338Y245228D02*
X529538Y246828D01*
X531138D01*
X530338Y245228D01*
X540338D02*
X539538Y246828D01*
X541138D01*
X540338Y245228D01*
X530338Y255228D02*
X529538Y256828D01*
X531138D01*
X530338Y255228D01*
X540338D02*
X539538Y256828D01*
X541138D01*
X540338Y255228D01*
X530338Y265228D02*
X529538Y266828D01*
X531138D01*
X530338Y265228D01*
X540338D02*
X539538Y266828D01*
X541138D01*
X540338Y265228D01*
X530338Y275228D02*
X529538Y276828D01*
X531138D01*
X530338Y275228D01*
X540338D02*
X539538Y276828D01*
X541138D01*
X540338Y275228D01*
X530338Y285228D02*
X529538Y286828D01*
X531138D01*
X530338Y285228D01*
X540338D02*
X539538Y286828D01*
X541138D01*
X540338Y285228D01*
X530338Y295228D02*
X529538Y296828D01*
X531138D01*
X530338Y295228D01*
X540338D02*
X539538Y296828D01*
X541138D01*
X540338Y295228D01*
X595476Y85228D02*
X594676Y86828D01*
X596276D01*
X595476Y85228D01*
X585476D02*
X584676Y86828D01*
X586276D01*
X585476Y85228D01*
X595476Y75228D02*
X594676Y76828D01*
X596276D01*
X595476Y75228D01*
X585476D02*
X584676Y76828D01*
X586276D01*
X585476Y75228D01*
X595476Y65228D02*
X594676Y66828D01*
X596276D01*
X595476Y65228D01*
X585476D02*
X584676Y66828D01*
X586276D01*
X585476Y65228D01*
X595476Y55228D02*
X594676Y56828D01*
X596276D01*
X595476Y55228D01*
X585476D02*
X584676Y56828D01*
X586276D01*
X585476Y55228D01*
X595476Y45228D02*
X594676Y46828D01*
X596276D01*
X595476Y45228D01*
X585476D02*
X584676Y46828D01*
X586276D01*
X585476Y45228D01*
X595476Y35228D02*
X594676Y36828D01*
X596276D01*
X595476Y35228D01*
X585476D02*
X584676Y36828D01*
X586276D01*
X585476Y35228D01*
X595476Y25228D02*
X594676Y26828D01*
X596276D01*
X595476Y25228D01*
X585476D02*
X584676Y26828D01*
X586276D01*
X585476Y25228D01*
X585495Y95228D02*
X584695Y96828D01*
X586295D01*
X585495Y95228D01*
X595495D02*
X594695Y96828D01*
X596295D01*
X595495Y95228D01*
X585495Y105228D02*
X584695Y106828D01*
X586295D01*
X585495Y105228D01*
X595495D02*
X594695Y106828D01*
X596295D01*
X595495Y105228D01*
X585495Y115228D02*
X584695Y116828D01*
X586295D01*
X585495Y115228D01*
X595495D02*
X594695Y116828D01*
X596295D01*
X595495Y115228D01*
X585495Y125228D02*
X584695Y126828D01*
X586295D01*
X585495Y125228D01*
X595495D02*
X594695Y126828D01*
X596295D01*
X595495Y125228D01*
X585495Y135228D02*
X584695Y136828D01*
X586295D01*
X585495Y135228D01*
X595495D02*
X594695Y136828D01*
X596295D01*
X595495Y135228D01*
X585495Y145228D02*
X584695Y146828D01*
X586295D01*
X585495Y145228D01*
X595495D02*
X594695Y146828D01*
X596295D01*
X595495Y145228D01*
X585495Y155228D02*
X584695Y156828D01*
X586295D01*
X585495Y155228D01*
X595495D02*
X594695Y156828D01*
X596295D01*
X595495Y155228D01*
Y295228D02*
X594695Y296828D01*
X596295D01*
X595495Y295228D01*
X585495D02*
X584695Y296828D01*
X586295D01*
X585495Y295228D01*
X595495Y285228D02*
X594695Y286828D01*
X596295D01*
X595495Y285228D01*
X585495D02*
X584695Y286828D01*
X586295D01*
X585495Y285228D01*
X595495Y275228D02*
X594695Y276828D01*
X596295D01*
X595495Y275228D01*
X585495D02*
X584695Y276828D01*
X586295D01*
X585495Y275228D01*
X595495Y265228D02*
X594695Y266828D01*
X596295D01*
X595495Y265228D01*
X585495D02*
X584695Y266828D01*
X586295D01*
X585495Y265228D01*
X595495Y255228D02*
X594695Y256828D01*
X596295D01*
X595495Y255228D01*
X585495D02*
X584695Y256828D01*
X586295D01*
X585495Y255228D01*
X595495Y245228D02*
X594695Y246828D01*
X596295D01*
X595495Y245228D01*
X585495D02*
X584695Y246828D01*
X586295D01*
X585495Y245228D01*
X595495Y235228D02*
X594695Y236828D01*
X596295D01*
X595495Y235228D01*
X585495D02*
X584695Y236828D01*
X586295D01*
X585495Y235228D01*
Y165228D02*
X584695Y166828D01*
X586295D01*
X585495Y165228D01*
X595495D02*
X594695Y166828D01*
X596295D01*
X595495Y165228D01*
X585495Y175228D02*
X584695Y176828D01*
X586295D01*
X585495Y175228D01*
X595495D02*
X594695Y176828D01*
X596295D01*
X595495Y175228D01*
X585495Y185228D02*
X584695Y186828D01*
X586295D01*
X585495Y185228D01*
X595495D02*
X594695Y186828D01*
X596295D01*
X595495Y185228D01*
X585495Y195228D02*
X584695Y196828D01*
X586295D01*
X585495Y195228D01*
X595495D02*
X594695Y196828D01*
X596295D01*
X595495Y195228D01*
X585495Y205228D02*
X584695Y206828D01*
X586295D01*
X585495Y205228D01*
X595495D02*
X594695Y206828D01*
X596295D01*
X595495Y205228D01*
X585495Y215228D02*
X584695Y216828D01*
X586295D01*
X585495Y215228D01*
X595495D02*
X594695Y216828D01*
X596295D01*
X595495Y215228D01*
X585495Y225228D02*
X584695Y226828D01*
X586295D01*
X585495Y225228D01*
X595495D02*
X594695Y226828D01*
X596295D01*
X595495Y225228D01*
X448100Y56900D02*
X447300Y58500D01*
X448900D01*
X448100Y56900D01*
Y46900D02*
X447300Y48500D01*
X448900D01*
X448100Y46900D01*
X438100Y56900D02*
X437300Y58500D01*
X438900D01*
X438100Y56900D01*
Y46900D02*
X437300Y48500D01*
X438900D01*
X438100Y46900D01*
X428100Y56900D02*
X427300Y58500D01*
X428900D01*
X428100Y56900D01*
Y46900D02*
X427300Y48500D01*
X428900D01*
X428100Y46900D01*
X418100Y56900D02*
X417300Y58500D01*
X418900D01*
X418100Y56900D01*
Y46900D02*
X417300Y48500D01*
X418900D01*
X418100Y46900D01*
X408100Y56900D02*
X407300Y58500D01*
X408900D01*
X408100Y56900D01*
Y46900D02*
X407300Y48500D01*
X408900D01*
X408100Y46900D01*
X398100Y56900D02*
X397300Y58500D01*
X398900D01*
X398100Y56900D01*
Y46900D02*
X397300Y48500D01*
X398900D01*
X398100Y46900D01*
X388100Y56900D02*
X387300Y58500D01*
X388900D01*
X388100Y56900D01*
Y46900D02*
X387300Y48500D01*
X388900D01*
X388100Y46900D01*
X44600Y14600D02*
Y14200D01*
X45400D01*
Y14600D01*
X45800D01*
Y15400D01*
X45400D01*
Y15800D01*
X44600D01*
Y15400D01*
X44200D01*
Y14600D01*
X44600D01*
X44200Y4200D02*
X44600D01*
X45000Y4600D01*
X45400Y4200D01*
X45800D01*
Y4600D01*
X45400Y5000D01*
X45800Y5400D01*
Y5800D01*
X45400D01*
X45000Y5400D01*
X44600Y5800D01*
X44200D01*
Y5400D01*
X44600Y5000D01*
X44200Y4600D01*
Y4200D01*
Y24200D02*
X44600D01*
X45000Y24600D01*
X45400Y24200D01*
X45800D01*
Y24600D01*
X45400Y25000D01*
X45800Y25400D01*
Y25800D01*
X45400D01*
X45000Y25400D01*
X44600Y25800D01*
X44200D01*
Y25400D01*
X44600Y25000D01*
X44200Y24600D01*
Y24200D01*
X54200Y14200D02*
X54600D01*
X55000Y14600D01*
X55400Y14200D01*
X55800D01*
Y14600D01*
X55400Y15000D01*
X55800Y15400D01*
Y15800D01*
X55400D01*
X55000Y15400D01*
X54600Y15800D01*
X54200D01*
Y15400D01*
X54600Y15000D01*
X54200Y14600D01*
Y14200D01*
X34200D02*
X34600D01*
X35000Y14600D01*
X35400Y14200D01*
X35800D01*
Y14600D01*
X35400Y15000D01*
X35800Y15400D01*
Y15800D01*
X35400D01*
X35000Y15400D01*
X34600Y15800D01*
X34200D01*
Y15400D01*
X34600Y15000D01*
X34200Y14600D01*
Y14200D01*
X37200Y21200D02*
X37600D01*
X38000Y21600D01*
X38400Y21200D01*
X38800D01*
Y21600D01*
X38400Y22000D01*
X38800Y22400D01*
Y22800D01*
X38400D01*
X38000Y22400D01*
X37600Y22800D01*
X37200D01*
Y22400D01*
X37600Y22000D01*
X37200Y21600D01*
Y21200D01*
X51200D02*
X51600D01*
X52000Y21600D01*
X52400Y21200D01*
X52800D01*
Y21600D01*
X52400Y22000D01*
X52800Y22400D01*
Y22800D01*
X52400D01*
X52000Y22400D01*
X51600Y22800D01*
X51200D01*
Y22400D01*
X51600Y22000D01*
X51200Y21600D01*
Y21200D01*
Y7200D02*
X51600D01*
X52000Y7600D01*
X52400Y7200D01*
X52800D01*
Y7600D01*
X52400Y8000D01*
X52800Y8400D01*
Y8800D01*
X52400D01*
X52000Y8400D01*
X51600Y8800D01*
X51200D01*
Y8400D01*
X51600Y8000D01*
X51200Y7600D01*
Y7200D01*
X37200D02*
X37600D01*
X38000Y7600D01*
X38400Y7200D01*
X38800D01*
Y7600D01*
X38400Y8000D01*
X38800Y8400D01*
Y8800D01*
X38400D01*
X38000Y8400D01*
X37600Y8800D01*
X37200D01*
Y8400D01*
X37600Y8000D01*
X37200Y7600D01*
Y7200D01*
X39600Y307400D02*
Y307000D01*
X40400D01*
Y307400D01*
X40800D01*
Y308200D01*
X40400D01*
Y308600D01*
X39600D01*
Y308200D01*
X39200D01*
Y307400D01*
X39600D01*
X39200Y297000D02*
X39600D01*
X40000Y297400D01*
X40400Y297000D01*
X40800D01*
Y297400D01*
X40400Y297800D01*
X40800Y298200D01*
Y298600D01*
X40400D01*
X40000Y298200D01*
X39600Y298600D01*
X39200D01*
Y298200D01*
X39600Y297800D01*
X39200Y297400D01*
Y297000D01*
Y317000D02*
X39600D01*
X40000Y317400D01*
X40400Y317000D01*
X40800D01*
Y317400D01*
X40400Y317800D01*
X40800Y318200D01*
Y318600D01*
X40400D01*
X40000Y318200D01*
X39600Y318600D01*
X39200D01*
Y318200D01*
X39600Y317800D01*
X39200Y317400D01*
Y317000D01*
X49200Y307000D02*
X49600D01*
X50000Y307400D01*
X50400Y307000D01*
X50800D01*
Y307400D01*
X50400Y307800D01*
X50800Y308200D01*
Y308600D01*
X50400D01*
X50000Y308200D01*
X49600Y308600D01*
X49200D01*
Y308200D01*
X49600Y307800D01*
X49200Y307400D01*
Y307000D01*
X29200D02*
X29600D01*
X30000Y307400D01*
X30400Y307000D01*
X30800D01*
Y307400D01*
X30400Y307800D01*
X30800Y308200D01*
Y308600D01*
X30400D01*
X30000Y308200D01*
X29600Y308600D01*
X29200D01*
Y308200D01*
X29600Y307800D01*
X29200Y307400D01*
Y307000D01*
X32200Y314000D02*
X32600D01*
X33000Y314400D01*
X33400Y314000D01*
X33800D01*
Y314400D01*
X33400Y314800D01*
X33800Y315200D01*
Y315600D01*
X33400D01*
X33000Y315200D01*
X32600Y315600D01*
X32200D01*
Y315200D01*
X32600Y314800D01*
X32200Y314400D01*
Y314000D01*
X46200D02*
X46600D01*
X47000Y314400D01*
X47400Y314000D01*
X47800D01*
Y314400D01*
X47400Y314800D01*
X47800Y315200D01*
Y315600D01*
X47400D01*
X47000Y315200D01*
X46600Y315600D01*
X46200D01*
Y315200D01*
X46600Y314800D01*
X46200Y314400D01*
Y314000D01*
Y300000D02*
X46600D01*
X47000Y300400D01*
X47400Y300000D01*
X47800D01*
Y300400D01*
X47400Y300800D01*
X47800Y301200D01*
Y301600D01*
X47400D01*
X47000Y301200D01*
X46600Y301600D01*
X46200D01*
Y301200D01*
X46600Y300800D01*
X46200Y300400D01*
Y300000D01*
X32200D02*
X32600D01*
X33000Y300400D01*
X33400Y300000D01*
X33800D01*
Y300400D01*
X33400Y300800D01*
X33800Y301200D01*
Y301600D01*
X33400D01*
X33000Y301200D01*
X32600Y301600D01*
X32200D01*
Y301200D01*
X32600Y300800D01*
X32200Y300400D01*
Y300000D01*
X479800Y14600D02*
Y14200D01*
X480600D01*
Y14600D01*
X481000D01*
Y15400D01*
X480600D01*
Y15800D01*
X479800D01*
Y15400D01*
X479400D01*
Y14600D01*
X479800D01*
X479400Y4200D02*
X479800D01*
X480200Y4600D01*
X480600Y4200D01*
X481000D01*
Y4600D01*
X480600Y5000D01*
X481000Y5400D01*
Y5800D01*
X480600D01*
X480200Y5400D01*
X479800Y5800D01*
X479400D01*
Y5400D01*
X479800Y5000D01*
X479400Y4600D01*
Y4200D01*
Y24200D02*
X479800D01*
X480200Y24600D01*
X480600Y24200D01*
X481000D01*
Y24600D01*
X480600Y25000D01*
X481000Y25400D01*
Y25800D01*
X480600D01*
X480200Y25400D01*
X479800Y25800D01*
X479400D01*
Y25400D01*
X479800Y25000D01*
X479400Y24600D01*
Y24200D01*
X489400Y14200D02*
X489800D01*
X490200Y14600D01*
X490600Y14200D01*
X491000D01*
Y14600D01*
X490600Y15000D01*
X491000Y15400D01*
Y15800D01*
X490600D01*
X490200Y15400D01*
X489800Y15800D01*
X489400D01*
Y15400D01*
X489800Y15000D01*
X489400Y14600D01*
Y14200D01*
X469400D02*
X469800D01*
X470200Y14600D01*
X470600Y14200D01*
X471000D01*
Y14600D01*
X470600Y15000D01*
X471000Y15400D01*
Y15800D01*
X470600D01*
X470200Y15400D01*
X469800Y15800D01*
X469400D01*
Y15400D01*
X469800Y15000D01*
X469400Y14600D01*
Y14200D01*
X472400Y21200D02*
X472800D01*
X473200Y21600D01*
X473600Y21200D01*
X474000D01*
Y21600D01*
X473600Y22000D01*
X474000Y22400D01*
Y22800D01*
X473600D01*
X473200Y22400D01*
X472800Y22800D01*
X472400D01*
Y22400D01*
X472800Y22000D01*
X472400Y21600D01*
Y21200D01*
X486400D02*
X486800D01*
X487200Y21600D01*
X487600Y21200D01*
X488000D01*
Y21600D01*
X487600Y22000D01*
X488000Y22400D01*
Y22800D01*
X487600D01*
X487200Y22400D01*
X486800Y22800D01*
X486400D01*
Y22400D01*
X486800Y22000D01*
X486400Y21600D01*
Y21200D01*
Y7200D02*
X486800D01*
X487200Y7600D01*
X487600Y7200D01*
X488000D01*
Y7600D01*
X487600Y8000D01*
X488000Y8400D01*
Y8800D01*
X487600D01*
X487200Y8400D01*
X486800Y8800D01*
X486400D01*
Y8400D01*
X486800Y8000D01*
X486400Y7600D01*
Y7200D01*
X472400D02*
X472800D01*
X473200Y7600D01*
X473600Y7200D01*
X474000D01*
Y7600D01*
X473600Y8000D01*
X474000Y8400D01*
Y8800D01*
X473600D01*
X473200Y8400D01*
X472800Y8800D01*
X472400D01*
Y8400D01*
X472800Y8000D01*
X472400Y7600D01*
Y7200D01*
X479800Y307400D02*
Y307000D01*
X480600D01*
Y307400D01*
X481000D01*
Y308200D01*
X480600D01*
Y308600D01*
X479800D01*
Y308200D01*
X479400D01*
Y307400D01*
X479800D01*
X479400Y297000D02*
X479800D01*
X480200Y297400D01*
X480600Y297000D01*
X481000D01*
Y297400D01*
X480600Y297800D01*
X481000Y298200D01*
Y298600D01*
X480600D01*
X480200Y298200D01*
X479800Y298600D01*
X479400D01*
Y298200D01*
X479800Y297800D01*
X479400Y297400D01*
Y297000D01*
Y317000D02*
X479800D01*
X480200Y317400D01*
X480600Y317000D01*
X481000D01*
Y317400D01*
X480600Y317800D01*
X481000Y318200D01*
Y318600D01*
X480600D01*
X480200Y318200D01*
X479800Y318600D01*
X479400D01*
Y318200D01*
X479800Y317800D01*
X479400Y317400D01*
Y317000D01*
X489400Y307000D02*
X489800D01*
X490200Y307400D01*
X490600Y307000D01*
X491000D01*
Y307400D01*
X490600Y307800D01*
X491000Y308200D01*
Y308600D01*
X490600D01*
X490200Y308200D01*
X489800Y308600D01*
X489400D01*
Y308200D01*
X489800Y307800D01*
X489400Y307400D01*
Y307000D01*
X469400D02*
X469800D01*
X470200Y307400D01*
X470600Y307000D01*
X471000D01*
Y307400D01*
X470600Y307800D01*
X471000Y308200D01*
Y308600D01*
X470600D01*
X470200Y308200D01*
X469800Y308600D01*
X469400D01*
Y308200D01*
X469800Y307800D01*
X469400Y307400D01*
Y307000D01*
X472400Y314000D02*
X472800D01*
X473200Y314400D01*
X473600Y314000D01*
X474000D01*
Y314400D01*
X473600Y314800D01*
X474000Y315200D01*
Y315600D01*
X473600D01*
X473200Y315200D01*
X472800Y315600D01*
X472400D01*
Y315200D01*
X472800Y314800D01*
X472400Y314400D01*
Y314000D01*
X486400D02*
X486800D01*
X487200Y314400D01*
X487600Y314000D01*
X488000D01*
Y314400D01*
X487600Y314800D01*
X488000Y315200D01*
Y315600D01*
X487600D01*
X487200Y315200D01*
X486800Y315600D01*
X486400D01*
Y315200D01*
X486800Y314800D01*
X486400Y314400D01*
Y314000D01*
Y300000D02*
X486800D01*
X487200Y300400D01*
X487600Y300000D01*
X488000D01*
Y300400D01*
X487600Y300800D01*
X488000Y301200D01*
Y301600D01*
X487600D01*
X487200Y301200D01*
X486800Y301600D01*
X486400D01*
Y301200D01*
X486800Y300800D01*
X486400Y300400D01*
Y300000D01*
X472400D02*
X472800D01*
X473200Y300400D01*
X473600Y300000D01*
X474000D01*
Y300400D01*
X473600Y300800D01*
X474000Y301200D01*
Y301600D01*
X473600D01*
X473200Y301200D01*
X472800Y301600D01*
X472400D01*
Y301200D01*
X472800Y300800D01*
X472400Y300400D01*
Y300000D01*
X460000Y16500D02*
X460800Y17300D01*
X461600Y16500D01*
X460800Y15700D01*
X460000Y16500D01*
X463000Y30600D02*
X463800Y31400D01*
X464600Y30600D01*
X463800Y29800D01*
X463000Y30600D01*
X480700Y32576D02*
X481500Y33376D01*
X482300Y32576D01*
X481500Y31776D01*
X480700Y32576D01*
X516100Y68500D02*
X516900Y69300D01*
X517700Y68500D01*
X516900Y67700D01*
X516100Y68500D01*
X511400Y63500D02*
X512200Y64300D01*
X513000Y63500D01*
X512200Y62700D01*
X511400Y63500D01*
X506000Y58400D02*
X506800Y59200D01*
X507600Y58400D01*
X506800Y57600D01*
X506000Y58400D01*
X501100Y53500D02*
X501900Y54300D01*
X502700Y53500D01*
X501900Y52700D01*
X501100Y53500D01*
X495900Y48400D02*
X496700Y49200D01*
X497500Y48400D01*
X496700Y47600D01*
X495900Y48400D01*
X490900Y43500D02*
X491700Y44300D01*
X492500Y43500D01*
X491700Y42700D01*
X490900Y43500D01*
X486206Y38500D02*
X487006Y39300D01*
X487806Y38500D01*
X487006Y37700D01*
X486206Y38500D01*
X497900Y68600D02*
X498700Y69400D01*
X499500Y68600D01*
X498700Y67800D01*
X497900Y68600D01*
X493000Y63500D02*
X493800Y64300D01*
X494600Y63500D01*
X493800Y62700D01*
X493000Y63500D01*
X488138Y58400D02*
X488938Y59200D01*
X489738Y58400D01*
X488938Y57600D01*
X488138Y58400D01*
X483500Y53600D02*
X484300Y54400D01*
X485100Y53600D01*
X484300Y52800D01*
X483500Y53600D01*
X479900Y48400D02*
X480700Y49200D01*
X481500Y48400D01*
X480700Y47600D01*
X479900Y48400D01*
X475800Y43600D02*
X476600Y44400D01*
X477400Y43600D01*
X476600Y42800D01*
X475800Y43600D01*
X227300Y18200D02*
X228100Y19000D01*
X228900Y18200D01*
X228100Y17400D01*
X227300Y18200D01*
X180900Y18300D02*
X181700Y19100D01*
X182500Y18300D01*
X181700Y17500D01*
X180900Y18300D01*
X85000Y130050D02*
X85800Y130850D01*
X86600Y130050D01*
X85800Y129250D01*
X85000Y130050D01*
X138000Y18800D02*
X138800Y19600D01*
X139600Y18800D01*
X138800Y18000D01*
X138000Y18800D01*
X89900Y18100D02*
X90700Y18900D01*
X91500Y18100D01*
X90700Y17300D01*
X89900Y18100D01*
X85400Y46100D02*
X86200Y46900D01*
X87000Y46100D01*
X86200Y45300D01*
X85400Y46100D01*
X60100Y46200D02*
X60900Y47000D01*
X61700Y46200D01*
X60900Y45400D01*
X60100Y46200D01*
X60200Y70900D02*
X61000Y71700D01*
X61800Y70900D01*
X61000Y70100D01*
X60200Y70900D01*
X60700Y117600D02*
X61500Y118400D01*
X62300Y117600D01*
X61500Y116800D01*
X60700Y117600D01*
X4500Y162900D02*
X5300Y163700D01*
X6100Y162900D01*
X5300Y162100D01*
X4500Y162900D01*
X59600Y280000D02*
X60400Y280800D01*
X61200Y280000D01*
X60400Y279200D01*
X59600Y280000D01*
X60400Y265400D02*
X61200Y266200D01*
X62000Y265400D01*
X61200Y264600D01*
X60400Y265400D01*
X60000Y240800D02*
X60800Y241600D01*
X61600Y240800D01*
X60800Y240000D01*
X60000Y240800D01*
Y219400D02*
X60800Y220200D01*
X61600Y219400D01*
X60800Y218600D01*
X60000Y219400D01*
X60600Y197800D02*
X61400Y198600D01*
X62200Y197800D01*
X61400Y197000D01*
X60600Y197800D01*
X450500Y244000D02*
X451300Y244800D01*
X452100Y244000D01*
X451300Y243200D01*
X450500Y244000D01*
X363600Y221815D02*
X364400Y222615D01*
X365200Y221815D01*
X364400Y221015D01*
X363600Y221815D01*
X317800Y218200D02*
X318600Y219000D01*
X319400Y218200D01*
X318600Y217400D01*
X317800Y218200D01*
X350500Y195900D02*
X351300Y196700D01*
X352100Y195900D01*
X351300Y195100D01*
X350500Y195900D01*
X316500Y195400D02*
X317300Y196200D01*
X318100Y195400D01*
X317300Y194600D01*
X316500Y195400D01*
X291700Y195500D02*
X292500Y196300D01*
X293300Y195500D01*
X292500Y194700D01*
X291700Y195500D01*
X291400Y208300D02*
X292200Y209100D01*
X293000Y208300D01*
X292200Y207500D01*
X291400Y208300D01*
X423800Y208200D02*
X424600Y209000D01*
X425400Y208200D01*
X424600Y207400D01*
X423800Y208200D01*
X364100Y208300D02*
X364900Y209100D01*
X365700Y208300D01*
X364900Y207500D01*
X364100Y208300D01*
X379500Y192800D02*
X380300Y193600D01*
X381100Y192800D01*
X380300Y192000D01*
X379500Y192800D01*
X386900Y192700D02*
X387700Y193500D01*
X388500Y192700D01*
X387700Y191900D01*
X386900Y192700D01*
X396500D02*
X397300Y193500D01*
X398100Y192700D01*
X397300Y191900D01*
X396500Y192700D01*
X406800D02*
X407600Y193500D01*
X408400Y192700D01*
X407600Y191900D01*
X406800Y192700D01*
X416700D02*
X417500Y193500D01*
X418300Y192700D01*
X417500Y191900D01*
X416700Y192700D01*
X424600Y194000D02*
X425400Y194800D01*
X426200Y194000D01*
X425400Y193200D01*
X424600Y194000D01*
X436800Y192900D02*
X437600Y193700D01*
X438400Y192900D01*
X437600Y192100D01*
X436800Y192900D01*
X446600Y192800D02*
X447400Y193600D01*
X448200Y192800D01*
X447400Y192000D01*
X446600Y192800D01*
X456800Y192900D02*
X457600Y193700D01*
X458400Y192900D01*
X457600Y192100D01*
X456800Y192900D01*
X466800D02*
X467600Y193700D01*
X468400Y192900D01*
X467600Y192100D01*
X466800Y192900D01*
X477200Y190500D02*
X478000Y191300D01*
X478800Y190500D01*
X478000Y189700D01*
X477200Y190500D01*
X353300Y262000D02*
X354100Y262800D01*
X354900Y262000D01*
X354100Y261200D01*
X353300Y262000D01*
X259800Y261700D02*
X260600Y262500D01*
X261400Y261700D01*
X260600Y260900D01*
X259800Y261700D01*
X171200Y248500D02*
X172000Y249300D01*
X172800Y248500D01*
X172000Y247700D01*
X171200Y248500D01*
X88300Y230900D02*
X89100Y231700D01*
X89900Y230900D01*
X89100Y230100D01*
X88300Y230900D01*
X452400Y62700D02*
X453200Y63500D01*
X454000Y62700D01*
X453200Y61900D01*
X452400Y62700D01*
X432400D02*
X433200Y63500D01*
X434000Y62700D01*
X433200Y61900D01*
X432400Y62700D01*
X412400Y62600D02*
X413200Y63400D01*
X414000Y62600D01*
X413200Y61800D01*
X412400Y62600D01*
X392500Y61800D02*
X393300Y62600D01*
X394100Y61800D01*
X393300Y61000D01*
X392500Y61800D01*
X370522Y49900D02*
X371322Y50700D01*
X372122Y49900D01*
X371322Y49100D01*
X370522Y49900D01*
X329100Y53300D02*
X329900Y54100D01*
X330700Y53300D01*
X329900Y52500D01*
X329100Y53300D01*
X349100D02*
X349900Y54100D01*
X350700Y53300D01*
X349900Y52500D01*
X349100Y53300D01*
X450800Y83800D02*
X451600Y84600D01*
X452400Y83800D01*
X451600Y83000D01*
X450800Y83800D01*
X394000Y80200D02*
X394800Y81000D01*
X395600Y80200D01*
X394800Y79400D01*
X394000Y80200D01*
X342207Y77800D02*
X343007Y78600D01*
X343807Y77800D01*
X343007Y77000D01*
X342207Y77800D01*
X213000Y87100D02*
X213800Y87900D01*
X214600Y87100D01*
X213800Y86300D01*
X213000Y87100D01*
X151100Y88100D02*
X151900Y88900D01*
X152700Y88100D01*
X151900Y87300D01*
X151100Y88100D01*
X87500Y86000D02*
X88300Y86800D01*
X89100Y86000D01*
X88300Y85200D01*
X87500Y86000D01*
X161000Y166400D02*
X161800Y167200D01*
X162600Y166400D01*
X161800Y165600D01*
X161000Y166400D01*
X161200Y173900D02*
X162000Y174700D01*
X162800Y173900D01*
X162000Y173100D01*
X161200Y173900D01*
X236100Y174300D02*
X236900Y175100D01*
X237700Y174300D01*
X236900Y173500D01*
X236100Y174300D01*
X235700Y165400D02*
X236500Y166200D01*
X237300Y165400D01*
X236500Y164600D01*
X235700Y165400D01*
X291500Y58500D02*
X292300Y59300D01*
X293100Y58500D01*
X292300Y57700D01*
X291500Y58500D01*
X280900Y62700D02*
X281700Y63500D01*
X282500Y62700D01*
X281700Y61900D01*
X280900Y62700D01*
X273300Y70000D02*
X274100Y70800D01*
X274900Y70000D01*
X274100Y69200D01*
X273300Y70000D01*
X319700Y135900D02*
X320500Y136700D01*
X321300Y135900D01*
X320500Y135100D01*
X319700Y135900D01*
X352500Y123200D02*
X353300Y124000D01*
X354100Y123200D01*
X353300Y122400D01*
X352500Y123200D01*
X359000Y123000D02*
X359800Y123800D01*
X360600Y123000D01*
X359800Y122200D01*
X359000Y123000D01*
X368100Y122700D02*
X368900Y123500D01*
X369700Y122700D01*
X368900Y121900D01*
X368100Y122700D01*
X376300Y123700D02*
X377100Y124500D01*
X377900Y123700D01*
X377100Y122900D01*
X376300Y123700D01*
X386100Y124800D02*
X386900Y125600D01*
X387700Y124800D01*
X386900Y124000D01*
X386100Y124800D01*
X437800Y122300D02*
X438600Y123100D01*
X439400Y122300D01*
X438600Y121500D01*
X437800Y122300D01*
X466700Y117600D02*
X467500Y118400D01*
X468300Y117600D01*
X467500Y116800D01*
X466700Y117600D01*
X545500Y81300D02*
X546300Y82100D01*
X547100Y81300D01*
X546300Y80500D01*
X545500Y81300D01*
X567400Y89700D02*
X568200Y90500D01*
X569000Y89700D01*
X568200Y88900D01*
X567400Y89700D01*
X564900Y82300D02*
X565700Y83100D01*
X566500Y82300D01*
X565700Y81500D01*
X564900Y82300D01*
X563400Y63800D02*
X564200Y64600D01*
X565000Y63800D01*
X564200Y63000D01*
X563400Y63800D01*
Y53700D02*
X564200Y54500D01*
X565000Y53700D01*
X564200Y52900D01*
X563400Y53700D01*
X563500Y42200D02*
X564300Y43000D01*
X565100Y42200D01*
X564300Y41400D01*
X563500Y42200D01*
X589300Y172300D02*
X590100Y173100D01*
X590900Y172300D01*
X590100Y171500D01*
X589300Y172300D01*
Y191200D02*
X590100Y192000D01*
X590900Y191200D01*
X590100Y190400D01*
X589300Y191200D01*
X553900Y36000D02*
X554700Y36800D01*
X555500Y36000D01*
X554700Y35200D01*
X553900Y36000D01*
X569200Y159800D02*
X570000Y160600D01*
X570800Y159800D01*
X570000Y159000D01*
X569200Y159800D01*
X559100Y160500D02*
X559900Y161300D01*
X560700Y160500D01*
X559900Y159700D01*
X559100Y160500D01*
X550200Y161700D02*
X551000Y162500D01*
X551800Y161700D01*
X551000Y160900D01*
X550200Y161700D01*
X540400Y163600D02*
X541200Y164400D01*
X542000Y163600D01*
X541200Y162800D01*
X540400Y163600D01*
X508000Y174700D02*
X508800Y175500D01*
X509600Y174700D01*
X508800Y173900D01*
X508000Y174700D01*
X558600Y226600D02*
X559400Y227400D01*
X560200Y226600D01*
X559400Y225800D01*
X558600Y226600D01*
X548200Y263200D02*
X549000Y264000D01*
X549800Y263200D01*
X549000Y262400D01*
X548200Y263200D01*
X227600Y6400D02*
X228400Y7200D01*
X229200Y6400D01*
X228400Y5600D01*
X227600Y6400D01*
X181300Y6200D02*
X182100Y7000D01*
X182900Y6200D01*
X182100Y5400D01*
X181300Y6200D01*
X255548Y121052D02*
X255948D01*
X256348Y121452D01*
X256748Y121052D01*
X257148D01*
Y121452D01*
X256748Y121852D01*
X257148Y122252D01*
Y122652D01*
X256748D01*
X256348Y122252D01*
X255948Y122652D01*
X255548D01*
Y122252D01*
X255948Y121852D01*
X255548Y121452D01*
Y121052D01*
Y170200D02*
X256348Y171000D01*
X257148Y170200D01*
X256348Y169400D01*
X255548Y170200D01*
X269900Y167900D02*
X270700Y168700D01*
X271500Y167900D01*
X270700Y167100D01*
X269900Y167900D01*
X261800Y172300D02*
X262600Y173100D01*
X263400Y172300D01*
X262600Y171500D01*
X261800Y172300D01*
X336600Y30105D02*
X337000D01*
X337400Y30505D01*
X337800Y30105D01*
X338200D01*
Y30505D01*
X337800Y30905D01*
X338200Y31305D01*
Y31705D01*
X337800D01*
X337400Y31305D01*
X337000Y31705D01*
X336600D01*
Y31305D01*
X337000Y30905D01*
X336600Y30505D01*
Y30105D01*
X332500Y30100D02*
X332900D01*
X333300Y30500D01*
X333700Y30100D01*
X334100D01*
Y30500D01*
X333700Y30900D01*
X334100Y31300D01*
Y31700D01*
X333700D01*
X333300Y31300D01*
X332900Y31700D01*
X332500D01*
Y31300D01*
X332900Y30900D01*
X332500Y30500D01*
Y30100D01*
X508900Y75200D02*
X509300D01*
X509700Y75600D01*
X510100Y75200D01*
X510500D01*
Y75600D01*
X510100Y76000D01*
X510500Y76400D01*
Y76800D01*
X510100D01*
X509700Y76400D01*
X509300Y76800D01*
X508900D01*
Y76400D01*
X509300Y76000D01*
X508900Y75600D01*
Y75200D01*
X252400Y97300D02*
X253200Y98100D01*
X254000Y97300D01*
X253200Y96500D01*
X252400Y97300D01*
X252500Y115600D02*
X253300Y116400D01*
X254100Y115600D01*
X253300Y114800D01*
X252500Y115600D01*
X108600Y50500D02*
X109400Y51300D01*
X110200Y50500D01*
X109400Y49700D01*
X108600Y50500D01*
X472700Y103800D02*
X473100D01*
X473500Y104200D01*
X473900Y103800D01*
X474300D01*
Y104200D01*
X473900Y104600D01*
X474300Y105000D01*
Y105400D01*
X473900D01*
X473500Y105000D01*
X473100Y105400D01*
X472700D01*
Y105000D01*
X473100Y104600D01*
X472700Y104200D01*
Y103800D01*
X478800D02*
X479200D01*
X479600Y104200D01*
X480000Y103800D01*
X480400D01*
Y104200D01*
X480000Y104600D01*
X480400Y105000D01*
Y105400D01*
X480000D01*
X479600Y105000D01*
X479200Y105400D01*
X478800D01*
Y105000D01*
X479200Y104600D01*
X478800Y104200D01*
Y103800D01*
X482200Y100400D02*
X482600D01*
X483000Y100800D01*
X483400Y100400D01*
X483800D01*
Y100800D01*
X483400Y101200D01*
X483800Y101600D01*
Y102000D01*
X483400D01*
X483000Y101600D01*
X482600Y102000D01*
X482200D01*
Y101600D01*
X482600Y101200D01*
X482200Y100800D01*
Y100400D01*
Y94500D02*
X482600D01*
X483000Y94900D01*
X483400Y94500D01*
X483800D01*
Y94900D01*
X483400Y95300D01*
X483800Y95700D01*
Y96100D01*
X483400D01*
X483000Y95700D01*
X482600Y96100D01*
X482200D01*
Y95700D01*
X482600Y95300D01*
X482200Y94900D01*
Y94500D01*
Y88600D02*
X482600D01*
X483000Y89000D01*
X483400Y88600D01*
X483800D01*
Y89000D01*
X483400Y89400D01*
X483800Y89800D01*
Y90200D01*
X483400D01*
X483000Y89800D01*
X482600Y90200D01*
X482200D01*
Y89800D01*
X482600Y89400D01*
X482200Y89000D01*
Y88600D01*
X478900Y85228D02*
X479300D01*
X479700Y85628D01*
X480100Y85228D01*
X480500D01*
Y85628D01*
X480100Y86028D01*
X480500Y86428D01*
Y86828D01*
X480100D01*
X479700Y86428D01*
X479300Y86828D01*
X478900D01*
Y86428D01*
X479300Y86028D01*
X478900Y85628D01*
Y85228D01*
X472700Y85200D02*
X473100D01*
X473500Y85600D01*
X473900Y85200D01*
X474300D01*
Y85600D01*
X473900Y86000D01*
X474300Y86400D01*
Y86800D01*
X473900D01*
X473500Y86400D01*
X473100Y86800D01*
X472700D01*
Y86400D01*
X473100Y86000D01*
X472700Y85600D01*
Y85200D01*
X512500Y87200D02*
X512900D01*
X513300Y87600D01*
X513700Y87200D01*
X514100D01*
Y87600D01*
X513700Y88000D01*
X514100Y88400D01*
Y88800D01*
X513700D01*
X513300Y88400D01*
X512900Y88800D01*
X512500D01*
Y88400D01*
X512900Y88000D01*
X512500Y87600D01*
Y87200D01*
X510600Y83500D02*
X511000D01*
X511400Y83900D01*
X511800Y83500D01*
X512200D01*
Y83900D01*
X511800Y84300D01*
X512200Y84700D01*
Y85100D01*
X511800D01*
X511400Y84700D01*
X511000Y85100D01*
X510600D01*
Y84700D01*
X511000Y84300D01*
X510600Y83900D01*
Y83500D01*
X506500D02*
X506900D01*
X507300Y83900D01*
X507700Y83500D01*
X508100D01*
Y83900D01*
X507700Y84300D01*
X508100Y84700D01*
Y85100D01*
X507700D01*
X507300Y84700D01*
X506900Y85100D01*
X506500D01*
Y84700D01*
X506900Y84300D01*
X506500Y83900D01*
Y83500D01*
X508400Y112500D02*
X508800D01*
X509200Y112900D01*
X509600Y112500D01*
X510000D01*
Y112900D01*
X509600Y113300D01*
X510000Y113700D01*
Y114100D01*
X509600D01*
X509200Y113700D01*
X508800Y114100D01*
X508400D01*
Y113700D01*
X508800Y113300D01*
X508400Y112900D01*
Y112500D01*
X84200Y165900D02*
X85000Y166700D01*
X85800Y165900D01*
X85000Y165100D01*
X84200Y165900D01*
X91100Y186300D02*
X91900Y187100D01*
X92700Y186300D01*
X91900Y185500D01*
X91100Y186300D01*
X79500Y147600D02*
X79900D01*
X80300Y148000D01*
X80700Y147600D01*
X81100D01*
Y148000D01*
X80700Y148400D01*
X81100Y148800D01*
Y149200D01*
X80700D01*
X80300Y148800D01*
X79900Y149200D01*
X79500D01*
Y148800D01*
X79900Y148400D01*
X79500Y148000D01*
Y147600D01*
X223115Y140915D02*
X223515D01*
X223915Y141315D01*
X224315Y140915D01*
X224715D01*
Y141315D01*
X224315Y141715D01*
X224715Y142115D01*
Y142515D01*
X224315D01*
X223915Y142115D01*
X223515Y142515D01*
X223115D01*
Y142115D01*
X223515Y141715D01*
X223115Y141315D01*
Y140915D01*
X223185Y144685D02*
X223585D01*
X223985Y145085D01*
X224385Y144685D01*
X224785D01*
Y145085D01*
X224385Y145485D01*
X224785Y145885D01*
Y146285D01*
X224385D01*
X223985Y145885D01*
X223585Y146285D01*
X223185D01*
Y145885D01*
X223585Y145485D01*
X223185Y145085D01*
Y144685D01*
X260400Y141200D02*
X261200Y142000D01*
X262000Y141200D01*
X261200Y140400D01*
X260400Y141200D01*
X264300Y162400D02*
X265100Y163200D01*
X265900Y162400D01*
X265100Y161600D01*
X264300Y162400D01*
X265700Y172300D02*
X266500Y173100D01*
X267300Y172300D01*
X266500Y171500D01*
X265700Y172300D01*
X268600Y164700D02*
X269400Y165500D01*
X270200Y164700D01*
X269400Y163900D01*
X268600Y164700D01*
X256200Y108200D02*
X257000Y109000D01*
X257800Y108200D01*
X257000Y107400D01*
X256200Y108200D01*
X259100D02*
X259900Y109000D01*
X260700Y108200D01*
X259900Y107400D01*
X259100Y108200D01*
X262100Y108237D02*
X262900Y109037D01*
X263700Y108237D01*
X262900Y107437D01*
X262100Y108237D01*
X260500Y102900D02*
X261300Y103700D01*
X262100Y102900D01*
X261300Y102100D01*
X260500Y102900D01*
X263500D02*
X264300Y103700D01*
X265100Y102900D01*
X264300Y102100D01*
X263500Y102900D01*
X266500D02*
X267300Y103700D01*
X268100Y102900D01*
X267300Y102100D01*
X266500Y102900D01*
X287100Y60000D02*
X287900Y60800D01*
X288700Y60000D01*
X287900Y59200D01*
X287100Y60000D01*
X283200Y148100D02*
X284000Y148900D01*
X284800Y148100D01*
X284000Y147300D01*
X283200Y148100D01*
X287100Y63000D02*
X287900Y63800D01*
X288700Y63000D01*
X287900Y62200D01*
X287100Y63000D01*
Y66000D02*
X287900Y66800D01*
X288700Y66000D01*
X287900Y65200D01*
X287100Y66000D01*
Y68900D02*
X287900Y69700D01*
X288700Y68900D01*
X287900Y68100D01*
X287100Y68900D01*
X282900Y66600D02*
X283700Y67400D01*
X284500Y66600D01*
X283700Y65800D01*
X282900Y66600D01*
Y69500D02*
X283700Y70300D01*
X284500Y69500D01*
X283700Y68700D01*
X282900Y69500D01*
Y72400D02*
X283700Y73200D01*
X284500Y72400D01*
X283700Y71600D01*
X282900Y72400D01*
X334800Y95000D02*
X335600Y95800D01*
X336400Y95000D01*
X335600Y94200D01*
X334800Y95000D01*
X338200D02*
X339000Y95800D01*
X339800Y95000D01*
X339000Y94200D01*
X338200Y95000D01*
X333300Y90500D02*
X334100Y91300D01*
X334900Y90500D01*
X334100Y89700D01*
X333300Y90500D01*
X330400D02*
X331200Y91300D01*
X332000Y90500D01*
X331200Y89700D01*
X330400Y90500D01*
X327400D02*
X328200Y91300D01*
X329000Y90500D01*
X328200Y89700D01*
X327400Y90500D01*
X244300Y136200D02*
X245100Y137000D01*
X245900Y136200D01*
X245100Y135400D01*
X244300Y136200D01*
X248900Y158200D02*
X249700Y159000D01*
X250500Y158200D01*
X249700Y157400D01*
X248900Y158200D01*
X273800Y139100D02*
X274600Y139900D01*
X275400Y139100D01*
X274600Y138300D01*
X273800Y139100D01*
X443200Y127300D02*
X444000Y128100D01*
X444800Y127300D01*
X444000Y126500D01*
X443200Y127300D01*
X372600Y185100D02*
X373400Y185900D01*
X374200Y185100D01*
X373400Y184300D01*
X372600Y185100D01*
X361900Y136600D02*
X362700Y137400D01*
X363500Y136600D01*
X362700Y135800D01*
X361900Y136600D01*
X273800Y143300D02*
X274600Y144100D01*
X275400Y143300D01*
X274600Y142500D01*
X273800Y143300D01*
X448500Y129900D02*
X449300Y130700D01*
X450100Y129900D01*
X449300Y129100D01*
X448500Y129900D01*
X389400Y135100D02*
X390200Y135900D01*
X391000Y135100D01*
X390200Y134300D01*
X389400Y135100D01*
X356200Y140600D02*
X357000Y141400D01*
X357800Y140600D01*
X357000Y139800D01*
X356200Y140600D01*
X338600Y142900D02*
X339400Y143700D01*
X340200Y142900D01*
X339400Y142100D01*
X338600Y142900D01*
X399400Y140600D02*
X400200Y141400D01*
X401000Y140600D01*
X400200Y139800D01*
X399400Y140600D01*
X409500D02*
X410300Y141400D01*
X411100Y140600D01*
X410300Y139800D01*
X409500Y140600D01*
X419400D02*
X420200Y141400D01*
X421000Y140600D01*
X420200Y139800D01*
X419400Y140600D01*
X343200Y108900D02*
X344000Y109700D01*
X344800Y108900D01*
X344000Y108100D01*
X343200Y108900D01*
X343300Y144200D02*
X344100Y145000D01*
X344900Y144200D01*
X344100Y143400D01*
X343300Y144200D01*
X261800Y153700D02*
X262600Y154500D01*
X263400Y153700D01*
X262600Y152900D01*
X261800Y153700D01*
X329400Y148100D02*
X330200Y148900D01*
X331000Y148100D01*
X330200Y147300D01*
X329400Y148100D01*
X263100Y156900D02*
X263900Y157700D01*
X264700Y156900D01*
X263900Y156100D01*
X263100Y156900D01*
X349300Y151000D02*
X350100Y151800D01*
X350900Y151000D01*
X350100Y150200D01*
X349300Y151000D01*
X459400Y149700D02*
X460200Y150500D01*
X461000Y149700D01*
X460200Y148900D01*
X459400Y149700D01*
X469400D02*
X470200Y150500D01*
X471000Y149700D01*
X470200Y148900D01*
X469400Y149700D01*
X314700Y154200D02*
X315500Y155000D01*
X316300Y154200D01*
X315500Y153400D01*
X314700Y154200D01*
X309200Y159500D02*
X310000Y160300D01*
X310800Y159500D01*
X310000Y158700D01*
X309200Y159500D01*
X345400Y154900D02*
X346200Y155700D01*
X347000Y154900D01*
X346200Y154100D01*
X345400Y154900D01*
X282000Y160500D02*
X282800Y161300D01*
X283600Y160500D01*
X282800Y159700D01*
X282000Y160500D01*
X321600Y160200D02*
X322400Y161000D01*
X323200Y160200D01*
X322400Y159400D01*
X321600Y160200D01*
X279400Y168000D02*
X280200Y168800D01*
X281000Y168000D01*
X280200Y167200D01*
X279400Y168000D01*
X330200Y167400D02*
X331000Y168200D01*
X331800Y167400D01*
X331000Y166600D01*
X330200Y167400D01*
X336900D02*
X337700Y168200D01*
X338500Y167400D01*
X337700Y166600D01*
X336900Y167400D01*
X380200Y167900D02*
X381000Y168700D01*
X381800Y167900D01*
X381000Y167100D01*
X380200Y167900D01*
X331600Y171800D02*
X332400Y172600D01*
X333200Y171800D01*
X332400Y171000D01*
X331600Y171800D01*
X279000Y189300D02*
X279800Y190100D01*
X280600Y189300D01*
X279800Y188500D01*
X279000Y189300D01*
X296400Y177500D02*
X297200Y178300D01*
X298000Y177500D01*
X297200Y176700D01*
X296400Y177500D01*
X299300D02*
X300100Y178300D01*
X300900Y177500D01*
X300100Y176700D01*
X299300Y177500D01*
X302200D02*
X303000Y178300D01*
X303800Y177500D01*
X303000Y176700D01*
X302200Y177500D01*
X279400Y183000D02*
X280200Y183800D01*
X281000Y183000D01*
X280200Y182200D01*
X279400Y183000D01*
X295200Y187200D02*
X296000Y188000D01*
X296800Y187200D01*
X296000Y186400D01*
X295200Y187200D01*
X370400Y98400D02*
X371200Y99200D01*
X372000Y98400D01*
X371200Y97600D01*
X370400Y98400D01*
X326000Y179600D02*
X326800Y180400D01*
X327600Y179600D01*
X326800Y178800D01*
X326000Y179600D01*
X338200Y100500D02*
X339000Y101300D01*
X339800Y100500D01*
X339000Y99700D01*
X338200Y100500D01*
X332700D02*
X333500Y101300D01*
X334300Y100500D01*
X333500Y99700D01*
X332700Y100500D01*
X379700Y104700D02*
X380500Y105500D01*
X381300Y104700D01*
X380500Y103900D01*
X379700Y104700D01*
X372500Y106800D02*
X373300Y107600D01*
X374100Y106800D01*
X373300Y106000D01*
X372500Y106800D01*
X382300Y114100D02*
X383100Y114900D01*
X383900Y114100D01*
X383100Y113300D01*
X382300Y114100D01*
X326000Y167400D02*
X326800Y168200D01*
X327600Y167400D01*
X326800Y166600D01*
X326000Y167400D01*
X312100Y179800D02*
X312900Y180600D01*
X313700Y179800D01*
X312900Y179000D01*
X312100Y179800D01*
X295100Y161100D02*
X295900Y161900D01*
X296700Y161100D01*
X295900Y160300D01*
X295100Y161100D01*
X296500Y164200D02*
X297300Y165000D01*
X298100Y164200D01*
X297300Y163400D01*
X296500Y164200D01*
X304300Y213900D02*
X305100Y214700D01*
X305900Y213900D01*
X305100Y213100D01*
X304300Y213900D01*
X328900Y211500D02*
X329700Y212300D01*
X330500Y211500D01*
X329700Y210700D01*
X328900Y211500D01*
X326000Y120000D02*
X326800Y120800D01*
X327600Y120000D01*
X326800Y119200D01*
X326000Y120000D01*
Y117000D02*
X326800Y117800D01*
X327600Y117000D01*
X326800Y116200D01*
X326000Y117000D01*
X277400Y205300D02*
X278200Y206100D01*
X279000Y205300D01*
X278200Y204500D01*
X277400Y205300D01*
Y202300D02*
X278200Y203100D01*
X279000Y202300D01*
X278200Y201500D01*
X277400Y202300D01*
X277270Y67700D02*
X278070Y68500D01*
X278870Y67700D01*
X278070Y66900D01*
X277270Y67700D01*
Y70600D02*
X278070Y71400D01*
X278870Y70600D01*
X278070Y69800D01*
X277270Y70600D01*
Y73500D02*
X278070Y74300D01*
X278870Y73500D01*
X278070Y72700D01*
X277270Y73500D01*
X309200Y177500D02*
X310000Y178300D01*
X310800Y177500D01*
X310000Y176700D01*
X309200Y177500D01*
Y150800D02*
X310000Y151600D01*
X310800Y150800D01*
X310000Y150000D01*
X309200Y150800D01*
X314700Y146700D02*
X315500Y147500D01*
X316300Y146700D01*
X315500Y145900D01*
X314700Y146700D01*
X295300Y131400D02*
X296100Y132200D01*
X296900Y131400D01*
X296100Y130600D01*
X295300Y131400D01*
X302100Y128600D02*
X302900Y129400D01*
X303700Y128600D01*
X302900Y127800D01*
X302100Y128600D01*
Y125700D02*
X302900Y126500D01*
X303700Y125700D01*
X302900Y124900D01*
X302100Y125700D01*
Y122800D02*
X302900Y123600D01*
X303700Y122800D01*
X302900Y122000D01*
X302100Y122800D01*
X295200Y128600D02*
X296000Y129400D01*
X296800Y128600D01*
X296000Y127800D01*
X295200Y128600D01*
Y125700D02*
X296000Y126500D01*
X296800Y125700D01*
X296000Y124900D01*
X295200Y125700D01*
X295188Y122788D02*
X295988Y123588D01*
X296788Y122788D01*
X295988Y121988D01*
X295188Y122788D01*
X307800Y128600D02*
X308600Y129400D01*
X309400Y128600D01*
X308600Y127800D01*
X307800Y128600D01*
Y125700D02*
X308600Y126500D01*
X309400Y125700D01*
X308600Y124900D01*
X307800Y125700D01*
Y122800D02*
X308600Y123600D01*
X309400Y122800D01*
X308600Y122000D01*
X307800Y122800D01*
X314700Y128600D02*
X315500Y129400D01*
X316300Y128600D01*
X315500Y127800D01*
X314700Y128600D01*
Y125700D02*
X315500Y126500D01*
X316300Y125700D01*
X315500Y124900D01*
X314700Y125700D01*
X317600Y167000D02*
X318400Y167800D01*
X319200Y167000D01*
X318400Y166200D01*
X317600Y167000D01*
X314700Y122800D02*
X315500Y123600D01*
X316300Y122800D01*
X315500Y122000D01*
X314700Y122800D01*
X306175Y50000D02*
X306575D01*
X306975Y50400D01*
X307375Y50000D01*
X307775D01*
Y50400D01*
X307375Y50800D01*
X307775Y51200D01*
Y51600D01*
X307375D01*
X306975Y51200D01*
X306575Y51600D01*
X306175D01*
Y51200D01*
X306575Y50800D01*
X306175Y50400D01*
Y50000D01*
X284000D02*
X284400D01*
X284800Y50400D01*
X285200Y50000D01*
X285600D01*
Y50400D01*
X285200Y50800D01*
X285600Y51200D01*
Y51600D01*
X285200D01*
X284800Y51200D01*
X284400Y51600D01*
X284000D01*
Y51200D01*
X284400Y50800D01*
X284000Y50400D01*
Y50000D01*
X289873Y114527D02*
X290673Y115327D01*
X291473Y114527D01*
X290673Y113727D01*
X289873Y114527D01*
X311527D02*
X312327Y115327D01*
X313127Y114527D01*
X312327Y113727D01*
X311527Y114527D01*
X298535Y110196D02*
X299335Y110996D01*
X300135Y110196D01*
X299335Y109396D01*
X298535Y110196D01*
X302865D02*
X303665Y110996D01*
X304465Y110196D01*
X303665Y109396D01*
X302865Y110196D01*
X307196Y105865D02*
X307996Y106665D01*
X308796Y105865D01*
X307996Y105065D01*
X307196Y105865D01*
Y101535D02*
X307996Y102335D01*
X308796Y101535D01*
X307996Y100735D01*
X307196Y101535D01*
X298535Y97204D02*
X299335Y98004D01*
X300135Y97204D01*
X299335Y96404D01*
X298535Y97204D01*
X302865D02*
X303665Y98004D01*
X304465Y97204D01*
X303665Y96404D01*
X302865Y97204D01*
X289873Y92873D02*
X290673Y93673D01*
X291473Y92873D01*
X290673Y92073D01*
X289873Y92873D01*
X311527D02*
X312327Y93673D01*
X313127Y92873D01*
X312327Y92073D01*
X311527Y92873D01*
X294204Y101535D02*
X295004Y102335D01*
X295804Y101535D01*
X295004Y100735D01*
X294204Y101535D01*
Y105865D02*
X295004Y106665D01*
X295804Y105865D01*
X295004Y105065D01*
X294204Y105865D01*
X302865Y101535D02*
X303665Y102335D01*
X304465Y101535D01*
X303665Y100735D01*
X302865Y101535D01*
X298535D02*
X299335Y102335D01*
X300135Y101535D01*
X299335Y100735D01*
X298535Y101535D01*
Y105865D02*
X299335Y106665D01*
X300135Y105865D01*
X299335Y105065D01*
X298535Y105865D01*
X302865D02*
X303665Y106665D01*
X304465Y105865D01*
X303665Y105065D01*
X302865Y105865D01*
X311800Y68200D02*
X312200D01*
X312600Y68600D01*
X313000Y68200D01*
X313400D01*
Y68600D01*
X313000Y69000D01*
X313400Y69400D01*
Y69800D01*
X313000D01*
X312600Y69400D01*
X312200Y69800D01*
X311800D01*
Y69400D01*
X312200Y69000D01*
X311800Y68600D01*
Y68200D01*
X304800Y54600D02*
X305200D01*
X305600Y55000D01*
X306000Y54600D01*
X306400D01*
Y55000D01*
X306000Y55400D01*
X306400Y55800D01*
Y56200D01*
X306000D01*
X305600Y55800D01*
X305200Y56200D01*
X304800D01*
Y55800D01*
X305200Y55400D01*
X304800Y55000D01*
Y54600D01*
X311800Y58000D02*
X312200D01*
X312600Y58400D01*
X313000Y58000D01*
X313400D01*
Y58400D01*
X313000Y58800D01*
X313400Y59200D01*
Y59600D01*
X313000D01*
X312600Y59200D01*
X312200Y59600D01*
X311800D01*
Y59200D01*
X312200Y58800D01*
X311800Y58400D01*
Y58000D01*
X313800Y74300D02*
X314200D01*
X314600Y74700D01*
X315000Y74300D01*
X315400D01*
Y74700D01*
X315000Y75100D01*
X315400Y75500D01*
Y75900D01*
X315000D01*
X314600Y75500D01*
X314200Y75900D01*
X313800D01*
Y75500D01*
X314200Y75100D01*
X313800Y74700D01*
Y74300D01*
X301700Y68200D02*
X302100D01*
X302500Y68600D01*
X302900Y68200D01*
X303300D01*
Y68600D01*
X302900Y69000D01*
X303300Y69400D01*
Y69800D01*
X302900D01*
X302500Y69400D01*
X302100Y69800D01*
X301700D01*
Y69400D01*
X302100Y69000D01*
X301700Y68600D01*
Y68200D01*
X322700Y81400D02*
X323100D01*
X323500Y81800D01*
X323900Y81400D01*
X324300D01*
Y81800D01*
X323900Y82200D01*
X324300Y82600D01*
Y83000D01*
X323900D01*
X323500Y82600D01*
X323100Y83000D01*
X322700D01*
Y82600D01*
X323100Y82200D01*
X322700Y81800D01*
Y81400D01*
Y77500D02*
X323100D01*
X323500Y77900D01*
X323900Y77500D01*
X324300D01*
Y77900D01*
X323900Y78300D01*
X324300Y78700D01*
Y79100D01*
X323900D01*
X323500Y78700D01*
X323100Y79100D01*
X322700D01*
Y78700D01*
X323100Y78300D01*
X322700Y77900D01*
Y77500D01*
X279900Y102113D02*
X280300D01*
X280700Y102513D01*
X281100Y102113D01*
X281500D01*
Y102513D01*
X281100Y102913D01*
X281500Y103313D01*
Y103713D01*
X281100D01*
X280700Y103313D01*
X280300Y103713D01*
X279900D01*
Y103313D01*
X280300Y102913D01*
X279900Y102513D01*
Y102113D01*
X280500Y115800D02*
X280900D01*
X281300Y116200D01*
X281700Y115800D01*
X282100D01*
Y116200D01*
X281700Y116600D01*
X282100Y117000D01*
Y117400D01*
X281700D01*
X281300Y117000D01*
X280900Y117400D01*
X280500D01*
Y117000D01*
X280900Y116600D01*
X280500Y116200D01*
Y115800D01*
X321400Y110000D02*
X321800D01*
X322200Y110400D01*
X322600Y110000D01*
X323000D01*
Y110400D01*
X322600Y110800D01*
X323000Y111200D01*
Y111600D01*
X322600D01*
X322200Y111200D01*
X321800Y111600D01*
X321400D01*
Y111200D01*
X321800Y110800D01*
X321400Y110400D01*
Y110000D01*
X287800Y123600D02*
X288200D01*
X288600Y124000D01*
X289000Y123600D01*
X289400D01*
Y124000D01*
X289000Y124400D01*
X289400Y124800D01*
Y125200D01*
X289000D01*
X288600Y124800D01*
X288200Y125200D01*
X287800D01*
Y124800D01*
X288200Y124400D01*
X287800Y124000D01*
Y123600D01*
X270200Y77300D02*
X270600D01*
X271000Y77700D01*
X271400Y77300D01*
X271800D01*
Y77700D01*
X271400Y78100D01*
X271800Y78500D01*
Y78900D01*
X271400D01*
X271000Y78500D01*
X270600Y78900D01*
X270200D01*
Y78500D01*
X270600Y78100D01*
X270200Y77700D01*
Y77300D01*
X270100Y102100D02*
X270500D01*
X270900Y102500D01*
X271300Y102100D01*
X271700D01*
Y102500D01*
X271300Y102900D01*
X271700Y103300D01*
Y103700D01*
X271300D01*
X270900Y103300D01*
X270500Y103700D01*
X270100D01*
Y103300D01*
X270500Y102900D01*
X270100Y102500D01*
Y102100D01*
X270300Y115800D02*
X270700D01*
X271100Y116200D01*
X271500Y115800D01*
X271900D01*
Y116200D01*
X271500Y116600D01*
X271900Y117000D01*
Y117400D01*
X271500D01*
X271100Y117000D01*
X270700Y117400D01*
X270300D01*
Y117000D01*
X270700Y116600D01*
X270300Y116200D01*
Y115800D01*
X287800Y133300D02*
X288200D01*
X288600Y133700D01*
X289000Y133300D01*
X289400D01*
Y133700D01*
X289000Y134100D01*
X289400Y134500D01*
Y134900D01*
X289000D01*
X288600Y134500D01*
X288200Y134900D01*
X287800D01*
Y134500D01*
X288200Y134100D01*
X287800Y133700D01*
Y133300D01*
X331100Y110813D02*
X331500D01*
X331900Y111213D01*
X332300Y110813D01*
X332700D01*
Y111213D01*
X332300Y111613D01*
X332700Y112013D01*
Y112413D01*
X332300D01*
X331900Y112013D01*
X331500Y112413D01*
X331100D01*
Y112013D01*
X331500Y111613D01*
X331100Y111213D01*
Y110813D01*
X283600Y123570D02*
X284000D01*
X284400Y123970D01*
X284800Y123570D01*
X285200D01*
Y123970D01*
X284800Y124370D01*
X285200Y124770D01*
Y125170D01*
X284800D01*
X284400Y124770D01*
X284000Y125170D01*
X283600D01*
Y124770D01*
X284000Y124370D01*
X283600Y123970D01*
Y123570D01*
Y133270D02*
X284000D01*
X284400Y133670D01*
X284800Y133270D01*
X285200D01*
Y133670D01*
X284800Y134070D01*
X285200Y134470D01*
Y134870D01*
X284800D01*
X284400Y134470D01*
X284000Y134870D01*
X283600D01*
Y134470D01*
X284000Y134070D01*
X283600Y133670D01*
Y133270D01*
X317830Y70270D02*
X318230D01*
X318630Y70670D01*
X319030Y70270D01*
X319430D01*
Y70670D01*
X319030Y71070D01*
X319430Y71470D01*
Y71870D01*
X319030D01*
X318630Y71470D01*
X318230Y71870D01*
X317830D01*
Y71470D01*
X318230Y71070D01*
X317830Y70670D01*
Y70270D01*
X322700Y70300D02*
X323100D01*
X323500Y70700D01*
X323900Y70300D01*
X324300D01*
Y70700D01*
X323900Y71100D01*
X324300Y71500D01*
Y71900D01*
X323900D01*
X323500Y71500D01*
X323100Y71900D01*
X322700D01*
Y71500D01*
X323100Y71100D01*
X322700Y70700D01*
Y70300D01*
X306800Y73600D02*
X307200D01*
X307600Y74000D01*
X308000Y73600D01*
X308400D01*
Y74000D01*
X308000Y74400D01*
X308400Y74800D01*
Y75200D01*
X308000D01*
X307600Y74800D01*
X307200Y75200D01*
X306800D01*
Y74800D01*
X307200Y74400D01*
X306800Y74000D01*
Y73600D01*
X309497Y85760D02*
X310297Y86560D01*
X311097Y85760D01*
X310297Y84960D01*
X309497Y85760D01*
X305300Y83200D02*
X306100Y84000D01*
X306900Y83200D01*
X306100Y82400D01*
X305300Y83200D01*
X270100Y96900D02*
X270500D01*
X270900Y97300D01*
X271300Y96900D01*
X271700D01*
Y97300D01*
X271300Y97700D01*
X271700Y98100D01*
Y98500D01*
X271300D01*
X270900Y98100D01*
X270500Y98500D01*
X270100D01*
Y98100D01*
X270500Y97700D01*
X270100Y97300D01*
Y96900D01*
X614815Y217187D02*
X615615Y217987D01*
X616415Y217187D01*
X615615Y216387D01*
X614815Y217187D01*
Y221518D02*
X615615Y222318D01*
X616415Y221518D01*
X615615Y220718D01*
X614815Y221518D01*
X619145Y217187D02*
X619945Y217987D01*
X620745Y217187D01*
X619945Y216387D01*
X619145Y217187D01*
Y221518D02*
X619945Y222318D01*
X620745Y221518D01*
X619945Y220718D01*
X619145Y221518D01*
X601000Y198000D02*
X601800Y198800D01*
X602600Y198000D01*
X601800Y197200D01*
X601000Y198000D01*
X37500Y241200D02*
X38300Y242000D01*
X39100Y241200D01*
X38300Y240400D01*
X37500Y241200D01*
X41500D02*
X42300Y242000D01*
X43100Y241200D01*
X42300Y240400D01*
X41500Y241200D01*
Y245200D02*
X42300Y246000D01*
X43100Y245200D01*
X42300Y244400D01*
X41500Y245200D01*
X37500D02*
X38300Y246000D01*
X39100Y245200D01*
X38300Y244400D01*
X37500Y245200D01*
Y249200D02*
X38300Y250000D01*
X39100Y249200D01*
X38300Y248400D01*
X37500Y249200D01*
X41500D02*
X42300Y250000D01*
X43100Y249200D01*
X42300Y248400D01*
X41500Y249200D01*
Y253200D02*
X42300Y254000D01*
X43100Y253200D01*
X42300Y252400D01*
X41500Y253200D01*
X37500D02*
X38300Y254000D01*
X39100Y253200D01*
X38300Y252400D01*
X37500Y253200D01*
X29500D02*
X30300Y254000D01*
X31100Y253200D01*
X30300Y252400D01*
X29500Y253200D01*
X25500D02*
X26300Y254000D01*
X27100Y253200D01*
X26300Y252400D01*
X25500Y253200D01*
Y249200D02*
X26300Y250000D01*
X27100Y249200D01*
X26300Y248400D01*
X25500Y249200D01*
X29500D02*
X30300Y250000D01*
X31100Y249200D01*
X30300Y248400D01*
X29500Y249200D01*
Y245200D02*
X30300Y246000D01*
X31100Y245200D01*
X30300Y244400D01*
X29500Y245200D01*
X25500D02*
X26300Y246000D01*
X27100Y245200D01*
X26300Y244400D01*
X25500Y245200D01*
Y241200D02*
X26300Y242000D01*
X27100Y241200D01*
X26300Y240400D01*
X25500Y241200D01*
X29500D02*
X30300Y242000D01*
X31100Y241200D01*
X30300Y240400D01*
X29500Y241200D01*
X33500D02*
X34300Y242000D01*
X35100Y241200D01*
X34300Y240400D01*
X33500Y241200D01*
Y245200D02*
X34300Y246000D01*
X35100Y245200D01*
X34300Y244400D01*
X33500Y245200D01*
Y253200D02*
X34300Y254000D01*
X35100Y253200D01*
X34300Y252400D01*
X33500Y253200D01*
Y249200D02*
X34300Y250000D01*
X35100Y249200D01*
X34300Y248400D01*
X33500Y249200D01*
X37500Y51400D02*
X38300Y52200D01*
X39100Y51400D01*
X38300Y50600D01*
X37500Y51400D01*
X41500D02*
X42300Y52200D01*
X43100Y51400D01*
X42300Y50600D01*
X41500Y51400D01*
Y55400D02*
X42300Y56200D01*
X43100Y55400D01*
X42300Y54600D01*
X41500Y55400D01*
X37500D02*
X38300Y56200D01*
X39100Y55400D01*
X38300Y54600D01*
X37500Y55400D01*
Y59400D02*
X38300Y60200D01*
X39100Y59400D01*
X38300Y58600D01*
X37500Y59400D01*
X41500D02*
X42300Y60200D01*
X43100Y59400D01*
X42300Y58600D01*
X41500Y59400D01*
Y63400D02*
X42300Y64200D01*
X43100Y63400D01*
X42300Y62600D01*
X41500Y63400D01*
X37500D02*
X38300Y64200D01*
X39100Y63400D01*
X38300Y62600D01*
X37500Y63400D01*
X29500D02*
X30300Y64200D01*
X31100Y63400D01*
X30300Y62600D01*
X29500Y63400D01*
X25500D02*
X26300Y64200D01*
X27100Y63400D01*
X26300Y62600D01*
X25500Y63400D01*
Y59400D02*
X26300Y60200D01*
X27100Y59400D01*
X26300Y58600D01*
X25500Y59400D01*
X29500D02*
X30300Y60200D01*
X31100Y59400D01*
X30300Y58600D01*
X29500Y59400D01*
Y55400D02*
X30300Y56200D01*
X31100Y55400D01*
X30300Y54600D01*
X29500Y55400D01*
X25500D02*
X26300Y56200D01*
X27100Y55400D01*
X26300Y54600D01*
X25500Y55400D01*
Y51400D02*
X26300Y52200D01*
X27100Y51400D01*
X26300Y50600D01*
X25500Y51400D01*
X29500D02*
X30300Y52200D01*
X31100Y51400D01*
X30300Y50600D01*
X29500Y51400D01*
X33500D02*
X34300Y52200D01*
X35100Y51400D01*
X34300Y50600D01*
X33500Y51400D01*
Y55400D02*
X34300Y56200D01*
X35100Y55400D01*
X34300Y54600D01*
X33500Y55400D01*
Y63400D02*
X34300Y64200D01*
X35100Y63400D01*
X34300Y62600D01*
X33500Y63400D01*
Y59400D02*
X34300Y60200D01*
X35100Y59400D01*
X34300Y58600D01*
X33500Y59400D01*
X37500Y143700D02*
X38300Y144500D01*
X39100Y143700D01*
X38300Y142900D01*
X37500Y143700D01*
X41500D02*
X42300Y144500D01*
X43100Y143700D01*
X42300Y142900D01*
X41500Y143700D01*
Y147700D02*
X42300Y148500D01*
X43100Y147700D01*
X42300Y146900D01*
X41500Y147700D01*
X37500D02*
X38300Y148500D01*
X39100Y147700D01*
X38300Y146900D01*
X37500Y147700D01*
Y151700D02*
X38300Y152500D01*
X39100Y151700D01*
X38300Y150900D01*
X37500Y151700D01*
X41500D02*
X42300Y152500D01*
X43100Y151700D01*
X42300Y150900D01*
X41500Y151700D01*
Y155700D02*
X42300Y156500D01*
X43100Y155700D01*
X42300Y154900D01*
X41500Y155700D01*
X37500D02*
X38300Y156500D01*
X39100Y155700D01*
X38300Y154900D01*
X37500Y155700D01*
X29500D02*
X30300Y156500D01*
X31100Y155700D01*
X30300Y154900D01*
X29500Y155700D01*
X25500D02*
X26300Y156500D01*
X27100Y155700D01*
X26300Y154900D01*
X25500Y155700D01*
Y151700D02*
X26300Y152500D01*
X27100Y151700D01*
X26300Y150900D01*
X25500Y151700D01*
X29500D02*
X30300Y152500D01*
X31100Y151700D01*
X30300Y150900D01*
X29500Y151700D01*
Y147700D02*
X30300Y148500D01*
X31100Y147700D01*
X30300Y146900D01*
X29500Y147700D01*
X25500D02*
X26300Y148500D01*
X27100Y147700D01*
X26300Y146900D01*
X25500Y147700D01*
Y143700D02*
X26300Y144500D01*
X27100Y143700D01*
X26300Y142900D01*
X25500Y143700D01*
X29500D02*
X30300Y144500D01*
X31100Y143700D01*
X30300Y142900D01*
X29500Y143700D01*
X33500D02*
X34300Y144500D01*
X35100Y143700D01*
X34300Y142900D01*
X33500Y143700D01*
Y147700D02*
X34300Y148500D01*
X35100Y147700D01*
X34300Y146900D01*
X33500Y147700D01*
Y155700D02*
X34300Y156500D01*
X35100Y155700D01*
X34300Y154900D01*
X33500Y155700D01*
Y151700D02*
X34300Y152500D01*
X35100Y151700D01*
X34300Y150900D01*
X33500Y151700D01*
X12700Y228500D02*
X13500Y229300D01*
X14300Y228500D01*
X13500Y227700D01*
X12700Y228500D01*
X15500D02*
X16300Y229300D01*
X17100Y228500D01*
X16300Y227700D01*
X15500Y228500D01*
X18400D02*
X19200Y229300D01*
X20000Y228500D01*
X19200Y227700D01*
X18400Y228500D01*
X12700Y131000D02*
X13500Y131800D01*
X14300Y131000D01*
X13500Y130200D01*
X12700Y131000D01*
X15500D02*
X16300Y131800D01*
X17100Y131000D01*
X16300Y130200D01*
X15500Y131000D01*
X18400D02*
X19200Y131800D01*
X20000Y131000D01*
X19200Y130200D01*
X18400Y131000D01*
Y38700D02*
X19200Y39500D01*
X20000Y38700D01*
X19200Y37900D01*
X18400Y38700D01*
X15500D02*
X16300Y39500D01*
X17100Y38700D01*
X16300Y37900D01*
X15500Y38700D01*
X12700D02*
X13500Y39500D01*
X14300Y38700D01*
X13500Y37900D01*
X12700Y38700D01*
X104400Y168705D02*
X105200Y169506D01*
X106000Y168705D01*
X105200Y167905D01*
X104400Y168705D01*
X94600Y143000D02*
X95400Y143800D01*
X96200Y143000D01*
X95400Y142200D01*
X94600Y143000D01*
X26000Y37800D02*
X26800Y38600D01*
X27600Y37800D01*
X26800Y37000D01*
X26000Y37800D01*
X31000D02*
X31800Y38600D01*
X32600Y37800D01*
X31800Y37000D01*
X31000Y37800D01*
X36000D02*
X36800Y38600D01*
X37600Y37800D01*
X36800Y37000D01*
X36000Y37800D01*
X26000Y130100D02*
X26800Y130900D01*
X27600Y130100D01*
X26800Y129300D01*
X26000Y130100D01*
X31000D02*
X31800Y130900D01*
X32600Y130100D01*
X31800Y129300D01*
X31000Y130100D01*
X36000D02*
X36800Y130900D01*
X37600Y130100D01*
X36800Y129300D01*
X36000Y130100D01*
Y227600D02*
X36800Y228400D01*
X37600Y227600D01*
X36800Y226800D01*
X36000Y227600D01*
X31000D02*
X31800Y228400D01*
X32600Y227600D01*
X31800Y226800D01*
X31000Y227600D01*
X26000D02*
X26800Y228400D01*
X27600Y227600D01*
X26800Y226800D01*
X26000Y227600D01*
X87400Y147500D02*
X88200Y148300D01*
X89000Y147500D01*
X88200Y146700D01*
X87400Y147500D01*
X98900Y179500D02*
X99700Y180300D01*
X100500Y179500D01*
X99700Y178700D01*
X98900Y179500D01*
X92155Y163587D02*
X92955Y164387D01*
X93755Y163587D01*
X92955Y162787D01*
X92155Y163587D01*
Y167918D02*
X92955Y168718D01*
X93755Y167918D01*
X92955Y167118D01*
X92155Y167918D01*
X96485Y163587D02*
X97285Y164387D01*
X98085Y163587D01*
X97285Y162787D01*
X96485Y163587D01*
Y167918D02*
X97285Y168718D01*
X98085Y167918D01*
X97285Y167118D01*
X96485Y167918D01*
X90083Y176186D02*
X90883Y176986D01*
X91683Y176186D01*
X90883Y175385D01*
X90083Y176186D01*
X94620Y155320D02*
X95420Y156120D01*
X96220Y155320D01*
X95420Y154520D01*
X94620Y155320D01*
X104400Y162800D02*
X105200Y163600D01*
X106000Y162800D01*
X105200Y162000D01*
X104400Y162800D01*
X79800Y159800D02*
X80600Y160600D01*
X81400Y159800D01*
X80600Y159000D01*
X79800Y159800D01*
Y171800D02*
X80600Y172600D01*
X81400Y171800D01*
X80600Y171000D01*
X79800Y171800D01*
X605100Y225400D02*
X605900Y226200D01*
X606700Y225400D01*
X605900Y224600D01*
X605100Y225400D01*
Y213400D02*
X605900Y214200D01*
X606700Y213400D01*
X605900Y212600D01*
X605100Y213400D01*
X616980Y209520D02*
X617780Y210320D01*
X618580Y209520D01*
X617780Y208720D01*
X616980Y209520D01*
X627200Y216400D02*
X628000Y217200D01*
X628800Y216400D01*
X628000Y215600D01*
X627200Y216400D01*
X612443Y229457D02*
X613243Y230257D01*
X614043Y229457D01*
X613243Y228657D01*
X612443Y229457D01*
X618949Y229451D02*
X619748Y230252D01*
X620548Y229451D01*
X619748Y228651D01*
X618949Y229451D01*
X466600Y52100D02*
X467400Y52900D01*
X468200Y52100D01*
X467400Y51300D01*
X466600Y52100D01*
X466000Y61900D02*
X466800Y62700D01*
X467600Y61900D01*
X466800Y61100D01*
X466000Y61900D01*
X388600Y35200D02*
X389400Y36000D01*
X390200Y35200D01*
X389400Y34400D01*
X388600Y35200D01*
X424300Y30700D02*
X425100Y31500D01*
X425900Y30700D01*
X425100Y29900D01*
X424300Y30700D01*
X618400Y10600D02*
X619200Y11400D01*
X620000Y10600D01*
X619200Y9800D01*
X618400Y10600D01*
X619500Y59800D02*
X620300Y60600D01*
X621100Y59800D01*
X620300Y59000D01*
X619500Y59800D01*
X619100Y101900D02*
X619900Y102700D01*
X620700Y101900D01*
X619900Y101100D01*
X619100Y101900D01*
X619300Y145800D02*
X620100Y146600D01*
X620900Y145800D01*
X620100Y145000D01*
X619300Y145800D01*
X618800Y196600D02*
X619600Y197400D01*
X620400Y196600D01*
X619600Y195800D01*
X618800Y196600D01*
X618900Y248800D02*
X619700Y249600D01*
X620500Y248800D01*
X619700Y248000D01*
X618900Y248800D01*
X623400Y314400D02*
X624200Y315200D01*
X625000Y314400D01*
X624200Y313600D01*
X623400Y314400D01*
X558000Y275900D02*
X558800Y276700D01*
X559600Y275900D01*
X558800Y275100D01*
X558000Y275900D01*
X563800Y257500D02*
X564600Y258300D01*
X565400Y257500D01*
X564600Y256700D01*
X563800Y257500D01*
X611600Y236100D02*
X612400Y236900D01*
X613200Y236100D01*
X612400Y235300D01*
X611600Y236100D01*
X512700Y281100D02*
X513500Y281900D01*
X514300Y281100D01*
X513500Y280300D01*
X512700Y281100D01*
X512900Y252100D02*
X513700Y252900D01*
X514500Y252100D01*
X513700Y251300D01*
X512900Y252100D01*
X510700Y224100D02*
X511500Y224900D01*
X512300Y224100D01*
X511500Y223300D01*
X510700Y224100D01*
X449400Y215700D02*
X450200Y216500D01*
X451000Y215700D01*
X450200Y214900D01*
X449400Y215700D01*
X399400Y220600D02*
X400200Y221400D01*
X401000Y220600D01*
X400200Y219800D01*
X399400Y220600D01*
X68500Y188000D02*
X69300Y188800D01*
X70100Y188000D01*
X69300Y187200D01*
X68500Y188000D01*
X61200Y147200D02*
X62000Y148000D01*
X62800Y147200D01*
X62000Y146400D01*
X61200Y147200D01*
X594300Y317200D02*
X595100Y318000D01*
X595900Y317200D01*
X595100Y316400D01*
X594300Y317200D01*
X548600Y318100D02*
X549400Y318900D01*
X550200Y318100D01*
X549400Y317300D01*
X548600Y318100D01*
X501100Y318200D02*
X501900Y319000D01*
X502700Y318200D01*
X501900Y317400D01*
X501100Y318200D01*
X448800D02*
X449600Y319000D01*
X450400Y318200D01*
X449600Y317400D01*
X448800Y318200D01*
X403900Y318000D02*
X404700Y318800D01*
X405500Y318000D01*
X404700Y317200D01*
X403900Y318000D01*
X356000Y318300D02*
X356800Y319100D01*
X357600Y318300D01*
X356800Y317500D01*
X356000Y318300D01*
X315800Y318600D02*
X316600Y319400D01*
X317400Y318600D01*
X316600Y317800D01*
X315800Y318600D01*
X276600Y318300D02*
X277400Y319100D01*
X278200Y318300D01*
X277400Y317500D01*
X276600Y318300D01*
X207100Y318500D02*
X207900Y319300D01*
X208700Y318500D01*
X207900Y317700D01*
X207100Y318500D01*
X156700Y318800D02*
X157500Y319600D01*
X158300Y318800D01*
X157500Y318000D01*
X156700Y318800D01*
X106100Y318300D02*
X106900Y319100D01*
X107700Y318300D01*
X106900Y317500D01*
X106100Y318300D01*
X57500Y317800D02*
X58300Y318600D01*
X59100Y317800D01*
X58300Y317000D01*
X57500Y317800D01*
X5100Y318500D02*
X5900Y319300D01*
X6700Y318500D01*
X5900Y317700D01*
X5100Y318500D01*
X4600Y272500D02*
X5400Y273300D01*
X6200Y272500D01*
X5400Y271700D01*
X4600Y272500D01*
X4500Y212400D02*
X5300Y213200D01*
X6100Y212400D01*
X5300Y211600D01*
X4500Y212400D01*
X5400Y117700D02*
X6200Y118500D01*
X7000Y117700D01*
X6200Y116900D01*
X5400Y117700D01*
X5100Y70300D02*
X5900Y71100D01*
X6700Y70300D01*
X5900Y69500D01*
X5100Y70300D01*
X5700Y6300D02*
X6500Y7100D01*
X7300Y6300D01*
X6500Y5500D01*
X5700Y6300D01*
X82300Y5900D02*
X83100Y6700D01*
X83900Y5900D01*
X83100Y5100D01*
X82300Y5900D01*
X138300Y6400D02*
X139100Y7200D01*
X139900Y6400D01*
X139100Y5600D01*
X138300Y6400D01*
X274200Y5600D02*
X275000Y6400D01*
X275800Y5600D01*
X275000Y4800D01*
X274200Y5600D01*
X324500Y5000D02*
X325300Y5800D01*
X326100Y5000D01*
X325300Y4200D01*
X324500Y5000D01*
X376800Y6200D02*
X377600Y7000D01*
X378400Y6200D01*
X377600Y5400D01*
X376800Y6200D01*
X429000Y6000D02*
X429800Y6800D01*
X430600Y6000D01*
X429800Y5200D01*
X429000Y6000D01*
X499800Y5800D02*
X500600Y6600D01*
X501400Y5800D01*
X500600Y5000D01*
X499800Y5800D01*
X561900Y5500D02*
X562700Y6300D01*
X563500Y5500D01*
X562700Y4700D01*
X561900Y5500D01*
G54D153*
X274200Y24000D02*
X273647Y24761D01*
X272753Y24470D01*
Y23530D01*
X273647Y23239D01*
X274200Y24000D01*
X321522D02*
X320969Y24761D01*
X320075Y24470D01*
Y23530D01*
X320969Y23239D01*
X321522Y24000D01*
M02*
