G04 Layer_Color=8421504*
%FSLAX25Y25*%
%MOIN*%
G70*
G01*
G75*
%ADD51C,0.05000*%
%ADD63R,0.08898X0.07520*%
G04:AMPARAMS|DCode=64|XSize=20mil|YSize=22mil|CornerRadius=3.4mil|HoleSize=0mil|Usage=FLASHONLY|Rotation=270.000|XOffset=0mil|YOffset=0mil|HoleType=Round|Shape=RoundedRectangle|*
%AMROUNDEDRECTD64*
21,1,0.02000,0.01520,0,0,270.0*
21,1,0.01320,0.02200,0,0,270.0*
1,1,0.00680,-0.00760,-0.00660*
1,1,0.00680,-0.00760,0.00660*
1,1,0.00680,0.00760,0.00660*
1,1,0.00680,0.00760,-0.00660*
%
%ADD64ROUNDEDRECTD64*%
G04:AMPARAMS|DCode=65|XSize=27.13mil|YSize=37.37mil|CornerRadius=4.83mil|HoleSize=0mil|Usage=FLASHONLY|Rotation=90.000|XOffset=0mil|YOffset=0mil|HoleType=Round|Shape=RoundedRectangle|*
%AMROUNDEDRECTD65*
21,1,0.02713,0.02772,0,0,90.0*
21,1,0.01748,0.03737,0,0,90.0*
1,1,0.00965,0.01386,0.00874*
1,1,0.00965,0.01386,-0.00874*
1,1,0.00965,-0.01386,-0.00874*
1,1,0.00965,-0.01386,0.00874*
%
%ADD65ROUNDEDRECTD65*%
%ADD66R,0.03700X0.02700*%
%ADD67R,0.04721X0.02950*%
G04:AMPARAMS|DCode=68|XSize=20mil|YSize=22mil|CornerRadius=3.4mil|HoleSize=0mil|Usage=FLASHONLY|Rotation=180.000|XOffset=0mil|YOffset=0mil|HoleType=Round|Shape=RoundedRectangle|*
%AMROUNDEDRECTD68*
21,1,0.02000,0.01520,0,0,180.0*
21,1,0.01320,0.02200,0,0,180.0*
1,1,0.00680,-0.00660,0.00760*
1,1,0.00680,0.00660,0.00760*
1,1,0.00680,0.00660,-0.00760*
1,1,0.00680,-0.00660,-0.00760*
%
%ADD68ROUNDEDRECTD68*%
%ADD69O,0.02950X0.00902*%
%ADD70O,0.00902X0.02950*%
%ADD71R,0.04600X0.04600*%
%ADD72R,0.07700X0.07700*%
%ADD73R,0.02600X0.05400*%
G36*
X94648Y166186D02*
X91813D01*
Y169060D01*
X94648D01*
Y166186D01*
D02*
G37*
G36*
X98427Y166225D02*
X95553D01*
Y169060D01*
X98427D01*
Y166225D01*
D02*
G37*
G36*
X94687Y162446D02*
X91813D01*
Y165280D01*
X94687D01*
Y162446D01*
D02*
G37*
G36*
X98427D02*
X95592D01*
Y165320D01*
X98427D01*
Y162446D01*
D02*
G37*
G36*
X617308Y219786D02*
X614473D01*
Y222660D01*
X617308D01*
Y219786D01*
D02*
G37*
G36*
X621087Y219825D02*
X618213D01*
Y222660D01*
X621087D01*
Y219825D01*
D02*
G37*
G36*
X617347Y216046D02*
X614473D01*
Y218880D01*
X617347D01*
Y216046D01*
D02*
G37*
G36*
X621087D02*
X618252D01*
Y218920D01*
X621087D01*
Y216046D01*
D02*
G37*
G54D51*
X484137Y298351D02*
D03*
X476263D02*
D03*
X470751Y303863D02*
D03*
Y311737D02*
D03*
X476263Y317249D02*
D03*
X484137D02*
D03*
X489649Y311737D02*
D03*
Y303863D02*
D03*
X484137Y5551D02*
D03*
X476263D02*
D03*
X470751Y11063D02*
D03*
Y18937D02*
D03*
X476263Y24449D02*
D03*
X484137D02*
D03*
X489649Y18937D02*
D03*
Y11063D02*
D03*
X43937Y298351D02*
D03*
X36063D02*
D03*
X30551Y303863D02*
D03*
Y311737D02*
D03*
X36063Y317249D02*
D03*
X43937D02*
D03*
X49449Y311737D02*
D03*
Y303863D02*
D03*
X48937Y5551D02*
D03*
X41063D02*
D03*
X35551Y11063D02*
D03*
Y18937D02*
D03*
X41063Y24449D02*
D03*
X48937D02*
D03*
X54449Y18937D02*
D03*
Y11063D02*
D03*
G54D63*
X28981Y145058D02*
D03*
X39619Y145054D02*
D03*
X39619Y154310D02*
D03*
X28981Y154314D02*
D03*
Y52758D02*
D03*
X39619Y52754D02*
D03*
X39619Y62010D02*
D03*
X28981Y62014D02*
D03*
Y242558D02*
D03*
X39619Y242554D02*
D03*
X39619Y251810D02*
D03*
X28981Y251814D02*
D03*
G54D64*
X572500Y232900D02*
D03*
Y236690D02*
D03*
X576600Y232900D02*
D03*
Y236690D02*
D03*
X88200Y150400D02*
D03*
Y154190D02*
D03*
X103400Y181090D02*
D03*
Y177300D02*
D03*
X95400Y145900D02*
D03*
Y149690D02*
D03*
X87200Y177300D02*
D03*
Y181090D02*
D03*
X605900Y210500D02*
D03*
Y206710D02*
D03*
G54D65*
Y216723D02*
D03*
Y222077D02*
D03*
X80600Y163123D02*
D03*
Y168477D02*
D03*
G54D66*
X5600Y234175D02*
D03*
Y228825D02*
D03*
Y44375D02*
D03*
Y39025D02*
D03*
Y136675D02*
D03*
Y131325D02*
D03*
G54D67*
X41800Y225143D02*
D03*
Y218057D02*
D03*
X50400Y135157D02*
D03*
Y142243D02*
D03*
X50200Y42857D02*
D03*
Y49943D02*
D03*
G54D68*
X617800Y206100D02*
D03*
X621590D02*
D03*
X130300Y171800D02*
D03*
X126510D02*
D03*
X160800Y170400D02*
D03*
X157010D02*
D03*
G54D69*
X88700Y162800D02*
D03*
Y168705D02*
D03*
X101540D02*
D03*
Y162800D02*
D03*
X611360Y216400D02*
D03*
Y222305D02*
D03*
X624200D02*
D03*
Y216400D02*
D03*
G54D70*
X91183Y172173D02*
D03*
X93151D02*
D03*
X95120D02*
D03*
X97088D02*
D03*
X99057D02*
D03*
Y159333D02*
D03*
X97088D02*
D03*
X95120D02*
D03*
X93151D02*
D03*
X91183D02*
D03*
X613843Y225773D02*
D03*
X615811D02*
D03*
X617780D02*
D03*
X619748D02*
D03*
X621717D02*
D03*
Y212933D02*
D03*
X619748D02*
D03*
X617780D02*
D03*
X615811D02*
D03*
X613843D02*
D03*
G54D71*
X5600Y50266D02*
D03*
Y58600D02*
D03*
Y142566D02*
D03*
Y150900D02*
D03*
Y240066D02*
D03*
Y248400D02*
D03*
G54D72*
X16400Y60200D02*
D03*
Y44426D02*
D03*
Y152500D02*
D03*
Y136726D02*
D03*
Y250000D02*
D03*
Y234226D02*
D03*
G54D73*
X41800Y135161D02*
D03*
X36800D02*
D03*
X31800D02*
D03*
X26800D02*
D03*
X41800Y42861D02*
D03*
X36800D02*
D03*
X31800D02*
D03*
X26800D02*
D03*
X41800Y232661D02*
D03*
X36800D02*
D03*
X31800D02*
D03*
X26800D02*
D03*
M02*
