G04*
G04 #@! TF.GenerationSoftware,Altium Limited,Altium Designer,18.1.6 (161)*
G04*
G04 Layer_Color=8388736*
%FSLAX25Y25*%
%MOIN*%
G70*
G01*
G75*
%ADD53R,0.10400X0.16800*%
%ADD54R,0.03550X0.05321*%
G04:AMPARAMS|DCode=55|XSize=33.13mil|YSize=43.37mil|CornerRadius=7.83mil|HoleSize=0mil|Usage=FLASHONLY|Rotation=90.000|XOffset=0mil|YOffset=0mil|HoleType=Round|Shape=RoundedRectangle|*
%AMROUNDEDRECTD55*
21,1,0.03313,0.02772,0,0,90.0*
21,1,0.01748,0.04337,0,0,90.0*
1,1,0.01565,0.01386,0.00874*
1,1,0.01565,0.01386,-0.00874*
1,1,0.01565,-0.01386,-0.00874*
1,1,0.01565,-0.01386,0.00874*
%
%ADD55ROUNDEDRECTD55*%
%ADD56R,0.08865X0.05124*%
%ADD57R,0.08865X0.14179*%
G04:AMPARAMS|DCode=58|XSize=26mil|YSize=28mil|CornerRadius=6.4mil|HoleSize=0mil|Usage=FLASHONLY|Rotation=270.000|XOffset=0mil|YOffset=0mil|HoleType=Round|Shape=RoundedRectangle|*
%AMROUNDEDRECTD58*
21,1,0.02600,0.01520,0,0,270.0*
21,1,0.01320,0.02800,0,0,270.0*
1,1,0.01280,-0.00760,-0.00660*
1,1,0.01280,-0.00760,0.00660*
1,1,0.01280,0.00760,0.00660*
1,1,0.01280,0.00760,-0.00660*
%
%ADD58ROUNDEDRECTD58*%
G04:AMPARAMS|DCode=59|XSize=26mil|YSize=28mil|CornerRadius=6.4mil|HoleSize=0mil|Usage=FLASHONLY|Rotation=0.000|XOffset=0mil|YOffset=0mil|HoleType=Round|Shape=RoundedRectangle|*
%AMROUNDEDRECTD59*
21,1,0.02600,0.01520,0,0,0.0*
21,1,0.01320,0.02800,0,0,0.0*
1,1,0.01280,0.00660,-0.00760*
1,1,0.01280,-0.00660,-0.00760*
1,1,0.01280,-0.00660,0.00760*
1,1,0.01280,0.00660,0.00760*
%
%ADD59ROUNDEDRECTD59*%
%ADD60R,0.03300X0.04300*%
%ADD61R,0.07880X0.04731*%
%ADD62C,0.05400*%
%ADD63R,0.03943X0.04337*%
%ADD64R,0.11424X0.03353*%
%ADD65R,0.05200X0.05200*%
%ADD66O,0.03943X0.01187*%
%ADD67O,0.01187X0.03943*%
%ADD68R,0.24100X0.24100*%
%ADD69R,0.05321X0.03550*%
%ADD70R,0.04337X0.03943*%
%ADD71O,0.01502X0.03550*%
%ADD72O,0.03550X0.01502*%
%ADD73R,0.08471X0.08471*%
%ADD74R,0.03200X0.06000*%
%ADD75R,0.20100X0.17400*%
%ADD76R,0.08300X0.08300*%
%ADD77R,0.05200X0.05200*%
%ADD78R,0.04300X0.03300*%
%ADD79C,0.06000*%
G04:AMPARAMS|DCode=80|XSize=80mil|YSize=80mil|CornerRadius=40mil|HoleSize=0mil|Usage=FLASHONLY|Rotation=0.000|XOffset=0mil|YOffset=0mil|HoleType=Round|Shape=RoundedRectangle|*
%AMROUNDEDRECTD80*
21,1,0.08000,0.00000,0,0,0.0*
21,1,0.00000,0.08000,0,0,0.0*
1,1,0.08000,0.00000,0.00000*
1,1,0.08000,0.00000,0.00000*
1,1,0.08000,0.00000,0.00000*
1,1,0.08000,0.00000,0.00000*
%
%ADD80ROUNDEDRECTD80*%
%ADD81C,0.05800*%
%ADD82C,0.13450*%
%ADD83R,0.06306X0.06306*%
%ADD84C,0.06306*%
%ADD85C,0.15400*%
%ADD86R,0.08650X0.16900*%
%ADD87O,0.08650X0.16900*%
%ADD88R,0.06306X0.06306*%
%ADD89C,0.01200*%
%ADD90C,0.01700*%
%ADD91C,0.02000*%
%ADD92C,0.02600*%
G54D53*
X617680Y219353D02*
D03*
X95020Y165753D02*
D03*
G54D54*
X521043Y76000D02*
D03*
X513957D02*
D03*
G54D55*
X509100Y88023D02*
D03*
Y93377D02*
D03*
X509200Y109677D02*
D03*
Y104323D02*
D03*
X80600Y168477D02*
D03*
Y163123D02*
D03*
X605900Y222077D02*
D03*
Y216723D02*
D03*
G54D56*
X500805Y86245D02*
D03*
Y95300D02*
D03*
Y104355D02*
D03*
G54D57*
X476395Y95300D02*
D03*
G54D58*
X337400Y24000D02*
D03*
Y27790D02*
D03*
X333300Y24015D02*
D03*
Y27785D02*
D03*
X320330Y82200D02*
D03*
Y78430D02*
D03*
X316200Y82170D02*
D03*
Y78400D02*
D03*
X312100Y77700D02*
D03*
Y81470D02*
D03*
X307300Y81500D02*
D03*
Y77730D02*
D03*
X301300Y78200D02*
D03*
Y74410D02*
D03*
X297200Y78200D02*
D03*
Y74410D02*
D03*
X284400Y130870D02*
D03*
Y127100D02*
D03*
X288600Y130900D02*
D03*
Y127130D02*
D03*
X253300Y112800D02*
D03*
Y109010D02*
D03*
X253200Y100100D02*
D03*
Y103890D02*
D03*
X227300Y141715D02*
D03*
Y145485D02*
D03*
X605900Y206710D02*
D03*
Y210500D02*
D03*
X87200Y181090D02*
D03*
Y177300D02*
D03*
X95400Y149690D02*
D03*
Y145900D02*
D03*
X103400Y177300D02*
D03*
Y181090D02*
D03*
X88200Y154190D02*
D03*
Y150400D02*
D03*
X576600Y236690D02*
D03*
Y232900D02*
D03*
X572500Y236690D02*
D03*
Y232900D02*
D03*
G54D59*
X305615Y62800D02*
D03*
X309385D02*
D03*
X309370Y58800D02*
D03*
X305600D02*
D03*
Y71100D02*
D03*
X309370D02*
D03*
X309385Y66900D02*
D03*
X305615D02*
D03*
X278000Y97700D02*
D03*
X274230D02*
D03*
X274200Y102900D02*
D03*
X277970D02*
D03*
X328700Y111700D02*
D03*
X324930D02*
D03*
X267215Y120400D02*
D03*
X270985D02*
D03*
X271000Y124400D02*
D03*
X267210D02*
D03*
X274300Y116600D02*
D03*
X278070D02*
D03*
X73100Y148400D02*
D03*
X76890D02*
D03*
X273830Y77600D02*
D03*
X277600D02*
D03*
X318630Y74300D02*
D03*
X322400D02*
D03*
X277190Y168000D02*
D03*
X273400D02*
D03*
X266390Y176000D02*
D03*
X262600D02*
D03*
X621590Y206100D02*
D03*
X617800D02*
D03*
G54D60*
X303850Y50800D02*
D03*
X298500D02*
D03*
X287925D02*
D03*
X293275D02*
D03*
G54D61*
X275700Y82758D02*
D03*
Y92600D02*
D03*
G54D62*
X265900Y97800D02*
D03*
X353500Y94700D02*
D03*
X300400Y132500D02*
D03*
X81500Y180700D02*
D03*
X90500Y141400D02*
D03*
X113000Y177300D02*
D03*
G54D63*
X231829Y109031D02*
D03*
X247971Y100369D02*
D03*
X231829D02*
D03*
X247971Y109031D02*
D03*
G54D64*
X237008Y146100D02*
D03*
X252992D02*
D03*
X237008Y141100D02*
D03*
X252992D02*
D03*
X237008Y136100D02*
D03*
X252992D02*
D03*
X237008Y131100D02*
D03*
X252992D02*
D03*
X237008Y126100D02*
D03*
X252992D02*
D03*
G54D65*
X73066Y141100D02*
D03*
X81400D02*
D03*
G54D66*
X286835Y115511D02*
D03*
Y113936D02*
D03*
Y112361D02*
D03*
Y110787D02*
D03*
Y109212D02*
D03*
Y107637D02*
D03*
Y106062D02*
D03*
Y104487D02*
D03*
Y102913D02*
D03*
Y101338D02*
D03*
Y99763D02*
D03*
Y98188D02*
D03*
Y96613D02*
D03*
Y95039D02*
D03*
Y93464D02*
D03*
Y91889D02*
D03*
X316165D02*
D03*
Y93464D02*
D03*
Y95039D02*
D03*
Y96613D02*
D03*
Y98188D02*
D03*
Y99763D02*
D03*
Y101338D02*
D03*
Y102913D02*
D03*
Y104487D02*
D03*
Y106062D02*
D03*
Y107637D02*
D03*
Y109212D02*
D03*
Y110787D02*
D03*
Y112361D02*
D03*
Y113936D02*
D03*
Y115511D02*
D03*
G54D67*
X289689Y89035D02*
D03*
X291264D02*
D03*
X292839D02*
D03*
X294413D02*
D03*
X295988D02*
D03*
X297563D02*
D03*
X299138D02*
D03*
X300713D02*
D03*
X302287D02*
D03*
X303862D02*
D03*
X305437D02*
D03*
X307012D02*
D03*
X308587D02*
D03*
X310161D02*
D03*
X311736D02*
D03*
X313311D02*
D03*
Y118365D02*
D03*
X311736D02*
D03*
X310161D02*
D03*
X308587D02*
D03*
X307012D02*
D03*
X305437D02*
D03*
X303862D02*
D03*
X302287D02*
D03*
X300713D02*
D03*
X299138D02*
D03*
X297563D02*
D03*
X295988D02*
D03*
X294413D02*
D03*
X292839D02*
D03*
X291264D02*
D03*
X289689D02*
D03*
G54D68*
X301500Y103700D02*
D03*
G54D69*
X132300Y146157D02*
D03*
Y153243D02*
D03*
X50200Y49943D02*
D03*
Y42857D02*
D03*
X50400Y142243D02*
D03*
Y135157D02*
D03*
X41800Y218057D02*
D03*
Y225143D02*
D03*
G54D70*
X115569Y153971D02*
D03*
X124231Y137829D02*
D03*
Y153971D02*
D03*
X115569Y137829D02*
D03*
G54D71*
X613843Y212933D02*
D03*
X615811D02*
D03*
X617780D02*
D03*
X619748D02*
D03*
X621717D02*
D03*
Y225773D02*
D03*
X619748D02*
D03*
X617780D02*
D03*
X615811D02*
D03*
X613843D02*
D03*
X91183Y159333D02*
D03*
X93151D02*
D03*
X95120D02*
D03*
X97088D02*
D03*
X99057D02*
D03*
Y172173D02*
D03*
X97088D02*
D03*
X95120D02*
D03*
X93151D02*
D03*
X91183D02*
D03*
G54D72*
X624200Y216400D02*
D03*
Y222305D02*
D03*
X611360D02*
D03*
Y216400D02*
D03*
X101540Y162800D02*
D03*
Y168705D02*
D03*
X88700D02*
D03*
Y162800D02*
D03*
G54D73*
X617780Y219353D02*
D03*
X95120Y165753D02*
D03*
G54D74*
X26800Y232661D02*
D03*
X31800D02*
D03*
X36800D02*
D03*
X41800D02*
D03*
X26800Y42861D02*
D03*
X31800D02*
D03*
X36800D02*
D03*
X41800D02*
D03*
X26800Y135161D02*
D03*
X31800D02*
D03*
X36800D02*
D03*
X41800D02*
D03*
G54D75*
X34300Y247100D02*
D03*
Y57300D02*
D03*
Y149600D02*
D03*
G54D76*
X16400Y234226D02*
D03*
Y250000D02*
D03*
Y136726D02*
D03*
Y152500D02*
D03*
Y44426D02*
D03*
Y60200D02*
D03*
G54D77*
X5600Y248400D02*
D03*
Y240066D02*
D03*
Y150900D02*
D03*
Y142566D02*
D03*
Y58600D02*
D03*
Y50266D02*
D03*
G54D78*
Y131325D02*
D03*
Y136675D02*
D03*
Y39025D02*
D03*
Y44375D02*
D03*
Y228825D02*
D03*
Y234175D02*
D03*
G54D79*
X54449Y11063D02*
D03*
Y18937D02*
D03*
X48937Y24449D02*
D03*
X41063D02*
D03*
X35551Y18937D02*
D03*
Y11063D02*
D03*
X41063Y5551D02*
D03*
X48937D02*
D03*
X49449Y303863D02*
D03*
Y311737D02*
D03*
X43937Y317249D02*
D03*
X36063D02*
D03*
X30551Y311737D02*
D03*
Y303863D02*
D03*
X36063Y298351D02*
D03*
X43937D02*
D03*
X489649Y11063D02*
D03*
Y18937D02*
D03*
X484137Y24449D02*
D03*
X476263D02*
D03*
X470751Y18937D02*
D03*
Y11063D02*
D03*
X476263Y5551D02*
D03*
X484137D02*
D03*
X489649Y303863D02*
D03*
Y311737D02*
D03*
X484137Y317249D02*
D03*
X476263D02*
D03*
X470751Y311737D02*
D03*
Y303863D02*
D03*
X476263Y298351D02*
D03*
X484137D02*
D03*
G54D80*
X607500Y297800D02*
D03*
X25000D02*
D03*
Y25000D02*
D03*
G54D81*
X302022Y42600D02*
D03*
X292101D02*
D03*
Y34700D02*
D03*
X302022D02*
D03*
G54D82*
X273400Y24000D02*
D03*
X320722D02*
D03*
G54D83*
X465500Y99979D02*
D03*
X365000Y47500D02*
D03*
X355000D02*
D03*
X345000D02*
D03*
X335000D02*
D03*
X465200Y198200D02*
D03*
X455200D02*
D03*
X445200D02*
D03*
X435200D02*
D03*
X415200D02*
D03*
X405200D02*
D03*
X395200D02*
D03*
X385200D02*
D03*
X458100Y47700D02*
D03*
X448100D02*
D03*
X438100D02*
D03*
X428100D02*
D03*
X418100D02*
D03*
X408100D02*
D03*
X398100D02*
D03*
X388100D02*
D03*
G54D84*
X465500Y89979D02*
D03*
X365000Y57500D02*
D03*
X355000D02*
D03*
X345000D02*
D03*
X335000D02*
D03*
X465200Y208200D02*
D03*
Y217964D02*
D03*
X455200Y208200D02*
D03*
Y217964D02*
D03*
X445200Y208200D02*
D03*
Y217964D02*
D03*
X435200Y208200D02*
D03*
Y217964D02*
D03*
X415200Y208200D02*
D03*
Y217964D02*
D03*
X405200Y208200D02*
D03*
Y217964D02*
D03*
X395200Y208200D02*
D03*
Y217964D02*
D03*
X385200Y208200D02*
D03*
Y217964D02*
D03*
X458100Y57700D02*
D03*
X540338Y86028D02*
D03*
X530338D02*
D03*
X540338Y76028D02*
D03*
X530338D02*
D03*
X540338Y66028D02*
D03*
X530338D02*
D03*
X540338Y56028D02*
D03*
X530338D02*
D03*
X540338Y46028D02*
D03*
X530338D02*
D03*
X540338Y36028D02*
D03*
X530338D02*
D03*
Y26028D02*
D03*
Y236028D02*
D03*
Y246028D02*
D03*
X540338D02*
D03*
X530338Y256028D02*
D03*
X540338D02*
D03*
X530338Y266028D02*
D03*
X540338D02*
D03*
X530338Y276028D02*
D03*
X540338D02*
D03*
X530338Y286028D02*
D03*
X540338D02*
D03*
X530338Y296028D02*
D03*
X540338D02*
D03*
X595476Y86028D02*
D03*
X585476D02*
D03*
X595476Y76028D02*
D03*
X585476D02*
D03*
X595476Y66028D02*
D03*
X585476D02*
D03*
X595476Y56028D02*
D03*
X585476D02*
D03*
X595476Y46028D02*
D03*
X585476D02*
D03*
X595476Y36028D02*
D03*
X585476D02*
D03*
Y26028D02*
D03*
X585495Y96028D02*
D03*
Y106028D02*
D03*
X595495D02*
D03*
X585495Y116028D02*
D03*
X595495D02*
D03*
X585495Y126028D02*
D03*
X595495D02*
D03*
X585495Y136028D02*
D03*
X595495D02*
D03*
X585495Y146028D02*
D03*
X595495D02*
D03*
X585495Y156028D02*
D03*
X595495D02*
D03*
Y296028D02*
D03*
X585495D02*
D03*
X595495Y286028D02*
D03*
X585495D02*
D03*
X595495Y276028D02*
D03*
X585495D02*
D03*
X595495Y266028D02*
D03*
X585495D02*
D03*
X595495Y256028D02*
D03*
X585495D02*
D03*
X595495Y246028D02*
D03*
X585495D02*
D03*
Y236028D02*
D03*
Y166028D02*
D03*
Y176028D02*
D03*
X595495D02*
D03*
X585495Y186028D02*
D03*
X595495D02*
D03*
X585495Y196028D02*
D03*
X595495D02*
D03*
X585495Y206028D02*
D03*
X595495D02*
D03*
X585495Y216028D02*
D03*
X595495D02*
D03*
X585495Y226028D02*
D03*
X595495D02*
D03*
X448100Y57700D02*
D03*
X438100D02*
D03*
X428100D02*
D03*
X418100D02*
D03*
X408100D02*
D03*
X398100D02*
D03*
X388100D02*
D03*
G54D85*
X57900Y176200D02*
D03*
X424400Y276700D02*
D03*
G54D86*
X80000Y273200D02*
D03*
X14700Y83400D02*
D03*
Y175700D02*
D03*
Y273200D02*
D03*
G54D87*
X100000D02*
D03*
X34700Y83400D02*
D03*
Y175700D02*
D03*
Y273200D02*
D03*
G54D88*
X540338Y26028D02*
D03*
Y236028D02*
D03*
X595476Y26028D02*
D03*
X595495Y96028D02*
D03*
Y236028D02*
D03*
Y166028D02*
D03*
G54D89*
X460800Y16500D02*
D03*
X463800Y30600D02*
D03*
X481500Y32576D02*
D03*
X516900Y68500D02*
D03*
X512200Y63500D02*
D03*
X506800Y58400D02*
D03*
X501900Y53500D02*
D03*
X496700Y48400D02*
D03*
X491700Y43500D02*
D03*
X487006Y38500D02*
D03*
X498700Y68600D02*
D03*
X493800Y63500D02*
D03*
X488938Y58400D02*
D03*
X484300Y53600D02*
D03*
X480700Y48400D02*
D03*
X476600Y43600D02*
D03*
X228100Y18200D02*
D03*
X181700Y18300D02*
D03*
X85800Y130050D02*
D03*
X138800Y18800D02*
D03*
X90700Y18100D02*
D03*
X86200Y46100D02*
D03*
X60900Y46200D02*
D03*
X61000Y70900D02*
D03*
X61500Y117600D02*
D03*
X5300Y162900D02*
D03*
X60400Y280000D02*
D03*
X61200Y265400D02*
D03*
X60800Y240800D02*
D03*
Y219400D02*
D03*
X61400Y197800D02*
D03*
X451300Y244000D02*
D03*
X364400Y221815D02*
D03*
X318600Y218200D02*
D03*
X351300Y195900D02*
D03*
X317300Y195400D02*
D03*
X292500Y195500D02*
D03*
X292200Y208300D02*
D03*
X424600Y208200D02*
D03*
X364900Y208300D02*
D03*
X380300Y192800D02*
D03*
X387700Y192700D02*
D03*
X397300D02*
D03*
X407600D02*
D03*
X417500D02*
D03*
X425400Y194000D02*
D03*
X437600Y192900D02*
D03*
X447400Y192800D02*
D03*
X457600Y192900D02*
D03*
X467600D02*
D03*
X478000Y190500D02*
D03*
X354100Y262000D02*
D03*
X260600Y261700D02*
D03*
X172000Y248500D02*
D03*
X89100Y230900D02*
D03*
X453200Y62700D02*
D03*
X433200D02*
D03*
X413200Y62600D02*
D03*
X393300Y61800D02*
D03*
X371322Y49900D02*
D03*
X329900Y53300D02*
D03*
X349900D02*
D03*
X451600Y83800D02*
D03*
X394800Y80200D02*
D03*
X343007Y77800D02*
D03*
X213800Y87100D02*
D03*
X151900Y88100D02*
D03*
X88300Y86000D02*
D03*
X161800Y166400D02*
D03*
X162000Y173900D02*
D03*
X236900Y174300D02*
D03*
X236500Y165400D02*
D03*
X292300Y58500D02*
D03*
X281700Y62700D02*
D03*
X274100Y70000D02*
D03*
X320500Y135900D02*
D03*
X353300Y123200D02*
D03*
X359800Y123000D02*
D03*
X368900Y122700D02*
D03*
X377100Y123700D02*
D03*
X386900Y124800D02*
D03*
X438600Y122300D02*
D03*
X467500Y117600D02*
D03*
X546300Y81300D02*
D03*
X568200Y89700D02*
D03*
X565700Y82300D02*
D03*
X564200Y63800D02*
D03*
Y53700D02*
D03*
X564300Y42200D02*
D03*
X590100Y172300D02*
D03*
Y191200D02*
D03*
X554700Y36000D02*
D03*
X570000Y159800D02*
D03*
X559900Y160500D02*
D03*
X551000Y161700D02*
D03*
X541200Y163600D02*
D03*
X508800Y174700D02*
D03*
X559400Y226600D02*
D03*
X549000Y263200D02*
D03*
X228400Y6400D02*
D03*
X182100Y6200D02*
D03*
X256348Y170200D02*
D03*
X270700Y167900D02*
D03*
X262600Y172300D02*
D03*
X253200Y97300D02*
D03*
X253300Y115600D02*
D03*
X109400Y50500D02*
D03*
X85000Y165900D02*
D03*
X91900Y186300D02*
D03*
X261200Y141200D02*
D03*
X265100Y162400D02*
D03*
X266500Y172300D02*
D03*
X269400Y164700D02*
D03*
X257000Y108200D02*
D03*
X259900D02*
D03*
X262900Y108237D02*
D03*
X261300Y102900D02*
D03*
X264300D02*
D03*
X267300D02*
D03*
X287900Y60000D02*
D03*
X284000Y148100D02*
D03*
X287900Y63000D02*
D03*
Y66000D02*
D03*
Y68900D02*
D03*
X283700Y66600D02*
D03*
Y69500D02*
D03*
Y72400D02*
D03*
X335600Y95000D02*
D03*
X339000D02*
D03*
X334100Y90500D02*
D03*
X331200D02*
D03*
X328200D02*
D03*
X245100Y136200D02*
D03*
X249700Y158200D02*
D03*
X274600Y139100D02*
D03*
X444000Y127300D02*
D03*
X373400Y185100D02*
D03*
X362700Y136600D02*
D03*
X274600Y143300D02*
D03*
X449300Y129900D02*
D03*
X390200Y135100D02*
D03*
X357000Y140600D02*
D03*
X339400Y142900D02*
D03*
X400200Y140600D02*
D03*
X410300D02*
D03*
X420200D02*
D03*
X344000Y108900D02*
D03*
X344100Y144200D02*
D03*
X262600Y153700D02*
D03*
X330200Y148100D02*
D03*
X263900Y156900D02*
D03*
X350100Y151000D02*
D03*
X460200Y149700D02*
D03*
X470200D02*
D03*
X315500Y154200D02*
D03*
X310000Y159500D02*
D03*
X346200Y154900D02*
D03*
X282800Y160500D02*
D03*
X322400Y160200D02*
D03*
X280200Y168000D02*
D03*
X331000Y167400D02*
D03*
X337700D02*
D03*
X381000Y167900D02*
D03*
X332400Y171800D02*
D03*
X279800Y189300D02*
D03*
X297200Y177500D02*
D03*
X300100D02*
D03*
X303000D02*
D03*
X280200Y183000D02*
D03*
X296000Y187200D02*
D03*
X371200Y98400D02*
D03*
X326800Y179600D02*
D03*
X339000Y100500D02*
D03*
X333500D02*
D03*
X380500Y104700D02*
D03*
X373300Y106800D02*
D03*
X383100Y114100D02*
D03*
X326800Y167400D02*
D03*
X312900Y179800D02*
D03*
X295900Y161100D02*
D03*
X297300Y164200D02*
D03*
X305100Y213900D02*
D03*
X329700Y211500D02*
D03*
X326800Y120000D02*
D03*
Y117000D02*
D03*
X278200Y205300D02*
D03*
Y202300D02*
D03*
X278070Y67700D02*
D03*
Y70600D02*
D03*
Y73500D02*
D03*
X310000Y177500D02*
D03*
Y150800D02*
D03*
X315500Y146700D02*
D03*
X296100Y131400D02*
D03*
X302900Y128600D02*
D03*
Y125700D02*
D03*
Y122800D02*
D03*
X296000Y128600D02*
D03*
Y125700D02*
D03*
X295988Y122788D02*
D03*
X308600Y128600D02*
D03*
Y125700D02*
D03*
Y122800D02*
D03*
X315500Y128600D02*
D03*
Y125700D02*
D03*
X318400Y167000D02*
D03*
X315500Y122800D02*
D03*
X601800Y198000D02*
D03*
X13500Y228500D02*
D03*
X16300D02*
D03*
X19200D02*
D03*
X13500Y131000D02*
D03*
X16300D02*
D03*
X19200D02*
D03*
Y38700D02*
D03*
X16300D02*
D03*
X13500D02*
D03*
X105200Y168705D02*
D03*
X95400Y143000D02*
D03*
X26800Y37800D02*
D03*
X31800D02*
D03*
X36800D02*
D03*
X26800Y130100D02*
D03*
X31800D02*
D03*
X36800D02*
D03*
Y227600D02*
D03*
X31800D02*
D03*
X26800D02*
D03*
X88200Y147500D02*
D03*
X99700Y179500D02*
D03*
X90883Y176186D02*
D03*
X95420Y155320D02*
D03*
X105200Y162800D02*
D03*
X80600Y159800D02*
D03*
Y171800D02*
D03*
X605900Y225400D02*
D03*
Y213400D02*
D03*
X617780Y209520D02*
D03*
X628000Y216400D02*
D03*
X613243Y229457D02*
D03*
X619748Y229451D02*
D03*
X467400Y52100D02*
D03*
X466800Y61900D02*
D03*
X389400Y35200D02*
D03*
X425100Y30700D02*
D03*
X619200Y10600D02*
D03*
X620300Y59800D02*
D03*
X619900Y101900D02*
D03*
X620100Y145800D02*
D03*
X619600Y196600D02*
D03*
X619700Y248800D02*
D03*
X624200Y314400D02*
D03*
X558800Y275900D02*
D03*
X564600Y257500D02*
D03*
X612400Y236100D02*
D03*
X513500Y281100D02*
D03*
X513700Y252100D02*
D03*
X511500Y224100D02*
D03*
X450200Y215700D02*
D03*
X400200Y220600D02*
D03*
X69300Y188000D02*
D03*
X62000Y147200D02*
D03*
X595100Y317200D02*
D03*
X549400Y318100D02*
D03*
X501900Y318200D02*
D03*
X449600D02*
D03*
X404700Y318000D02*
D03*
X356800Y318300D02*
D03*
X316600Y318600D02*
D03*
X277400Y318300D02*
D03*
X207900Y318500D02*
D03*
X157500Y318800D02*
D03*
X106900Y318300D02*
D03*
X58300Y317800D02*
D03*
X5900Y318500D02*
D03*
X5400Y272500D02*
D03*
X5300Y212400D02*
D03*
X6200Y117700D02*
D03*
X5900Y70300D02*
D03*
X6500Y6300D02*
D03*
X83100Y5900D02*
D03*
X139100Y6400D02*
D03*
X275000Y5600D02*
D03*
X325300Y5000D02*
D03*
X377600Y6200D02*
D03*
X429800Y6000D02*
D03*
X500600Y5800D02*
D03*
X562700Y5500D02*
D03*
G54D90*
X256348Y121852D02*
D03*
X337400Y30905D02*
D03*
X333300Y30900D02*
D03*
X509700Y76000D02*
D03*
X473500Y104600D02*
D03*
X479600D02*
D03*
X483000Y101200D02*
D03*
Y95300D02*
D03*
Y89400D02*
D03*
X479700Y86028D02*
D03*
X473500Y86000D02*
D03*
X513300Y88000D02*
D03*
X511400Y84300D02*
D03*
X507300D02*
D03*
X509200Y113300D02*
D03*
X80300Y148400D02*
D03*
X223915Y141715D02*
D03*
X223985Y145485D02*
D03*
X306975Y50800D02*
D03*
X284800D02*
D03*
X312600Y69000D02*
D03*
X305600Y55400D02*
D03*
X312600Y58800D02*
D03*
X314600Y75100D02*
D03*
X302500Y69000D02*
D03*
X323500Y82200D02*
D03*
Y78300D02*
D03*
X280700Y102913D02*
D03*
X281300Y116600D02*
D03*
X322200Y110800D02*
D03*
X288600Y124400D02*
D03*
X271000Y78100D02*
D03*
X270900Y102900D02*
D03*
X271100Y116600D02*
D03*
X288600Y134100D02*
D03*
X331900Y111613D02*
D03*
X284400Y124370D02*
D03*
Y134070D02*
D03*
X318630Y71070D02*
D03*
X323500Y71100D02*
D03*
X307600Y74400D02*
D03*
X270900Y97700D02*
D03*
G54D91*
X290673Y114527D02*
D03*
X312327D02*
D03*
X299335Y110196D02*
D03*
X303665D02*
D03*
X307996Y105865D02*
D03*
Y101535D02*
D03*
X299335Y97204D02*
D03*
X303665D02*
D03*
X290673Y92873D02*
D03*
X312327D02*
D03*
X295004Y101535D02*
D03*
Y105865D02*
D03*
X303665Y101535D02*
D03*
X299335D02*
D03*
Y105865D02*
D03*
X303665D02*
D03*
G54D92*
X38300Y241200D02*
D03*
X42300D02*
D03*
Y245200D02*
D03*
X38300D02*
D03*
Y249200D02*
D03*
X42300D02*
D03*
Y253200D02*
D03*
X38300D02*
D03*
X30300D02*
D03*
X26300D02*
D03*
Y249200D02*
D03*
X30300D02*
D03*
Y245200D02*
D03*
X26300D02*
D03*
Y241200D02*
D03*
X30300D02*
D03*
X34300D02*
D03*
Y245200D02*
D03*
Y253200D02*
D03*
Y249200D02*
D03*
X38300Y51400D02*
D03*
X42300D02*
D03*
Y55400D02*
D03*
X38300D02*
D03*
Y59400D02*
D03*
X42300D02*
D03*
Y63400D02*
D03*
X38300D02*
D03*
X30300D02*
D03*
X26300D02*
D03*
Y59400D02*
D03*
X30300D02*
D03*
Y55400D02*
D03*
X26300D02*
D03*
Y51400D02*
D03*
X30300D02*
D03*
X34300D02*
D03*
Y55400D02*
D03*
Y63400D02*
D03*
Y59400D02*
D03*
X38300Y143700D02*
D03*
X42300D02*
D03*
Y147700D02*
D03*
X38300D02*
D03*
Y151700D02*
D03*
X42300D02*
D03*
Y155700D02*
D03*
X38300D02*
D03*
X30300D02*
D03*
X26300D02*
D03*
Y151700D02*
D03*
X30300D02*
D03*
Y147700D02*
D03*
X26300D02*
D03*
Y143700D02*
D03*
X30300D02*
D03*
X34300D02*
D03*
Y147700D02*
D03*
Y155700D02*
D03*
Y151700D02*
D03*
M02*
