G04*
G04 #@! TF.GenerationSoftware,Altium Limited,Altium Designer,18.1.6 (161)*
G04*
G04 Layer_Color=8421504*
%FSLAX25Y25*%
%MOIN*%
G70*
G01*
G75*
%ADD28R,0.08898X0.07520*%
%ADD29R,0.08701X0.08661*%
%ADD30R,0.08661X0.08701*%
%ADD31R,0.02950X0.04721*%
G04:AMPARAMS|DCode=32|XSize=27.13mil|YSize=37.37mil|CornerRadius=4.83mil|HoleSize=0mil|Usage=FLASHONLY|Rotation=90.000|XOffset=0mil|YOffset=0mil|HoleType=Round|Shape=RoundedRectangle|*
%AMROUNDEDRECTD32*
21,1,0.02713,0.02772,0,0,90.0*
21,1,0.01748,0.03737,0,0,90.0*
1,1,0.00965,0.01386,0.00874*
1,1,0.00965,0.01386,-0.00874*
1,1,0.00965,-0.01386,-0.00874*
1,1,0.00965,-0.01386,0.00874*
%
%ADD32ROUNDEDRECTD32*%
%ADD33R,0.08265X0.04524*%
%ADD34R,0.08265X0.13580*%
G04:AMPARAMS|DCode=35|XSize=20mil|YSize=22mil|CornerRadius=3.4mil|HoleSize=0mil|Usage=FLASHONLY|Rotation=270.000|XOffset=0mil|YOffset=0mil|HoleType=Round|Shape=RoundedRectangle|*
%AMROUNDEDRECTD35*
21,1,0.02000,0.01520,0,0,270.0*
21,1,0.01320,0.02200,0,0,270.0*
1,1,0.00680,-0.00760,-0.00660*
1,1,0.00680,-0.00760,0.00660*
1,1,0.00680,0.00760,0.00660*
1,1,0.00680,0.00760,-0.00660*
%
%ADD35ROUNDEDRECTD35*%
G04:AMPARAMS|DCode=36|XSize=20mil|YSize=22mil|CornerRadius=3.4mil|HoleSize=0mil|Usage=FLASHONLY|Rotation=0.000|XOffset=0mil|YOffset=0mil|HoleType=Round|Shape=RoundedRectangle|*
%AMROUNDEDRECTD36*
21,1,0.02000,0.01520,0,0,0.0*
21,1,0.01320,0.02200,0,0,0.0*
1,1,0.00680,0.00660,-0.00760*
1,1,0.00680,-0.00660,-0.00760*
1,1,0.00680,-0.00660,0.00760*
1,1,0.00680,0.00660,0.00760*
%
%ADD36ROUNDEDRECTD36*%
%ADD37R,0.02700X0.03700*%
%ADD38R,0.07280X0.04131*%
%ADD39R,0.03343X0.03737*%
%ADD40R,0.10824X0.02753*%
%ADD41R,0.04600X0.04600*%
%ADD42O,0.03343X0.00587*%
%ADD43O,0.00587X0.03343*%
%ADD44R,0.04721X0.02950*%
%ADD45R,0.03737X0.03343*%
%ADD46O,0.00902X0.02950*%
%ADD47O,0.02950X0.00902*%
%ADD48R,0.02600X0.05400*%
%ADD49R,0.07700X0.07700*%
%ADD50R,0.04600X0.04600*%
%ADD51R,0.03700X0.02700*%
%ADD52C,0.05000*%
G36*
X91813Y162446D02*
Y165280D01*
X94687D01*
Y162446D01*
X91813D01*
D02*
G37*
G36*
Y169060D02*
X94648D01*
Y166186D01*
X91813D01*
Y169060D01*
D02*
G37*
G36*
X98427Y162446D02*
X95592D01*
Y165320D01*
X98427D01*
Y162446D01*
D02*
G37*
G36*
Y169060D02*
Y166225D01*
X95553D01*
Y169060D01*
X98427D01*
D02*
G37*
G36*
X614473Y216046D02*
Y218880D01*
X617347D01*
Y216046D01*
X614473D01*
D02*
G37*
G36*
Y222660D02*
X617308D01*
Y219786D01*
X614473D01*
Y222660D01*
D02*
G37*
G36*
X621087Y216046D02*
X618252D01*
Y218920D01*
X621087D01*
Y216046D01*
D02*
G37*
G36*
Y222660D02*
Y219825D01*
X618213D01*
Y222660D01*
X621087D01*
D02*
G37*
G54D28*
X28981Y251814D02*
D03*
X39619Y251810D02*
D03*
X39619Y242554D02*
D03*
X28981Y242558D02*
D03*
Y62014D02*
D03*
X39619Y62010D02*
D03*
X39619Y52754D02*
D03*
X28981Y52758D02*
D03*
Y154314D02*
D03*
X39619Y154310D02*
D03*
X39619Y145054D02*
D03*
X28981Y145058D02*
D03*
G54D29*
X296008Y109172D02*
D03*
X306992Y98228D02*
D03*
G54D30*
X306972Y109192D02*
D03*
X296028Y98208D02*
D03*
G54D31*
X521043Y76000D02*
D03*
X513957D02*
D03*
G54D32*
X509100Y88023D02*
D03*
Y93377D02*
D03*
X509200Y109677D02*
D03*
Y104323D02*
D03*
X80600Y168477D02*
D03*
Y163123D02*
D03*
X605900Y222077D02*
D03*
Y216723D02*
D03*
G54D33*
X500805Y86245D02*
D03*
Y95300D02*
D03*
Y104355D02*
D03*
G54D34*
X476395Y95300D02*
D03*
G54D35*
X337400Y24000D02*
D03*
Y27790D02*
D03*
X333300Y24015D02*
D03*
Y27785D02*
D03*
X320330Y82200D02*
D03*
Y78430D02*
D03*
X316200Y82170D02*
D03*
Y78400D02*
D03*
X312100Y77700D02*
D03*
Y81470D02*
D03*
X307300Y81500D02*
D03*
Y77730D02*
D03*
X301300Y78200D02*
D03*
Y74410D02*
D03*
X297200Y78200D02*
D03*
Y74410D02*
D03*
X284400Y130870D02*
D03*
Y127100D02*
D03*
X288600Y130900D02*
D03*
Y127130D02*
D03*
X253300Y112800D02*
D03*
Y109010D02*
D03*
X253200Y100100D02*
D03*
Y103890D02*
D03*
X227300Y141715D02*
D03*
Y145485D02*
D03*
X605900Y206710D02*
D03*
Y210500D02*
D03*
X87200Y181090D02*
D03*
Y177300D02*
D03*
X95400Y149690D02*
D03*
Y145900D02*
D03*
X103400Y177300D02*
D03*
Y181090D02*
D03*
X88200Y154190D02*
D03*
Y150400D02*
D03*
X576600Y236690D02*
D03*
Y232900D02*
D03*
X572500Y236690D02*
D03*
Y232900D02*
D03*
G54D36*
X305615Y62800D02*
D03*
X309385D02*
D03*
X309370Y58800D02*
D03*
X305600D02*
D03*
Y71100D02*
D03*
X309370D02*
D03*
X309385Y66900D02*
D03*
X305615D02*
D03*
X278000Y97700D02*
D03*
X274230D02*
D03*
X274200Y102900D02*
D03*
X277970D02*
D03*
X328700Y111700D02*
D03*
X324930D02*
D03*
X267215Y120400D02*
D03*
X270985D02*
D03*
X271000Y124400D02*
D03*
X267210D02*
D03*
X274300Y116600D02*
D03*
X278070D02*
D03*
X73100Y148400D02*
D03*
X76890D02*
D03*
X273830Y77600D02*
D03*
X277600D02*
D03*
X318630Y74300D02*
D03*
X322400D02*
D03*
X277190Y168000D02*
D03*
X273400D02*
D03*
X266390Y176000D02*
D03*
X262600D02*
D03*
X621590Y206100D02*
D03*
X617800D02*
D03*
G54D37*
X303850Y50800D02*
D03*
X298500D02*
D03*
X287925D02*
D03*
X293275D02*
D03*
G54D38*
X275700Y82758D02*
D03*
Y92600D02*
D03*
G54D39*
X231829Y109031D02*
D03*
X247971Y100369D02*
D03*
X231829D02*
D03*
X247971Y109031D02*
D03*
G54D40*
X237008Y146100D02*
D03*
X252992D02*
D03*
X237008Y141100D02*
D03*
X252992D02*
D03*
X237008Y136100D02*
D03*
X252992D02*
D03*
X237008Y131100D02*
D03*
X252992D02*
D03*
X237008Y126100D02*
D03*
X252992D02*
D03*
G54D41*
X73066Y141100D02*
D03*
X81400D02*
D03*
G54D42*
X286835Y115511D02*
D03*
Y113936D02*
D03*
Y112361D02*
D03*
Y110787D02*
D03*
Y109212D02*
D03*
Y107637D02*
D03*
Y106062D02*
D03*
Y104487D02*
D03*
Y102913D02*
D03*
Y101338D02*
D03*
Y99763D02*
D03*
Y98188D02*
D03*
Y96613D02*
D03*
Y95039D02*
D03*
Y93464D02*
D03*
Y91889D02*
D03*
X316165D02*
D03*
Y93464D02*
D03*
Y95039D02*
D03*
Y96613D02*
D03*
Y98188D02*
D03*
Y99763D02*
D03*
Y101338D02*
D03*
Y102913D02*
D03*
Y104487D02*
D03*
Y106062D02*
D03*
Y107637D02*
D03*
Y109212D02*
D03*
Y110787D02*
D03*
Y112361D02*
D03*
Y113936D02*
D03*
Y115511D02*
D03*
G54D43*
X289689Y89035D02*
D03*
X291264D02*
D03*
X292839D02*
D03*
X294413D02*
D03*
X295988D02*
D03*
X297563D02*
D03*
X299138D02*
D03*
X300713D02*
D03*
X302287D02*
D03*
X303862D02*
D03*
X305437D02*
D03*
X307012D02*
D03*
X308587D02*
D03*
X310161D02*
D03*
X311736D02*
D03*
X313311D02*
D03*
Y118365D02*
D03*
X311736D02*
D03*
X310161D02*
D03*
X308587D02*
D03*
X307012D02*
D03*
X305437D02*
D03*
X303862D02*
D03*
X302287D02*
D03*
X300713D02*
D03*
X299138D02*
D03*
X297563D02*
D03*
X295988D02*
D03*
X294413D02*
D03*
X292839D02*
D03*
X291264D02*
D03*
X289689D02*
D03*
G54D44*
X132300Y146157D02*
D03*
Y153243D02*
D03*
X50200Y49943D02*
D03*
Y42857D02*
D03*
X50400Y142243D02*
D03*
Y135157D02*
D03*
X41800Y218057D02*
D03*
Y225143D02*
D03*
G54D45*
X115569Y153971D02*
D03*
X124231Y137829D02*
D03*
Y153971D02*
D03*
X115569Y137829D02*
D03*
G54D46*
X613843Y212933D02*
D03*
X615811D02*
D03*
X617780D02*
D03*
X619748D02*
D03*
X621717D02*
D03*
Y225773D02*
D03*
X619748D02*
D03*
X617780D02*
D03*
X615811D02*
D03*
X613843D02*
D03*
X91183Y159333D02*
D03*
X93151D02*
D03*
X95120D02*
D03*
X97088D02*
D03*
X99057D02*
D03*
Y172173D02*
D03*
X97088D02*
D03*
X95120D02*
D03*
X93151D02*
D03*
X91183D02*
D03*
G54D47*
X624200Y216400D02*
D03*
Y222305D02*
D03*
X611360D02*
D03*
Y216400D02*
D03*
X101540Y162800D02*
D03*
Y168705D02*
D03*
X88700D02*
D03*
Y162800D02*
D03*
G54D48*
X26800Y232661D02*
D03*
X31800D02*
D03*
X36800D02*
D03*
X41800D02*
D03*
X26800Y42861D02*
D03*
X31800D02*
D03*
X36800D02*
D03*
X41800D02*
D03*
X26800Y135161D02*
D03*
X31800D02*
D03*
X36800D02*
D03*
X41800D02*
D03*
G54D49*
X16400Y234226D02*
D03*
Y250000D02*
D03*
Y136726D02*
D03*
Y152500D02*
D03*
Y44426D02*
D03*
Y60200D02*
D03*
G54D50*
X5600Y248400D02*
D03*
Y240066D02*
D03*
Y150900D02*
D03*
Y142566D02*
D03*
Y58600D02*
D03*
Y50266D02*
D03*
G54D51*
Y131325D02*
D03*
Y136675D02*
D03*
Y39025D02*
D03*
Y44375D02*
D03*
Y228825D02*
D03*
Y234175D02*
D03*
G54D52*
X54449Y11063D02*
D03*
Y18937D02*
D03*
X48937Y24449D02*
D03*
X41063D02*
D03*
X35551Y18937D02*
D03*
Y11063D02*
D03*
X41063Y5551D02*
D03*
X48937D02*
D03*
X49449Y303863D02*
D03*
Y311737D02*
D03*
X43937Y317249D02*
D03*
X36063D02*
D03*
X30551Y311737D02*
D03*
Y303863D02*
D03*
X36063Y298351D02*
D03*
X43937D02*
D03*
X489649Y11063D02*
D03*
Y18937D02*
D03*
X484137Y24449D02*
D03*
X476263D02*
D03*
X470751Y18937D02*
D03*
Y11063D02*
D03*
X476263Y5551D02*
D03*
X484137D02*
D03*
X489649Y303863D02*
D03*
Y311737D02*
D03*
X484137Y317249D02*
D03*
X476263D02*
D03*
X470751Y311737D02*
D03*
Y303863D02*
D03*
X476263Y298351D02*
D03*
X484137D02*
D03*
M02*
