G04 Layer_Physical_Order=2*
G04 Layer_Color=32768*
%FSLAX25Y25*%
%MOIN*%
G70*
G01*
G75*
%ADD41C,0.04000*%
G04:AMPARAMS|DCode=42|XSize=75mil|YSize=75mil|CornerRadius=0mil|HoleSize=0mil|Usage=FLASHONLY|Rotation=0.000|XOffset=0mil|YOffset=0mil|HoleType=Round|Shape=Relief|Width=10mil|Gap=10mil|Entries=4|*
%AMTHD42*
7,0,0,0.07500,0.05500,0.01000,45*
%
%ADD42THD42*%
%ADD43C,0.15811*%
%ADD44C,0.07543*%
G04:AMPARAMS|DCode=45|XSize=95.433mil|YSize=95.433mil|CornerRadius=0mil|HoleSize=0mil|Usage=FLASHONLY|Rotation=0.000|XOffset=0mil|YOffset=0mil|HoleType=Round|Shape=Relief|Width=10mil|Gap=10mil|Entries=4|*
%AMTHD45*
7,0,0,0.09543,0.07543,0.01000,45*
%
%ADD45THD45*%
%ADD46C,0.09500*%
%ADD47C,0.06800*%
G04:AMPARAMS|DCode=48|XSize=115mil|YSize=115mil|CornerRadius=0mil|HoleSize=0mil|Usage=FLASHONLY|Rotation=0.000|XOffset=0mil|YOffset=0mil|HoleType=Round|Shape=Relief|Width=10mil|Gap=10mil|Entries=4|*
%AMTHD48*
7,0,0,0.11500,0.09500,0.01000,45*
%
%ADD48THD48*%
G04:AMPARAMS|DCode=49|XSize=140mil|YSize=140mil|CornerRadius=0mil|HoleSize=0mil|Usage=FLASHONLY|Rotation=0.000|XOffset=0mil|YOffset=0mil|HoleType=Round|Shape=Relief|Width=10mil|Gap=10mil|Entries=4|*
%AMTHD49*
7,0,0,0.14000,0.12000,0.01000,45*
%
%ADD49THD49*%
G04:AMPARAMS|DCode=50|XSize=70mil|YSize=70mil|CornerRadius=0mil|HoleSize=0mil|Usage=FLASHONLY|Rotation=0.000|XOffset=0mil|YOffset=0mil|HoleType=Round|Shape=Relief|Width=10mil|Gap=10mil|Entries=4|*
%AMTHD50*
7,0,0,0.07000,0.05000,0.01000,45*
%
%ADD50THD50*%
%ADD51C,0.05000*%
G54D41*
X0Y0D02*
X632500D01*
Y322800D01*
X0D02*
X632500D01*
X0Y0D02*
Y322800D01*
G54D42*
X473200Y300800D02*
D03*
X487200D02*
D03*
Y314800D02*
D03*
X473200D02*
D03*
X470200Y307800D02*
D03*
X490200D02*
D03*
X480200Y317800D02*
D03*
Y297800D02*
D03*
X473200Y8000D02*
D03*
X487200D02*
D03*
Y22000D02*
D03*
X473200D02*
D03*
X470200Y15000D02*
D03*
X490200D02*
D03*
X480200Y25000D02*
D03*
Y5000D02*
D03*
X33000Y300800D02*
D03*
X47000D02*
D03*
Y314800D02*
D03*
X33000D02*
D03*
X30000Y307800D02*
D03*
X50000D02*
D03*
X40000Y317800D02*
D03*
Y297800D02*
D03*
X38000Y8000D02*
D03*
X52000D02*
D03*
Y22000D02*
D03*
X38000D02*
D03*
X35000Y15000D02*
D03*
X55000D02*
D03*
X45000Y25000D02*
D03*
Y5000D02*
D03*
G54D43*
X480200Y307800D02*
D03*
Y15000D02*
D03*
X40000Y307800D02*
D03*
X45000Y15000D02*
D03*
G54D44*
X284200Y251400D02*
D03*
Y261400D02*
D03*
X274200Y251400D02*
D03*
Y261400D02*
D03*
X264200Y251400D02*
D03*
Y261400D02*
D03*
X254200Y251400D02*
D03*
Y261400D02*
D03*
X244200Y251400D02*
D03*
Y261400D02*
D03*
X234200Y251400D02*
D03*
Y261400D02*
D03*
X224200Y251400D02*
D03*
Y261400D02*
D03*
X214200Y251400D02*
D03*
Y261400D02*
D03*
X204200Y251400D02*
D03*
Y261400D02*
D03*
X194200Y251400D02*
D03*
Y261400D02*
D03*
X184200Y251400D02*
D03*
Y261400D02*
D03*
X174200Y251400D02*
D03*
Y261400D02*
D03*
X164200Y251400D02*
D03*
Y261400D02*
D03*
X154200Y251400D02*
D03*
Y261400D02*
D03*
X144200Y251400D02*
D03*
Y261400D02*
D03*
X134200Y251400D02*
D03*
Y261400D02*
D03*
X124200Y251400D02*
D03*
Y261400D02*
D03*
X114200Y251400D02*
D03*
Y261400D02*
D03*
X104200Y251400D02*
D03*
Y261400D02*
D03*
X94200Y251400D02*
D03*
Y261400D02*
D03*
X84200Y251400D02*
D03*
Y261400D02*
D03*
X74200Y251400D02*
D03*
Y261400D02*
D03*
X64200Y251400D02*
D03*
Y261400D02*
D03*
X388100Y47700D02*
D03*
Y57700D02*
D03*
X398100Y47700D02*
D03*
Y57700D02*
D03*
X408100Y47700D02*
D03*
Y57700D02*
D03*
X418100Y47700D02*
D03*
Y57700D02*
D03*
X428100Y47700D02*
D03*
Y57700D02*
D03*
X438100Y47700D02*
D03*
Y57700D02*
D03*
X448100Y47700D02*
D03*
Y57700D02*
D03*
X284200Y61400D02*
D03*
Y71400D02*
D03*
X274200Y61400D02*
D03*
Y71400D02*
D03*
X264200Y61400D02*
D03*
Y71400D02*
D03*
X254200Y61400D02*
D03*
Y71400D02*
D03*
X244200Y61400D02*
D03*
Y71400D02*
D03*
X234200Y61400D02*
D03*
Y71400D02*
D03*
X224200Y61400D02*
D03*
Y71400D02*
D03*
X214200Y61400D02*
D03*
Y71400D02*
D03*
X204200Y61400D02*
D03*
Y71400D02*
D03*
X194200Y61400D02*
D03*
Y71400D02*
D03*
X184200Y61400D02*
D03*
Y71400D02*
D03*
X174200Y61400D02*
D03*
Y71400D02*
D03*
X164200Y61400D02*
D03*
Y71400D02*
D03*
X154200Y61400D02*
D03*
Y71400D02*
D03*
X144200Y61400D02*
D03*
Y71400D02*
D03*
X134200Y61400D02*
D03*
Y71400D02*
D03*
X124200Y61400D02*
D03*
Y71400D02*
D03*
X114200Y61400D02*
D03*
Y71400D02*
D03*
X104200Y61400D02*
D03*
Y71400D02*
D03*
X94200Y61400D02*
D03*
Y71400D02*
D03*
X84200Y61400D02*
D03*
Y71400D02*
D03*
X74200Y61400D02*
D03*
Y71400D02*
D03*
X64200Y61400D02*
D03*
Y71400D02*
D03*
X595495Y226028D02*
D03*
X585495D02*
D03*
X595495Y216028D02*
D03*
X585495D02*
D03*
X595495Y206028D02*
D03*
X585495D02*
D03*
X595495Y196028D02*
D03*
X585495D02*
D03*
X595495Y186028D02*
D03*
X585495D02*
D03*
X595495Y176028D02*
D03*
X585495D02*
D03*
X595495Y166028D02*
D03*
X585495D02*
D03*
Y236028D02*
D03*
X595495D02*
D03*
X585495Y246028D02*
D03*
X595495D02*
D03*
X585495Y256028D02*
D03*
X595495D02*
D03*
X585495Y266028D02*
D03*
X595495D02*
D03*
X585495Y276028D02*
D03*
X595495D02*
D03*
Y156028D02*
D03*
X585495D02*
D03*
X595495Y146028D02*
D03*
X585495D02*
D03*
X595495Y136028D02*
D03*
X585495D02*
D03*
X595495Y126028D02*
D03*
X585495D02*
D03*
X595495Y116028D02*
D03*
X585495D02*
D03*
X595495Y106028D02*
D03*
X585495D02*
D03*
X595495Y96028D02*
D03*
X585495D02*
D03*
X585476Y26028D02*
D03*
X595476D02*
D03*
X585476Y36028D02*
D03*
X595476D02*
D03*
X585476Y46028D02*
D03*
X595476D02*
D03*
X585476Y56028D02*
D03*
X595476D02*
D03*
X585476Y66028D02*
D03*
X595476D02*
D03*
X585476Y76028D02*
D03*
X595476D02*
D03*
X585476Y86028D02*
D03*
X595476D02*
D03*
X540338Y286028D02*
D03*
X530338D02*
D03*
X540338Y276028D02*
D03*
X530338D02*
D03*
X540338Y266028D02*
D03*
X530338D02*
D03*
X540338Y256028D02*
D03*
X530338D02*
D03*
X540338Y246028D02*
D03*
X530338D02*
D03*
X540338Y236028D02*
D03*
X530338D02*
D03*
Y36028D02*
D03*
X540338D02*
D03*
X530338Y46028D02*
D03*
X540338D02*
D03*
X530338Y56028D02*
D03*
X540338D02*
D03*
X530338Y66028D02*
D03*
X540338D02*
D03*
X530338Y76028D02*
D03*
X540338D02*
D03*
X530338Y86028D02*
D03*
X540338D02*
D03*
X458100Y47700D02*
D03*
Y57700D02*
D03*
X64200Y46400D02*
D03*
X74200Y36400D02*
D03*
Y46400D02*
D03*
X84200Y36400D02*
D03*
Y46400D02*
D03*
X94200Y36400D02*
D03*
Y46400D02*
D03*
X104200Y36400D02*
D03*
Y46400D02*
D03*
X114200Y36400D02*
D03*
Y46400D02*
D03*
X124200Y36400D02*
D03*
Y46400D02*
D03*
X134200Y36400D02*
D03*
Y46400D02*
D03*
X144200Y36400D02*
D03*
Y46400D02*
D03*
X154200Y36400D02*
D03*
Y46400D02*
D03*
X164200Y36400D02*
D03*
Y46400D02*
D03*
X174200Y36400D02*
D03*
Y46400D02*
D03*
X184200Y36400D02*
D03*
Y46400D02*
D03*
X194200Y36400D02*
D03*
Y46400D02*
D03*
X204200Y36400D02*
D03*
Y46400D02*
D03*
X214200Y36400D02*
D03*
Y46400D02*
D03*
X224200Y36400D02*
D03*
Y46400D02*
D03*
X234200Y36400D02*
D03*
Y46400D02*
D03*
X244200Y36400D02*
D03*
Y46400D02*
D03*
X254200Y36400D02*
D03*
Y46400D02*
D03*
X264200Y36400D02*
D03*
Y46400D02*
D03*
X274200D02*
D03*
X284200D02*
D03*
X64200Y86400D02*
D03*
X74200D02*
D03*
Y96400D02*
D03*
X84200Y86400D02*
D03*
Y96400D02*
D03*
X94200Y86400D02*
D03*
Y96400D02*
D03*
X104200Y86400D02*
D03*
Y96400D02*
D03*
X114200Y86400D02*
D03*
Y96400D02*
D03*
X124200Y86400D02*
D03*
Y96400D02*
D03*
X134200Y86400D02*
D03*
Y96400D02*
D03*
X144200Y86400D02*
D03*
Y96400D02*
D03*
X154200Y86400D02*
D03*
Y96400D02*
D03*
X164200Y86400D02*
D03*
Y96400D02*
D03*
X174200Y86400D02*
D03*
Y96400D02*
D03*
X184200Y86400D02*
D03*
Y96400D02*
D03*
X194200Y86400D02*
D03*
Y96400D02*
D03*
X204200Y86400D02*
D03*
Y96400D02*
D03*
X214200Y86400D02*
D03*
Y96400D02*
D03*
X224200Y86400D02*
D03*
Y96400D02*
D03*
X234200Y86400D02*
D03*
Y96400D02*
D03*
X244200Y86400D02*
D03*
Y96400D02*
D03*
X254200Y86400D02*
D03*
Y96400D02*
D03*
X264200Y86400D02*
D03*
Y96400D02*
D03*
X274200Y86400D02*
D03*
X284200D02*
D03*
X64200Y236400D02*
D03*
X74200Y226400D02*
D03*
Y236400D02*
D03*
X84200Y226400D02*
D03*
Y236400D02*
D03*
X94200Y226400D02*
D03*
Y236400D02*
D03*
X104200Y226400D02*
D03*
Y236400D02*
D03*
X114200Y226400D02*
D03*
Y236400D02*
D03*
X124200Y226400D02*
D03*
Y236400D02*
D03*
X134200Y226400D02*
D03*
Y236400D02*
D03*
X144200Y226400D02*
D03*
Y236400D02*
D03*
X154200Y226400D02*
D03*
Y236400D02*
D03*
X164200Y226400D02*
D03*
Y236400D02*
D03*
X174200Y226400D02*
D03*
Y236400D02*
D03*
X184200Y226400D02*
D03*
Y236400D02*
D03*
X194200Y226400D02*
D03*
Y236400D02*
D03*
X204200Y226400D02*
D03*
Y236400D02*
D03*
X214200Y226400D02*
D03*
Y236400D02*
D03*
X224200Y226400D02*
D03*
Y236400D02*
D03*
X234200Y226400D02*
D03*
Y236400D02*
D03*
X244200Y226400D02*
D03*
Y236400D02*
D03*
X254200Y226400D02*
D03*
Y236400D02*
D03*
X264200Y226400D02*
D03*
Y236400D02*
D03*
X274200Y226400D02*
D03*
Y236400D02*
D03*
X284200Y226400D02*
D03*
Y236400D02*
D03*
X64200Y276400D02*
D03*
X74200D02*
D03*
Y286400D02*
D03*
X84200Y276400D02*
D03*
Y286400D02*
D03*
X94200Y276400D02*
D03*
Y286400D02*
D03*
X104200Y276400D02*
D03*
Y286400D02*
D03*
X114200Y276400D02*
D03*
Y286400D02*
D03*
X124200Y276400D02*
D03*
Y286400D02*
D03*
X134200Y276400D02*
D03*
Y286400D02*
D03*
X144200Y276400D02*
D03*
Y286400D02*
D03*
X154200Y276400D02*
D03*
Y286400D02*
D03*
X164200Y276400D02*
D03*
Y286400D02*
D03*
X174200Y276400D02*
D03*
Y286400D02*
D03*
X184200Y276400D02*
D03*
Y286400D02*
D03*
X194200Y276400D02*
D03*
Y286400D02*
D03*
X204200Y276400D02*
D03*
Y286400D02*
D03*
X214200Y276400D02*
D03*
Y286400D02*
D03*
X224200Y276400D02*
D03*
Y286400D02*
D03*
X234200Y276400D02*
D03*
Y286400D02*
D03*
X244200Y276400D02*
D03*
Y286400D02*
D03*
X254200Y276400D02*
D03*
Y286400D02*
D03*
X264200Y276400D02*
D03*
Y286400D02*
D03*
X274200Y276400D02*
D03*
Y286400D02*
D03*
X284200Y276400D02*
D03*
Y286400D02*
D03*
X385200Y217964D02*
D03*
Y208200D02*
D03*
Y198200D02*
D03*
X395200Y217964D02*
D03*
Y208200D02*
D03*
Y198200D02*
D03*
X405200Y217964D02*
D03*
Y208200D02*
D03*
Y198200D02*
D03*
X415200Y217964D02*
D03*
Y208200D02*
D03*
Y198200D02*
D03*
X435200Y217964D02*
D03*
Y208200D02*
D03*
Y198200D02*
D03*
X445200Y217964D02*
D03*
Y208200D02*
D03*
Y198200D02*
D03*
X455200Y217964D02*
D03*
Y208200D02*
D03*
Y198200D02*
D03*
X465200Y217964D02*
D03*
Y208200D02*
D03*
Y198200D02*
D03*
X397900Y89100D02*
D03*
Y99100D02*
D03*
X407900Y89100D02*
D03*
Y99100D02*
D03*
X417900Y89100D02*
D03*
Y99100D02*
D03*
X427900Y89100D02*
D03*
Y99100D02*
D03*
X437900Y89100D02*
D03*
Y99100D02*
D03*
X447900Y89100D02*
D03*
Y99100D02*
D03*
X457900Y89100D02*
D03*
Y99100D02*
D03*
G54D45*
X585495Y286028D02*
D03*
X595495D02*
D03*
X585495Y296028D02*
D03*
X595495D02*
D03*
X540338D02*
D03*
X530338D02*
D03*
Y26028D02*
D03*
X540338D02*
D03*
X64200Y36400D02*
D03*
X274200D02*
D03*
X284200D02*
D03*
X64200Y96400D02*
D03*
X274200D02*
D03*
X284200D02*
D03*
X64200Y226400D02*
D03*
Y286400D02*
D03*
G54D46*
X34700Y273200D02*
D03*
X14700D02*
D03*
X34700Y175700D02*
D03*
X14700D02*
D03*
X34700Y83400D02*
D03*
X14700D02*
D03*
X322200Y273200D02*
D03*
G54D47*
X77200Y151100D02*
D03*
Y141100D02*
D03*
G54D48*
X342200Y273200D02*
D03*
G54D49*
X499500Y115500D02*
D03*
X57900Y176200D02*
D03*
G54D50*
X106600Y115000D02*
D03*
X82800Y109500D02*
D03*
X129500Y55400D02*
D03*
X342300Y72400D02*
D03*
X298200Y72600D02*
D03*
X367600Y52800D02*
D03*
X387900Y91300D02*
D03*
X368000Y91100D02*
D03*
X562700Y5500D02*
D03*
X500600Y5800D02*
D03*
X429800Y6000D02*
D03*
X377700Y4100D02*
D03*
X325300Y5000D02*
D03*
X277200Y4100D02*
D03*
X231600Y14400D02*
D03*
X157200Y12400D02*
D03*
X105100Y4200D02*
D03*
X58600Y3700D02*
D03*
X6500Y6300D02*
D03*
X5900Y70300D02*
D03*
X6200Y117700D02*
D03*
X5300Y212400D02*
D03*
X5400Y272500D02*
D03*
X5900Y318500D02*
D03*
X58300Y317800D02*
D03*
X106900Y318300D02*
D03*
X157500Y318800D02*
D03*
X207900Y318500D02*
D03*
X277400Y318300D02*
D03*
X316600Y318600D02*
D03*
X356800Y318300D02*
D03*
X404700Y318000D02*
D03*
X449600Y318200D02*
D03*
X501900D02*
D03*
X549400Y318100D02*
D03*
X595100Y317200D02*
D03*
X291400Y275800D02*
D03*
X291900Y260900D02*
D03*
X179700Y256600D02*
D03*
X89500Y256500D02*
D03*
X55400Y225000D02*
D03*
X62000Y147200D02*
D03*
X82300Y178400D02*
D03*
X69300Y188000D02*
D03*
X109600Y186100D02*
D03*
X133600Y185700D02*
D03*
X176400Y188200D02*
D03*
X227100Y191300D02*
D03*
X277400Y190900D02*
D03*
X328000Y191200D02*
D03*
X375700Y191600D02*
D03*
X400000Y212900D02*
D03*
X425300Y192600D02*
D03*
X450400Y213300D02*
D03*
X475700Y189500D02*
D03*
X511500Y224100D02*
D03*
X513700Y252100D02*
D03*
X513500Y281100D02*
D03*
X548200Y141800D02*
D03*
X572300Y171600D02*
D03*
X542100Y166100D02*
D03*
X514800Y177300D02*
D03*
X556400Y221500D02*
D03*
X612400Y236100D02*
D03*
X561600Y250400D02*
D03*
X556800Y264400D02*
D03*
X561300Y275500D02*
D03*
X624200Y314400D02*
D03*
X619700Y248800D02*
D03*
X619600Y196600D02*
D03*
X620100Y145800D02*
D03*
X619900Y101900D02*
D03*
X620300Y59800D02*
D03*
X619200Y10600D02*
D03*
X425100Y30700D02*
D03*
X389400Y35200D02*
D03*
X466800Y61900D02*
D03*
X467400Y52100D02*
D03*
X513300Y76100D02*
D03*
X429800Y126000D02*
D03*
X377000Y127000D02*
D03*
X368000Y126800D02*
D03*
X327300Y127400D02*
D03*
X277800Y127300D02*
D03*
X236800Y140800D02*
D03*
X231700D02*
D03*
X224500D02*
D03*
X215700D02*
D03*
X192000Y161000D02*
D03*
X217900Y160900D02*
D03*
X186400Y148500D02*
D03*
X195700Y175200D02*
D03*
X114200Y176800D02*
D03*
X134000Y177500D02*
D03*
X146800Y169100D02*
D03*
X123100Y167700D02*
D03*
X136800Y161600D02*
D03*
X123900Y157900D02*
D03*
X141200Y155700D02*
D03*
X148900D02*
D03*
X129100Y142200D02*
D03*
X256700Y149000D02*
D03*
X236200Y184500D02*
D03*
X619748Y229451D02*
D03*
X613243Y229457D02*
D03*
X628000Y216400D02*
D03*
X617780Y209520D02*
D03*
X605900Y213400D02*
D03*
X133200Y171800D02*
D03*
X163700Y171000D02*
D03*
X80600Y159800D02*
D03*
X105200Y162800D02*
D03*
X95420Y155320D02*
D03*
X90883Y176186D02*
D03*
X99700Y179500D02*
D03*
X88200Y147500D02*
D03*
X26800Y227600D02*
D03*
X31800D02*
D03*
X36800D02*
D03*
Y130100D02*
D03*
X31800D02*
D03*
X26800D02*
D03*
X36800Y37800D02*
D03*
X31800D02*
D03*
X26800D02*
D03*
X95400Y143000D02*
D03*
G54D51*
X199200Y175300D02*
D03*
X124200Y174000D02*
D03*
X234200Y173700D02*
D03*
X248800D02*
D03*
X209300Y145300D02*
D03*
X219300D02*
D03*
X440200Y134800D02*
D03*
X119300Y147000D02*
D03*
X194200Y148200D02*
D03*
X450200Y138200D02*
D03*
X410300Y148200D02*
D03*
X204200Y149500D02*
D03*
X244200D02*
D03*
X264400D02*
D03*
X400200Y148100D02*
D03*
X420200D02*
D03*
X269300Y149500D02*
D03*
X149300Y150700D02*
D03*
X119300Y155800D02*
D03*
X460200Y152300D02*
D03*
X467300D02*
D03*
X154200Y156500D02*
D03*
X159300D02*
D03*
X169300Y170300D02*
D03*
X164200Y168100D02*
D03*
X154200Y169300D02*
D03*
X178300Y166700D02*
D03*
X183200D02*
D03*
X114200Y164400D02*
D03*
X148300Y160900D02*
D03*
X605900Y225400D02*
D03*
X248600Y160900D02*
D03*
X256500D02*
D03*
X128200Y157900D02*
D03*
X185400D02*
D03*
X144200Y176200D02*
D03*
X229300Y175100D02*
D03*
X139200Y176200D02*
D03*
X239300Y184400D02*
D03*
X174200Y180900D02*
D03*
X80600Y171800D02*
D03*
X95400Y152400D02*
D03*
X90900Y179200D02*
D03*
X97285Y167918D02*
D03*
Y163587D02*
D03*
X92955Y167918D02*
D03*
Y163587D02*
D03*
X99657Y176194D02*
D03*
X105200Y168705D02*
D03*
X109400Y53900D02*
D03*
X13500Y38700D02*
D03*
X16300D02*
D03*
X19200D02*
D03*
Y131000D02*
D03*
X16300D02*
D03*
X13500D02*
D03*
X19200Y228500D02*
D03*
X16300D02*
D03*
X13500D02*
D03*
X34300Y151700D02*
D03*
Y155700D02*
D03*
Y147700D02*
D03*
Y143700D02*
D03*
X30300D02*
D03*
X26300D02*
D03*
Y147700D02*
D03*
X30300D02*
D03*
Y151700D02*
D03*
X26300D02*
D03*
Y155700D02*
D03*
X30300D02*
D03*
X38300D02*
D03*
X42300D02*
D03*
Y151700D02*
D03*
X38300D02*
D03*
Y147700D02*
D03*
X42300D02*
D03*
Y143700D02*
D03*
X38300D02*
D03*
X34300Y59400D02*
D03*
Y63400D02*
D03*
Y55400D02*
D03*
Y51400D02*
D03*
X30300D02*
D03*
X26300D02*
D03*
Y55400D02*
D03*
X30300D02*
D03*
Y59400D02*
D03*
X26300D02*
D03*
Y63400D02*
D03*
X30300D02*
D03*
X38300D02*
D03*
X42300D02*
D03*
Y59400D02*
D03*
X38300D02*
D03*
Y55400D02*
D03*
X42300D02*
D03*
Y51400D02*
D03*
X38300D02*
D03*
X34300Y249200D02*
D03*
Y253200D02*
D03*
Y245200D02*
D03*
Y241200D02*
D03*
X30300D02*
D03*
X26300D02*
D03*
Y245200D02*
D03*
X30300D02*
D03*
Y249200D02*
D03*
X26300D02*
D03*
Y253200D02*
D03*
X30300D02*
D03*
X38300D02*
D03*
X42300D02*
D03*
Y249200D02*
D03*
X38300D02*
D03*
Y245200D02*
D03*
X42300D02*
D03*
Y241200D02*
D03*
X38300D02*
D03*
X139300Y143700D02*
D03*
X383200Y138200D02*
D03*
X124200Y143700D02*
D03*
X434400Y132200D02*
D03*
X144200Y181100D02*
D03*
X462600Y185200D02*
D03*
X134200Y142400D02*
D03*
X445200Y127000D02*
D03*
X114200Y181000D02*
D03*
X99300Y109100D02*
D03*
X96500D02*
D03*
X93600D02*
D03*
X457900Y78000D02*
D03*
X69300D02*
D03*
X601800Y198000D02*
D03*
X457900Y190700D02*
D03*
X390200Y143800D02*
D03*
X380500Y172100D02*
D03*
X373300Y179900D02*
D03*
X619945Y221518D02*
D03*
Y217187D02*
D03*
X615615Y221518D02*
D03*
Y217187D02*
D03*
M02*
