G04 Layer_Color=65535*
%FSLAX25Y25*%
%MOIN*%
G70*
G01*
G75*
%ADD25C,0.00700*%
%ADD26C,0.01000*%
%ADD52C,0.00600*%
%ADD53C,0.00984*%
%ADD54C,0.02500*%
%ADD55C,0.00200*%
%ADD56C,0.00787*%
%ADD57C,0.00800*%
%ADD58C,0.00500*%
%ADD59R,0.01190X0.01200*%
%ADD60R,0.00600X0.01200*%
%ADD61R,0.00590X0.01200*%
%ADD62R,0.08790X0.02953*%
G54D25*
X25132Y200198D02*
X21800D01*
Y197699D01*
X23466D01*
X21800D01*
Y195200D01*
X26798D02*
Y198532D01*
X28464Y200198D01*
X30131Y198532D01*
Y195200D01*
Y197699D01*
X26798D01*
X31797Y195200D02*
Y200198D01*
X35129Y195200D01*
Y200198D01*
X36795Y197699D02*
X40127D01*
X41794Y199365D02*
X42627Y200198D01*
X44293D01*
X45126Y199365D01*
Y198532D01*
X44293Y197699D01*
X43460D01*
X44293D01*
X45126Y196866D01*
Y196033D01*
X44293Y195200D01*
X42627D01*
X41794Y196033D01*
X25832Y107798D02*
X22500D01*
Y105299D01*
X24166D01*
X22500D01*
Y102800D01*
X30831Y107798D02*
X27498D01*
Y102800D01*
X30831D01*
X27498Y105299D02*
X29164D01*
X32497Y107798D02*
X35829D01*
X34163D01*
Y102800D01*
X37495Y105299D02*
X40827D01*
X42494Y106965D02*
X43327Y107798D01*
X44993D01*
X45826Y106965D01*
Y103633D01*
X44993Y102800D01*
X43327D01*
X42494Y103633D01*
Y106965D01*
X5732Y307898D02*
X2400D01*
Y305399D01*
X4066D01*
X2400D01*
Y302900D01*
X7398D02*
Y306232D01*
X9065Y307898D01*
X10731Y306232D01*
Y302900D01*
Y305399D01*
X7398D01*
X12397Y302900D02*
Y307898D01*
X15729Y302900D01*
Y307898D01*
X17395Y305399D02*
X20727D01*
X25726Y302900D02*
X22393D01*
X25726Y306232D01*
Y307065D01*
X24893Y307898D01*
X23227D01*
X22393Y307065D01*
X331800Y298098D02*
Y293100D01*
Y295599D01*
X335132D01*
Y298098D01*
Y293100D01*
X336798Y298098D02*
Y294766D01*
X338464Y293100D01*
X340131Y294766D01*
Y298098D01*
X346795D02*
X348461D01*
X347628D01*
Y293100D01*
X346795D01*
X348461D01*
X350960D02*
Y298098D01*
X354293Y293100D01*
Y298098D01*
G54D26*
X508209Y115500D02*
X508152Y116493D01*
X507983Y117473D01*
X507703Y118427D01*
X507316Y119343D01*
X506827Y120209D01*
X506242Y121013D01*
X505570Y121746D01*
X504818Y122397D01*
X503997Y122958D01*
X503118Y123422D01*
X502191Y123783D01*
X501230Y124036D01*
X500245Y124177D01*
X499251Y124206D01*
X498260Y124120D01*
X497286Y123923D01*
X496340Y123616D01*
X495436Y123203D01*
X494584Y122689D01*
X493797Y122082D01*
X493084Y121389D01*
X492454Y120619D01*
X491917Y119783D01*
X491478Y118890D01*
X491144Y117954D01*
X490918Y116985D01*
X490805Y115997D01*
Y115003D01*
X490918Y114015D01*
X491144Y113046D01*
X491478Y112110D01*
X491917Y111217D01*
X492454Y110381D01*
X493084Y109611D01*
X493797Y108918D01*
X494584Y108311D01*
X495436Y107797D01*
X496340Y107384D01*
X497286Y107077D01*
X498261Y106879D01*
X499251Y106794D01*
X500245Y106823D01*
X501230Y106964D01*
X502191Y107217D01*
X503118Y107578D01*
X503997Y108042D01*
X504818Y108603D01*
X505570Y109254D01*
X506242Y109987D01*
X506827Y110791D01*
X507316Y111657D01*
X507703Y112573D01*
X507983Y113527D01*
X508152Y114507D01*
X508209Y115500D01*
X66609Y176200D02*
X66552Y177193D01*
X66383Y178173D01*
X66103Y179127D01*
X65716Y180043D01*
X65227Y180909D01*
X64642Y181713D01*
X63970Y182446D01*
X63218Y183097D01*
X62397Y183658D01*
X61518Y184122D01*
X60591Y184483D01*
X59630Y184736D01*
X58645Y184877D01*
X57651Y184906D01*
X56661Y184820D01*
X55686Y184623D01*
X54740Y184316D01*
X53836Y183903D01*
X52984Y183389D01*
X52197Y182782D01*
X51484Y182089D01*
X50854Y181319D01*
X50317Y180483D01*
X49878Y179590D01*
X49544Y178654D01*
X49318Y177685D01*
X49205Y176697D01*
Y175703D01*
X49318Y174715D01*
X49544Y173746D01*
X49878Y172810D01*
X50317Y171917D01*
X50854Y171081D01*
X51484Y170311D01*
X52197Y169618D01*
X52984Y169011D01*
X53836Y168497D01*
X54740Y168084D01*
X55686Y167777D01*
X56661Y167579D01*
X57651Y167494D01*
X58645Y167523D01*
X59630Y167664D01*
X60591Y167917D01*
X61518Y168278D01*
X62397Y168742D01*
X63218Y169303D01*
X63970Y169954D01*
X64642Y170687D01*
X65227Y171491D01*
X65716Y172357D01*
X66103Y173273D01*
X66383Y174227D01*
X66552Y175207D01*
X66609Y176200D01*
X21321Y43442D02*
Y61200D01*
X11400Y43442D02*
Y61200D01*
X21321Y135742D02*
Y153500D01*
X11400Y135742D02*
Y153500D01*
X21321Y233242D02*
Y251000D01*
X11400Y233242D02*
Y251000D01*
X49800Y165798D02*
X53799D01*
X51799D01*
Y159800D01*
X55798Y165798D02*
Y159800D01*
Y162799D01*
X59797D01*
Y165798D01*
Y159800D01*
X64795D02*
Y165798D01*
X61796Y162799D01*
X65795D01*
X491500Y141098D02*
X495499D01*
X493499D01*
Y135100D01*
X497498Y141098D02*
Y135100D01*
Y138099D01*
X501497D01*
Y141098D01*
Y135100D01*
X507495Y141098D02*
X503496D01*
Y138099D01*
X505496Y139099D01*
X506495D01*
X507495Y138099D01*
Y136100D01*
X506495Y135100D01*
X504496D01*
X503496Y136100D01*
X319900Y249699D02*
X324565D01*
X322233Y252031D02*
Y247366D01*
X339900Y249699D02*
X344565D01*
X12500Y295599D02*
X17165D01*
X14833Y297931D02*
Y293266D01*
X12300Y197799D02*
X16965D01*
X14633Y200131D02*
Y195466D01*
X12400Y105899D02*
X17065D01*
X14733Y108231D02*
Y103566D01*
X494965Y131931D02*
X493799Y133098D01*
X491466D01*
X490300Y131931D01*
Y127266D01*
X491466Y126100D01*
X493799D01*
X494965Y127266D01*
Y129599D01*
X492633D01*
X497298Y126100D02*
Y133098D01*
X501963Y126100D01*
Y133098D01*
X504295D02*
Y126100D01*
X507794D01*
X508961Y127266D01*
Y131931D01*
X507794Y133098D01*
X504295D01*
X53265Y156631D02*
X52099Y157798D01*
X49766D01*
X48600Y156631D01*
Y151966D01*
X49766Y150800D01*
X52099D01*
X53265Y151966D01*
Y154299D01*
X50933D01*
X55598Y150800D02*
Y157798D01*
X60263Y150800D01*
Y157798D01*
X62595D02*
Y150800D01*
X66094D01*
X67261Y151966D01*
Y156631D01*
X66094Y157798D01*
X62595D01*
X378798Y258098D02*
X373800D01*
Y250600D01*
X378798D01*
X373800Y254349D02*
X376299D01*
X381298Y258098D02*
X383797D01*
X382547D01*
Y250600D01*
X381298D01*
X383797D01*
X387546D02*
Y258098D01*
X392544Y250600D01*
Y258098D01*
X400041Y256848D02*
X398792Y258098D01*
X396293D01*
X395043Y256848D01*
Y255598D01*
X396293Y254349D01*
X398792D01*
X400041Y253099D01*
Y251850D01*
X398792Y250600D01*
X396293D01*
X395043Y251850D01*
X402541Y258098D02*
Y256848D01*
X405040Y254349D01*
X407539Y256848D01*
Y258098D01*
X405040Y254349D02*
Y250600D01*
X417536Y258098D02*
X422534D01*
X420035D01*
Y250600D01*
X428782Y258098D02*
X426283D01*
X425034Y256848D01*
Y251850D01*
X426283Y250600D01*
X428782D01*
X430032Y251850D01*
Y256848D01*
X428782Y258098D01*
X443777D02*
X441278D01*
X440029Y256848D01*
Y251850D01*
X441278Y250600D01*
X443777D01*
X445027Y251850D01*
Y256848D01*
X443777Y258098D01*
X452525Y256848D02*
X451275Y258098D01*
X448776D01*
X447526Y256848D01*
Y251850D01*
X448776Y250600D01*
X451275D01*
X452525Y251850D01*
X455024Y258098D02*
X460022D01*
X457523D01*
Y250600D01*
X462521D02*
Y255598D01*
X465021Y258098D01*
X467520Y255598D01*
Y250600D01*
Y254349D01*
X462521D01*
X470019Y258098D02*
Y253099D01*
X472518Y250600D01*
X475017Y253099D01*
Y258098D01*
X481265D02*
X478766D01*
X477517Y256848D01*
Y251850D01*
X478766Y250600D01*
X481265D01*
X482515Y251850D01*
Y256848D01*
X481265Y258098D01*
X363100Y246898D02*
Y239400D01*
X366849D01*
X368098Y240650D01*
Y241899D01*
X366849Y243149D01*
X363100D01*
X366849D01*
X368098Y244398D01*
Y245648D01*
X366849Y246898D01*
X363100D01*
X370598Y239400D02*
Y246898D01*
X374346D01*
X375596Y245648D01*
Y243149D01*
X374346Y241899D01*
X370598D01*
X373097D02*
X375596Y239400D01*
X378095Y246898D02*
X380594D01*
X379345D01*
Y239400D01*
X378095D01*
X380594D01*
X384343Y246898D02*
Y239400D01*
X388092D01*
X389341Y240650D01*
Y245648D01*
X388092Y246898D01*
X384343D01*
X396839Y245648D02*
X395589Y246898D01*
X393090D01*
X391841Y245648D01*
Y240650D01*
X393090Y239400D01*
X395589D01*
X396839Y240650D01*
Y243149D01*
X394340D01*
X404337Y246898D02*
X399338D01*
Y239400D01*
X404337D01*
X399338Y243149D02*
X401837D01*
X414333Y246898D02*
Y239400D01*
X418082D01*
X419332Y240650D01*
Y241899D01*
X418082Y243149D01*
X414333D01*
X418082D01*
X419332Y244398D01*
Y245648D01*
X418082Y246898D01*
X414333D01*
X425580D02*
X423081D01*
X421831Y245648D01*
Y240650D01*
X423081Y239400D01*
X425580D01*
X426829Y240650D01*
Y245648D01*
X425580Y246898D01*
X429329Y239400D02*
Y244398D01*
X431828Y246898D01*
X434327Y244398D01*
Y239400D01*
Y243149D01*
X429329D01*
X436826Y239400D02*
Y246898D01*
X440575D01*
X441825Y245648D01*
Y243149D01*
X440575Y241899D01*
X436826D01*
X439325D02*
X441825Y239400D01*
X444324Y246898D02*
Y239400D01*
X448073D01*
X449322Y240650D01*
Y245648D01*
X448073Y246898D01*
X444324D01*
X459319Y244398D02*
Y239400D01*
Y241899D01*
X460569Y243149D01*
X461818Y244398D01*
X463068D01*
X466817Y245648D02*
X468066Y246898D01*
X470565D01*
X471815Y245648D01*
Y240650D01*
X470565Y239400D01*
X468066D01*
X466817Y240650D01*
Y245648D01*
X474314Y239400D02*
Y240650D01*
X475564D01*
Y239400D01*
X474314D01*
X480562Y245648D02*
X481812Y246898D01*
X484311D01*
X485561Y245648D01*
Y240650D01*
X484311Y239400D01*
X481812D01*
X480562Y240650D01*
Y245648D01*
X489309Y244398D02*
X491808D01*
X493058Y243149D01*
Y239400D01*
X489309D01*
X488060Y240650D01*
X489309Y241899D01*
X493058D01*
G54D52*
X34700Y259200D02*
X35672Y259245D01*
X36636Y259380D01*
X37583Y259604D01*
X38506Y259914D01*
X39396Y260309D01*
X40245Y260784D01*
X41047Y261335D01*
X41794Y261959D01*
X42481Y262649D01*
X43100Y263400D01*
X26300D02*
X26919Y262649D01*
X27606Y261959D01*
X28353Y261335D01*
X29155Y260784D01*
X30004Y260309D01*
X30894Y259914D01*
X31817Y259604D01*
X32764Y259380D01*
X33728Y259245D01*
X34700Y259200D01*
X14700D02*
X15672Y259245D01*
X16636Y259380D01*
X17583Y259604D01*
X18506Y259914D01*
X19396Y260309D01*
X20245Y260784D01*
X21047Y261335D01*
X21794Y261959D01*
X22481Y262649D01*
X23100Y263400D01*
X6300D02*
X6920Y262649D01*
X7606Y261959D01*
X8353Y261335D01*
X9155Y260784D01*
X10004Y260309D01*
X10894Y259914D01*
X11817Y259604D01*
X12764Y259380D01*
X13728Y259245D01*
X14700Y259200D01*
X79708Y151100D02*
X79517Y152060D01*
X78973Y152873D01*
X78160Y153417D01*
X77200Y153608D01*
X76240Y153417D01*
X75427Y152873D01*
X74883Y152060D01*
X74692Y151100D01*
X74883Y150140D01*
X75427Y149327D01*
X76240Y148783D01*
X77200Y148592D01*
X78160Y148783D01*
X78973Y149327D01*
X79517Y150140D01*
X79708Y151100D01*
Y141100D02*
X79517Y142060D01*
X78973Y142873D01*
X78160Y143417D01*
X77200Y143608D01*
X76240Y143417D01*
X75427Y142873D01*
X74883Y142060D01*
X74692Y141100D01*
X74883Y140140D01*
X75427Y139327D01*
X76240Y138783D01*
X77200Y138592D01*
X78160Y138783D01*
X78973Y139327D01*
X79517Y140140D01*
X79708Y141100D01*
X34700Y161700D02*
X35672Y161745D01*
X36636Y161880D01*
X37583Y162104D01*
X38506Y162414D01*
X39396Y162809D01*
X40245Y163284D01*
X41047Y163835D01*
X41794Y164459D01*
X42481Y165149D01*
X43100Y165900D01*
X26300D02*
X26919Y165149D01*
X27606Y164459D01*
X28353Y163835D01*
X29155Y163284D01*
X30004Y162809D01*
X30894Y162414D01*
X31817Y162104D01*
X32764Y161880D01*
X33728Y161745D01*
X34700Y161700D01*
X14700D02*
X15672Y161745D01*
X16636Y161880D01*
X17583Y162104D01*
X18506Y162414D01*
X19396Y162809D01*
X20245Y163284D01*
X21047Y163835D01*
X21794Y164459D01*
X22481Y165149D01*
X23100Y165900D01*
X6300D02*
X6920Y165149D01*
X7606Y164459D01*
X8353Y163835D01*
X9155Y163284D01*
X10004Y162809D01*
X10894Y162414D01*
X11817Y162104D01*
X12764Y161880D01*
X13728Y161745D01*
X14700Y161700D01*
X34700Y69400D02*
X35672Y69445D01*
X36636Y69580D01*
X37583Y69804D01*
X38506Y70114D01*
X39396Y70508D01*
X40245Y70984D01*
X41047Y71535D01*
X41794Y72159D01*
X42481Y72849D01*
X43100Y73600D01*
X26300D02*
X26919Y72849D01*
X27606Y72159D01*
X28353Y71535D01*
X29155Y70984D01*
X30004Y70508D01*
X30894Y70114D01*
X31817Y69804D01*
X32764Y69580D01*
X33728Y69445D01*
X34700Y69400D01*
X14700D02*
X15672Y69445D01*
X16636Y69580D01*
X17583Y69804D01*
X18506Y70114D01*
X19396Y70508D01*
X20245Y70984D01*
X21047Y71535D01*
X21794Y72159D01*
X22481Y72849D01*
X23100Y73600D01*
X6300D02*
X6920Y72849D01*
X7606Y72159D01*
X8353Y71535D01*
X9155Y70984D01*
X10004Y70508D01*
X10894Y70114D01*
X11817Y69804D01*
X12764Y69580D01*
X13728Y69445D01*
X14700Y69400D01*
X342200Y259200D02*
X343172Y259245D01*
X344136Y259380D01*
X345083Y259604D01*
X346006Y259914D01*
X346896Y260309D01*
X347745Y260784D01*
X348547Y261335D01*
X349294Y261959D01*
X349981Y262649D01*
X350600Y263400D01*
X333800D02*
X334419Y262649D01*
X335106Y261959D01*
X335853Y261335D01*
X336655Y260784D01*
X337504Y260309D01*
X338394Y259914D01*
X339317Y259604D01*
X340264Y259380D01*
X341228Y259245D01*
X342200Y259200D01*
X322200D02*
X323172Y259245D01*
X324136Y259380D01*
X325083Y259604D01*
X326006Y259914D01*
X326896Y260309D01*
X327745Y260784D01*
X328547Y261335D01*
X329294Y261959D01*
X329981Y262649D01*
X330600Y263400D01*
X313800D02*
X314420Y262649D01*
X315106Y261959D01*
X315853Y261335D01*
X316655Y260784D01*
X317504Y260309D01*
X318394Y259914D01*
X319317Y259604D01*
X320264Y259380D01*
X321228Y259245D01*
X322200Y259200D01*
X393100Y45700D02*
X395100Y47700D01*
X393100Y49700D02*
X395100Y47700D01*
X403100Y45700D02*
X405100Y47700D01*
X403100Y49700D02*
X405100Y47700D01*
X413100Y45700D02*
X415100Y47700D01*
X413100Y49700D02*
X415100Y47700D01*
X423100Y45700D02*
X425100Y47700D01*
X423100Y49700D02*
X425100Y47700D01*
X433100Y45700D02*
X435100Y47700D01*
X433100Y49700D02*
X435100Y47700D01*
X443100Y45700D02*
X445100Y47700D01*
X443100Y49700D02*
X445100Y47700D01*
X453100Y45700D02*
X455100Y47700D01*
X453100Y49700D02*
X455100Y47700D01*
X463100Y45700D02*
X465100Y47700D01*
X463100Y49700D02*
X465100Y47700D01*
X3139Y236028D02*
X8061D01*
X3139Y226972D02*
X8061D01*
X3139D02*
Y236028D01*
X8061Y226972D02*
Y236028D01*
X36700Y291200D02*
X47200D01*
Y289200D02*
Y291200D01*
Y258200D02*
Y289200D01*
X44700Y263200D02*
Y284200D01*
X43000Y263200D02*
X44700D01*
X36700Y284200D02*
X44700D01*
X37700Y289200D02*
X47200D01*
X37700Y285200D02*
X44700D01*
X36700Y291200D02*
X37700Y289200D01*
X36700Y284200D02*
X37700Y285200D01*
X44700Y284200D02*
Y285200D01*
X31700D02*
X32700Y284200D01*
X31700Y285200D02*
Y289200D01*
X32700Y291200D01*
X36700Y284200D02*
X37700Y285200D01*
X36700Y291200D02*
X37700Y289200D01*
Y285200D02*
Y289200D01*
X36700Y284200D02*
Y291200D01*
X32700Y284200D02*
Y291200D01*
X43200Y263200D02*
X44700D01*
X16700Y284200D02*
X17700Y285200D01*
X11700D02*
X12700Y284200D01*
X11700Y289200D02*
X12700Y291200D01*
X16700D02*
X17700Y289200D01*
Y285200D02*
Y289200D01*
X11700Y285200D02*
Y289200D01*
X12700Y284200D02*
Y291200D01*
X16700Y284200D02*
Y291200D01*
X4700Y285200D02*
X11700D01*
X17700D02*
X31700D01*
X17700Y289200D02*
X31700D01*
X2200D02*
X11700D01*
X32700Y291200D02*
X36700D01*
X16700D02*
X32700D01*
X12700D02*
X16700D01*
X2200D02*
X12700D01*
X32700Y284200D02*
X36700D01*
X16700D02*
X32700D01*
X12700D02*
X16700D01*
X4700D02*
X12700D01*
X4700Y263200D02*
X6400D01*
X23200D02*
X26200D01*
X4700Y284200D02*
Y285200D01*
Y263200D02*
Y284200D01*
X2200Y258200D02*
Y289200D01*
Y291200D01*
Y258200D02*
X47200D01*
X14700Y256200D02*
X18700Y258200D01*
X10700D02*
X14700Y256200D01*
X2844Y47510D02*
Y61388D01*
X8356D01*
Y47510D02*
Y61388D01*
X2844Y47510D02*
X8356D01*
X2844Y61388D02*
X3927Y62471D01*
X7273D01*
X8356Y61388D01*
X3632Y61979D02*
X7765D01*
X3139Y46228D02*
X8061D01*
X3139Y37172D02*
X8061D01*
X3139D02*
Y46228D01*
X8061Y37172D02*
Y46228D01*
X2844Y139810D02*
Y153688D01*
X8356D01*
Y139810D02*
Y153688D01*
X2844Y139810D02*
X8356D01*
X2844Y153688D02*
X3927Y154771D01*
X7273D01*
X8356Y153688D01*
X3632Y154279D02*
X7765D01*
X3139Y138528D02*
X8061D01*
X3139Y129472D02*
X8061D01*
X3139D02*
Y138528D01*
X8061Y129472D02*
Y138528D01*
X36700Y193700D02*
X47200D01*
Y191700D02*
Y193700D01*
Y160700D02*
Y191700D01*
X44700Y165700D02*
Y186700D01*
X43000Y165700D02*
X44700D01*
X36700Y186700D02*
X44700D01*
X37700Y191700D02*
X47200D01*
X37700Y187700D02*
X44700D01*
X36700Y193700D02*
X37700Y191700D01*
X36700Y186700D02*
X37700Y187700D01*
X44700Y186700D02*
Y187700D01*
X31700D02*
X32700Y186700D01*
X31700Y187700D02*
Y191700D01*
X32700Y193700D01*
X36700Y186700D02*
X37700Y187700D01*
X36700Y193700D02*
X37700Y191700D01*
Y187700D02*
Y191700D01*
X36700Y186700D02*
Y193700D01*
X32700Y186700D02*
Y193700D01*
X43200Y165700D02*
X44700D01*
X16700Y186700D02*
X17700Y187700D01*
X11700D02*
X12700Y186700D01*
X11700Y191700D02*
X12700Y193700D01*
X16700D02*
X17700Y191700D01*
Y187700D02*
Y191700D01*
X11700Y187700D02*
Y191700D01*
X12700Y186700D02*
Y193700D01*
X16700Y186700D02*
Y193700D01*
X4700Y187700D02*
X11700D01*
X17700D02*
X31700D01*
X17700Y191700D02*
X31700D01*
X2200D02*
X11700D01*
X32700Y193700D02*
X36700D01*
X16700D02*
X32700D01*
X12700D02*
X16700D01*
X2200D02*
X12700D01*
X32700Y186700D02*
X36700D01*
X16700D02*
X32700D01*
X12700D02*
X16700D01*
X4700D02*
X12700D01*
X4700Y165700D02*
X6400D01*
X23200D02*
X26200D01*
X4700Y186700D02*
Y187700D01*
Y165700D02*
Y186700D01*
X2200Y160700D02*
Y191700D01*
Y193700D01*
Y160700D02*
X47200D01*
X14700Y158700D02*
X18700Y160700D01*
X10700D02*
X14700Y158700D01*
X36700Y101400D02*
X47200D01*
Y99400D02*
Y101400D01*
Y68400D02*
Y99400D01*
X44700Y73400D02*
Y94400D01*
X43000Y73400D02*
X44700D01*
X36700Y94400D02*
X44700D01*
X37700Y99400D02*
X47200D01*
X37700Y95400D02*
X44700D01*
X36700Y101400D02*
X37700Y99400D01*
X36700Y94400D02*
X37700Y95400D01*
X44700Y94400D02*
Y95400D01*
X31700D02*
X32700Y94400D01*
X31700Y95400D02*
Y99400D01*
X32700Y101400D01*
X36700Y94400D02*
X37700Y95400D01*
X36700Y101400D02*
X37700Y99400D01*
Y95400D02*
Y99400D01*
X36700Y94400D02*
Y101400D01*
X32700Y94400D02*
Y101400D01*
X43200Y73400D02*
X44700D01*
X16700Y94400D02*
X17700Y95400D01*
X11700D02*
X12700Y94400D01*
X11700Y99400D02*
X12700Y101400D01*
X16700D02*
X17700Y99400D01*
Y95400D02*
Y99400D01*
X11700Y95400D02*
Y99400D01*
X12700Y94400D02*
Y101400D01*
X16700Y94400D02*
Y101400D01*
X4700Y95400D02*
X11700D01*
X17700D02*
X31700D01*
X17700Y99400D02*
X31700D01*
X2200D02*
X11700D01*
X32700Y101400D02*
X36700D01*
X16700D02*
X32700D01*
X12700D02*
X16700D01*
X2200D02*
X12700D01*
X32700Y94400D02*
X36700D01*
X16700D02*
X32700D01*
X12700D02*
X16700D01*
X4700D02*
X12700D01*
X4700Y73400D02*
X6400D01*
X23200D02*
X26200D01*
X4700Y94400D02*
Y95400D01*
Y73400D02*
Y94400D01*
X2200Y68400D02*
Y99400D01*
Y101400D01*
Y68400D02*
X47200D01*
X14700Y66400D02*
X18700Y68400D01*
X10700D02*
X14700Y66400D01*
X2844Y237310D02*
Y251188D01*
X8356D01*
Y237310D02*
Y251188D01*
X2844Y237310D02*
X8356D01*
X2844Y251188D02*
X3927Y252271D01*
X7273D01*
X8356Y251188D01*
X3632Y251779D02*
X7765D01*
X344200Y291200D02*
X354700D01*
Y289200D02*
Y291200D01*
Y258200D02*
Y289200D01*
X352200Y263200D02*
Y284200D01*
X350500Y263200D02*
X352200D01*
X344200Y284200D02*
X352200D01*
X345200Y289200D02*
X354700D01*
X345200Y285200D02*
X352200D01*
X344200Y291200D02*
X345200Y289200D01*
X344200Y284200D02*
X345200Y285200D01*
X352200Y284200D02*
Y285200D01*
X339200D02*
X340200Y284200D01*
X339200Y285200D02*
Y289200D01*
X340200Y291200D01*
X344200Y284200D02*
X345200Y285200D01*
X344200Y291200D02*
X345200Y289200D01*
Y285200D02*
Y289200D01*
X344200Y284200D02*
Y291200D01*
X340200Y284200D02*
Y291200D01*
X350700Y263200D02*
X352200D01*
X324200Y284200D02*
X325200Y285200D01*
X319200D02*
X320200Y284200D01*
X319200Y289200D02*
X320200Y291200D01*
X324200D02*
X325200Y289200D01*
Y285200D02*
Y289200D01*
X319200Y285200D02*
Y289200D01*
X320200Y284200D02*
Y291200D01*
X324200Y284200D02*
Y291200D01*
X312200Y285200D02*
X319200D01*
X325200D02*
X339200D01*
X325200Y289200D02*
X339200D01*
X309700D02*
X319200D01*
X340200Y291200D02*
X344200D01*
X324200D02*
X340200D01*
X320200D02*
X324200D01*
X309700D02*
X320200D01*
X340200Y284200D02*
X344200D01*
X324200D02*
X340200D01*
X320200D02*
X324200D01*
X312200D02*
X320200D01*
X312200Y263200D02*
X313900D01*
X330700D02*
X333700D01*
X312200Y284200D02*
Y285200D01*
Y263200D02*
Y284200D01*
X309700Y258200D02*
Y289200D01*
Y291200D01*
Y258200D02*
X354700D01*
X322200Y256200D02*
X326200Y258200D01*
X318200D02*
X322200Y256200D01*
X91300Y109400D02*
X93700Y102100D01*
X114200Y1600D02*
Y25100D01*
X124200Y1600D02*
Y25100D01*
X134200Y1600D02*
Y25100D01*
X144200Y1600D02*
Y25100D01*
X154200Y1600D02*
Y25100D01*
X164200Y1600D02*
Y25100D01*
X174200Y1600D02*
Y25100D01*
X184200Y1600D02*
Y25100D01*
X194200Y1600D02*
Y25100D01*
X204200Y1600D02*
Y25100D01*
X214200Y1600D02*
Y25100D01*
X224200Y1600D02*
Y25100D01*
X234200Y1600D02*
Y25100D01*
X244200Y1600D02*
Y25100D01*
X254200Y1600D02*
Y25100D01*
X264200Y1600D02*
Y25100D01*
X274200Y1600D02*
Y25100D01*
X284200Y1600D02*
Y25100D01*
X104200Y107700D02*
Y131200D01*
X114200Y107700D02*
Y131200D01*
X124200Y107700D02*
Y131200D01*
X134200Y107700D02*
Y131200D01*
X144200Y107700D02*
Y131200D01*
X154200Y107700D02*
Y131200D01*
X164200Y107700D02*
Y131200D01*
X174200Y107700D02*
Y131200D01*
X184200Y107700D02*
Y131200D01*
X194200Y107700D02*
Y131200D01*
X204200Y107700D02*
Y131200D01*
X214200Y107700D02*
Y131200D01*
X224200Y107700D02*
Y131200D01*
X234200Y107700D02*
Y131200D01*
X244200Y107700D02*
Y131200D01*
X254200Y107700D02*
Y131200D01*
X264200Y107700D02*
Y131200D01*
X274200Y107700D02*
Y131200D01*
X124200Y297700D02*
Y321200D01*
X134200Y297700D02*
Y321200D01*
X144200Y297700D02*
Y321200D01*
X154200Y297700D02*
Y321200D01*
X164200Y297700D02*
Y321200D01*
X174200Y297700D02*
Y321200D01*
X184200Y297700D02*
Y321200D01*
X194200Y297700D02*
Y321200D01*
X204200Y297700D02*
Y321200D01*
X214200Y297700D02*
Y321200D01*
X224200Y297700D02*
Y321200D01*
X234200Y297700D02*
Y321200D01*
X244200Y297700D02*
Y321200D01*
X254200Y297700D02*
Y321200D01*
X264200Y297700D02*
Y321200D01*
X274200Y297700D02*
Y321200D01*
X284200Y297700D02*
Y321200D01*
X224200Y191600D02*
Y215100D01*
X214200Y191600D02*
Y215100D01*
X204200Y191600D02*
Y215100D01*
X194200Y191600D02*
Y215100D01*
X184200Y191600D02*
Y215100D01*
X174200Y191600D02*
Y215100D01*
X164200Y191600D02*
Y215100D01*
X154200Y191600D02*
Y215100D01*
X144200Y191600D02*
Y215100D01*
X134200Y191600D02*
Y215100D01*
X124200Y191600D02*
Y215100D01*
X114200Y191600D02*
Y215100D01*
X104200Y191600D02*
Y215100D01*
X94200Y191600D02*
Y215100D01*
X84200Y191600D02*
Y215100D01*
X74200Y191600D02*
Y215100D01*
X64200Y191600D02*
Y215100D01*
X234200Y191600D02*
Y215100D01*
X244200Y191600D02*
Y215100D01*
X254200Y191600D02*
Y215100D01*
X264200Y191600D02*
Y215100D01*
X274200Y191600D02*
Y215100D01*
X284200Y191600D02*
Y215100D01*
X114200Y297700D02*
Y321200D01*
X104200Y297700D02*
Y321200D01*
X94200Y297700D02*
Y321200D01*
X84200Y297700D02*
Y321200D01*
X74200Y297700D02*
Y321200D01*
X64200Y297700D02*
Y321200D01*
X284200Y107700D02*
Y131200D01*
X390200Y200200D02*
X392200Y198200D01*
X390200Y196200D02*
X392200Y198200D01*
X400200Y200200D02*
X402200Y198200D01*
X400200Y196200D02*
X402200Y198200D01*
X410200Y200200D02*
X412200Y198200D01*
X410200Y196200D02*
X412200Y198200D01*
X420200Y200200D02*
X422200Y198200D01*
X420200Y196200D02*
X422200Y198200D01*
X440200Y200200D02*
X442200Y198200D01*
X440200Y196200D02*
X442200Y198200D01*
X450200Y200200D02*
X452200Y198200D01*
X450200Y196200D02*
X452200Y198200D01*
X460200Y200200D02*
X462200Y198200D01*
X460200Y196200D02*
X462200Y198200D01*
X470200Y200200D02*
X472200Y198200D01*
X470200Y196200D02*
X472200Y198200D01*
X378600Y226700D02*
X382100D01*
X380500Y228300D02*
X382100Y226700D01*
X380500Y225100D02*
X382100Y226700D01*
X376700Y224800D02*
X378600Y226700D01*
X376700Y210700D02*
Y224800D01*
X483600Y190400D02*
Y194300D01*
X480900Y187700D02*
X483600Y190400D01*
X469800Y187700D02*
X480900D01*
X469800D02*
X471400Y189300D01*
X469800Y187700D02*
X471400Y186100D01*
X397900Y106100D02*
Y109800D01*
X427900D01*
Y106100D02*
Y109800D01*
X580500Y91000D02*
X600500D01*
X580500Y161000D02*
X600500D01*
X580500Y231000D02*
X600500D01*
X599100Y183700D02*
X601600D01*
X598200Y192200D02*
X602600Y187200D01*
X598300Y202300D02*
X603700Y192300D01*
X601800Y201300D02*
X606100Y195300D01*
X599000Y213200D02*
X601800Y201300D01*
X599900Y226300D02*
X602600Y235200D01*
X599900Y237800D02*
X601000Y241700D01*
X599600Y295300D02*
X602300Y292400D01*
X580100Y239800D02*
X581900Y238000D01*
X112000Y26100D02*
X113333D01*
X112666D01*
Y30099D01*
X112000Y29432D01*
X115332Y26100D02*
X116665D01*
X115999D01*
Y30099D01*
X115332Y29432D01*
X164266Y25900D02*
X161600D01*
X164266Y28566D01*
Y29232D01*
X163599Y29899D01*
X162267D01*
X161600Y29232D01*
X165599Y25900D02*
X166932D01*
X166265D01*
Y29899D01*
X165599Y29232D01*
X211700Y29532D02*
X212366Y30199D01*
X213699D01*
X214366Y29532D01*
Y28866D01*
X213699Y28199D01*
X213033D01*
X213699D01*
X214366Y27533D01*
Y26866D01*
X213699Y26200D01*
X212366D01*
X211700Y26866D01*
X215699Y26200D02*
X217032D01*
X216365D01*
Y30199D01*
X215699Y29532D01*
X263199Y26200D02*
Y30199D01*
X261200Y28199D01*
X263866D01*
X265199Y26200D02*
X266532D01*
X265865D01*
Y30199D01*
X265199Y29532D01*
X282499Y26200D02*
Y30199D01*
X280500Y28199D01*
X283166D01*
X287164Y30199D02*
X284499D01*
Y28199D01*
X285832Y28866D01*
X286498D01*
X287164Y28199D01*
Y26866D01*
X286498Y26200D01*
X285165D01*
X284499Y26866D01*
X101300Y102600D02*
X102633D01*
X101966D01*
Y106599D01*
X101300Y105932D01*
X104632D02*
X105299Y106599D01*
X106632D01*
X107298Y105932D01*
Y103267D01*
X106632Y102600D01*
X105299D01*
X104632Y103267D01*
Y105932D01*
X153566Y102500D02*
X150900D01*
X153566Y105166D01*
Y105832D01*
X152899Y106499D01*
X151567D01*
X150900Y105832D01*
X154899D02*
X155565Y106499D01*
X156898D01*
X157564Y105832D01*
Y103166D01*
X156898Y102500D01*
X155565D01*
X154899Y103166D01*
Y105832D01*
X201000Y105732D02*
X201666Y106399D01*
X202999D01*
X203666Y105732D01*
Y105066D01*
X202999Y104399D01*
X202333D01*
X202999D01*
X203666Y103733D01*
Y103067D01*
X202999Y102400D01*
X201666D01*
X201000Y103067D01*
X204999Y105732D02*
X205665Y106399D01*
X206998D01*
X207664Y105732D01*
Y103067D01*
X206998Y102400D01*
X205665D01*
X204999Y103067D01*
Y105732D01*
X252799Y102400D02*
Y106399D01*
X250800Y104399D01*
X253466D01*
X254799Y105732D02*
X255465Y106399D01*
X256798D01*
X257465Y105732D01*
Y103067D01*
X256798Y102400D01*
X255465D01*
X254799Y103067D01*
Y105732D01*
X282699Y102400D02*
Y106399D01*
X280700Y104399D01*
X283366D01*
X287365Y106399D02*
X286032Y105732D01*
X284699Y104399D01*
Y103067D01*
X285365Y102400D01*
X286698D01*
X287365Y103067D01*
Y103733D01*
X286698Y104399D01*
X284699D01*
X60400Y25900D02*
X61733D01*
X61066D01*
Y29899D01*
X60400Y29232D01*
X65666Y102600D02*
X63000D01*
X65666Y105266D01*
Y105932D01*
X64999Y106599D01*
X63666D01*
X63000Y105932D01*
X61000Y215600D02*
X62333D01*
X61666D01*
Y219599D01*
X61000Y218932D01*
X282499Y216100D02*
Y220099D01*
X280500Y218099D01*
X283166D01*
X287164Y220099D02*
X284499D01*
Y218099D01*
X285832Y218766D01*
X286498D01*
X287164Y218099D01*
Y216766D01*
X286498Y216100D01*
X285165D01*
X284499Y216766D01*
X263199Y216100D02*
Y220099D01*
X261200Y218099D01*
X263866D01*
X265199Y216100D02*
X266532D01*
X265865D01*
Y220099D01*
X265199Y219432D01*
X211700D02*
X212366Y220099D01*
X213699D01*
X214366Y219432D01*
Y218766D01*
X213699Y218099D01*
X213033D01*
X213699D01*
X214366Y217433D01*
Y216766D01*
X213699Y216100D01*
X212366D01*
X211700Y216766D01*
X215699Y216100D02*
X217032D01*
X216365D01*
Y220099D01*
X215699Y219432D01*
X164266Y215800D02*
X161600D01*
X164266Y218466D01*
Y219132D01*
X163599Y219799D01*
X162267D01*
X161600Y219132D01*
X165599Y215800D02*
X166932D01*
X166265D01*
Y219799D01*
X165599Y219132D01*
X112000Y216000D02*
X113333D01*
X112666D01*
Y219999D01*
X112000Y219332D01*
X115332Y216000D02*
X116665D01*
X115999D01*
Y219999D01*
X115332Y219332D01*
X65466Y292500D02*
X62800D01*
X65466Y295166D01*
Y295832D01*
X64799Y296499D01*
X63466D01*
X62800Y295832D01*
X282499Y292300D02*
Y296299D01*
X280500Y294299D01*
X283166D01*
X287164Y296299D02*
X285832Y295632D01*
X284499Y294299D01*
Y292966D01*
X285165Y292300D01*
X286498D01*
X287164Y292966D01*
Y293633D01*
X286498Y294299D01*
X284499D01*
X252599Y292300D02*
Y296299D01*
X250600Y294299D01*
X253266D01*
X254599Y295632D02*
X255265Y296299D01*
X256598D01*
X257264Y295632D01*
Y292966D01*
X256598Y292300D01*
X255265D01*
X254599Y292966D01*
Y295632D01*
X200800D02*
X201466Y296299D01*
X202799D01*
X203466Y295632D01*
Y294966D01*
X202799Y294299D01*
X202133D01*
X202799D01*
X203466Y293633D01*
Y292966D01*
X202799Y292300D01*
X201466D01*
X200800Y292966D01*
X204799Y295632D02*
X205465Y296299D01*
X206798D01*
X207465Y295632D01*
Y292966D01*
X206798Y292300D01*
X205465D01*
X204799Y292966D01*
Y295632D01*
X153366Y292400D02*
X150700D01*
X153366Y295066D01*
Y295732D01*
X152699Y296399D01*
X151366D01*
X150700Y295732D01*
X154699D02*
X155365Y296399D01*
X156698D01*
X157364Y295732D01*
Y293066D01*
X156698Y292400D01*
X155365D01*
X154699Y293066D01*
Y295732D01*
X101100Y292500D02*
X102433D01*
X101766D01*
Y296499D01*
X101100Y295832D01*
X104432D02*
X105099Y296499D01*
X106432D01*
X107098Y295832D01*
Y293166D01*
X106432Y292500D01*
X105099D01*
X104432Y293166D01*
Y295832D01*
G54D53*
X85612Y160753D02*
X84874Y161179D01*
Y160327D01*
X85612Y160753D01*
X608272Y214353D02*
X607534Y214779D01*
Y213927D01*
X608272Y214353D01*
G54D54*
X10790Y41572D02*
D03*
Y133872D02*
D03*
Y231372D02*
D03*
G54D55*
X574500Y231000D02*
Y238599D01*
X570598Y231000D02*
X574500D01*
X570598D02*
Y238599D01*
X574500D01*
X578600Y231000D02*
Y238599D01*
X574698Y231000D02*
X578600D01*
X574698D02*
Y238599D01*
X578600D01*
X603144Y214380D02*
X608656D01*
Y224420D01*
X603144D02*
X608656D01*
X603144Y214380D02*
Y224420D01*
X615900Y204100D02*
X623499D01*
X615900D02*
Y208002D01*
X623499D01*
Y204100D02*
Y208002D01*
X124601Y173800D02*
X132200D01*
Y169898D02*
Y173800D01*
X124601Y169898D02*
X132200D01*
X124601D02*
Y173800D01*
X155101Y172400D02*
X162700D01*
Y168498D02*
Y172400D01*
X155101Y168498D02*
X162700D01*
X155101D02*
Y172400D01*
X90200Y148500D02*
Y156099D01*
X86298Y148500D02*
X90200D01*
X86298D02*
Y156099D01*
X90200D01*
X101400Y175391D02*
Y182990D01*
X105302D01*
Y175391D02*
Y182990D01*
X101400Y175391D02*
X105302D01*
X97400Y144000D02*
Y151599D01*
X93498Y144000D02*
X97400D01*
X93498D02*
Y151599D01*
X97400D01*
X89200Y175400D02*
Y182999D01*
X85298Y175400D02*
X89200D01*
X85298D02*
Y182999D01*
X89200D01*
X77844Y160780D02*
X83356D01*
Y170820D01*
X77844D02*
X83356D01*
X77844Y160780D02*
Y170820D01*
X603900Y204801D02*
Y212400D01*
X607802D01*
Y204801D02*
Y212400D01*
X603900Y204801D02*
X607802D01*
G54D56*
X393100Y42700D02*
Y62621D01*
X383100Y42700D02*
Y62621D01*
X393100D01*
X383100Y42700D02*
X393100D01*
X403100D02*
Y62621D01*
X393100Y42700D02*
Y62621D01*
X403100D01*
X393100Y42700D02*
X403100D01*
X413100D02*
Y62621D01*
X403100Y42700D02*
Y62621D01*
X413100D01*
X403100Y42700D02*
X413100D01*
X423100D02*
Y62621D01*
X413100Y42700D02*
Y62621D01*
X423100D01*
X413100Y42700D02*
X423100D01*
X433100D02*
Y62621D01*
X423100Y42700D02*
Y62621D01*
X433100D01*
X423100Y42700D02*
X433100D01*
X443100D02*
Y62621D01*
X433100Y42700D02*
Y62621D01*
X443100D01*
X433100Y42700D02*
X443100D01*
X453100D02*
Y62621D01*
X443100Y42700D02*
Y62621D01*
X453100D01*
X443100Y42700D02*
X453100D01*
X463100D02*
Y62621D01*
X453100Y42700D02*
Y62621D01*
X463100D01*
X453100Y42700D02*
X463100D01*
X102896Y157977D02*
Y160438D01*
X101419Y157977D02*
X102896D01*
Y171068D02*
Y173528D01*
X101419D02*
X102896D01*
X87344D02*
X88821D01*
X87344Y171068D02*
Y173528D01*
Y157977D02*
Y160438D01*
Y157977D02*
X88821D01*
X289200Y31400D02*
Y51400D01*
X59200Y31400D02*
Y51400D01*
X289200D01*
X59200Y31400D02*
X289200D01*
Y81400D02*
Y101400D01*
X59200Y81400D02*
Y101400D01*
X289200D01*
X59200Y81400D02*
X289200D01*
Y221400D02*
Y241400D01*
X59200Y221400D02*
Y241400D01*
X289200D01*
X59200Y221400D02*
X289200D01*
Y271400D02*
Y291400D01*
X59200Y271400D02*
Y291400D01*
X289200D01*
X59200Y271400D02*
X289200D01*
X380200Y193200D02*
X390200D01*
X380200Y222885D02*
X390200D01*
X380200Y193200D02*
Y222885D01*
X390200Y193200D02*
Y222885D01*
Y193200D02*
X400200D01*
X390200Y222885D02*
X400200D01*
X390200Y193200D02*
Y222885D01*
X400200Y193200D02*
Y222885D01*
Y193200D02*
X410200D01*
X400200Y222885D02*
X410200D01*
X400200Y193200D02*
Y222885D01*
X410200Y193200D02*
Y222885D01*
Y193200D02*
X420200D01*
X410200Y222885D02*
X420200D01*
X410200Y193200D02*
Y222885D01*
X420200Y193200D02*
Y222885D01*
X430200Y193200D02*
X440200D01*
X430200Y222885D02*
X440200D01*
X430200Y193200D02*
Y222885D01*
X440200Y193200D02*
Y222885D01*
Y193200D02*
X450200D01*
X440200Y222885D02*
X450200D01*
X440200Y193200D02*
Y222885D01*
X450200Y193200D02*
Y222885D01*
Y193200D02*
X460200D01*
X450200Y222885D02*
X460200D01*
X450200Y193200D02*
Y222885D01*
X460200Y193200D02*
Y222885D01*
Y193200D02*
X470200D01*
X460200Y222885D02*
X470200D01*
X460200Y193200D02*
Y222885D01*
X470200Y193200D02*
Y222885D01*
X462900Y84100D02*
Y104100D01*
X392900Y84100D02*
Y104100D01*
X462900D01*
X392900Y84100D02*
X462900D01*
X625556Y211577D02*
Y214038D01*
X624079Y211577D02*
X625556D01*
Y224668D02*
Y227128D01*
X624079D02*
X625556D01*
X610004D02*
X611481D01*
X610004Y224668D02*
Y227128D01*
Y211577D02*
Y214038D01*
Y211577D02*
X611481D01*
G54D57*
X45048Y215694D02*
Y227505D01*
X38552Y215694D02*
X45048D01*
X38552D02*
Y227505D01*
X45048D01*
X43800Y137523D02*
Y140377D01*
X24851Y137523D02*
Y140377D01*
X47152Y132794D02*
Y144606D01*
X53648D01*
Y132794D02*
Y144606D01*
X47152Y132794D02*
X53648D01*
X43800Y45223D02*
Y48077D01*
X24851Y45223D02*
Y48077D01*
X46952Y40494D02*
Y52306D01*
X53448D01*
Y40494D02*
Y52306D01*
X46952Y40494D02*
X53448D01*
X43800Y235023D02*
Y237877D01*
X24851Y235023D02*
Y237877D01*
X63700Y29900D02*
X67200Y31400D01*
X61200D02*
X63700Y29900D01*
Y79900D02*
X67200Y81400D01*
X61200D02*
X63700Y79900D01*
Y219900D02*
X67200Y221400D01*
X61200D02*
X63700Y219900D01*
Y269900D02*
X67200Y271400D01*
X61200D02*
X63700Y269900D01*
X394900Y84100D02*
X397900Y82600D01*
X400900Y84100D01*
G54D58*
X74401Y163199D02*
X73901Y162699D01*
Y161700D01*
X74401Y161200D01*
X76400D01*
X76900Y161700D01*
Y162699D01*
X76400Y163199D01*
X76900Y164199D02*
Y165199D01*
Y164699D01*
X73901D01*
X74401Y164199D01*
X605499Y229499D02*
X604999Y229999D01*
X604000D01*
X603500Y229499D01*
Y227500D01*
X604000Y227000D01*
X604999D01*
X605499Y227500D01*
X608498Y227000D02*
X606499D01*
X608498Y228999D01*
Y229499D01*
X607999Y229999D01*
X606999D01*
X606499Y229499D01*
X3800Y256599D02*
Y253600D01*
X5300D01*
X5799Y254100D01*
Y256099D01*
X5300Y256599D01*
X3800D01*
X6799Y253600D02*
X7799D01*
X7299D01*
Y256599D01*
X6799Y256099D01*
X14200Y226599D02*
Y223600D01*
X15699D01*
X16199Y224100D01*
Y226099D01*
X15699Y226599D01*
X14200D01*
X19198Y223600D02*
X17199D01*
X19198Y225599D01*
Y226099D01*
X18699Y226599D01*
X17699D01*
X17199Y226099D01*
X3500Y158899D02*
Y155900D01*
X5000D01*
X5499Y156400D01*
Y158399D01*
X5000Y158899D01*
X3500D01*
X6499Y158399D02*
X6999Y158899D01*
X7999D01*
X8498Y158399D01*
Y157899D01*
X7999Y157399D01*
X7499D01*
X7999D01*
X8498Y156900D01*
Y156400D01*
X7999Y155900D01*
X6999D01*
X6499Y156400D01*
X14400Y129199D02*
Y126200D01*
X15900D01*
X16399Y126700D01*
Y128699D01*
X15900Y129199D01*
X14400D01*
X18899Y126200D02*
Y129199D01*
X17399Y127699D01*
X19398D01*
X3400Y66699D02*
Y63700D01*
X4899D01*
X5399Y64200D01*
Y66199D01*
X4899Y66699D01*
X3400D01*
X8398D02*
X6399D01*
Y65200D01*
X7399Y65699D01*
X7899D01*
X8398Y65200D01*
Y64200D01*
X7899Y63700D01*
X6899D01*
X6399Y64200D01*
X14000Y37799D02*
Y34800D01*
X15499D01*
X15999Y35300D01*
Y37299D01*
X15499Y37799D01*
X14000D01*
X18998D02*
X17999Y37299D01*
X16999Y36299D01*
Y35300D01*
X17499Y34800D01*
X18499D01*
X18998Y35300D01*
Y35800D01*
X18499Y36299D01*
X16999D01*
X386501Y38699D02*
Y37700D01*
Y38199D01*
X389000D01*
X389500Y37700D01*
Y37200D01*
X389000Y36700D01*
X389500Y39699D02*
Y40699D01*
Y40199D01*
X386501D01*
X387001Y39699D01*
X396401Y37499D02*
Y36500D01*
Y36999D01*
X398900D01*
X399400Y36500D01*
Y36000D01*
X398900Y35500D01*
X399400Y40498D02*
Y38499D01*
X397401Y40498D01*
X396901D01*
X396401Y39999D01*
Y38999D01*
X396901Y38499D01*
X406601Y37899D02*
Y36900D01*
Y37400D01*
X409100D01*
X409600Y36900D01*
Y36400D01*
X409100Y35900D01*
X407101Y38899D02*
X406601Y39399D01*
Y40399D01*
X407101Y40898D01*
X407601D01*
X408101Y40399D01*
Y39899D01*
Y40399D01*
X408600Y40898D01*
X409100D01*
X409600Y40399D01*
Y39399D01*
X409100Y38899D01*
X417101Y37899D02*
Y36900D01*
Y37400D01*
X419600D01*
X420100Y36900D01*
Y36400D01*
X419600Y35900D01*
X420100Y40399D02*
X417101D01*
X418601Y38899D01*
Y40898D01*
X293099Y257599D02*
X292100D01*
X292600D01*
Y255100D01*
X292100Y254600D01*
X291600D01*
X291100Y255100D01*
X296098Y257599D02*
X294099D01*
Y256100D01*
X295099Y256599D01*
X295599D01*
X296098Y256100D01*
Y255100D01*
X295599Y254600D01*
X294599D01*
X294099Y255100D01*
X293599Y67799D02*
X292600D01*
X293099D01*
Y65300D01*
X292600Y64800D01*
X292100D01*
X291600Y65300D01*
X296598Y67799D02*
X295599Y67299D01*
X294599Y66299D01*
Y65300D01*
X295099Y64800D01*
X296098D01*
X296598Y65300D01*
Y65800D01*
X296098Y66299D01*
X294599D01*
X427001Y37799D02*
Y36800D01*
Y37299D01*
X429500D01*
X430000Y36800D01*
Y36300D01*
X429500Y35800D01*
X427001Y38799D02*
Y40798D01*
X427501D01*
X429500Y38799D01*
X430000D01*
X436401Y37699D02*
Y36700D01*
Y37200D01*
X438900D01*
X439400Y36700D01*
Y36200D01*
X438900Y35700D01*
X436901Y38699D02*
X436401Y39199D01*
Y40199D01*
X436901Y40698D01*
X437401D01*
X437900Y40199D01*
X438400Y40698D01*
X438900D01*
X439400Y40199D01*
Y39199D01*
X438900Y38699D01*
X438400D01*
X437900Y39199D01*
X437401Y38699D01*
X436901D01*
X437900Y39199D02*
Y40199D01*
X446701Y37299D02*
Y36300D01*
Y36799D01*
X449200D01*
X449700Y36300D01*
Y35800D01*
X449200Y35300D01*
Y38299D02*
X449700Y38799D01*
Y39799D01*
X449200Y40298D01*
X447201D01*
X446701Y39799D01*
Y38799D01*
X447201Y38299D01*
X447701D01*
X448201Y38799D01*
Y40298D01*
X456801Y35599D02*
Y34600D01*
Y35100D01*
X459300D01*
X459800Y34600D01*
Y34100D01*
X459300Y33600D01*
X459800Y36599D02*
Y37599D01*
Y37099D01*
X456801D01*
X457301Y36599D01*
Y39098D02*
X456801Y39598D01*
Y40598D01*
X457301Y41098D01*
X459300D01*
X459800Y40598D01*
Y39598D01*
X459300Y39098D01*
X457301D01*
X433901Y226399D02*
Y225400D01*
Y225900D01*
X436400D01*
X436900Y225400D01*
Y224900D01*
X436400Y224400D01*
X436900Y227399D02*
Y228399D01*
Y227899D01*
X433901D01*
X434401Y227399D01*
X436900Y229898D02*
Y230898D01*
Y230398D01*
X433901D01*
X434401Y229898D01*
X443901Y226299D02*
Y225300D01*
Y225799D01*
X446400D01*
X446900Y225300D01*
Y224800D01*
X446400Y224300D01*
X446900Y227299D02*
Y228299D01*
Y227799D01*
X443901D01*
X444401Y227299D01*
X446900Y231798D02*
Y229798D01*
X444901Y231798D01*
X444401D01*
X443901Y231298D01*
Y230298D01*
X444401Y229798D01*
X454101Y226299D02*
Y225300D01*
Y225799D01*
X456600D01*
X457100Y225300D01*
Y224800D01*
X456600Y224300D01*
X457100Y227299D02*
Y228299D01*
Y227799D01*
X454101D01*
X454601Y227299D01*
Y229798D02*
X454101Y230298D01*
Y231298D01*
X454601Y231798D01*
X455101D01*
X455601Y231298D01*
Y230798D01*
Y231298D01*
X456100Y231798D01*
X456600D01*
X457100Y231298D01*
Y230298D01*
X456600Y229798D01*
X463801Y226499D02*
Y225500D01*
Y225999D01*
X466300D01*
X466800Y225500D01*
Y225000D01*
X466300Y224500D01*
X466800Y227499D02*
Y228499D01*
Y227999D01*
X463801D01*
X464301Y227499D01*
X466800Y231498D02*
X463801D01*
X465301Y229998D01*
Y231998D01*
X383601Y185799D02*
Y184800D01*
Y185300D01*
X386100D01*
X386600Y184800D01*
Y184300D01*
X386100Y183800D01*
X386600Y186799D02*
Y187799D01*
Y187299D01*
X383601D01*
X384101Y186799D01*
X383601Y191298D02*
Y189298D01*
X385101D01*
X384601Y190298D01*
Y190798D01*
X385101Y191298D01*
X386100D01*
X386600Y190798D01*
Y189798D01*
X386100Y189298D01*
X393801Y185599D02*
Y184600D01*
Y185099D01*
X396300D01*
X396800Y184600D01*
Y184100D01*
X396300Y183600D01*
X396800Y186599D02*
Y187599D01*
Y187099D01*
X393801D01*
X394301Y186599D01*
X393801Y191098D02*
X394301Y190098D01*
X395301Y189098D01*
X396300D01*
X396800Y189598D01*
Y190598D01*
X396300Y191098D01*
X395800D01*
X395301Y190598D01*
Y189098D01*
X605399Y164499D02*
X604400D01*
X604900D01*
Y162000D01*
X604400Y161500D01*
X603900D01*
X603400Y162000D01*
X606399Y161500D02*
X607399D01*
X606899D01*
Y164499D01*
X606399Y163999D01*
X608898Y164499D02*
X610898D01*
Y163999D01*
X608898Y162000D01*
Y161500D01*
X605799Y234599D02*
X604800D01*
X605300D01*
Y232100D01*
X604800Y231600D01*
X604300D01*
X603800Y232100D01*
X606799Y231600D02*
X607799D01*
X607299D01*
Y234599D01*
X606799Y234099D01*
X609298D02*
X609798Y234599D01*
X610798D01*
X611298Y234099D01*
Y233599D01*
X610798Y233100D01*
X611298Y232600D01*
Y232100D01*
X610798Y231600D01*
X609798D01*
X609298Y232100D01*
Y232600D01*
X609798Y233100D01*
X609298Y233599D01*
Y234099D01*
X609798Y233100D02*
X610798D01*
X604999Y94599D02*
X604000D01*
X604499D01*
Y92100D01*
X604000Y91600D01*
X603500D01*
X603000Y92100D01*
X605999Y91600D02*
X606999D01*
X606499D01*
Y94599D01*
X605999Y94099D01*
X608498Y92100D02*
X608998Y91600D01*
X609998D01*
X610498Y92100D01*
Y94099D01*
X609998Y94599D01*
X608998D01*
X608498Y94099D01*
Y93599D01*
X608998Y93099D01*
X610498D01*
X604199Y20999D02*
X603200D01*
X603699D01*
Y18500D01*
X603200Y18000D01*
X602700D01*
X602200Y18500D01*
X607198Y18000D02*
X605199D01*
X607198Y19999D01*
Y20499D01*
X606699Y20999D01*
X605699D01*
X605199Y20499D01*
X608198D02*
X608698Y20999D01*
X609698D01*
X610197Y20499D01*
Y18500D01*
X609698Y18000D01*
X608698D01*
X608198Y18500D01*
Y20499D01*
X547999Y230599D02*
X547000D01*
X547500D01*
Y228100D01*
X547000Y227600D01*
X546500D01*
X546000Y228100D01*
X550998Y227600D02*
X548999D01*
X550998Y229599D01*
Y230099D01*
X550498Y230599D01*
X549499D01*
X548999Y230099D01*
X551998Y227600D02*
X552998D01*
X552498D01*
Y230599D01*
X551998Y230099D01*
X548199Y20099D02*
X547200D01*
X547699D01*
Y17600D01*
X547200Y17100D01*
X546700D01*
X546200Y17600D01*
X551198Y17100D02*
X549199D01*
X551198Y19099D01*
Y19599D01*
X550699Y20099D01*
X549699D01*
X549199Y19599D01*
X554197Y17100D02*
X552198D01*
X554197Y19099D01*
Y19599D01*
X553698Y20099D01*
X552698D01*
X552198Y19599D01*
X385199Y106599D02*
X384200D01*
X384700D01*
Y104100D01*
X384200Y103600D01*
X383700D01*
X383200Y104100D01*
X388198Y103600D02*
X386199D01*
X388198Y105599D01*
Y106099D01*
X387699Y106599D01*
X386699D01*
X386199Y106099D01*
X389198D02*
X389698Y106599D01*
X390698D01*
X391197Y106099D01*
Y105599D01*
X390698Y105099D01*
X390198D01*
X390698D01*
X391197Y104600D01*
Y104100D01*
X390698Y103600D01*
X389698D01*
X389198Y104100D01*
X403401Y185399D02*
Y184400D01*
Y184899D01*
X405900D01*
X406400Y184400D01*
Y183900D01*
X405900Y183400D01*
X406400Y188398D02*
Y186399D01*
X404401Y188398D01*
X403901D01*
X403401Y187899D01*
Y186899D01*
X403901Y186399D01*
X406400Y190898D02*
X403401D01*
X404901Y189398D01*
Y191397D01*
X413401Y185399D02*
Y184400D01*
Y184899D01*
X415900D01*
X416400Y184400D01*
Y183900D01*
X415900Y183400D01*
X416400Y188398D02*
Y186399D01*
X414401Y188398D01*
X413901D01*
X413401Y187899D01*
Y186899D01*
X413901Y186399D01*
X413401Y191397D02*
Y189398D01*
X414900D01*
X414401Y190398D01*
Y190898D01*
X414900Y191397D01*
X415900D01*
X416400Y190898D01*
Y189898D01*
X415900Y189398D01*
X4399Y296999D02*
X3400D01*
X3900D01*
Y294500D01*
X3400Y294000D01*
X2900D01*
X2400Y294500D01*
X7398Y294000D02*
X5399D01*
X7398Y295999D01*
Y296499D01*
X6899Y296999D01*
X5899D01*
X5399Y296499D01*
X10397Y296999D02*
X9398Y296499D01*
X8398Y295499D01*
Y294500D01*
X8898Y294000D01*
X9898D01*
X10397Y294500D01*
Y295000D01*
X9898Y295499D01*
X8398D01*
X4399Y197999D02*
X3400D01*
X3900D01*
Y195500D01*
X3400Y195000D01*
X2900D01*
X2400Y195500D01*
X7398Y195000D02*
X5399D01*
X7398Y196999D01*
Y197499D01*
X6899Y197999D01*
X5899D01*
X5399Y197499D01*
X8398Y197999D02*
X10397D01*
Y197499D01*
X8398Y195500D01*
Y195000D01*
X4299Y105699D02*
X3300D01*
X3799D01*
Y103200D01*
X3300Y102700D01*
X2800D01*
X2300Y103200D01*
X7298Y102700D02*
X5299D01*
X7298Y104699D01*
Y105199D01*
X6799Y105699D01*
X5799D01*
X5299Y105199D01*
X8298D02*
X8798Y105699D01*
X9798D01*
X10297Y105199D01*
Y104699D01*
X9798Y104200D01*
X10297Y103700D01*
Y103200D01*
X9798Y102700D01*
X8798D01*
X8298Y103200D01*
Y103700D01*
X8798Y104200D01*
X8298Y104699D01*
Y105199D01*
X8798Y104200D02*
X9798D01*
X293299Y233599D02*
X292300D01*
X292799D01*
Y231100D01*
X292300Y230600D01*
X291800D01*
X291300Y231100D01*
X294299Y230600D02*
X295299D01*
X294799D01*
Y233599D01*
X294299Y233099D01*
X296798D02*
X297298Y233599D01*
X298298D01*
X298798Y233099D01*
Y231100D01*
X298298Y230600D01*
X297298D01*
X296798Y231100D01*
Y233099D01*
X301797Y233599D02*
X299797D01*
Y232100D01*
X300797Y232599D01*
X301297D01*
X301797Y232100D01*
Y231100D01*
X301297Y230600D01*
X300297D01*
X299797Y231100D01*
X293099Y43099D02*
X292100D01*
X292600D01*
Y40600D01*
X292100Y40100D01*
X291600D01*
X291100Y40600D01*
X294099Y40100D02*
X295099D01*
X294599D01*
Y43099D01*
X294099Y42599D01*
X296598D02*
X297098Y43099D01*
X298098D01*
X298598Y42599D01*
Y40600D01*
X298098Y40100D01*
X297098D01*
X296598Y40600D01*
Y42599D01*
X301597Y43099D02*
X300597Y42599D01*
X299597Y41600D01*
Y40600D01*
X300097Y40100D01*
X301097D01*
X301597Y40600D01*
Y41100D01*
X301097Y41600D01*
X299597D01*
X293299Y282299D02*
X292300D01*
X292799D01*
Y279800D01*
X292300Y279300D01*
X291800D01*
X291300Y279800D01*
X296298Y279300D02*
X294299D01*
X296298Y281299D01*
Y281799D01*
X295798Y282299D01*
X294799D01*
X294299Y281799D01*
X297298D02*
X297798Y282299D01*
X298798D01*
X299297Y281799D01*
Y279800D01*
X298798Y279300D01*
X297798D01*
X297298Y279800D01*
Y281799D01*
X302296Y282299D02*
X300297D01*
Y280800D01*
X301297Y281299D01*
X301797D01*
X302296Y280800D01*
Y279800D01*
X301797Y279300D01*
X300797D01*
X300297Y279800D01*
X293999Y92999D02*
X293000D01*
X293499D01*
Y90500D01*
X293000Y90000D01*
X292500D01*
X292000Y90500D01*
X296998Y90000D02*
X294999D01*
X296998Y91999D01*
Y92499D01*
X296498Y92999D01*
X295499D01*
X294999Y92499D01*
X297998D02*
X298498Y92999D01*
X299498D01*
X299997Y92499D01*
Y90500D01*
X299498Y90000D01*
X298498D01*
X297998Y90500D01*
Y92499D01*
X302996Y92999D02*
X301997Y92499D01*
X300997Y91500D01*
Y90500D01*
X301497Y90000D01*
X302497D01*
X302996Y90500D01*
Y91000D01*
X302497Y91500D01*
X300997D01*
X29499Y223500D02*
Y225499D01*
X29000Y225999D01*
X28000D01*
X27500Y225499D01*
Y223500D01*
X28000Y223000D01*
X29000D01*
X28500Y224000D02*
X29499Y223000D01*
X29000D02*
X29499Y223500D01*
X30499Y223000D02*
X31499D01*
X30999D01*
Y225999D01*
X30499Y225499D01*
X41899Y128900D02*
Y130899D01*
X41399Y131399D01*
X40400D01*
X39900Y130899D01*
Y128900D01*
X40400Y128400D01*
X41399D01*
X40900Y129400D02*
X41899Y128400D01*
X41399D02*
X41899Y128900D01*
X44898Y128400D02*
X42899D01*
X44898Y130399D01*
Y130899D01*
X44399Y131399D01*
X43399D01*
X42899Y130899D01*
X41899Y36800D02*
Y38799D01*
X41399Y39299D01*
X40400D01*
X39900Y38799D01*
Y36800D01*
X40400Y36300D01*
X41399D01*
X40900Y37300D02*
X41899Y36300D01*
X41399D02*
X41899Y36800D01*
X42899Y38799D02*
X43399Y39299D01*
X44399D01*
X44898Y38799D01*
Y38299D01*
X44399Y37800D01*
X43899D01*
X44399D01*
X44898Y37300D01*
Y36800D01*
X44399Y36300D01*
X43399D01*
X42899Y36800D01*
X7100Y221200D02*
X4101D01*
Y222699D01*
X4601Y223199D01*
X5601D01*
X6100Y222699D01*
Y221200D01*
Y222200D02*
X7100Y223199D01*
Y224199D02*
Y225199D01*
Y224699D01*
X4101D01*
X4601Y224199D01*
X49600Y219500D02*
X46601D01*
Y221000D01*
X47101Y221499D01*
X48101D01*
X48600Y221000D01*
Y219500D01*
Y220500D02*
X49600Y221499D01*
Y224498D02*
Y222499D01*
X47601Y224498D01*
X47101D01*
X46601Y223998D01*
Y222999D01*
X47101Y222499D01*
X616800Y200400D02*
Y203399D01*
X618299D01*
X618799Y202899D01*
Y201900D01*
X618299Y201400D01*
X616800D01*
X617800D02*
X618799Y200400D01*
X619799Y202899D02*
X620299Y203399D01*
X621299D01*
X621798Y202899D01*
Y202399D01*
X621299Y201900D01*
X620799D01*
X621299D01*
X621798Y201400D01*
Y200900D01*
X621299Y200400D01*
X620299D01*
X619799Y200900D01*
X125900Y174600D02*
Y177599D01*
X127400D01*
X127899Y177099D01*
Y176100D01*
X127400Y175600D01*
X125900D01*
X126900D02*
X127899Y174600D01*
X130399D02*
Y177599D01*
X128899Y176100D01*
X130898D01*
X7000Y123300D02*
X4001D01*
Y124800D01*
X4501Y125299D01*
X5500D01*
X6000Y124800D01*
Y123300D01*
Y124300D02*
X7000Y125299D01*
X4001Y128298D02*
Y126299D01*
X5500D01*
X5001Y127299D01*
Y127799D01*
X5500Y128298D01*
X6500D01*
X7000Y127799D01*
Y126799D01*
X6500Y126299D01*
X156400Y173300D02*
Y176299D01*
X157899D01*
X158399Y175799D01*
Y174800D01*
X157899Y174300D01*
X156400D01*
X157400D02*
X158399Y173300D01*
X161398Y176299D02*
X160399Y175799D01*
X159399Y174800D01*
Y173800D01*
X159899Y173300D01*
X160899D01*
X161398Y173800D01*
Y174300D01*
X160899Y174800D01*
X159399D01*
X57900Y133900D02*
X54901D01*
Y135399D01*
X55401Y135899D01*
X56401D01*
X56900Y135399D01*
Y133900D01*
Y134900D02*
X57900Y135899D01*
X54901Y136899D02*
Y138898D01*
X55401D01*
X57400Y136899D01*
X57900D01*
X607400Y199200D02*
X604401D01*
Y200699D01*
X604901Y201199D01*
X605900D01*
X606400Y200699D01*
Y199200D01*
Y200200D02*
X607400Y201199D01*
X604901Y202199D02*
X604401Y202699D01*
Y203699D01*
X604901Y204198D01*
X605401D01*
X605900Y203699D01*
X606400Y204198D01*
X606900D01*
X607400Y203699D01*
Y202699D01*
X606900Y202199D01*
X606400D01*
X605900Y202699D01*
X605401Y202199D01*
X604901D01*
X605900Y202699D02*
Y203699D01*
X88800Y183800D02*
X85801D01*
Y185300D01*
X86301Y185799D01*
X87300D01*
X87800Y185300D01*
Y183800D01*
Y184800D02*
X88800Y185799D01*
X88300Y186799D02*
X88800Y187299D01*
Y188299D01*
X88300Y188798D01*
X86301D01*
X85801Y188299D01*
Y187299D01*
X86301Y186799D01*
X86801D01*
X87300Y187299D01*
Y188798D01*
X7200Y28500D02*
X4201D01*
Y30000D01*
X4701Y30499D01*
X5700D01*
X6200Y30000D01*
Y28500D01*
Y29500D02*
X7200Y30499D01*
Y31499D02*
Y32499D01*
Y31999D01*
X4201D01*
X4701Y31499D01*
Y33998D02*
X4201Y34498D01*
Y35498D01*
X4701Y35998D01*
X6700D01*
X7200Y35498D01*
Y34498D01*
X6700Y33998D01*
X4701D01*
X101100Y144500D02*
X98101D01*
Y146000D01*
X98601Y146499D01*
X99600D01*
X100100Y146000D01*
Y144500D01*
Y145500D02*
X101100Y146499D01*
Y147499D02*
Y148499D01*
Y147999D01*
X98101D01*
X98601Y147499D01*
X101100Y149998D02*
Y150998D01*
Y150498D01*
X98101D01*
X98601Y149998D01*
X51800Y31300D02*
X48801D01*
Y32800D01*
X49301Y33299D01*
X50301D01*
X50800Y32800D01*
Y31300D01*
Y32300D02*
X51800Y33299D01*
Y34299D02*
Y35299D01*
Y34799D01*
X48801D01*
X49301Y34299D01*
X51800Y38798D02*
Y36798D01*
X49801Y38798D01*
X49301D01*
X48801Y38298D01*
Y37298D01*
X49301Y36798D01*
X109200Y175600D02*
X106201D01*
Y177100D01*
X106701Y177599D01*
X107701D01*
X108200Y177100D01*
Y175600D01*
Y176600D02*
X109200Y177599D01*
Y178599D02*
Y179599D01*
Y179099D01*
X106201D01*
X106701Y178599D01*
Y181098D02*
X106201Y181598D01*
Y182598D01*
X106701Y183098D01*
X107201D01*
X107701Y182598D01*
Y182098D01*
Y182598D01*
X108200Y183098D01*
X108700D01*
X109200Y182598D01*
Y181598D01*
X108700Y181098D01*
X85600Y148700D02*
X82601D01*
Y150199D01*
X83101Y150699D01*
X84101D01*
X84600Y150199D01*
Y148700D01*
Y149700D02*
X85600Y150699D01*
Y151699D02*
Y152699D01*
Y152199D01*
X82601D01*
X83101Y151699D01*
X85600Y155698D02*
X82601D01*
X84101Y154198D01*
Y156198D01*
X563201Y227399D02*
Y225400D01*
X564701D01*
Y226400D01*
Y225400D01*
X566200D01*
X563201Y228399D02*
X566200D01*
Y229899D01*
X565700Y230398D01*
X565200D01*
X564701Y229899D01*
Y228399D01*
Y229899D01*
X564201Y230398D01*
X563701D01*
X563201Y229899D01*
Y228399D01*
X563701Y231398D02*
X563201Y231898D01*
Y232898D01*
X563701Y233397D01*
X564201D01*
X564701Y232898D01*
X565200Y233397D01*
X565700D01*
X566200Y232898D01*
Y231898D01*
X565700Y231398D01*
X565200D01*
X564701Y231898D01*
X564201Y231398D01*
X563701D01*
X564701Y231898D02*
Y232898D01*
X567001Y224899D02*
Y222900D01*
X568501D01*
Y223900D01*
Y222900D01*
X570000D01*
X567001Y225899D02*
X570000D01*
Y227398D01*
X569500Y227898D01*
X569000D01*
X568501Y227398D01*
Y225899D01*
Y227398D01*
X568001Y227898D01*
X567501D01*
X567001Y227398D01*
Y225899D01*
X570000Y228898D02*
Y229898D01*
Y229398D01*
X567001D01*
X567501Y228898D01*
Y231397D02*
X567001Y231897D01*
Y232897D01*
X567501Y233397D01*
X568001D01*
X568501Y232897D01*
X569000Y233397D01*
X569500D01*
X570000Y232897D01*
Y231897D01*
X569500Y231397D01*
X569000D01*
X568501Y231897D01*
X568001Y231397D01*
X567501D01*
X568501Y231897D02*
Y232897D01*
X65300Y155599D02*
X67299D01*
X66300D01*
Y152600D01*
X68299Y155599D02*
Y152600D01*
Y154100D01*
X70298D01*
Y155599D01*
Y152600D01*
X73297D02*
X71298D01*
X73297Y154599D01*
Y155099D01*
X72798Y155599D01*
X71798D01*
X71298Y155099D01*
X65800Y144999D02*
X67799D01*
X66800D01*
Y142000D01*
X68799Y144999D02*
Y142000D01*
Y143500D01*
X70798D01*
Y144999D01*
Y142000D01*
X71798Y144499D02*
X72298Y144999D01*
X73298D01*
X73797Y144499D01*
Y143999D01*
X73298Y143500D01*
X72798D01*
X73298D01*
X73797Y143000D01*
Y142500D01*
X73298Y142000D01*
X72298D01*
X71798Y142500D01*
X627300Y221299D02*
Y218800D01*
X627800Y218300D01*
X628799D01*
X629299Y218800D01*
Y221299D01*
X630299Y218300D02*
X631299D01*
X630799D01*
Y221299D01*
X630299Y220799D01*
X104500Y173899D02*
Y171400D01*
X105000Y170900D01*
X106000D01*
X106499Y171400D01*
Y173899D01*
X109498Y170900D02*
X107499D01*
X109498Y172899D01*
Y173399D01*
X108999Y173899D01*
X107999D01*
X107499Y173399D01*
X312299Y296099D02*
X311300D01*
X311800D01*
Y293600D01*
X311300Y293100D01*
X310800D01*
X310300Y293600D01*
X315298Y293100D02*
X313299D01*
X315298Y295099D01*
Y295599D01*
X314798Y296099D01*
X313799D01*
X313299Y295599D01*
X316298Y293600D02*
X316798Y293100D01*
X317798D01*
X318297Y293600D01*
Y295599D01*
X317798Y296099D01*
X316798D01*
X316298Y295599D01*
Y295099D01*
X316798Y294600D01*
X318297D01*
X459000Y65200D02*
X456001D01*
X457001Y66200D01*
X456001Y67199D01*
X459000D01*
X456001Y68199D02*
Y69199D01*
Y68699D01*
X459000D01*
Y68199D01*
Y69199D01*
X456501Y72698D02*
X456001Y72198D01*
Y71198D01*
X456501Y70698D01*
X457001D01*
X457501Y71198D01*
Y72198D01*
X458000Y72698D01*
X458500D01*
X459000Y72198D01*
Y71198D01*
X458500Y70698D01*
X456001Y75197D02*
Y74197D01*
X456501Y73697D01*
X458500D01*
X459000Y74197D01*
Y75197D01*
X458500Y75697D01*
X456501D01*
X456001Y75197D01*
X459500Y76696D02*
Y78696D01*
X456001Y81695D02*
Y79695D01*
X459000D01*
Y81695D01*
X457501Y79695D02*
Y80695D01*
X449500Y65100D02*
X446501D01*
X447501Y66100D01*
X446501Y67099D01*
X449500D01*
X446501Y69599D02*
Y68599D01*
X447001Y68099D01*
X449000D01*
X449500Y68599D01*
Y69599D01*
X449000Y70098D01*
X447001D01*
X446501Y69599D01*
X447001Y73097D02*
X446501Y72598D01*
Y71598D01*
X447001Y71098D01*
X447501D01*
X448000Y71598D01*
Y72598D01*
X448500Y73097D01*
X449000D01*
X449500Y72598D01*
Y71598D01*
X449000Y71098D01*
X446501Y74097D02*
Y75097D01*
Y74597D01*
X449500D01*
Y74097D01*
Y75097D01*
X450000Y76596D02*
Y78596D01*
X446501Y81595D02*
Y79595D01*
X449500D01*
Y81595D01*
X448000Y79595D02*
Y80595D01*
X439400Y65600D02*
X436401D01*
X437401Y66600D01*
X436401Y67599D01*
X439400D01*
X436401Y68599D02*
Y69599D01*
Y69099D01*
X439400D01*
Y68599D01*
Y69599D01*
X436901Y73098D02*
X436401Y72598D01*
Y71598D01*
X436901Y71098D01*
X437401D01*
X437900Y71598D01*
Y72598D01*
X438400Y73098D01*
X438900D01*
X439400Y72598D01*
Y71598D01*
X438900Y71098D01*
X436401Y75597D02*
Y74597D01*
X436901Y74097D01*
X438900D01*
X439400Y74597D01*
Y75597D01*
X438900Y76097D01*
X436901D01*
X436401Y75597D01*
X439900Y77096D02*
Y79096D01*
X436401Y80095D02*
Y82095D01*
X436901D01*
X438900Y80095D01*
X439400D01*
Y82095D01*
X429700Y65500D02*
X426701D01*
X427701Y66500D01*
X426701Y67499D01*
X429700D01*
X426701Y69999D02*
Y68999D01*
X427201Y68499D01*
X429200D01*
X429700Y68999D01*
Y69999D01*
X429200Y70498D01*
X427201D01*
X426701Y69999D01*
X427201Y73497D02*
X426701Y72998D01*
Y71998D01*
X427201Y71498D01*
X427701D01*
X428200Y71998D01*
Y72998D01*
X428700Y73497D01*
X429200D01*
X429700Y72998D01*
Y71998D01*
X429200Y71498D01*
X426701Y74497D02*
Y75497D01*
Y74997D01*
X429700D01*
Y74497D01*
Y75497D01*
X430200Y76996D02*
Y78996D01*
X426701Y79995D02*
Y81995D01*
X427201D01*
X429200Y79995D01*
X429700D01*
Y81995D01*
X419400Y65600D02*
X416401D01*
X417401Y66600D01*
X416401Y67599D01*
X419400D01*
X416401Y68599D02*
Y69599D01*
Y69099D01*
X419400D01*
Y68599D01*
Y69599D01*
X416901Y73098D02*
X416401Y72598D01*
Y71598D01*
X416901Y71098D01*
X417401D01*
X417901Y71598D01*
Y72598D01*
X418400Y73098D01*
X418900D01*
X419400Y72598D01*
Y71598D01*
X418900Y71098D01*
X416401Y75597D02*
Y74597D01*
X416901Y74097D01*
X418900D01*
X419400Y74597D01*
Y75597D01*
X418900Y76097D01*
X416901D01*
X416401Y75597D01*
X419900Y77096D02*
Y79096D01*
X416401Y80095D02*
X416901D01*
X417901Y81095D01*
X416901Y82095D01*
X416401D01*
X417901Y81095D02*
X419400D01*
X409100Y65500D02*
X406101D01*
X407101Y66500D01*
X406101Y67499D01*
X409100D01*
X406101Y69999D02*
Y68999D01*
X406601Y68499D01*
X408600D01*
X409100Y68999D01*
Y69999D01*
X408600Y70498D01*
X406601D01*
X406101Y69999D01*
X406601Y73497D02*
X406101Y72998D01*
Y71998D01*
X406601Y71498D01*
X407101D01*
X407600Y71998D01*
Y72998D01*
X408100Y73497D01*
X408600D01*
X409100Y72998D01*
Y71998D01*
X408600Y71498D01*
X406101Y74497D02*
Y75497D01*
Y74997D01*
X409100D01*
Y74497D01*
Y75497D01*
X409600Y76996D02*
Y78996D01*
X406101Y79995D02*
X406601D01*
X407600Y80995D01*
X406601Y81995D01*
X406101D01*
X407600Y80995D02*
X409100D01*
X399600Y65300D02*
X396601D01*
X397601Y66300D01*
X396601Y67299D01*
X399600D01*
X396601Y68299D02*
Y69299D01*
Y68799D01*
X399600D01*
Y68299D01*
Y69299D01*
X397101Y72798D02*
X396601Y72298D01*
Y71298D01*
X397101Y70798D01*
X397601D01*
X398100Y71298D01*
Y72298D01*
X398600Y72798D01*
X399100D01*
X399600Y72298D01*
Y71298D01*
X399100Y70798D01*
X396601Y75297D02*
Y74297D01*
X397101Y73797D01*
X399100D01*
X399600Y74297D01*
Y75297D01*
X399100Y75797D01*
X397101D01*
X396601Y75297D01*
X400100Y76796D02*
Y78796D01*
X396601Y79795D02*
X399600Y81795D01*
X396601D02*
X399600Y79795D01*
X389500Y65300D02*
X386501D01*
X387501Y66300D01*
X386501Y67299D01*
X389500D01*
X386501Y69799D02*
Y68799D01*
X387001Y68299D01*
X389000D01*
X389500Y68799D01*
Y69799D01*
X389000Y70298D01*
X387001D01*
X386501Y69799D01*
X387001Y73297D02*
X386501Y72798D01*
Y71798D01*
X387001Y71298D01*
X387501D01*
X388000Y71798D01*
Y72798D01*
X388500Y73297D01*
X389000D01*
X389500Y72798D01*
Y71798D01*
X389000Y71298D01*
X386501Y74297D02*
Y75297D01*
Y74797D01*
X389500D01*
Y74297D01*
Y75297D01*
X390000Y76796D02*
Y78796D01*
X386501Y79795D02*
X389500Y81795D01*
X386501D02*
X389500Y79795D01*
X74300Y168200D02*
Y170199D01*
X75300Y171199D01*
X76299Y170199D01*
Y168200D01*
Y169700D01*
X74300D01*
X74700Y160699D02*
Y160199D01*
X75700Y159200D01*
X76699Y160199D01*
Y160699D01*
X75700Y159200D02*
Y157700D01*
X73001Y9500D02*
X72501Y10000D01*
Y11000D01*
X73001Y11499D01*
X73501D01*
X74001Y11000D01*
Y10500D01*
Y11000D01*
X74500Y11499D01*
X75000D01*
X75500Y11000D01*
Y10000D01*
X75000Y9500D01*
X72501Y12499D02*
X74500D01*
X75500Y13499D01*
X74500Y14498D01*
X72501D01*
X73001Y15498D02*
X72501Y15998D01*
Y16998D01*
X73001Y17497D01*
X73501D01*
X74001Y16998D01*
Y16498D01*
Y16998D01*
X74500Y17497D01*
X75000D01*
X75500Y16998D01*
Y15998D01*
X75000Y15498D01*
X76000Y18497D02*
Y20496D01*
X73001Y23495D02*
X72501Y22996D01*
Y21996D01*
X73001Y21496D01*
X73501D01*
X74001Y21996D01*
Y22996D01*
X74500Y23495D01*
X75000D01*
X75500Y22996D01*
Y21996D01*
X75000Y21496D01*
X75500Y24495D02*
X72501D01*
Y25995D01*
X73001Y26495D01*
X74001D01*
X74500Y25995D01*
Y24495D01*
Y25495D02*
X75500Y26495D01*
X73001Y29493D02*
X72501Y28994D01*
Y27994D01*
X73001Y27494D01*
X75000D01*
X75500Y27994D01*
Y28994D01*
X75000Y29493D01*
X73101Y102700D02*
X72601Y103200D01*
Y104200D01*
X73101Y104699D01*
X73601D01*
X74101Y104200D01*
Y103700D01*
Y104200D01*
X74600Y104699D01*
X75100D01*
X75600Y104200D01*
Y103200D01*
X75100Y102700D01*
X72601Y105699D02*
X74600D01*
X75600Y106699D01*
X74600Y107698D01*
X72601D01*
X73101Y108698D02*
X72601Y109198D01*
Y110198D01*
X73101Y110697D01*
X73601D01*
X74101Y110198D01*
Y109698D01*
Y110198D01*
X74600Y110697D01*
X75100D01*
X75600Y110198D01*
Y109198D01*
X75100Y108698D01*
X76100Y111697D02*
Y113696D01*
X73101Y116695D02*
X72601Y116196D01*
Y115196D01*
X73101Y114696D01*
X73601D01*
X74101Y115196D01*
Y116196D01*
X74600Y116695D01*
X75100D01*
X75600Y116196D01*
Y115196D01*
X75100Y114696D01*
X75600Y117695D02*
X72601D01*
Y119195D01*
X73101Y119694D01*
X74101D01*
X74600Y119195D01*
Y117695D01*
Y118695D02*
X75600Y119694D01*
X73101Y122694D02*
X72601Y122194D01*
Y121194D01*
X73101Y120694D01*
X75100D01*
X75600Y121194D01*
Y122194D01*
X75100Y122694D01*
X62901Y17699D02*
X62401Y17199D01*
Y16200D01*
X62901Y15700D01*
X64900D01*
X65400Y16200D01*
Y17199D01*
X64900Y17699D01*
X63901D01*
Y16700D01*
X65400Y18699D02*
X62401D01*
X65400Y20698D01*
X62401D01*
Y21698D02*
X65400D01*
Y23198D01*
X64900Y23697D01*
X62901D01*
X62401Y23198D01*
Y21698D01*
X63301Y109799D02*
X62801Y109300D01*
Y108300D01*
X63301Y107800D01*
X65300D01*
X65800Y108300D01*
Y109300D01*
X65300Y109799D01*
X64301D01*
Y108800D01*
X65800Y110799D02*
X62801D01*
X65800Y112798D01*
X62801D01*
Y113798D02*
X65800D01*
Y115298D01*
X65300Y115797D01*
X63301D01*
X62801Y115298D01*
Y113798D01*
X82901Y5099D02*
Y3100D01*
X84400D01*
X83901Y4100D01*
Y4600D01*
X84400Y5099D01*
X85400D01*
X85900Y4600D01*
Y3600D01*
X85400Y3100D01*
X82901Y6099D02*
X84900D01*
X85900Y7099D01*
X84900Y8098D01*
X82901D01*
X85900Y10098D02*
X84900Y9098D01*
X83901D01*
X82901Y10098D01*
X85900Y11597D02*
X82901D01*
Y13097D01*
X83401Y13597D01*
X84400D01*
X84900Y13097D01*
Y11597D01*
X82901Y14596D02*
X85900D01*
X84900Y15596D01*
X85900Y16596D01*
X82901D01*
X85900Y17595D02*
X82901D01*
Y19095D01*
X83401Y19595D01*
X84400D01*
X84900Y19095D01*
Y17595D01*
Y18595D02*
X85900Y19595D01*
X86400Y20594D02*
Y22594D01*
X82901Y23593D02*
Y24593D01*
Y24093D01*
X85900D01*
Y23593D01*
Y24593D01*
Y26093D02*
X82901D01*
X85900Y28092D01*
X82901D01*
X85900Y29092D02*
X84900Y30091D01*
X83901D01*
X82901Y29092D01*
X82701Y104399D02*
Y102400D01*
X84201D01*
X83701Y103400D01*
Y103900D01*
X84201Y104399D01*
X85200D01*
X85700Y103900D01*
Y102900D01*
X85200Y102400D01*
X82701Y105399D02*
X84700D01*
X85700Y106399D01*
X84700Y107398D01*
X82701D01*
X85700Y109398D02*
X84700Y108398D01*
X83701D01*
X82701Y109398D01*
X85700Y110897D02*
X82701D01*
Y112397D01*
X83201Y112897D01*
X84201D01*
X84700Y112397D01*
Y110897D01*
X82701Y113896D02*
X85700D01*
X84700Y114896D01*
X85700Y115896D01*
X82701D01*
X85700Y116895D02*
X82701D01*
Y118395D01*
X83201Y118895D01*
X84201D01*
X84700Y118395D01*
Y116895D01*
Y117895D02*
X85700Y118895D01*
X86200Y119894D02*
Y121894D01*
X82701Y122893D02*
Y123893D01*
Y123393D01*
X85700D01*
Y122893D01*
Y123893D01*
Y125393D02*
X82701D01*
X85700Y127392D01*
X82701D01*
X85700Y128392D02*
X84700Y129391D01*
X83701D01*
X82701Y128392D01*
X90701Y7499D02*
X90201Y7000D01*
Y6000D01*
X90701Y5500D01*
X91201D01*
X91701Y6000D01*
Y7000D01*
X92200Y7499D01*
X92700D01*
X93200Y7000D01*
Y6000D01*
X92700Y5500D01*
X90201Y8499D02*
X90701D01*
X91701Y9499D01*
X90701Y10498D01*
X90201D01*
X91701Y9499D02*
X93200D01*
X90701Y13497D02*
X90201Y12998D01*
Y11998D01*
X90701Y11498D01*
X91201D01*
X91701Y11998D01*
Y12998D01*
X92200Y13497D01*
X92700D01*
X93200Y12998D01*
Y11998D01*
X92700Y11498D01*
X93700Y14497D02*
Y16496D01*
X90201Y17496D02*
X92200D01*
X93200Y18496D01*
X92200Y19496D01*
X90201D01*
Y21995D02*
Y20995D01*
X90701Y20495D01*
X92700D01*
X93200Y20995D01*
Y21995D01*
X92700Y22494D01*
X90701D01*
X90201Y21995D01*
Y23494D02*
X92700D01*
X93200Y23994D01*
Y24994D01*
X92700Y25493D01*
X90201D01*
Y26493D02*
Y28493D01*
Y27493D01*
X93200D01*
X95701Y8199D02*
X95201Y7700D01*
Y6700D01*
X95701Y6200D01*
X96201D01*
X96701Y6700D01*
Y7700D01*
X97200Y8199D01*
X97700D01*
X98200Y7700D01*
Y6700D01*
X97700Y6200D01*
X98200Y9199D02*
X95201D01*
Y10699D01*
X95701Y11198D01*
X96701D01*
X97200Y10699D01*
Y9199D01*
Y10199D02*
X98200Y11198D01*
X95701Y14197D02*
X95201Y13698D01*
Y12698D01*
X95701Y12198D01*
X97700D01*
X98200Y12698D01*
Y13698D01*
X97700Y14197D01*
X98200Y16197D02*
X97200Y15197D01*
X96201D01*
X95201Y16197D01*
Y19696D02*
Y17696D01*
X96701D01*
X96201Y18696D01*
Y19196D01*
X96701Y19696D01*
X97700D01*
X98200Y19196D01*
Y18196D01*
X97700Y17696D01*
X95201Y20695D02*
X97200D01*
X98200Y21695D01*
X97200Y22695D01*
X95201D01*
X95701Y23694D02*
X95201Y24194D01*
Y25194D01*
X95701Y25694D01*
X97700D01*
X98200Y25194D01*
Y24194D01*
X97700Y23694D01*
X95701D01*
X98200Y26693D02*
X97200Y27693D01*
X96201D01*
X95201Y26693D01*
X95701Y113299D02*
X95201Y112800D01*
Y111800D01*
X95701Y111300D01*
X96201D01*
X96701Y111800D01*
Y112800D01*
X97200Y113299D01*
X97700D01*
X98200Y112800D01*
Y111800D01*
X97700Y111300D01*
X98200Y114299D02*
X95201D01*
Y115799D01*
X95701Y116298D01*
X96701D01*
X97200Y115799D01*
Y114299D01*
Y115299D02*
X98200Y116298D01*
X95701Y119297D02*
X95201Y118798D01*
Y117798D01*
X95701Y117298D01*
X97700D01*
X98200Y117798D01*
Y118798D01*
X97700Y119297D01*
X98200Y121297D02*
X97200Y120297D01*
X96201D01*
X95201Y121297D01*
Y124796D02*
Y122796D01*
X96701D01*
X96201Y123796D01*
Y124296D01*
X96701Y124796D01*
X97700D01*
X98200Y124296D01*
Y123296D01*
X97700Y122796D01*
X95201Y125795D02*
X97200D01*
X98200Y126795D01*
X97200Y127795D01*
X95201D01*
X95701Y128794D02*
X95201Y129294D01*
Y130294D01*
X95701Y130794D01*
X97700D01*
X98200Y130294D01*
Y129294D01*
X97700Y128794D01*
X95701D01*
X98200Y131793D02*
X97200Y132793D01*
X96201D01*
X95201Y131793D01*
X90701Y112599D02*
X90201Y112100D01*
Y111100D01*
X90701Y110600D01*
X91201D01*
X91701Y111100D01*
Y112100D01*
X92200Y112599D01*
X92700D01*
X93200Y112100D01*
Y111100D01*
X92700Y110600D01*
X90201Y113599D02*
X90701D01*
X91701Y114599D01*
X90701Y115598D01*
X90201D01*
X91701Y114599D02*
X93200D01*
X90701Y118597D02*
X90201Y118098D01*
Y117098D01*
X90701Y116598D01*
X91201D01*
X91701Y117098D01*
Y118098D01*
X92200Y118597D01*
X92700D01*
X93200Y118098D01*
Y117098D01*
X92700Y116598D01*
X93700Y119597D02*
Y121596D01*
X90201Y122596D02*
X92200D01*
X93200Y123596D01*
X92200Y124595D01*
X90201D01*
Y127095D02*
Y126095D01*
X90701Y125595D01*
X92700D01*
X93200Y126095D01*
Y127095D01*
X92700Y127594D01*
X90701D01*
X90201Y127095D01*
Y128594D02*
X92700D01*
X93200Y129094D01*
Y130094D01*
X92700Y130594D01*
X90201D01*
Y131593D02*
Y133593D01*
Y132593D01*
X93200D01*
X105600Y9200D02*
X102601D01*
Y10700D01*
X103101Y11199D01*
X104101D01*
X104600Y10700D01*
Y9200D01*
X102601Y12199D02*
X105600D01*
X104600Y13199D01*
X105600Y14198D01*
X102601D01*
X105600Y15198D02*
X102601D01*
Y16698D01*
X103101Y17197D01*
X104101D01*
X104600Y16698D01*
Y15198D01*
Y16198D02*
X105600Y17197D01*
X106100Y18197D02*
Y20196D01*
X102601Y21196D02*
X105600D01*
Y22696D01*
X105100Y23196D01*
X104600D01*
X104101Y22696D01*
Y21196D01*
Y22696D01*
X103601Y23196D01*
X103101D01*
X102601Y22696D01*
Y21196D01*
Y24195D02*
X105100D01*
X105600Y24695D01*
Y25695D01*
X105100Y26195D01*
X102601D01*
Y27194D02*
Y29193D01*
Y28194D01*
X105600D01*
X110201Y1500D02*
X112700D01*
X113200Y2000D01*
Y2999D01*
X112700Y3499D01*
X110201D01*
X113200Y4499D02*
X111201D01*
X110201Y5499D01*
X111201Y6498D01*
X113200D01*
X111700D01*
Y4499D01*
X113200Y7498D02*
X110201D01*
Y8998D01*
X110701Y9497D01*
X111700D01*
X112200Y8998D01*
Y7498D01*
Y8498D02*
X113200Y9497D01*
X110201Y10497D02*
Y12496D01*
Y11497D01*
X113200D01*
Y14996D02*
X110201D01*
X111700Y13496D01*
Y15495D01*
X113200Y16495D02*
X110201D01*
Y17995D01*
X110701Y18495D01*
X111700D01*
X112200Y17995D01*
Y16495D01*
Y17495D02*
X113200Y18495D01*
X110201Y19494D02*
X113200Y21494D01*
X110201D02*
X113200Y19494D01*
X110201Y22493D02*
X113200D01*
Y23993D01*
X112700Y24493D01*
X110701D01*
X110201Y23993D01*
Y22493D01*
X115301Y1700D02*
X118300Y3699D01*
X115301D02*
X118300Y1700D01*
X118800Y4699D02*
Y6698D01*
X115301Y7698D02*
X118300D01*
Y9198D01*
X117800Y9697D01*
X115801D01*
X115301Y9198D01*
Y7698D01*
Y10697D02*
Y11697D01*
Y11197D01*
X118300D01*
Y10697D01*
Y11697D01*
Y13196D02*
X116301D01*
X115301Y14196D01*
X116301Y15196D01*
X118300D01*
X116800D01*
Y13196D01*
X115801Y18195D02*
X115301Y17695D01*
Y16695D01*
X115801Y16195D01*
X117800D01*
X118300Y16695D01*
Y17695D01*
X117800Y18195D01*
X116800D01*
Y17195D01*
X120301Y1600D02*
X122800D01*
X123300Y2100D01*
Y3100D01*
X122800Y3599D01*
X120301D01*
X123300Y4599D02*
X121301D01*
X120301Y5599D01*
X121301Y6598D01*
X123300D01*
X121800D01*
Y4599D01*
X123300Y7598D02*
X120301D01*
Y9098D01*
X120801Y9597D01*
X121800D01*
X122300Y9098D01*
Y7598D01*
Y8598D02*
X123300Y9597D01*
X120301Y10597D02*
Y12596D01*
Y11597D01*
X123300D01*
Y15096D02*
X120301D01*
X121800Y13596D01*
Y15596D01*
X120301Y16595D02*
Y18595D01*
Y17595D01*
X123300D01*
X120301Y19594D02*
X123300Y21594D01*
X120301D02*
X123300Y19594D01*
X120301Y22593D02*
X123300D01*
Y24093D01*
X122800Y24593D01*
X120801D01*
X120301Y24093D01*
Y22593D01*
X130601Y3499D02*
X130101Y2999D01*
Y2000D01*
X130601Y1500D01*
X132600D01*
X133100Y2000D01*
Y2999D01*
X132600Y3499D01*
X131600D01*
Y2500D01*
X133100Y4499D02*
X130101D01*
Y5999D01*
X130601Y6498D01*
X131600D01*
X132100Y5999D01*
Y4499D01*
X130101Y7498D02*
Y8498D01*
Y7998D01*
X133100D01*
Y7498D01*
Y8498D01*
X130101Y11497D02*
Y10497D01*
X130601Y9997D01*
X132600D01*
X133100Y10497D01*
Y11497D01*
X132600Y11997D01*
X130601D01*
X130101Y11497D01*
X133100Y12996D02*
Y13996D01*
Y13496D01*
X130101D01*
X130601Y12996D01*
X133600Y15495D02*
Y17495D01*
X133100Y18495D02*
Y19494D01*
Y18994D01*
X130101D01*
X130601Y18495D01*
X130101Y22993D02*
X130601Y21993D01*
X131600Y20994D01*
X132600D01*
X133100Y21494D01*
Y22493D01*
X132600Y22993D01*
X132100D01*
X131600Y22493D01*
Y20994D01*
X140201Y1400D02*
Y2400D01*
Y1900D01*
X143200D01*
Y1400D01*
Y2400D01*
Y5898D02*
Y3899D01*
X141201Y5898D01*
X140701D01*
X140201Y5399D01*
Y4399D01*
X140701Y3899D01*
Y8898D02*
X140201Y8398D01*
Y7398D01*
X140701Y6898D01*
X142700D01*
X143200Y7398D01*
Y8398D01*
X142700Y8898D01*
X143200Y9897D02*
Y10897D01*
Y10397D01*
X140201D01*
X140701Y9897D01*
X143700Y12396D02*
Y14396D01*
X140701Y17395D02*
X140201Y16895D01*
Y15895D01*
X140701Y15395D01*
X141201D01*
X141700Y15895D01*
Y16895D01*
X142200Y17395D01*
X142700D01*
X143200Y16895D01*
Y15895D01*
X142700Y15395D01*
X140701Y20394D02*
X140201Y19894D01*
Y18894D01*
X140701Y18395D01*
X142700D01*
X143200Y18894D01*
Y19894D01*
X142700Y20394D01*
X140201Y21394D02*
X143200D01*
Y23393D01*
X150301Y1700D02*
Y2700D01*
Y2200D01*
X153300D01*
Y1700D01*
Y2700D01*
Y6199D02*
Y4199D01*
X151301Y6199D01*
X150801D01*
X150301Y5699D01*
Y4699D01*
X150801Y4199D01*
Y9198D02*
X150301Y8698D01*
Y7698D01*
X150801Y7198D01*
X152800D01*
X153300Y7698D01*
Y8698D01*
X152800Y9198D01*
X153300Y12197D02*
Y10197D01*
X151301Y12197D01*
X150801D01*
X150301Y11697D01*
Y10697D01*
X150801Y10197D01*
X153800Y13196D02*
Y15196D01*
X150801Y18195D02*
X150301Y17695D01*
Y16695D01*
X150801Y16195D01*
X151301D01*
X151801Y16695D01*
Y17695D01*
X152300Y18195D01*
X152800D01*
X153300Y17695D01*
Y16695D01*
X152800Y16195D01*
X150801Y21194D02*
X150301Y20694D01*
Y19694D01*
X150801Y19194D01*
X152800D01*
X153300Y19694D01*
Y20694D01*
X152800Y21194D01*
X150301Y22193D02*
X153300D01*
Y24193D01*
X160301Y1500D02*
X162800D01*
X163300Y2000D01*
Y2999D01*
X162800Y3499D01*
X160301D01*
X163300Y4499D02*
X161301D01*
X160301Y5499D01*
X161301Y6498D01*
X163300D01*
X161801D01*
Y4499D01*
X163300Y7498D02*
X160301D01*
Y8998D01*
X160801Y9497D01*
X161801D01*
X162300Y8998D01*
Y7498D01*
Y8498D02*
X163300Y9497D01*
X160301Y10497D02*
Y12496D01*
Y11497D01*
X163300D01*
Y15495D02*
Y13496D01*
X161301Y15495D01*
X160801D01*
X160301Y14996D01*
Y13996D01*
X160801Y13496D01*
X160301Y16495D02*
Y18495D01*
Y17495D01*
X163300D01*
X160301Y19494D02*
X163300Y21494D01*
X160301D02*
X163300Y19494D01*
X160301Y22493D02*
X163300D01*
Y23993D01*
X162800Y24493D01*
X160801D01*
X160301Y23993D01*
Y22493D01*
X170601Y3299D02*
X170101Y2799D01*
Y1800D01*
X170601Y1300D01*
X172600D01*
X173100Y1800D01*
Y2799D01*
X172600Y3299D01*
X171600D01*
Y2300D01*
X173100Y4299D02*
X170101D01*
Y5799D01*
X170601Y6298D01*
X171600D01*
X172100Y5799D01*
Y4299D01*
X170101Y7298D02*
Y8298D01*
Y7798D01*
X173100D01*
Y7298D01*
Y8298D01*
X170101Y11297D02*
Y10297D01*
X170601Y9797D01*
X172600D01*
X173100Y10297D01*
Y11297D01*
X172600Y11797D01*
X170601D01*
X170101Y11297D01*
X173100Y12796D02*
Y13796D01*
Y13296D01*
X170101D01*
X170601Y12796D01*
X173600Y15295D02*
Y17295D01*
X173100Y18294D02*
Y19294D01*
Y18794D01*
X170101D01*
X170601Y18294D01*
X170101Y20794D02*
Y22793D01*
X170601D01*
X172600Y20794D01*
X173100D01*
X180701Y3199D02*
X180201Y2699D01*
Y1700D01*
X180701Y1200D01*
X182700D01*
X183200Y1700D01*
Y2699D01*
X182700Y3199D01*
X181701D01*
Y2200D01*
X183200Y4199D02*
X180201D01*
Y5699D01*
X180701Y6198D01*
X181701D01*
X182200Y5699D01*
Y4199D01*
X180201Y7198D02*
Y8198D01*
Y7698D01*
X183200D01*
Y7198D01*
Y8198D01*
X180201Y11197D02*
Y10197D01*
X180701Y9697D01*
X182700D01*
X183200Y10197D01*
Y11197D01*
X182700Y11697D01*
X180701D01*
X180201Y11197D01*
X180701Y12696D02*
X180201Y13196D01*
Y14196D01*
X180701Y14696D01*
X181201D01*
X181701Y14196D01*
Y13696D01*
Y14196D01*
X182200Y14696D01*
X182700D01*
X183200Y14196D01*
Y13196D01*
X182700Y12696D01*
X183700Y15695D02*
Y17695D01*
X183200Y20694D02*
Y18694D01*
X181201Y20694D01*
X180701D01*
X180201Y20194D01*
Y19194D01*
X180701Y18694D01*
X183200Y21693D02*
Y22693D01*
Y22193D01*
X180201D01*
X180701Y21693D01*
X190701Y3299D02*
X190201Y2799D01*
Y1800D01*
X190701Y1300D01*
X192700D01*
X193200Y1800D01*
Y2799D01*
X192700Y3299D01*
X191700D01*
Y2300D01*
X193200Y4299D02*
X190201D01*
Y5799D01*
X190701Y6298D01*
X191700D01*
X192200Y5799D01*
Y4299D01*
X190201Y7298D02*
Y8298D01*
Y7798D01*
X193200D01*
Y7298D01*
Y8298D01*
X190201Y11297D02*
Y10297D01*
X190701Y9797D01*
X192700D01*
X193200Y10297D01*
Y11297D01*
X192700Y11797D01*
X190701D01*
X190201Y11297D01*
X190701Y12796D02*
X190201Y13296D01*
Y14296D01*
X190701Y14796D01*
X191201D01*
X191700Y14296D01*
Y13796D01*
Y14296D01*
X192200Y14796D01*
X192700D01*
X193200Y14296D01*
Y13296D01*
X192700Y12796D01*
X193700Y15795D02*
Y17795D01*
X193200Y18794D02*
Y19794D01*
Y19294D01*
X190201D01*
X190701Y18794D01*
X192700Y21294D02*
X193200Y21793D01*
Y22793D01*
X192700Y23293D01*
X190701D01*
X190201Y22793D01*
Y21793D01*
X190701Y21294D01*
X191201D01*
X191700Y21793D01*
Y23293D01*
X200701Y3399D02*
X200201Y2899D01*
Y1900D01*
X200701Y1400D01*
X201201D01*
X201700Y1900D01*
Y2899D01*
X202200Y3399D01*
X202700D01*
X203200Y2899D01*
Y1900D01*
X202700Y1400D01*
X203200Y4399D02*
X200201D01*
Y5899D01*
X200701Y6398D01*
X201700D01*
X202200Y5899D01*
Y4399D01*
X200201Y7398D02*
Y8398D01*
Y7898D01*
X203200D01*
Y7398D01*
Y8398D01*
Y9897D02*
Y10897D01*
Y10397D01*
X200201D01*
X200701Y9897D01*
X203700Y12396D02*
Y14396D01*
X200201Y15395D02*
X203200D01*
Y16895D01*
X202700Y17395D01*
X200701D01*
X200201Y16895D01*
Y15395D01*
X200701Y18395D02*
X200201Y18894D01*
Y19894D01*
X200701Y20394D01*
X202700D01*
X203200Y19894D01*
Y18894D01*
X202700Y18395D01*
X200701D01*
X210601Y3299D02*
X210101Y2799D01*
Y1800D01*
X210601Y1300D01*
X211101D01*
X211600Y1800D01*
Y2799D01*
X212100Y3299D01*
X212600D01*
X213100Y2799D01*
Y1800D01*
X212600Y1300D01*
X213100Y4299D02*
X210101D01*
Y5799D01*
X210601Y6298D01*
X211600D01*
X212100Y5799D01*
Y4299D01*
X210101Y7298D02*
Y8298D01*
Y7798D01*
X213100D01*
Y7298D01*
Y8298D01*
Y9797D02*
Y10797D01*
Y10297D01*
X210101D01*
X210601Y9797D01*
X213600Y12296D02*
Y14296D01*
X210601Y17295D02*
X210101Y16795D01*
Y15795D01*
X210601Y15295D01*
X211101D01*
X211600Y15795D01*
Y16795D01*
X212100Y17295D01*
X212600D01*
X213100Y16795D01*
Y15795D01*
X212600Y15295D01*
X210601Y20294D02*
X210101Y19794D01*
Y18794D01*
X210601Y18294D01*
X212600D01*
X213100Y18794D01*
Y19794D01*
X212600Y20294D01*
X210101Y21294D02*
X213100D01*
Y23293D01*
X210101Y24293D02*
X213100D01*
X212100D01*
X210101Y26292D01*
X211600Y24792D01*
X213100Y26292D01*
X223300Y1400D02*
X221301D01*
X220301Y2400D01*
X221301Y3399D01*
X223300D01*
X221800D01*
Y1400D01*
X220301Y4399D02*
Y5399D01*
Y4899D01*
X223300D01*
Y4399D01*
Y5399D01*
Y6898D02*
X220301D01*
X223300Y8898D01*
X220301D01*
X223300Y11397D02*
X220301D01*
X221800Y9897D01*
Y11897D01*
X233200Y1400D02*
X231201D01*
X230201Y2400D01*
X231201Y3399D01*
X233200D01*
X231700D01*
Y1400D01*
X230201Y4399D02*
Y5399D01*
Y4899D01*
X233200D01*
Y4399D01*
Y5399D01*
Y6898D02*
X230201D01*
X233200Y8898D01*
X230201D01*
Y11897D02*
X230701Y10897D01*
X231700Y9897D01*
X232700D01*
X233200Y10397D01*
Y11397D01*
X232700Y11897D01*
X232200D01*
X231700Y11397D01*
Y9897D01*
X243200Y1300D02*
X241201D01*
X240201Y2300D01*
X241201Y3299D01*
X243200D01*
X241701D01*
Y1300D01*
X240201Y4299D02*
Y5299D01*
Y4799D01*
X243200D01*
Y4299D01*
Y5299D01*
Y6798D02*
X240201D01*
X243200Y8798D01*
X240201D01*
X243200Y11797D02*
Y9797D01*
X241201Y11797D01*
X240701D01*
X240201Y11297D01*
Y10297D01*
X240701Y9797D01*
X253200Y1400D02*
X251201D01*
X250201Y2400D01*
X251201Y3399D01*
X253200D01*
X251700D01*
Y1400D01*
X250201Y4399D02*
Y5399D01*
Y4899D01*
X253200D01*
Y4399D01*
Y5399D01*
Y6898D02*
X250201D01*
X253200Y8898D01*
X250201D01*
X250701Y9897D02*
X250201Y10397D01*
Y11397D01*
X250701Y11897D01*
X252700D01*
X253200Y11397D01*
Y10397D01*
X252700Y9897D01*
X250701D01*
X260701Y3399D02*
X260201Y2899D01*
Y1900D01*
X260701Y1400D01*
X262700D01*
X263200Y1900D01*
Y2899D01*
X262700Y3399D01*
X260201Y4399D02*
X263200D01*
Y6398D01*
X260201Y7398D02*
X263200D01*
X262200D01*
X260201Y9397D01*
X261701Y7898D01*
X263200Y9397D01*
X260201Y11897D02*
Y10897D01*
X260701Y10397D01*
X262700D01*
X263200Y10897D01*
Y11897D01*
X262700Y12396D01*
X260701D01*
X260201Y11897D01*
Y13396D02*
X262700D01*
X263200Y13896D01*
Y14896D01*
X262700Y15395D01*
X260201D01*
Y16395D02*
Y18395D01*
Y17395D01*
X263200D01*
Y21394D02*
Y19394D01*
X261201Y21394D01*
X260701D01*
X260201Y20894D01*
Y19894D01*
X260701Y19394D01*
X270701Y3299D02*
X270201Y2799D01*
Y1800D01*
X270701Y1300D01*
X272700D01*
X273200Y1800D01*
Y2799D01*
X272700Y3299D01*
X271701D01*
Y2300D01*
X273200Y4299D02*
X270201D01*
X273200Y6298D01*
X270201D01*
Y7298D02*
X273200D01*
Y8798D01*
X272700Y9297D01*
X270701D01*
X270201Y8798D01*
Y7298D01*
X280701Y3299D02*
X280201Y2799D01*
Y1800D01*
X280701Y1300D01*
X282700D01*
X283200Y1800D01*
Y2799D01*
X282700Y3299D01*
X281700D01*
Y2300D01*
X283200Y4299D02*
X280201D01*
X283200Y6298D01*
X280201D01*
Y7298D02*
X283200D01*
Y8798D01*
X282700Y9297D01*
X280701D01*
X280201Y8798D01*
Y7298D01*
X280701Y125199D02*
X280201Y124699D01*
Y123700D01*
X280701Y123200D01*
X282700D01*
X283200Y123700D01*
Y124699D01*
X282700Y125199D01*
X281700D01*
Y124200D01*
X283200Y126199D02*
X280201D01*
X283200Y128198D01*
X280201D01*
Y129198D02*
X283200D01*
Y130698D01*
X282700Y131197D01*
X280701D01*
X280201Y130698D01*
Y129198D01*
X270701Y125199D02*
X270201Y124699D01*
Y123700D01*
X270701Y123200D01*
X272700D01*
X273200Y123700D01*
Y124699D01*
X272700Y125199D01*
X271701D01*
Y124200D01*
X273200Y126199D02*
X270201D01*
X273200Y128198D01*
X270201D01*
Y129198D02*
X273200D01*
Y130698D01*
X272700Y131197D01*
X270701D01*
X270201Y130698D01*
Y129198D01*
X260401Y113499D02*
X259901Y112999D01*
Y112000D01*
X260401Y111500D01*
X262400D01*
X262900Y112000D01*
Y112999D01*
X262400Y113499D01*
X261401D01*
Y112500D01*
X262900Y114499D02*
X259901D01*
Y115999D01*
X260401Y116498D01*
X261401D01*
X261900Y115999D01*
Y114499D01*
X259901Y117498D02*
Y118498D01*
Y117998D01*
X262900D01*
Y117498D01*
Y118498D01*
X259901Y121497D02*
Y120497D01*
X260401Y119997D01*
X262400D01*
X262900Y120497D01*
Y121497D01*
X262400Y121997D01*
X260401D01*
X259901Y121497D01*
X260401Y122996D02*
X259901Y123496D01*
Y124496D01*
X260401Y124996D01*
X262400D01*
X262900Y124496D01*
Y123496D01*
X262400Y122996D01*
X260401D01*
X263400Y125995D02*
Y127995D01*
X259901Y128994D02*
Y130994D01*
X260401D01*
X262400Y128994D01*
X262900D01*
X253100Y121700D02*
X251101D01*
X250101Y122700D01*
X251101Y123699D01*
X253100D01*
X251601D01*
Y121700D01*
X250101Y124699D02*
Y125699D01*
Y125199D01*
X253100D01*
Y124699D01*
Y125699D01*
Y127198D02*
X250101D01*
X253100Y129198D01*
X250101D01*
X253100Y130197D02*
Y131197D01*
Y130697D01*
X250101D01*
X250601Y130197D01*
X243300Y120500D02*
X241301D01*
X240301Y121500D01*
X241301Y122499D01*
X243300D01*
X241800D01*
Y120500D01*
X240301Y123499D02*
Y124499D01*
Y123999D01*
X243300D01*
Y123499D01*
Y124499D01*
Y125998D02*
X240301D01*
X243300Y127998D01*
X240301D01*
X240801Y128997D02*
X240301Y129497D01*
Y130497D01*
X240801Y130997D01*
X241301D01*
X241800Y130497D01*
Y129997D01*
Y130497D01*
X242300Y130997D01*
X242800D01*
X243300Y130497D01*
Y129497D01*
X242800Y128997D01*
X233200Y120800D02*
X231201D01*
X230201Y121800D01*
X231201Y122799D01*
X233200D01*
X231700D01*
Y120800D01*
X230201Y123799D02*
Y124799D01*
Y124299D01*
X233200D01*
Y123799D01*
Y124799D01*
Y126298D02*
X230201D01*
X233200Y128298D01*
X230201D01*
Y131297D02*
Y129297D01*
X231700D01*
X231201Y130297D01*
Y130797D01*
X231700Y131297D01*
X232700D01*
X233200Y130797D01*
Y129797D01*
X232700Y129297D01*
X223200Y120000D02*
X221201D01*
X220201Y121000D01*
X221201Y121999D01*
X223200D01*
X221701D01*
Y120000D01*
X220701Y124998D02*
X220201Y124499D01*
Y123499D01*
X220701Y122999D01*
X222700D01*
X223200Y123499D01*
Y124499D01*
X222700Y124998D01*
X221701D01*
Y123999D01*
X223200Y125998D02*
X220201D01*
X223200Y127997D01*
X220201D01*
Y128997D02*
X223200D01*
Y130497D01*
X222700Y130996D01*
X220701D01*
X220201Y130497D01*
Y128997D01*
X210301Y104699D02*
X209801Y104200D01*
Y103200D01*
X210301Y102700D01*
X210801D01*
X211300Y103200D01*
Y104200D01*
X211800Y104699D01*
X212300D01*
X212800Y104200D01*
Y103200D01*
X212300Y102700D01*
X209801Y105699D02*
X210301D01*
X211300Y106699D01*
X210301Y107698D01*
X209801D01*
X211300Y106699D02*
X212800D01*
X210301Y110697D02*
X209801Y110198D01*
Y109198D01*
X210301Y108698D01*
X210801D01*
X211300Y109198D01*
Y110198D01*
X211800Y110697D01*
X212300D01*
X212800Y110198D01*
Y109198D01*
X212300Y108698D01*
X213300Y111697D02*
Y113696D01*
X212800Y114696D02*
X210801D01*
X209801Y115696D01*
X210801Y116695D01*
X212800D01*
X211300D01*
Y114696D01*
X209801Y117695D02*
X212800D01*
Y119195D01*
X212300Y119694D01*
X210301D01*
X209801Y119195D01*
Y117695D01*
X210301Y122694D02*
X209801Y122194D01*
Y121194D01*
X210301Y120694D01*
X212300D01*
X212800Y121194D01*
Y122194D01*
X212300Y122694D01*
X213300Y123693D02*
Y125693D01*
X212800Y126692D02*
Y127692D01*
Y127192D01*
X209801D01*
X210301Y126692D01*
X212800Y129191D02*
X209801D01*
Y130691D01*
X210301Y131191D01*
X211300D01*
X211800Y130691D01*
Y129191D01*
X210301Y132191D02*
X209801Y132690D01*
Y133690D01*
X210301Y134190D01*
X210801D01*
X211300Y133690D01*
X211800Y134190D01*
X212300D01*
X212800Y133690D01*
Y132690D01*
X212300Y132191D01*
X211800D01*
X211300Y132690D01*
X210801Y132191D01*
X210301D01*
X211300Y132690D02*
Y133690D01*
X209801Y135189D02*
X211800D01*
X212800Y136189D01*
X211800Y137189D01*
X209801D01*
X200601Y115099D02*
X200101Y114600D01*
Y113600D01*
X200601Y113100D01*
X201101D01*
X201601Y113600D01*
Y114600D01*
X202100Y115099D01*
X202600D01*
X203100Y114600D01*
Y113600D01*
X202600Y113100D01*
X203100Y116099D02*
X200101D01*
Y117599D01*
X200601Y118098D01*
X201601D01*
X202100Y117599D01*
Y116099D01*
X200101Y119098D02*
Y120098D01*
Y119598D01*
X203100D01*
Y119098D01*
Y120098D01*
Y121597D02*
Y122597D01*
Y122097D01*
X200101D01*
X200601Y121597D01*
X203600Y124096D02*
Y126096D01*
X200101Y127095D02*
X203100D01*
Y128595D01*
X202600Y129095D01*
X200601D01*
X200101Y128595D01*
Y127095D01*
X203100Y130095D02*
Y131094D01*
Y130594D01*
X200101D01*
X200601Y130095D01*
X190601Y111099D02*
X190101Y110600D01*
Y109600D01*
X190601Y109100D01*
X191101D01*
X191601Y109600D01*
Y110600D01*
X192100Y111099D01*
X192600D01*
X193100Y110600D01*
Y109600D01*
X192600Y109100D01*
X193100Y112099D02*
X190101D01*
Y113599D01*
X190601Y114098D01*
X191601D01*
X192100Y113599D01*
Y112099D01*
X190101Y115098D02*
Y116098D01*
Y115598D01*
X193100D01*
Y115098D01*
Y116098D01*
Y117597D02*
Y118597D01*
Y118097D01*
X190101D01*
X190601Y117597D01*
X193600Y120096D02*
Y122096D01*
X190601Y125095D02*
X190101Y124595D01*
Y123595D01*
X190601Y123096D01*
X192600D01*
X193100Y123595D01*
Y124595D01*
X192600Y125095D01*
X190601Y128094D02*
X190101Y127594D01*
Y126594D01*
X190601Y126094D01*
X191101D01*
X191601Y126594D01*
Y127594D01*
X192100Y128094D01*
X192600D01*
X193100Y127594D01*
Y126594D01*
X192600Y126094D01*
X190601Y129094D02*
X190101Y129593D01*
Y130593D01*
X190601Y131093D01*
X192600D01*
X193100Y130593D01*
Y129593D01*
X192600Y129094D01*
X190601D01*
X180301Y108700D02*
X182800D01*
X183300Y109200D01*
Y110199D01*
X182800Y110699D01*
X180301D01*
X183300Y111699D02*
X181301D01*
X180301Y112699D01*
X181301Y113698D01*
X183300D01*
X181800D01*
Y111699D01*
X183300Y114698D02*
X180301D01*
Y116198D01*
X180801Y116697D01*
X181800D01*
X182300Y116198D01*
Y114698D01*
Y115698D02*
X183300Y116697D01*
X180301Y117697D02*
Y119696D01*
Y118697D01*
X183300D01*
Y120696D02*
Y121696D01*
Y121196D01*
X180301D01*
X180801Y120696D01*
X183300Y123195D02*
X180301D01*
Y124695D01*
X180801Y125195D01*
X181800D01*
X182300Y124695D01*
Y123195D01*
Y124195D02*
X183300Y125195D01*
X180301Y126194D02*
X183300Y128194D01*
X180301D02*
X183300Y126194D01*
X180301Y129193D02*
X183300D01*
Y130693D01*
X182800Y131193D01*
X180801D01*
X180301Y130693D01*
Y129193D01*
X170201Y108700D02*
X172700D01*
X173200Y109200D01*
Y110199D01*
X172700Y110699D01*
X170201D01*
X173200Y111699D02*
X171201D01*
X170201Y112699D01*
X171201Y113698D01*
X173200D01*
X171701D01*
Y111699D01*
X173200Y114698D02*
X170201D01*
Y116198D01*
X170701Y116697D01*
X171701D01*
X172200Y116198D01*
Y114698D01*
Y115698D02*
X173200Y116697D01*
X170201Y117697D02*
Y119696D01*
Y118697D01*
X173200D01*
Y120696D02*
Y121696D01*
Y121196D01*
X170201D01*
X170701Y120696D01*
X170201Y123195D02*
Y125195D01*
Y124195D01*
X173200D01*
X170201Y126194D02*
X173200Y128194D01*
X170201D02*
X173200Y126194D01*
X170201Y129193D02*
X173200D01*
Y130693D01*
X172700Y131193D01*
X170701D01*
X170201Y130693D01*
Y129193D01*
X160401Y108100D02*
X162900D01*
X163400Y108600D01*
Y109599D01*
X162900Y110099D01*
X160401D01*
X163400Y111099D02*
X161401D01*
X160401Y112099D01*
X161401Y113098D01*
X163400D01*
X161900D01*
Y111099D01*
X163400Y114098D02*
X160401D01*
Y115598D01*
X160901Y116097D01*
X161900D01*
X162400Y115598D01*
Y114098D01*
Y115098D02*
X163400Y116097D01*
X160401Y117097D02*
Y119096D01*
Y118097D01*
X163400D01*
Y122096D02*
Y120096D01*
X161401Y122096D01*
X160901D01*
X160401Y121596D01*
Y120596D01*
X160901Y120096D01*
X163400Y123095D02*
X160401D01*
Y124595D01*
X160901Y125094D01*
X161900D01*
X162400Y124595D01*
Y123095D01*
Y124095D02*
X163400Y125094D01*
X160401Y126094D02*
X163400Y128094D01*
X160401D02*
X163400Y126094D01*
X160401Y129093D02*
X163400D01*
Y130593D01*
X162900Y131093D01*
X160901D01*
X160401Y130593D01*
Y129093D01*
X150001Y108800D02*
Y109800D01*
Y109300D01*
X153000D01*
Y108800D01*
Y109800D01*
Y113298D02*
Y111299D01*
X151001Y113298D01*
X150501D01*
X150001Y112799D01*
Y111799D01*
X150501Y111299D01*
Y116298D02*
X150001Y115798D01*
Y114798D01*
X150501Y114298D01*
X152500D01*
X153000Y114798D01*
Y115798D01*
X152500Y116298D01*
X153000Y119297D02*
Y117297D01*
X151001Y119297D01*
X150501D01*
X150001Y118797D01*
Y117797D01*
X150501Y117297D01*
X153500Y120296D02*
Y122296D01*
X150501Y125295D02*
X150001Y124795D01*
Y123795D01*
X150501Y123295D01*
X151001D01*
X151500Y123795D01*
Y124795D01*
X152000Y125295D01*
X152500D01*
X153000Y124795D01*
Y123795D01*
X152500Y123295D01*
X150001Y126294D02*
X153000D01*
Y127794D01*
X152500Y128294D01*
X150501D01*
X150001Y127794D01*
Y126294D01*
X153000Y129293D02*
X151001D01*
X150001Y130293D01*
X151001Y131293D01*
X153000D01*
X151500D01*
Y129293D01*
X139901Y109200D02*
Y110200D01*
Y109700D01*
X142900D01*
Y109200D01*
Y110200D01*
Y113698D02*
Y111699D01*
X140901Y113698D01*
X140401D01*
X139901Y113199D01*
Y112199D01*
X140401Y111699D01*
Y116698D02*
X139901Y116198D01*
Y115198D01*
X140401Y114698D01*
X142400D01*
X142900Y115198D01*
Y116198D01*
X142400Y116698D01*
X142900Y117697D02*
Y118697D01*
Y118197D01*
X139901D01*
X140401Y117697D01*
X143400Y120196D02*
Y122196D01*
X140401Y125195D02*
X139901Y124695D01*
Y123695D01*
X140401Y123196D01*
X140901D01*
X141401Y123695D01*
Y124695D01*
X141900Y125195D01*
X142400D01*
X142900Y124695D01*
Y123695D01*
X142400Y123196D01*
X139901Y126195D02*
X142900D01*
Y127694D01*
X142400Y128194D01*
X140401D01*
X139901Y127694D01*
Y126195D01*
X142900Y129193D02*
X140901D01*
X139901Y130193D01*
X140901Y131193D01*
X142900D01*
X141401D01*
Y129193D01*
X130301Y110999D02*
Y109000D01*
X133300D01*
Y110999D01*
X131800Y109000D02*
Y110000D01*
X130301Y111999D02*
X133300D01*
X131800D01*
Y113998D01*
X130301D01*
X133300D01*
Y114998D02*
X130301D01*
Y116498D01*
X130801Y116997D01*
X131800D01*
X132300Y116498D01*
Y114998D01*
Y115998D02*
X133300Y116997D01*
Y117997D02*
X130301D01*
Y119497D01*
X130801Y119996D01*
X131800D01*
X132300Y119497D01*
Y117997D01*
X130301Y120996D02*
X133300D01*
X132300Y121996D01*
X133300Y122995D01*
X130301D01*
X133300Y123995D02*
X130301D01*
X131301Y124995D01*
X130301Y125995D01*
X133300D01*
Y126994D02*
Y127994D01*
Y127494D01*
X130301D01*
X130801Y126994D01*
X130301Y129493D02*
X133300D01*
Y130993D01*
X132800Y131493D01*
X132300D01*
X131800Y130993D01*
Y129493D01*
Y130993D01*
X131301Y131493D01*
X130801D01*
X130301Y130993D01*
Y129493D01*
X120201Y111199D02*
Y109200D01*
X123200D01*
Y111199D01*
X121701Y109200D02*
Y110200D01*
X120201Y112199D02*
X123200D01*
X121701D01*
Y114198D01*
X120201D01*
X123200D01*
Y115198D02*
X120201D01*
Y116698D01*
X120701Y117197D01*
X121701D01*
X122200Y116698D01*
Y115198D01*
Y116198D02*
X123200Y117197D01*
Y118197D02*
X120201D01*
Y119697D01*
X120701Y120196D01*
X121701D01*
X122200Y119697D01*
Y118197D01*
X120201Y121196D02*
X123200D01*
X122200Y122196D01*
X123200Y123196D01*
X120201D01*
X123200Y124195D02*
X120201D01*
X121201Y125195D01*
X120201Y126195D01*
X123200D01*
Y127194D02*
Y128194D01*
Y127694D01*
X120201D01*
X120701Y127194D01*
X123200Y129693D02*
X121201D01*
X120201Y130693D01*
X121201Y131693D01*
X123200D01*
X121701D01*
Y129693D01*
X110701Y111699D02*
X110201Y111199D01*
Y110200D01*
X110701Y109700D01*
X112700D01*
X113200Y110200D01*
Y111199D01*
X112700Y111699D01*
X111700D01*
Y110700D01*
X113200Y112699D02*
X110201D01*
Y114199D01*
X110701Y114698D01*
X111700D01*
X112200Y114199D01*
Y112699D01*
X110201Y115698D02*
Y116698D01*
Y116198D01*
X113200D01*
Y115698D01*
Y116698D01*
X110201Y119697D02*
Y118697D01*
X110701Y118197D01*
X112700D01*
X113200Y118697D01*
Y119697D01*
X112700Y120197D01*
X110701D01*
X110201Y119697D01*
X113200Y121196D02*
Y122196D01*
Y121696D01*
X110201D01*
X110701Y121196D01*
X113700Y123696D02*
Y125695D01*
X113200Y128694D02*
Y126695D01*
X111201Y128694D01*
X110701D01*
X110201Y128194D01*
Y127194D01*
X110701Y126695D01*
Y129693D02*
X110201Y130193D01*
Y131193D01*
X110701Y131693D01*
X111201D01*
X111700Y131193D01*
X112200Y131693D01*
X112700D01*
X113200Y131193D01*
Y130193D01*
X112700Y129693D01*
X112200D01*
X111700Y130193D01*
X111201Y129693D01*
X110701D01*
X111700Y130193D02*
Y131193D01*
X100401Y109899D02*
X99901Y109399D01*
Y108400D01*
X100401Y107900D01*
X100901D01*
X101400Y108400D01*
Y109399D01*
X101900Y109899D01*
X102400D01*
X102900Y109399D01*
Y108400D01*
X102400Y107900D01*
X99901Y110899D02*
X100401D01*
X101400Y111899D01*
X100401Y112898D01*
X99901D01*
X101400Y111899D02*
X102900D01*
X100401Y115897D02*
X99901Y115398D01*
Y114398D01*
X100401Y113898D01*
X100901D01*
X101400Y114398D01*
Y115398D01*
X101900Y115897D01*
X102400D01*
X102900Y115398D01*
Y114398D01*
X102400Y113898D01*
X103400Y116897D02*
Y118896D01*
X102900Y119896D02*
X99901D01*
Y121396D01*
X100401Y121896D01*
X101400D01*
X101900Y121396D01*
Y119896D01*
Y120896D02*
X102900Y121896D01*
X99901Y124894D02*
Y122895D01*
X102900D01*
Y124894D01*
X101400Y122895D02*
Y123895D01*
X100401Y127893D02*
X99901Y127394D01*
Y126394D01*
X100401Y125894D01*
X100901D01*
X101400Y126394D01*
Y127394D01*
X101900Y127893D01*
X102400D01*
X102900Y127394D01*
Y126394D01*
X102400Y125894D01*
X99901Y130893D02*
Y128893D01*
X102900D01*
Y130893D01*
X101400Y128893D02*
Y129893D01*
X99901Y131892D02*
Y133892D01*
Y132892D01*
X102900D01*
Y134891D02*
X99901D01*
X102900Y136891D01*
X99901D01*
X135201Y3799D02*
Y1800D01*
X138200D01*
Y3799D01*
X136700Y1800D02*
Y2800D01*
X138200Y4799D02*
X135201D01*
X138200Y6798D01*
X135201D01*
X138700Y7798D02*
Y9797D01*
X135201Y10797D02*
X138200D01*
Y12297D01*
X137700Y12796D01*
X135701D01*
X135201Y12297D01*
Y10797D01*
X138200Y13796D02*
X135201D01*
Y15296D01*
X135701Y15796D01*
X136700D01*
X137200Y15296D01*
Y13796D01*
Y14796D02*
X138200Y15796D01*
X135201Y16795D02*
X137200D01*
X138200Y17795D01*
X137200Y18794D01*
X135201D01*
X145601Y3399D02*
X145101Y2899D01*
Y1900D01*
X145601Y1400D01*
X146101D01*
X146600Y1900D01*
Y2899D01*
X147100Y3399D01*
X147600D01*
X148100Y2899D01*
Y1900D01*
X147600Y1400D01*
X145101Y4399D02*
X148100D01*
Y5899D01*
X147600Y6398D01*
X145601D01*
X145101Y5899D01*
Y4399D01*
X148600Y7398D02*
Y9397D01*
X145601Y12396D02*
X145101Y11897D01*
Y10897D01*
X145601Y10397D01*
X146101D01*
X146600Y10897D01*
Y11897D01*
X147100Y12396D01*
X147600D01*
X148100Y11897D01*
Y10897D01*
X147600Y10397D01*
X145601Y15395D02*
X145101Y14896D01*
Y13896D01*
X145601Y13396D01*
X146101D01*
X146600Y13896D01*
Y14896D01*
X147100Y15395D01*
X147600D01*
X148100Y14896D01*
Y13896D01*
X147600Y13396D01*
X155601Y3599D02*
X155101Y3100D01*
Y2100D01*
X155601Y1600D01*
X156101D01*
X156600Y2100D01*
Y3100D01*
X157100Y3599D01*
X157600D01*
X158100Y3100D01*
Y2100D01*
X157600Y1600D01*
X155601Y6598D02*
X155101Y6099D01*
Y5099D01*
X155601Y4599D01*
X157600D01*
X158100Y5099D01*
Y6099D01*
X157600Y6598D01*
X155101Y7598D02*
X158100D01*
Y9597D01*
X168100Y1500D02*
X165101D01*
X166101Y2500D01*
X165101Y3499D01*
X168100D01*
X165101Y5999D02*
Y4999D01*
X165601Y4499D01*
X167600D01*
X168100Y4999D01*
Y5999D01*
X167600Y6498D01*
X165601D01*
X165101Y5999D01*
X165601Y9497D02*
X165101Y8998D01*
Y7998D01*
X165601Y7498D01*
X166101D01*
X166601Y7998D01*
Y8998D01*
X167100Y9497D01*
X167600D01*
X168100Y8998D01*
Y7998D01*
X167600Y7498D01*
X165101Y10497D02*
Y11497D01*
Y10997D01*
X168100D01*
Y10497D01*
Y11497D01*
X175301Y1400D02*
Y3399D01*
Y2400D01*
X178300D01*
Y4399D02*
X176301D01*
X175301Y5399D01*
X176301Y6398D01*
X178300D01*
X176801D01*
Y4399D01*
X175801Y9397D02*
X175301Y8898D01*
Y7898D01*
X175801Y7398D01*
X177800D01*
X178300Y7898D01*
Y8898D01*
X177800Y9397D01*
X175301Y10397D02*
X178300D01*
X176801D01*
Y12396D01*
X175301D01*
X178300D01*
X178800Y13396D02*
Y15395D01*
X178300Y16395D02*
Y17395D01*
Y16895D01*
X175301D01*
X175801Y16395D01*
X185201Y3299D02*
Y1300D01*
X188200D01*
Y3299D01*
X186700Y1300D02*
Y2300D01*
X185701Y4299D02*
X185201Y4799D01*
Y5799D01*
X185701Y6298D01*
X187700D01*
X188200Y5799D01*
Y4799D01*
X187700Y4299D01*
X185701D01*
X186700Y7298D02*
Y9297D01*
X185201Y10297D02*
X188200D01*
Y11797D01*
X187700Y12296D01*
X185701D01*
X185201Y11797D01*
Y10297D01*
Y13296D02*
Y14296D01*
Y13796D01*
X188200D01*
Y13296D01*
Y14296D01*
Y15795D02*
X185201D01*
Y17295D01*
X185701Y17795D01*
X186700D01*
X187200Y17295D01*
Y15795D01*
Y16795D02*
X188200Y17795D01*
X195201Y1400D02*
Y3399D01*
X195701D01*
X197700Y1400D01*
X198200D01*
Y3399D01*
X196701Y4399D02*
Y6398D01*
X195201Y7398D02*
X198200D01*
Y8898D01*
X197700Y9397D01*
X195701D01*
X195201Y8898D01*
Y7398D01*
Y10397D02*
Y11397D01*
Y10897D01*
X198200D01*
Y10397D01*
Y11397D01*
Y12896D02*
X195201D01*
Y14396D01*
X195701Y14896D01*
X196701D01*
X197200Y14396D01*
Y12896D01*
Y13896D02*
X198200Y14896D01*
X205201Y1300D02*
X208200Y3299D01*
X205201D02*
X208200Y1300D01*
X206700Y4299D02*
Y6298D01*
X205201Y7298D02*
X208200D01*
Y8798D01*
X207700Y9297D01*
X205701D01*
X205201Y8798D01*
Y7298D01*
Y10297D02*
Y11297D01*
Y10797D01*
X208200D01*
Y10297D01*
Y11297D01*
Y12796D02*
X205201D01*
Y14296D01*
X205701Y14796D01*
X206700D01*
X207200Y14296D01*
Y12796D01*
Y13796D02*
X208200Y14796D01*
X215301Y1300D02*
X218300Y3299D01*
X215301D02*
X218300Y1300D01*
X216800Y4299D02*
Y6298D01*
X215801Y9297D02*
X215301Y8798D01*
Y7798D01*
X215801Y7298D01*
X216301D01*
X216800Y7798D01*
Y8798D01*
X217300Y9297D01*
X217800D01*
X218300Y8798D01*
Y7798D01*
X217800Y7298D01*
X215301Y10297D02*
Y12296D01*
Y11297D01*
X218300D01*
X215301Y15295D02*
Y13296D01*
X218300D01*
Y15295D01*
X216800Y13296D02*
Y14296D01*
X218300Y16295D02*
X215301D01*
Y17795D01*
X215801Y18294D01*
X216800D01*
X217300Y17795D01*
Y16295D01*
X225301Y1300D02*
Y3299D01*
Y2300D01*
X228300D01*
X225301Y4299D02*
X228300D01*
X226800D01*
Y6298D01*
X225301D01*
X228300D01*
X225301Y9297D02*
Y7298D01*
X228300D01*
Y9297D01*
X226800Y7298D02*
Y8298D01*
X228300Y10297D02*
X225301D01*
Y11797D01*
X225801Y12296D01*
X226800D01*
X227300Y11797D01*
Y10297D01*
Y11297D02*
X228300Y12296D01*
Y13296D02*
X225301D01*
X226301Y14296D01*
X225301Y15295D01*
X228300D01*
X225801Y16295D02*
X225301Y16795D01*
Y17795D01*
X225801Y18294D01*
X227800D01*
X228300Y17795D01*
Y16795D01*
X227800Y16295D01*
X225801D01*
X235201Y1400D02*
Y3399D01*
X235701D01*
X237700Y1400D01*
X238200D01*
Y3399D01*
X238700Y4399D02*
Y6398D01*
X235201Y7398D02*
Y9397D01*
Y8398D01*
X238200D01*
X235201Y10397D02*
X238200D01*
X236701D01*
Y12396D01*
X235201D01*
X238200D01*
X235201Y15395D02*
Y13396D01*
X238200D01*
Y15395D01*
X236701Y13396D02*
Y14396D01*
X238200Y16395D02*
X235201D01*
Y17895D01*
X235701Y18395D01*
X236701D01*
X237200Y17895D01*
Y16395D01*
Y17395D02*
X238200Y18395D01*
Y19394D02*
X235201D01*
X236201Y20394D01*
X235201Y21394D01*
X238200D01*
X245301Y1200D02*
Y3199D01*
Y2200D01*
X248300D01*
X245301Y4199D02*
X248300D01*
X246800D01*
Y6198D01*
X245301D01*
X248300D01*
X245301Y9197D02*
Y7198D01*
X248300D01*
Y9197D01*
X246800Y7198D02*
Y8198D01*
X248300Y10197D02*
X245301D01*
Y11697D01*
X245801Y12196D01*
X246800D01*
X247300Y11697D01*
Y10197D01*
Y11197D02*
X248300Y12196D01*
Y13196D02*
X245301D01*
X246301Y14196D01*
X245301Y15195D01*
X248300D01*
Y18194D02*
Y16195D01*
X246301Y18194D01*
X245801D01*
X245301Y17695D01*
Y16695D01*
X245801Y16195D01*
X255401Y1300D02*
Y3299D01*
Y2300D01*
X258400D01*
X255401Y4299D02*
X258400D01*
X256901D01*
Y6298D01*
X255401D01*
X258400D01*
X255401Y9297D02*
Y7298D01*
X258400D01*
Y9297D01*
X256901Y7298D02*
Y8298D01*
X258400Y10297D02*
X255401D01*
Y11797D01*
X255901Y12296D01*
X256901D01*
X257400Y11797D01*
Y10297D01*
Y11297D02*
X258400Y12296D01*
Y13296D02*
X255401D01*
X256401Y14296D01*
X255401Y15295D01*
X258400D01*
Y16295D02*
Y17295D01*
Y16795D01*
X255401D01*
X255901Y16295D01*
X265301Y3299D02*
Y1300D01*
X268300D01*
Y3299D01*
X266800Y1300D02*
Y2300D01*
X265801Y4299D02*
X265301Y4799D01*
Y5799D01*
X265801Y6298D01*
X267800D01*
X268300Y5799D01*
Y4799D01*
X267800Y4299D01*
X265801D01*
X266800Y7298D02*
Y9297D01*
X265801Y12296D02*
X265301Y11797D01*
Y10797D01*
X265801Y10297D01*
X266301D01*
X266800Y10797D01*
Y11797D01*
X267300Y12296D01*
X267800D01*
X268300Y11797D01*
Y10797D01*
X267800Y10297D01*
X265301Y13296D02*
Y15295D01*
Y14296D01*
X268300D01*
X265301Y18294D02*
Y16295D01*
X268300D01*
Y18294D01*
X266800Y16295D02*
Y17295D01*
X268300Y19294D02*
X265301D01*
Y20794D01*
X265801Y21294D01*
X266800D01*
X267300Y20794D01*
Y19294D01*
X265201Y114200D02*
Y116199D01*
X265701D01*
X267700Y114200D01*
X268200D01*
Y116199D01*
X266701Y117199D02*
Y119198D01*
X265701Y122197D02*
X265201Y121698D01*
Y120698D01*
X265701Y120198D01*
X266201D01*
X266701Y120698D01*
Y121698D01*
X267200Y122197D01*
X267700D01*
X268200Y121698D01*
Y120698D01*
X267700Y120198D01*
X265201Y123197D02*
Y125196D01*
Y124197D01*
X268200D01*
X265201Y128196D02*
Y126196D01*
X268200D01*
Y128196D01*
X266701Y126196D02*
Y127196D01*
X268200Y129195D02*
X265201D01*
Y130695D01*
X265701Y131194D01*
X266701D01*
X267200Y130695D01*
Y129195D01*
X258000Y107700D02*
X256001D01*
Y109200D01*
X256501Y109699D01*
X258000D01*
Y110699D02*
X256001D01*
X255001Y111699D01*
X256001Y112698D01*
X258000D01*
X256501D01*
Y110699D01*
X255501Y115697D02*
X255001Y115198D01*
Y114198D01*
X255501Y113698D01*
X257500D01*
X258000Y114198D01*
Y115198D01*
X257500Y115697D01*
X258500Y116697D02*
Y118696D01*
X255001Y121695D02*
Y119696D01*
X256501D01*
Y120696D01*
Y119696D01*
X258000D01*
Y122695D02*
X256001D01*
X255001Y123695D01*
X256001Y124695D01*
X258000D01*
X256501D01*
Y122695D01*
X255001Y125694D02*
X257500D01*
X258000Y126194D01*
Y127194D01*
X257500Y127693D01*
X255001D01*
Y128693D02*
X258000D01*
Y130693D01*
X255001Y131692D02*
Y133692D01*
Y132692D01*
X258000D01*
X245201Y114400D02*
X245701D01*
X246701Y115400D01*
X245701Y116399D01*
X245201D01*
X246701Y115400D02*
X248200D01*
X248700Y117399D02*
Y119398D01*
X245201Y120398D02*
X248200D01*
Y121898D01*
X247700Y122397D01*
X245701D01*
X245201Y121898D01*
Y120398D01*
Y123397D02*
Y124397D01*
Y123897D01*
X248200D01*
Y123397D01*
Y124397D01*
Y125896D02*
X246201D01*
X245201Y126896D01*
X246201Y127896D01*
X248200D01*
X246701D01*
Y125896D01*
X245701Y130895D02*
X245201Y130395D01*
Y129395D01*
X245701Y128895D01*
X247700D01*
X248200Y129395D01*
Y130395D01*
X247700Y130895D01*
X246701D01*
Y129895D01*
X235101Y117600D02*
Y119599D01*
X235601D01*
X237600Y117600D01*
X238100D01*
Y119599D01*
X238600Y120599D02*
Y122598D01*
X238100Y123598D02*
X235101D01*
X236101Y124598D01*
X235101Y125597D01*
X238100D01*
X235101Y126597D02*
Y127597D01*
Y127097D01*
X238100D01*
Y126597D01*
Y127597D01*
Y129096D02*
X235101D01*
X238100Y131096D01*
X235101D01*
X205201Y114300D02*
X205701D01*
X206700Y115300D01*
X205701Y116299D01*
X205201D01*
X206700Y115300D02*
X208200D01*
X206700Y117299D02*
Y119298D01*
X205701Y122297D02*
X205201Y121798D01*
Y120798D01*
X205701Y120298D01*
X206201D01*
X206700Y120798D01*
Y121798D01*
X207200Y122297D01*
X207700D01*
X208200Y121798D01*
Y120798D01*
X207700Y120298D01*
X205201Y123297D02*
Y125296D01*
Y124297D01*
X208200D01*
X205201Y128296D02*
Y126296D01*
X208200D01*
Y128296D01*
X206700Y126296D02*
Y127296D01*
X208200Y129295D02*
X205201D01*
Y130795D01*
X205701Y131295D01*
X206700D01*
X207200Y130795D01*
Y129295D01*
X195101Y117500D02*
X195601D01*
X196600Y118500D01*
X195601Y119499D01*
X195101D01*
X196600Y118500D02*
X198100D01*
X196600Y120499D02*
Y122498D01*
X195101Y123498D02*
X198100D01*
Y124998D01*
X197600Y125497D01*
X195601D01*
X195101Y124998D01*
Y123498D01*
Y126497D02*
Y127497D01*
Y126997D01*
X198100D01*
Y126497D01*
Y127497D01*
Y128996D02*
X195101D01*
Y130496D01*
X195601Y130996D01*
X196600D01*
X197100Y130496D01*
Y128996D01*
Y129996D02*
X198100Y130996D01*
X188000Y123000D02*
X185001D01*
Y124499D01*
X185501Y124999D01*
X186501D01*
X187000Y124499D01*
Y123000D01*
Y124000D02*
X188000Y124999D01*
X185001Y125999D02*
X188000Y127998D01*
X185001D02*
X188000Y125999D01*
Y130997D02*
Y128998D01*
X186001Y130997D01*
X185501D01*
X185001Y130498D01*
Y129498D01*
X185501Y128998D01*
X175001Y122900D02*
Y124899D01*
Y123900D01*
X178000D01*
X175001Y125899D02*
X178000Y127898D01*
X175001D02*
X178000Y125899D01*
Y130897D02*
Y128898D01*
X176001Y130897D01*
X175501D01*
X175001Y130398D01*
Y129398D01*
X175501Y128898D01*
X165601Y124999D02*
X165101Y124499D01*
Y123500D01*
X165601Y123000D01*
X166101D01*
X166601Y123500D01*
Y124499D01*
X167100Y124999D01*
X167600D01*
X168100Y124499D01*
Y123500D01*
X167600Y123000D01*
X165601Y127998D02*
X165101Y127499D01*
Y126499D01*
X165601Y125999D01*
X167600D01*
X168100Y126499D01*
Y127499D01*
X167600Y127998D01*
X165101Y128998D02*
X168100D01*
X167100D01*
X165101Y130997D01*
X166601Y129498D01*
X168100Y130997D01*
X155601Y124699D02*
X155101Y124199D01*
Y123200D01*
X155601Y122700D01*
X156101D01*
X156600Y123200D01*
Y124199D01*
X157100Y124699D01*
X157600D01*
X158100Y124199D01*
Y123200D01*
X157600Y122700D01*
X155101Y125699D02*
X158100D01*
Y127199D01*
X157600Y127698D01*
X155601D01*
X155101Y127199D01*
Y125699D01*
X158100Y128698D02*
X156101D01*
X155101Y129698D01*
X156101Y130697D01*
X158100D01*
X156600D01*
Y128698D01*
X148200Y120700D02*
X145201D01*
X146201Y121700D01*
X145201Y122699D01*
X148200D01*
X145201Y123699D02*
Y124699D01*
Y124199D01*
X148200D01*
Y123699D01*
Y124699D01*
X145701Y128198D02*
X145201Y127698D01*
Y126698D01*
X145701Y126198D01*
X146201D01*
X146701Y126698D01*
Y127698D01*
X147200Y128198D01*
X147700D01*
X148200Y127698D01*
Y126698D01*
X147700Y126198D01*
X145201Y130697D02*
Y129697D01*
X145701Y129197D01*
X147700D01*
X148200Y129697D01*
Y130697D01*
X147700Y131197D01*
X145701D01*
X145201Y130697D01*
X135201Y108000D02*
X135701D01*
X136700Y109000D01*
X135701Y109999D01*
X135201D01*
X136700Y109000D02*
X138200D01*
X136700Y110999D02*
Y112998D01*
X135701Y115997D02*
X135201Y115498D01*
Y114498D01*
X135701Y113998D01*
X137700D01*
X138200Y114498D01*
Y115498D01*
X137700Y115997D01*
X135701Y118996D02*
X135201Y118497D01*
Y117497D01*
X135701Y116997D01*
X136201D01*
X136700Y117497D01*
Y118497D01*
X137200Y118996D01*
X137700D01*
X138200Y118497D01*
Y117497D01*
X137700Y116997D01*
X138700Y119996D02*
Y121995D01*
X135201Y122995D02*
X138200D01*
Y124495D01*
X137700Y124995D01*
X135701D01*
X135201Y124495D01*
Y122995D01*
X138200Y125994D02*
X135201D01*
Y127494D01*
X135701Y127994D01*
X136700D01*
X137200Y127494D01*
Y125994D01*
Y126994D02*
X138200Y127994D01*
X135201Y128993D02*
X137200D01*
X138200Y129993D01*
X137200Y130993D01*
X135201D01*
X124901Y108400D02*
X127900Y110399D01*
X124901D02*
X127900Y108400D01*
X126400Y111399D02*
Y113398D01*
X125401Y116397D02*
X124901Y115898D01*
Y114898D01*
X125401Y114398D01*
X127400D01*
X127900Y114898D01*
Y115898D01*
X127400Y116397D01*
X125401Y119396D02*
X124901Y118897D01*
Y117897D01*
X125401Y117397D01*
X125901D01*
X126400Y117897D01*
Y118897D01*
X126900Y119396D01*
X127400D01*
X127900Y118897D01*
Y117897D01*
X127400Y117397D01*
X128400Y120396D02*
Y122396D01*
X124901Y123395D02*
X127900D01*
Y124895D01*
X127400Y125394D01*
X125401D01*
X124901Y124895D01*
Y123395D01*
X127900Y126394D02*
X124901D01*
Y127894D01*
X125401Y128393D01*
X126400D01*
X126900Y127894D01*
Y126394D01*
Y127394D02*
X127900Y128393D01*
X124901Y129393D02*
X126900D01*
X127900Y130393D01*
X126900Y131393D01*
X124901D01*
X115201Y114400D02*
Y116399D01*
Y115400D01*
X118200D01*
Y117399D02*
X116201D01*
X115201Y118399D01*
X116201Y119398D01*
X118200D01*
X116700D01*
Y117399D01*
X115701Y122397D02*
X115201Y121898D01*
Y120898D01*
X115701Y120398D01*
X117700D01*
X118200Y120898D01*
Y121898D01*
X117700Y122397D01*
X115201Y123397D02*
X118200D01*
X116700D01*
Y125396D01*
X115201D01*
X118200D01*
X118700Y126396D02*
Y128395D01*
X115701Y129395D02*
X115201Y129895D01*
Y130895D01*
X115701Y131395D01*
X117700D01*
X118200Y130895D01*
Y129895D01*
X117700Y129395D01*
X115701D01*
X60601Y193599D02*
X60101Y193099D01*
Y192100D01*
X60601Y191600D01*
X62600D01*
X63100Y192100D01*
Y193099D01*
X62600Y193599D01*
X61601D01*
Y192600D01*
X63100Y194599D02*
X60101D01*
X63100Y196598D01*
X60101D01*
Y197598D02*
X63100D01*
Y199098D01*
X62600Y199597D01*
X60601D01*
X60101Y199098D01*
Y197598D01*
X73000Y191700D02*
X70001D01*
X71001Y192700D01*
X70001Y193699D01*
X73000D01*
Y194699D02*
X70001D01*
X71001Y195699D01*
X70001Y196698D01*
X73000D01*
X70501Y199697D02*
X70001Y199198D01*
Y198198D01*
X70501Y197698D01*
X72500D01*
X73000Y198198D01*
Y199198D01*
X72500Y199697D01*
X73000Y200697D02*
Y201697D01*
Y201197D01*
X70001D01*
X70501Y200697D01*
X73500Y203196D02*
Y205196D01*
X70001Y206195D02*
X73000D01*
Y207695D01*
X72500Y208195D01*
X70501D01*
X70001Y207695D01*
Y206195D01*
X73000Y209194D02*
X71001D01*
X70001Y210194D01*
X71001Y211194D01*
X73000D01*
X71500D01*
Y209194D01*
X70001Y212193D02*
Y214193D01*
Y213193D01*
X73000D01*
X70001Y217192D02*
X70501Y216192D01*
X71500Y215192D01*
X72500D01*
X73000Y215692D01*
Y216692D01*
X72500Y217192D01*
X72000D01*
X71500Y216692D01*
Y215192D01*
X83000Y191800D02*
X80001D01*
X81001Y192800D01*
X80001Y193799D01*
X83000D01*
Y194799D02*
X80001D01*
X81001Y195799D01*
X80001Y196798D01*
X83000D01*
X80501Y199797D02*
X80001Y199298D01*
Y198298D01*
X80501Y197798D01*
X82500D01*
X83000Y198298D01*
Y199298D01*
X82500Y199797D01*
X83000Y200797D02*
Y201797D01*
Y201297D01*
X80001D01*
X80501Y200797D01*
X83500Y203296D02*
Y205296D01*
X80001Y206295D02*
X83000D01*
Y207795D01*
X82500Y208295D01*
X80501D01*
X80001Y207795D01*
Y206295D01*
X83000Y209294D02*
X81001D01*
X80001Y210294D01*
X81001Y211294D01*
X83000D01*
X81501D01*
Y209294D01*
X80001Y212293D02*
Y214293D01*
Y213293D01*
X83000D01*
Y217292D02*
Y215292D01*
X81001Y217292D01*
X80501D01*
X80001Y216792D01*
Y215792D01*
X80501Y215292D01*
X90401Y191300D02*
Y193299D01*
Y192300D01*
X93400D01*
X90401Y194299D02*
Y195299D01*
Y194799D01*
X93400D01*
Y194299D01*
Y195299D01*
Y196798D02*
X90401D01*
X91401Y197798D01*
X90401Y198798D01*
X93400D01*
X90401Y201797D02*
Y199797D01*
X93400D01*
Y201797D01*
X91900Y199797D02*
Y200797D01*
X93400Y202796D02*
X90401D01*
Y204296D01*
X90901Y204796D01*
X91900D01*
X92400Y204296D01*
Y202796D01*
Y203796D02*
X93400Y204796D01*
Y207295D02*
X90401D01*
X91900Y205795D01*
Y207795D01*
X100101Y191100D02*
Y193099D01*
Y192100D01*
X103100D01*
X100101Y194099D02*
Y195099D01*
Y194599D01*
X103100D01*
Y194099D01*
Y195099D01*
Y196598D02*
X100101D01*
X101101Y197598D01*
X100101Y198598D01*
X103100D01*
X100101Y201597D02*
Y199597D01*
X103100D01*
Y201597D01*
X101601Y199597D02*
Y200597D01*
X103100Y202596D02*
X100101D01*
Y204096D01*
X100601Y204596D01*
X101601D01*
X102100Y204096D01*
Y202596D01*
Y203596D02*
X103100Y204596D01*
X100101Y207595D02*
Y205595D01*
X101601D01*
X101101Y206595D01*
Y207095D01*
X101601Y207595D01*
X102600D01*
X103100Y207095D01*
Y206095D01*
X102600Y205595D01*
X110801Y193499D02*
X110301Y192999D01*
Y192000D01*
X110801Y191500D01*
X112800D01*
X113300Y192000D01*
Y192999D01*
X112800Y193499D01*
X111801D01*
Y192500D01*
X113300Y194499D02*
X110301D01*
Y195999D01*
X110801Y196498D01*
X111801D01*
X112300Y195999D01*
Y194499D01*
X110301Y197498D02*
Y198498D01*
Y197998D01*
X113300D01*
Y197498D01*
Y198498D01*
X110301Y201497D02*
Y200497D01*
X110801Y199997D01*
X112800D01*
X113300Y200497D01*
Y201497D01*
X112800Y201997D01*
X110801D01*
X110301Y201497D01*
X113300Y202996D02*
Y203996D01*
Y203496D01*
X110301D01*
X110801Y202996D01*
X113800Y205496D02*
Y207495D01*
X113300Y208494D02*
Y209494D01*
Y208994D01*
X110301D01*
X110801Y208494D01*
Y210994D02*
X110301Y211493D01*
Y212493D01*
X110801Y212993D01*
X111301D01*
X111801Y212493D01*
Y211993D01*
Y212493D01*
X112300Y212993D01*
X112800D01*
X113300Y212493D01*
Y211493D01*
X112800Y210994D01*
X120201Y193699D02*
Y191700D01*
X123200D01*
Y193699D01*
X121701Y191700D02*
Y192700D01*
X120201Y194699D02*
X123200D01*
X121701D01*
Y196698D01*
X120201D01*
X123200D01*
Y197698D02*
X120201D01*
Y199198D01*
X120701Y199697D01*
X121701D01*
X122200Y199198D01*
Y197698D01*
Y198698D02*
X123200Y199697D01*
Y200697D02*
X120201D01*
Y202197D01*
X120701Y202696D01*
X121701D01*
X122200Y202197D01*
Y200697D01*
X120201Y203696D02*
X123200D01*
X122200Y204696D01*
X123200Y205696D01*
X120201D01*
X123200Y206695D02*
X120201D01*
X121201Y207695D01*
X120201Y208695D01*
X123200D01*
Y211694D02*
Y209694D01*
X121201Y211694D01*
X120701D01*
X120201Y211194D01*
Y210194D01*
X120701Y209694D01*
X120201Y212693D02*
X123200D01*
Y214193D01*
X122700Y214693D01*
X122200D01*
X121701Y214193D01*
Y212693D01*
Y214193D01*
X121201Y214693D01*
X120701D01*
X120201Y214193D01*
Y212693D01*
X130701Y193599D02*
X130201Y193099D01*
Y192100D01*
X130701Y191600D01*
X132700D01*
X133200Y192100D01*
Y193099D01*
X132700Y193599D01*
X131701D01*
Y192600D01*
X133200Y194599D02*
X130201D01*
Y196099D01*
X130701Y196598D01*
X131701D01*
X132200Y196099D01*
Y194599D01*
X130201Y197598D02*
Y198598D01*
Y198098D01*
X133200D01*
Y197598D01*
Y198598D01*
X130201Y201597D02*
Y200597D01*
X130701Y200097D01*
X132700D01*
X133200Y200597D01*
Y201597D01*
X132700Y202097D01*
X130701D01*
X130201Y201597D01*
X133200Y203096D02*
Y204096D01*
Y203596D01*
X130201D01*
X130701Y203096D01*
X133700Y205595D02*
Y207595D01*
X133200Y208594D02*
Y209594D01*
Y209094D01*
X130201D01*
X130701Y208594D01*
X130201Y213093D02*
Y211094D01*
X131701D01*
X131201Y212093D01*
Y212593D01*
X131701Y213093D01*
X132700D01*
X133200Y212593D01*
Y211594D01*
X132700Y211094D01*
X140501Y193199D02*
X140001Y192700D01*
Y191700D01*
X140501Y191200D01*
X142500D01*
X143000Y191700D01*
Y192700D01*
X142500Y193199D01*
X141500D01*
Y192200D01*
X143000Y194199D02*
X140001D01*
Y195699D01*
X140501Y196198D01*
X141500D01*
X142000Y195699D01*
Y194199D01*
X140001Y197198D02*
Y198198D01*
Y197698D01*
X143000D01*
Y197198D01*
Y198198D01*
X140001Y201197D02*
Y200197D01*
X140501Y199697D01*
X142500D01*
X143000Y200197D01*
Y201197D01*
X142500Y201697D01*
X140501D01*
X140001Y201197D01*
X140501Y202696D02*
X140001Y203196D01*
Y204196D01*
X140501Y204696D01*
X142500D01*
X143000Y204196D01*
Y203196D01*
X142500Y202696D01*
X140501D01*
X143500Y205695D02*
Y207695D01*
X143000Y210694D02*
Y208694D01*
X141001Y210694D01*
X140501D01*
X140001Y210194D01*
Y209194D01*
X140501Y208694D01*
X140001Y211693D02*
Y213693D01*
X140501D01*
X142500Y211693D01*
X143000D01*
X150301Y193299D02*
Y191300D01*
X153300D01*
Y193299D01*
X151801Y191300D02*
Y192300D01*
X150301Y194299D02*
X153300D01*
X151801D01*
Y196298D01*
X150301D01*
X153300D01*
Y197298D02*
X150301D01*
Y198798D01*
X150801Y199297D01*
X151801D01*
X152300Y198798D01*
Y197298D01*
Y198298D02*
X153300Y199297D01*
Y200297D02*
X150301D01*
Y201797D01*
X150801Y202296D01*
X151801D01*
X152300Y201797D01*
Y200297D01*
X150301Y203296D02*
X153300D01*
X152300Y204296D01*
X153300Y205295D01*
X150301D01*
X153300Y206295D02*
X150301D01*
X151301Y207295D01*
X150301Y208295D01*
X153300D01*
Y211294D02*
Y209294D01*
X151301Y211294D01*
X150801D01*
X150301Y210794D01*
Y209794D01*
X150801Y209294D01*
X153300Y212293D02*
X151301D01*
X150301Y213293D01*
X151301Y214293D01*
X153300D01*
X151801D01*
Y212293D01*
X163000Y191500D02*
X160001D01*
X161001Y192500D01*
X160001Y193499D01*
X163000D01*
Y194499D02*
X160001D01*
X161001Y195499D01*
X160001Y196498D01*
X163000D01*
X160501Y199497D02*
X160001Y198998D01*
Y197998D01*
X160501Y197498D01*
X162500D01*
X163000Y197998D01*
Y198998D01*
X162500Y199497D01*
X163000Y200497D02*
Y201497D01*
Y200997D01*
X160001D01*
X160501Y200497D01*
X163500Y202996D02*
Y204996D01*
X160501Y207995D02*
X160001Y207495D01*
Y206495D01*
X160501Y205995D01*
X162500D01*
X163000Y206495D01*
Y207495D01*
X162500Y207995D01*
X160001Y208994D02*
X163000D01*
Y210994D01*
X160001Y211993D02*
X163000D01*
X162000D01*
X160001Y213993D01*
X161501Y212493D01*
X163000Y213993D01*
X172900Y191300D02*
X169901D01*
X170901Y192300D01*
X169901Y193299D01*
X172900D01*
Y194299D02*
X169901D01*
X170901Y195299D01*
X169901Y196298D01*
X172900D01*
X170401Y199297D02*
X169901Y198798D01*
Y197798D01*
X170401Y197298D01*
X172400D01*
X172900Y197798D01*
Y198798D01*
X172400Y199297D01*
X172900Y200297D02*
Y201297D01*
Y200797D01*
X169901D01*
X170401Y200297D01*
X173400Y202796D02*
Y204796D01*
X169901Y205795D02*
X172900D01*
Y207295D01*
X172400Y207795D01*
X170401D01*
X169901Y207295D01*
Y205795D01*
X172900Y208794D02*
X170901D01*
X169901Y209794D01*
X170901Y210794D01*
X172900D01*
X171400D01*
Y208794D01*
X169901Y211793D02*
Y213793D01*
Y212793D01*
X172900D01*
Y216292D02*
X169901D01*
X171400Y214792D01*
Y216792D01*
X183000Y191500D02*
X180001D01*
X181001Y192500D01*
X180001Y193499D01*
X183000D01*
Y194499D02*
X180001D01*
X181001Y195499D01*
X180001Y196498D01*
X183000D01*
X180501Y199497D02*
X180001Y198998D01*
Y197998D01*
X180501Y197498D01*
X182500D01*
X183000Y197998D01*
Y198998D01*
X182500Y199497D01*
X183000Y200497D02*
Y201497D01*
Y200997D01*
X180001D01*
X180501Y200497D01*
X183500Y202996D02*
Y204996D01*
X180001Y205995D02*
X183000D01*
Y207495D01*
X182500Y207995D01*
X180501D01*
X180001Y207495D01*
Y205995D01*
X183000Y208994D02*
X181001D01*
X180001Y209994D01*
X181001Y210994D01*
X183000D01*
X181500D01*
Y208994D01*
X180001Y211993D02*
Y213993D01*
Y212993D01*
X183000D01*
X180501Y214992D02*
X180001Y215492D01*
Y216492D01*
X180501Y216992D01*
X182500D01*
X183000Y216492D01*
Y215492D01*
X182500Y214992D01*
X180501D01*
X190001Y191500D02*
X193000D01*
Y193499D01*
X190501Y196498D02*
X190001Y195999D01*
Y194999D01*
X190501Y194499D01*
X192500D01*
X193000Y194999D01*
Y195999D01*
X192500Y196498D01*
X190001Y197498D02*
X193000D01*
Y198998D01*
X192500Y199497D01*
X190501D01*
X190001Y198998D01*
Y197498D01*
X193500Y200497D02*
Y202496D01*
X190001Y203496D02*
X192000D01*
X193000Y204496D01*
X192000Y205496D01*
X190001D01*
X190501Y208494D02*
X190001Y207995D01*
Y206995D01*
X190501Y206495D01*
X191001D01*
X191500Y206995D01*
Y207995D01*
X192000Y208494D01*
X192500D01*
X193000Y207995D01*
Y206995D01*
X192500Y206495D01*
X190001Y209494D02*
X190501D01*
X191500Y210494D01*
X190501Y211493D01*
X190001D01*
X191500Y210494D02*
X193000D01*
Y212493D02*
X190001D01*
X193000Y214493D01*
X190001D01*
X190501Y217492D02*
X190001Y216992D01*
Y215992D01*
X190501Y215492D01*
X192500D01*
X193000Y215992D01*
Y216992D01*
X192500Y217492D01*
X200001Y191300D02*
X203000D01*
Y193299D01*
X200501Y196298D02*
X200001Y195799D01*
Y194799D01*
X200501Y194299D01*
X202500D01*
X203000Y194799D01*
Y195799D01*
X202500Y196298D01*
X200001Y197298D02*
X203000D01*
Y198798D01*
X202500Y199297D01*
X200501D01*
X200001Y198798D01*
Y197298D01*
X203500Y200297D02*
Y202296D01*
X200001Y203296D02*
X203000D01*
X201501D01*
Y205295D01*
X200001D01*
X203000D01*
X200501Y208295D02*
X200001Y207795D01*
Y206795D01*
X200501Y206295D01*
X201001D01*
X201501Y206795D01*
Y207795D01*
X202000Y208295D01*
X202500D01*
X203000Y207795D01*
Y206795D01*
X202500Y206295D01*
X200001Y209294D02*
X200501D01*
X201501Y210294D01*
X200501Y211294D01*
X200001D01*
X201501Y210294D02*
X203000D01*
Y212293D02*
X200001D01*
X203000Y214293D01*
X200001D01*
X200501Y217292D02*
X200001Y216792D01*
Y215792D01*
X200501Y215292D01*
X202500D01*
X203000Y215792D01*
Y216792D01*
X202500Y217292D01*
X209901Y186400D02*
X212900D01*
Y188399D01*
X210401Y191398D02*
X209901Y190899D01*
Y189899D01*
X210401Y189399D01*
X212400D01*
X212900Y189899D01*
Y190899D01*
X212400Y191398D01*
X209901Y192398D02*
X212900D01*
Y193898D01*
X212400Y194397D01*
X210401D01*
X209901Y193898D01*
Y192398D01*
X213400Y195397D02*
Y197396D01*
X209901Y198396D02*
X212900D01*
Y199896D01*
X212400Y200395D01*
X210401D01*
X209901Y199896D01*
Y198396D01*
X212900Y201395D02*
X210901D01*
X209901Y202395D01*
X210901Y203395D01*
X212900D01*
X211401D01*
Y201395D01*
X209901Y204394D02*
Y206394D01*
Y205394D01*
X212900D01*
Y207393D02*
X210901D01*
X209901Y208393D01*
X210901Y209393D01*
X212900D01*
X211401D01*
Y207393D01*
X212900Y210392D02*
Y211392D01*
Y210892D01*
X209901D01*
X210401Y210392D01*
X212900Y214391D02*
X209901D01*
X211401Y212891D01*
Y214891D01*
X219901Y191200D02*
X222900D01*
Y193199D01*
X220401Y196198D02*
X219901Y195699D01*
Y194699D01*
X220401Y194199D01*
X222400D01*
X222900Y194699D01*
Y195699D01*
X222400Y196198D01*
X219901Y197198D02*
X222900D01*
Y198698D01*
X222400Y199197D01*
X220401D01*
X219901Y198698D01*
Y197198D01*
X223400Y200197D02*
Y202196D01*
X219901Y203196D02*
X222900D01*
Y204696D01*
X222400Y205195D01*
X220401D01*
X219901Y204696D01*
Y203196D01*
X222900Y206195D02*
X220901D01*
X219901Y207195D01*
X220901Y208194D01*
X222900D01*
X221400D01*
Y206195D01*
X219901Y209194D02*
Y211193D01*
Y210194D01*
X222900D01*
Y212193D02*
X220901D01*
X219901Y213193D01*
X220901Y214193D01*
X222900D01*
X221400D01*
Y212193D01*
X222900Y215192D02*
Y216192D01*
Y215692D01*
X219901D01*
X220401Y215192D01*
Y217691D02*
X219901Y218191D01*
Y219191D01*
X220401Y219691D01*
X220901D01*
X221400Y219191D01*
Y218691D01*
Y219191D01*
X221900Y219691D01*
X222400D01*
X222900Y219191D01*
Y218191D01*
X222400Y217691D01*
X230001Y190500D02*
X233000D01*
Y192499D01*
X230501Y195498D02*
X230001Y194999D01*
Y193999D01*
X230501Y193499D01*
X232500D01*
X233000Y193999D01*
Y194999D01*
X232500Y195498D01*
X230001Y196498D02*
X233000D01*
Y197998D01*
X232500Y198497D01*
X230501D01*
X230001Y197998D01*
Y196498D01*
X233500Y199497D02*
Y201496D01*
X230001Y202496D02*
X233000D01*
Y203996D01*
X232500Y204496D01*
X230501D01*
X230001Y203996D01*
Y202496D01*
X233000Y205495D02*
X231001D01*
X230001Y206495D01*
X231001Y207494D01*
X233000D01*
X231501D01*
Y205495D01*
X230001Y208494D02*
Y210493D01*
Y209494D01*
X233000D01*
Y211493D02*
X231001D01*
X230001Y212493D01*
X231001Y213493D01*
X233000D01*
X231501D01*
Y211493D01*
X233000Y214492D02*
Y215492D01*
Y214992D01*
X230001D01*
X230501Y214492D01*
X233000Y218991D02*
Y216991D01*
X231001Y218991D01*
X230501D01*
X230001Y218491D01*
Y217491D01*
X230501Y216991D01*
X239901Y191300D02*
X242900D01*
Y193299D01*
X240401Y196298D02*
X239901Y195799D01*
Y194799D01*
X240401Y194299D01*
X242400D01*
X242900Y194799D01*
Y195799D01*
X242400Y196298D01*
X239901Y197298D02*
X242900D01*
Y198798D01*
X242400Y199297D01*
X240401D01*
X239901Y198798D01*
Y197298D01*
X243400Y200297D02*
Y202296D01*
X239901Y203296D02*
X242900D01*
Y204796D01*
X242400Y205295D01*
X240401D01*
X239901Y204796D01*
Y203296D01*
X242900Y206295D02*
X240901D01*
X239901Y207295D01*
X240901Y208295D01*
X242900D01*
X241401D01*
Y206295D01*
X239901Y209294D02*
Y211294D01*
Y210294D01*
X242900D01*
Y212293D02*
X240901D01*
X239901Y213293D01*
X240901Y214293D01*
X242900D01*
X241401D01*
Y212293D01*
X240401Y215292D02*
X239901Y215792D01*
Y216792D01*
X240401Y217292D01*
X240901D01*
X241401Y216792D01*
X241900Y217292D01*
X242400D01*
X242900Y216792D01*
Y215792D01*
X242400Y215292D01*
X241900D01*
X241401Y215792D01*
X240901Y215292D01*
X240401D01*
X241401Y215792D02*
Y216792D01*
X250001Y191500D02*
X253000D01*
Y193499D01*
X250501Y196498D02*
X250001Y195999D01*
Y194999D01*
X250501Y194499D01*
X252500D01*
X253000Y194999D01*
Y195999D01*
X252500Y196498D01*
X250001Y197498D02*
X253000D01*
Y198998D01*
X252500Y199497D01*
X250501D01*
X250001Y198998D01*
Y197498D01*
X253500Y200497D02*
Y202496D01*
X250001Y203496D02*
X253000D01*
Y204996D01*
X252500Y205496D01*
X250501D01*
X250001Y204996D01*
Y203496D01*
X253000Y206495D02*
X251001D01*
X250001Y207495D01*
X251001Y208494D01*
X253000D01*
X251501D01*
Y206495D01*
X250001Y209494D02*
Y211493D01*
Y210494D01*
X253000D01*
Y212493D02*
X251001D01*
X250001Y213493D01*
X251001Y214493D01*
X253000D01*
X251501D01*
Y212493D01*
X250001Y217492D02*
X250501Y216492D01*
X251501Y215492D01*
X252500D01*
X253000Y215992D01*
Y216992D01*
X252500Y217492D01*
X252000D01*
X251501Y216992D01*
Y215492D01*
X259901Y189400D02*
X262900D01*
Y191399D01*
X260401Y194398D02*
X259901Y193899D01*
Y192899D01*
X260401Y192399D01*
X262400D01*
X262900Y192899D01*
Y193899D01*
X262400Y194398D01*
X259901Y195398D02*
X262900D01*
Y196898D01*
X262400Y197397D01*
X260401D01*
X259901Y196898D01*
Y195398D01*
X263400Y198397D02*
Y200396D01*
X259901Y201396D02*
X262900D01*
Y202896D01*
X262400Y203396D01*
X260401D01*
X259901Y202896D01*
Y201396D01*
X262900Y204395D02*
X260901D01*
X259901Y205395D01*
X260901Y206395D01*
X262900D01*
X261401D01*
Y204395D01*
X259901Y207394D02*
Y209394D01*
Y208394D01*
X262900D01*
Y210393D02*
X260901D01*
X259901Y211393D01*
X260901Y212393D01*
X262900D01*
X261401D01*
Y210393D01*
X262900Y214892D02*
X259901D01*
X261401Y213392D01*
Y215392D01*
X269901Y191500D02*
X272900D01*
Y193499D01*
X270401Y196498D02*
X269901Y195999D01*
Y194999D01*
X270401Y194499D01*
X272400D01*
X272900Y194999D01*
Y195999D01*
X272400Y196498D01*
X269901Y197498D02*
X272900D01*
Y198998D01*
X272400Y199497D01*
X270401D01*
X269901Y198998D01*
Y197498D01*
X273400Y200497D02*
Y202496D01*
X269901Y203496D02*
X272900D01*
Y204996D01*
X272400Y205496D01*
X270401D01*
X269901Y204996D01*
Y203496D01*
X272900Y206495D02*
X270901D01*
X269901Y207495D01*
X270901Y208494D01*
X272900D01*
X271400D01*
Y206495D01*
X269901Y209494D02*
Y211493D01*
Y210494D01*
X272900D01*
Y212493D02*
X270901D01*
X269901Y213493D01*
X270901Y214493D01*
X272900D01*
X271400D01*
Y212493D01*
X272900Y217492D02*
Y215492D01*
X270901Y217492D01*
X270401D01*
X269901Y216992D01*
Y215992D01*
X270401Y215492D01*
X279901Y188800D02*
X282900D01*
Y190799D01*
X280401Y193798D02*
X279901Y193299D01*
Y192299D01*
X280401Y191799D01*
X282400D01*
X282900Y192299D01*
Y193299D01*
X282400Y193798D01*
X279901Y194798D02*
X282900D01*
Y196298D01*
X282400Y196797D01*
X280401D01*
X279901Y196298D01*
Y194798D01*
X283400Y197797D02*
Y199796D01*
X279901Y200796D02*
X282900D01*
Y202296D01*
X282400Y202796D01*
X280401D01*
X279901Y202296D01*
Y200796D01*
X282900Y203795D02*
X280901D01*
X279901Y204795D01*
X280901Y205795D01*
X282900D01*
X281400D01*
Y203795D01*
X279901Y206794D02*
Y208793D01*
Y207794D01*
X282900D01*
Y209793D02*
X280901D01*
X279901Y210793D01*
X280901Y211793D01*
X282900D01*
X281400D01*
Y209793D01*
X280401Y212792D02*
X279901Y213292D01*
Y214292D01*
X280401Y214792D01*
X282400D01*
X282900Y214292D01*
Y213292D01*
X282400Y212792D01*
X280401D01*
X280001Y297000D02*
X283000D01*
Y298999D01*
X280501Y301998D02*
X280001Y301499D01*
Y300499D01*
X280501Y299999D01*
X282500D01*
X283000Y300499D01*
Y301499D01*
X282500Y301998D01*
X280001Y302998D02*
X283000D01*
Y304498D01*
X282500Y304997D01*
X280501D01*
X280001Y304498D01*
Y302998D01*
X283500Y305997D02*
Y307996D01*
X280001Y308996D02*
X283000D01*
Y310496D01*
X282500Y310996D01*
X280501D01*
X280001Y310496D01*
Y308996D01*
X283000Y311995D02*
X281001D01*
X280001Y312995D01*
X281001Y313995D01*
X283000D01*
X281501D01*
Y311995D01*
X280001Y314994D02*
Y316993D01*
Y315994D01*
X283000D01*
Y317993D02*
X281001D01*
X280001Y318993D01*
X281001Y319993D01*
X283000D01*
X281501D01*
Y317993D01*
X283000Y320992D02*
Y321992D01*
Y321492D01*
X280001D01*
X280501Y320992D01*
X270001Y295500D02*
X273000D01*
Y297499D01*
X270501Y300498D02*
X270001Y299998D01*
Y298999D01*
X270501Y298499D01*
X272500D01*
X273000Y298999D01*
Y299998D01*
X272500Y300498D01*
X270001Y301498D02*
X273000D01*
Y302998D01*
X272500Y303497D01*
X270501D01*
X270001Y302998D01*
Y301498D01*
X273500Y304497D02*
Y306496D01*
X270001Y307496D02*
X273000D01*
Y308996D01*
X272500Y309495D01*
X270501D01*
X270001Y308996D01*
Y307496D01*
X273000Y310495D02*
X271001D01*
X270001Y311495D01*
X271001Y312494D01*
X273000D01*
X271500D01*
Y310495D01*
X270001Y313494D02*
Y315493D01*
Y314494D01*
X273000D01*
Y316493D02*
X271001D01*
X270001Y317493D01*
X271001Y318493D01*
X273000D01*
X271500D01*
Y316493D01*
X270501Y319492D02*
X270001Y319992D01*
Y320992D01*
X270501Y321492D01*
X271001D01*
X271500Y320992D01*
Y320492D01*
Y320992D01*
X272000Y321492D01*
X272500D01*
X273000Y320992D01*
Y319992D01*
X272500Y319492D01*
X260001Y295300D02*
X263000D01*
Y297299D01*
X260501Y300298D02*
X260001Y299798D01*
Y298799D01*
X260501Y298299D01*
X262500D01*
X263000Y298799D01*
Y299798D01*
X262500Y300298D01*
X260001Y301298D02*
X263000D01*
Y302798D01*
X262500Y303297D01*
X260501D01*
X260001Y302798D01*
Y301298D01*
X263500Y304297D02*
Y306296D01*
X260001Y307296D02*
X263000D01*
Y308796D01*
X262500Y309296D01*
X260501D01*
X260001Y308796D01*
Y307296D01*
X263000Y310295D02*
X261001D01*
X260001Y311295D01*
X261001Y312295D01*
X263000D01*
X261501D01*
Y310295D01*
X260001Y313294D02*
Y315294D01*
Y314294D01*
X263000D01*
Y316293D02*
X261001D01*
X260001Y317293D01*
X261001Y318293D01*
X263000D01*
X261501D01*
Y316293D01*
X260001Y321292D02*
Y319292D01*
X261501D01*
X261001Y320292D01*
Y320792D01*
X261501Y321292D01*
X262500D01*
X263000Y320792D01*
Y319792D01*
X262500Y319292D01*
X250001Y298000D02*
X253000D01*
Y299999D01*
X250501Y302998D02*
X250001Y302499D01*
Y301499D01*
X250501Y300999D01*
X252500D01*
X253000Y301499D01*
Y302499D01*
X252500Y302998D01*
X250001Y303998D02*
X253000D01*
Y305498D01*
X252500Y305997D01*
X250501D01*
X250001Y305498D01*
Y303998D01*
X253500Y306997D02*
Y308996D01*
X250001Y309996D02*
X253000D01*
Y311496D01*
X252500Y311996D01*
X250501D01*
X250001Y311496D01*
Y309996D01*
X253000Y312995D02*
X251001D01*
X250001Y313995D01*
X251001Y314995D01*
X253000D01*
X251501D01*
Y312995D01*
X250001Y315994D02*
Y317993D01*
Y316994D01*
X253000D01*
X250001Y318993D02*
Y320993D01*
X250501D01*
X252500Y318993D01*
X253000D01*
X240001Y295300D02*
X243000D01*
Y297299D01*
X240501Y300298D02*
X240001Y299798D01*
Y298799D01*
X240501Y298299D01*
X242500D01*
X243000Y298799D01*
Y299798D01*
X242500Y300298D01*
X240001Y301298D02*
X243000D01*
Y302798D01*
X242500Y303297D01*
X240501D01*
X240001Y302798D01*
Y301298D01*
X243500Y304297D02*
Y306296D01*
X240001Y307296D02*
X243000D01*
Y308796D01*
X242500Y309296D01*
X240501D01*
X240001Y308796D01*
Y307296D01*
X243000Y310295D02*
X241001D01*
X240001Y311295D01*
X241001Y312295D01*
X243000D01*
X241500D01*
Y310295D01*
X240001Y313294D02*
Y315294D01*
Y314294D01*
X243000D01*
Y316293D02*
X241001D01*
X240001Y317293D01*
X241001Y318293D01*
X243000D01*
X241500D01*
Y316293D01*
X242500Y319292D02*
X243000Y319792D01*
Y320792D01*
X242500Y321292D01*
X240501D01*
X240001Y320792D01*
Y319792D01*
X240501Y319292D01*
X241001D01*
X241500Y319792D01*
Y321292D01*
X230001Y293100D02*
X233000D01*
Y295099D01*
X230501Y298098D02*
X230001Y297599D01*
Y296599D01*
X230501Y296099D01*
X232500D01*
X233000Y296599D01*
Y297599D01*
X232500Y298098D01*
X230001Y299098D02*
X233000D01*
Y300598D01*
X232500Y301097D01*
X230501D01*
X230001Y300598D01*
Y299098D01*
X233500Y302097D02*
Y304096D01*
X230001Y305096D02*
X233000D01*
Y306596D01*
X232500Y307096D01*
X230501D01*
X230001Y306596D01*
Y305096D01*
X233000Y308095D02*
X231001D01*
X230001Y309095D01*
X231001Y310094D01*
X233000D01*
X231501D01*
Y308095D01*
X230001Y311094D02*
Y313093D01*
Y312094D01*
X233000D01*
Y314093D02*
X231001D01*
X230001Y315093D01*
X231001Y316093D01*
X233000D01*
X231501D01*
Y314093D01*
X233000Y317092D02*
Y318092D01*
Y317592D01*
X230001D01*
X230501Y317092D01*
Y319591D02*
X230001Y320091D01*
Y321091D01*
X230501Y321591D01*
X232500D01*
X233000Y321091D01*
Y320091D01*
X232500Y319591D01*
X230501D01*
X220001Y293600D02*
X223000D01*
Y295599D01*
X220501Y298598D02*
X220001Y298098D01*
Y297099D01*
X220501Y296599D01*
X222500D01*
X223000Y297099D01*
Y298098D01*
X222500Y298598D01*
X220001Y299598D02*
X223000D01*
Y301098D01*
X222500Y301597D01*
X220501D01*
X220001Y301098D01*
Y299598D01*
X223500Y302597D02*
Y304596D01*
X220001Y305596D02*
X223000D01*
Y307096D01*
X222500Y307595D01*
X220501D01*
X220001Y307096D01*
Y305596D01*
X223000Y308595D02*
X221001D01*
X220001Y309595D01*
X221001Y310595D01*
X223000D01*
X221500D01*
Y308595D01*
X220001Y311594D02*
Y313594D01*
Y312594D01*
X223000D01*
Y314593D02*
X221001D01*
X220001Y315593D01*
X221001Y316593D01*
X223000D01*
X221500D01*
Y314593D01*
X223000Y317592D02*
Y318592D01*
Y318092D01*
X220001D01*
X220501Y317592D01*
X223000Y320091D02*
Y321091D01*
Y320591D01*
X220001D01*
X220501Y320091D01*
X210001Y292900D02*
X213000D01*
Y294899D01*
X210501Y297898D02*
X210001Y297398D01*
Y296399D01*
X210501Y295899D01*
X212500D01*
X213000Y296399D01*
Y297398D01*
X212500Y297898D01*
X210001Y298898D02*
X213000D01*
Y300398D01*
X212500Y300897D01*
X210501D01*
X210001Y300398D01*
Y298898D01*
X213500Y301897D02*
Y303896D01*
X210001Y304896D02*
X213000D01*
Y306396D01*
X212500Y306895D01*
X210501D01*
X210001Y306396D01*
Y304896D01*
X213000Y307895D02*
X211001D01*
X210001Y308895D01*
X211001Y309894D01*
X213000D01*
X211501D01*
Y307895D01*
X210001Y310894D02*
Y312894D01*
Y311894D01*
X213000D01*
Y313893D02*
X211001D01*
X210001Y314893D01*
X211001Y315893D01*
X213000D01*
X211501D01*
Y313893D01*
X213000Y316892D02*
Y317892D01*
Y317392D01*
X210001D01*
X210501Y316892D01*
X210001Y321391D02*
Y319391D01*
X211501D01*
X211001Y320391D01*
Y320891D01*
X211501Y321391D01*
X212500D01*
X213000Y320891D01*
Y319891D01*
X212500Y319391D01*
X200001Y304300D02*
X203000D01*
Y306299D01*
X200501Y309298D02*
X200001Y308799D01*
Y307799D01*
X200501Y307299D01*
X202500D01*
X203000Y307799D01*
Y308799D01*
X202500Y309298D01*
X200001Y310298D02*
X203000D01*
Y311798D01*
X202500Y312297D01*
X200501D01*
X200001Y311798D01*
Y310298D01*
X203500Y313297D02*
Y315296D01*
X200001Y316296D02*
X203000D01*
Y317796D01*
X202500Y318296D01*
X200501D01*
X200001Y317796D01*
Y316296D01*
Y321294D02*
Y319295D01*
X203000D01*
Y321294D01*
X201501Y319295D02*
Y320295D01*
X189901Y298200D02*
X192900D01*
Y300199D01*
X190401Y303198D02*
X189901Y302698D01*
Y301699D01*
X190401Y301199D01*
X192400D01*
X192900Y301699D01*
Y302698D01*
X192400Y303198D01*
X189901Y304198D02*
X192900D01*
Y305698D01*
X192400Y306197D01*
X190401D01*
X189901Y305698D01*
Y304198D01*
X193400Y307197D02*
Y309196D01*
X192900Y310196D02*
X189901D01*
Y311696D01*
X190401Y312195D01*
X191401D01*
X191900Y311696D01*
Y310196D01*
X190401Y315195D02*
X189901Y314695D01*
Y313695D01*
X190401Y313195D01*
X192400D01*
X192900Y313695D01*
Y314695D01*
X192400Y315195D01*
X189901Y316194D02*
X192900D01*
Y318194D01*
X189901Y319193D02*
X192900D01*
X191900D01*
X189901Y321193D01*
X191401Y319693D01*
X192900Y321193D01*
X180501Y301199D02*
X180001Y300699D01*
Y299700D01*
X180501Y299200D01*
X182500D01*
X183000Y299700D01*
Y300699D01*
X182500Y301199D01*
X181500D01*
Y300200D01*
X183000Y302199D02*
X180001D01*
Y303698D01*
X180501Y304198D01*
X181500D01*
X182000Y303698D01*
Y302199D01*
X180001Y305198D02*
Y306198D01*
Y305698D01*
X183000D01*
Y305198D01*
Y306198D01*
X180001Y309197D02*
Y308197D01*
X180501Y307697D01*
X182500D01*
X183000Y308197D01*
Y309197D01*
X182500Y309697D01*
X180501D01*
X180001Y309197D01*
X183000Y310696D02*
Y311696D01*
Y311196D01*
X180001D01*
X180501Y310696D01*
X183500Y313195D02*
Y315195D01*
X183000Y318194D02*
Y316195D01*
X181001Y318194D01*
X180501D01*
X180001Y317694D01*
Y316694D01*
X180501Y316195D01*
X182500Y319194D02*
X183000Y319693D01*
Y320693D01*
X182500Y321193D01*
X180501D01*
X180001Y320693D01*
Y319693D01*
X180501Y319194D01*
X181001D01*
X181500Y319693D01*
Y321193D01*
X173000Y296900D02*
X170001D01*
X171001Y297900D01*
X170001Y298899D01*
X173000D01*
Y299899D02*
X170001D01*
X171001Y300899D01*
X170001Y301898D01*
X173000D01*
X170501Y304897D02*
X170001Y304398D01*
Y303398D01*
X170501Y302898D01*
X172500D01*
X173000Y303398D01*
Y304398D01*
X172500Y304897D01*
X173000Y305897D02*
Y306897D01*
Y306397D01*
X170001D01*
X170501Y305897D01*
X173500Y308396D02*
Y310396D01*
X170001Y311395D02*
X173000D01*
Y312895D01*
X172500Y313395D01*
X170501D01*
X170001Y312895D01*
Y311395D01*
X173000Y314394D02*
X171001D01*
X170001Y315394D01*
X171001Y316394D01*
X173000D01*
X171501D01*
Y314394D01*
X170001Y317393D02*
Y319393D01*
Y318393D01*
X173000D01*
Y320392D02*
Y321392D01*
Y320892D01*
X170001D01*
X170501Y320392D01*
X162900Y295400D02*
X159901D01*
X160901Y296400D01*
X159901Y297399D01*
X162900D01*
Y298399D02*
X159901D01*
X160901Y299399D01*
X159901Y300398D01*
X162900D01*
X160401Y303397D02*
X159901Y302898D01*
Y301898D01*
X160401Y301398D01*
X162400D01*
X162900Y301898D01*
Y302898D01*
X162400Y303397D01*
X162900Y304397D02*
Y305397D01*
Y304897D01*
X159901D01*
X160401Y304397D01*
X163400Y306896D02*
Y308896D01*
X159901Y309895D02*
X162900D01*
Y311395D01*
X162400Y311895D01*
X160401D01*
X159901Y311395D01*
Y309895D01*
X162900Y312894D02*
X160901D01*
X159901Y313894D01*
X160901Y314894D01*
X162900D01*
X161400D01*
Y312894D01*
X159901Y315893D02*
Y317893D01*
Y316893D01*
X162900D01*
X159901Y320892D02*
Y318892D01*
X161400D01*
X160901Y319892D01*
Y320392D01*
X161400Y320892D01*
X162400D01*
X162900Y320392D01*
Y319392D01*
X162400Y318892D01*
X152900Y298900D02*
X149901D01*
X150901Y299900D01*
X149901Y300899D01*
X152900D01*
Y301899D02*
X149901D01*
X150901Y302899D01*
X149901Y303898D01*
X152900D01*
X150401Y306897D02*
X149901Y306398D01*
Y305398D01*
X150401Y304898D01*
X152400D01*
X152900Y305398D01*
Y306398D01*
X152400Y306897D01*
X152900Y307897D02*
Y308897D01*
Y308397D01*
X149901D01*
X150401Y307897D01*
X153400Y310396D02*
Y312396D01*
X150401Y315395D02*
X149901Y314895D01*
Y313895D01*
X150401Y313395D01*
X152400D01*
X152900Y313895D01*
Y314895D01*
X152400Y315395D01*
X152900Y316394D02*
X149901D01*
X150901Y317394D01*
X149901Y318394D01*
X152900D01*
X149901Y319393D02*
X152900D01*
Y320893D01*
X152400Y321393D01*
X150401D01*
X149901Y320893D01*
Y319393D01*
X140501Y304799D02*
X140001Y304299D01*
Y303300D01*
X140501Y302800D01*
X142500D01*
X143000Y303300D01*
Y304299D01*
X142500Y304799D01*
X141500D01*
Y303800D01*
X143000Y305799D02*
X140001D01*
Y307298D01*
X140501Y307798D01*
X141500D01*
X142000Y307298D01*
Y305799D01*
X140001Y308798D02*
Y309798D01*
Y309298D01*
X143000D01*
Y308798D01*
Y309798D01*
X140001Y312797D02*
Y311797D01*
X140501Y311297D01*
X142500D01*
X143000Y311797D01*
Y312797D01*
X142500Y313297D01*
X140501D01*
X140001Y312797D01*
X143000Y316296D02*
Y314296D01*
X141001Y316296D01*
X140501D01*
X140001Y315796D01*
Y314796D01*
X140501Y314296D01*
X143500Y317295D02*
Y319295D01*
X143000Y320294D02*
Y321294D01*
Y320794D01*
X140001D01*
X140501Y320294D01*
X130501Y301899D02*
X130001Y301399D01*
Y300400D01*
X130501Y299900D01*
X132500D01*
X133000Y300400D01*
Y301399D01*
X132500Y301899D01*
X131500D01*
Y300900D01*
X133000Y302899D02*
X130001D01*
Y304398D01*
X130501Y304898D01*
X131500D01*
X132000Y304398D01*
Y302899D01*
X130001Y305898D02*
Y306898D01*
Y306398D01*
X133000D01*
Y305898D01*
Y306898D01*
X130001Y309897D02*
Y308897D01*
X130501Y308397D01*
X132500D01*
X133000Y308897D01*
Y309897D01*
X132500Y310397D01*
X130501D01*
X130001Y309897D01*
X133000Y311396D02*
Y312396D01*
Y311896D01*
X130001D01*
X130501Y311396D01*
X133500Y313896D02*
Y315895D01*
X133000Y316895D02*
Y317894D01*
Y317394D01*
X130001D01*
X130501Y316895D01*
X133000Y320893D02*
X130001D01*
X131500Y319394D01*
Y321393D01*
X120501Y300799D02*
X120001Y300300D01*
Y299300D01*
X120501Y298800D01*
X122500D01*
X123000Y299300D01*
Y300300D01*
X122500Y300799D01*
X121501D01*
Y299800D01*
X123000Y301799D02*
X120001D01*
Y303298D01*
X120501Y303798D01*
X121501D01*
X122000Y303298D01*
Y301799D01*
X120001Y304798D02*
Y305798D01*
Y305298D01*
X123000D01*
Y304798D01*
Y305798D01*
X120001Y308797D02*
Y307797D01*
X120501Y307297D01*
X122500D01*
X123000Y307797D01*
Y308797D01*
X122500Y309297D01*
X120501D01*
X120001Y308797D01*
X120501Y310296D02*
X120001Y310796D01*
Y311796D01*
X120501Y312296D01*
X122500D01*
X123000Y311796D01*
Y310796D01*
X122500Y310296D01*
X120501D01*
X123500Y313295D02*
Y315295D01*
X123000Y318294D02*
Y316294D01*
X121001Y318294D01*
X120501D01*
X120001Y317794D01*
Y316794D01*
X120501Y316294D01*
X120001Y321293D02*
X120501Y320293D01*
X121501Y319293D01*
X122500D01*
X123000Y319793D01*
Y320793D01*
X122500Y321293D01*
X122000D01*
X121501Y320793D01*
Y319293D01*
X110501Y301799D02*
X110001Y301300D01*
Y300300D01*
X110501Y299800D01*
X112500D01*
X113000Y300300D01*
Y301300D01*
X112500Y301799D01*
X111501D01*
Y300800D01*
X113000Y302799D02*
X110001D01*
Y304298D01*
X110501Y304798D01*
X111501D01*
X112000Y304298D01*
Y302799D01*
X110001Y305798D02*
Y306798D01*
Y306298D01*
X113000D01*
Y305798D01*
Y306798D01*
X110001Y309797D02*
Y308797D01*
X110501Y308297D01*
X112500D01*
X113000Y308797D01*
Y309797D01*
X112500Y310297D01*
X110501D01*
X110001Y309797D01*
X113000Y311296D02*
Y312296D01*
Y311796D01*
X110001D01*
X110501Y311296D01*
X113500Y313795D02*
Y315795D01*
X113000Y316794D02*
Y317794D01*
Y317294D01*
X110001D01*
X110501Y316794D01*
X113000Y321293D02*
Y319294D01*
X111001Y321293D01*
X110501D01*
X110001Y320793D01*
Y319794D01*
X110501Y319294D01*
X100301Y304400D02*
Y306399D01*
Y305400D01*
X103300D01*
X100301Y307399D02*
Y308399D01*
Y307899D01*
X103300D01*
Y307399D01*
Y308399D01*
Y309898D02*
X100301D01*
X101301Y310898D01*
X100301Y311898D01*
X103300D01*
X100301Y314897D02*
Y312897D01*
X103300D01*
Y314897D01*
X101801Y312897D02*
Y313897D01*
X103300Y315896D02*
X100301D01*
Y317396D01*
X100801Y317896D01*
X101801D01*
X102300Y317396D01*
Y315896D01*
Y316896D02*
X103300Y317896D01*
X100301Y320895D02*
X100801Y319895D01*
X101801Y318895D01*
X102800D01*
X103300Y319395D01*
Y320395D01*
X102800Y320895D01*
X102300D01*
X101801Y320395D01*
Y318895D01*
X90301Y305200D02*
Y307199D01*
Y306200D01*
X93300D01*
X90301Y308199D02*
Y309199D01*
Y308699D01*
X93300D01*
Y308199D01*
Y309199D01*
Y310698D02*
X90301D01*
X91301Y311698D01*
X90301Y312698D01*
X93300D01*
X90301Y315697D02*
Y313697D01*
X93300D01*
Y315697D01*
X91800Y313697D02*
Y314697D01*
X93300Y316696D02*
X90301D01*
Y318196D01*
X90801Y318696D01*
X91800D01*
X92300Y318196D01*
Y316696D01*
Y317696D02*
X93300Y318696D01*
X90301Y319695D02*
Y321695D01*
X90801D01*
X92800Y319695D01*
X93300D01*
X83000Y296100D02*
X80001D01*
X81001Y297100D01*
X80001Y298099D01*
X83000D01*
Y299099D02*
X80001D01*
X81001Y300099D01*
X80001Y301098D01*
X83000D01*
X80501Y304097D02*
X80001Y303598D01*
Y302598D01*
X80501Y302098D01*
X82500D01*
X83000Y302598D01*
Y303598D01*
X82500Y304097D01*
X83000Y305097D02*
Y306097D01*
Y305597D01*
X80001D01*
X80501Y305097D01*
X83500Y307596D02*
Y309596D01*
X80001Y310595D02*
X83000D01*
Y312095D01*
X82500Y312595D01*
X80501D01*
X80001Y312095D01*
Y310595D01*
X83000Y313594D02*
X81001D01*
X80001Y314594D01*
X81001Y315594D01*
X83000D01*
X81501D01*
Y313594D01*
X80001Y316593D02*
Y318593D01*
Y317593D01*
X83000D01*
X80501Y319592D02*
X80001Y320092D01*
Y321092D01*
X80501Y321592D01*
X81001D01*
X81501Y321092D01*
Y320592D01*
Y321092D01*
X82000Y321592D01*
X82500D01*
X83000Y321092D01*
Y320092D01*
X82500Y319592D01*
X73000Y295900D02*
X70001D01*
X71001Y296900D01*
X70001Y297899D01*
X73000D01*
Y298899D02*
X70001D01*
X71001Y299899D01*
X70001Y300898D01*
X73000D01*
X70501Y303897D02*
X70001Y303398D01*
Y302398D01*
X70501Y301898D01*
X72500D01*
X73000Y302398D01*
Y303398D01*
X72500Y303897D01*
X73000Y304897D02*
Y305897D01*
Y305397D01*
X70001D01*
X70501Y304897D01*
X73500Y307396D02*
Y309396D01*
X70001Y310395D02*
X73000D01*
Y311895D01*
X72500Y312395D01*
X70501D01*
X70001Y311895D01*
Y310395D01*
X73000Y313394D02*
X71001D01*
X70001Y314394D01*
X71001Y315394D01*
X73000D01*
X71500D01*
Y313394D01*
X70001Y316393D02*
Y318393D01*
Y317393D01*
X73000D01*
X70001Y319392D02*
Y321392D01*
X70501D01*
X72500Y319392D01*
X73000D01*
X60601Y315099D02*
X60101Y314599D01*
Y313600D01*
X60601Y313100D01*
X62600D01*
X63100Y313600D01*
Y314599D01*
X62600Y315099D01*
X61601D01*
Y314100D01*
X63100Y316099D02*
X60101D01*
X63100Y318098D01*
X60101D01*
Y319098D02*
X63100D01*
Y320598D01*
X62600Y321097D01*
X60601D01*
X60101Y320598D01*
Y319098D01*
X95001Y193899D02*
Y191900D01*
X96500D01*
Y192900D01*
Y191900D01*
X98000D01*
Y194899D02*
X96001D01*
X95001Y195899D01*
X96001Y196898D01*
X98000D01*
X96500D01*
Y194899D01*
X98000Y197898D02*
X95001D01*
X98000Y199897D01*
X95001D01*
X96500Y200897D02*
Y202896D01*
X98000Y205895D02*
Y203896D01*
X96001Y205895D01*
X95501D01*
X95001Y205396D01*
Y204396D01*
X95501Y203896D01*
X105101Y193699D02*
Y191700D01*
X106600D01*
Y192700D01*
Y191700D01*
X108100D01*
Y194699D02*
X106101D01*
X105101Y195699D01*
X106101Y196698D01*
X108100D01*
X106600D01*
Y194699D01*
X108100Y197698D02*
X105101D01*
X108100Y199697D01*
X105101D01*
X106600Y200697D02*
Y202696D01*
X105601Y203696D02*
X105101Y204196D01*
Y205196D01*
X105601Y205696D01*
X106101D01*
X106600Y205196D01*
Y204696D01*
Y205196D01*
X107100Y205696D01*
X107600D01*
X108100Y205196D01*
Y204196D01*
X107600Y203696D01*
X115101Y191600D02*
Y193599D01*
X115601D01*
X117600Y191600D01*
X118100D01*
Y193599D01*
X116601Y194599D02*
Y196598D01*
X115601Y199597D02*
X115101Y199098D01*
Y198098D01*
X115601Y197598D01*
X117600D01*
X118100Y198098D01*
Y199098D01*
X117600Y199597D01*
X115601Y202596D02*
X115101Y202097D01*
Y201097D01*
X115601Y200597D01*
X116101D01*
X116601Y201097D01*
Y202097D01*
X117100Y202596D01*
X117600D01*
X118100Y202097D01*
Y201097D01*
X117600Y200597D01*
X118600Y203596D02*
Y205595D01*
X115101Y206595D02*
X118100D01*
Y208095D01*
X117600Y208594D01*
X115601D01*
X115101Y208095D01*
Y206595D01*
X118100Y209594D02*
X115101D01*
Y211094D01*
X115601Y211594D01*
X116601D01*
X117100Y211094D01*
Y209594D01*
Y210594D02*
X118100Y211594D01*
X115101Y212593D02*
X117100D01*
X118100Y213593D01*
X117100Y214593D01*
X115101D01*
X125101Y193599D02*
Y191600D01*
X126601D01*
Y192600D01*
Y191600D01*
X128100D01*
Y194599D02*
X126101D01*
X125101Y195599D01*
X126101Y196598D01*
X128100D01*
X126601D01*
Y194599D01*
X128100Y197598D02*
X125101D01*
X128100Y199597D01*
X125101D01*
X126601Y200597D02*
Y202596D01*
X125601Y203596D02*
X125101Y204096D01*
Y205096D01*
X125601Y205595D01*
X127600D01*
X128100Y205096D01*
Y204096D01*
X127600Y203596D01*
X125601D01*
X145101Y193299D02*
Y191300D01*
X148100D01*
Y193299D01*
X146600Y191300D02*
Y192300D01*
X145601Y194299D02*
X145101Y194799D01*
Y195799D01*
X145601Y196298D01*
X147600D01*
X148100Y195799D01*
Y194799D01*
X147600Y194299D01*
X145601D01*
X146600Y197298D02*
Y199297D01*
X145601Y202296D02*
X145101Y201797D01*
Y200797D01*
X145601Y200297D01*
X147600D01*
X148100Y200797D01*
Y201797D01*
X147600Y202296D01*
X145601Y205295D02*
X145101Y204796D01*
Y203796D01*
X145601Y203296D01*
X146101D01*
X146600Y203796D01*
Y204796D01*
X147100Y205295D01*
X147600D01*
X148100Y204796D01*
Y203796D01*
X147600Y203296D01*
X148600Y206295D02*
Y208295D01*
X145101Y209294D02*
X148100D01*
Y210794D01*
X147600Y211294D01*
X145601D01*
X145101Y210794D01*
Y209294D01*
X148100Y212293D02*
X145101D01*
Y213793D01*
X145601Y214293D01*
X146600D01*
X147100Y213793D01*
Y212293D01*
Y213293D02*
X148100Y214293D01*
X145101Y215292D02*
X147100D01*
X148100Y216292D01*
X147100Y217292D01*
X145101D01*
X155001Y193299D02*
Y191300D01*
X156500D01*
Y192300D01*
Y191300D01*
X158000D01*
Y194299D02*
X156001D01*
X155001Y195299D01*
X156001Y196298D01*
X158000D01*
X156500D01*
Y194299D01*
X158000Y197298D02*
X155001D01*
X158000Y199297D01*
X155001D01*
X156500Y200297D02*
Y202296D01*
X158000Y203296D02*
Y204296D01*
Y203796D01*
X155001D01*
X155501Y203296D01*
X145201Y298500D02*
X148200D01*
Y299999D01*
X147700Y300499D01*
X147200D01*
X146701Y299999D01*
Y298500D01*
Y299999D01*
X146201Y300499D01*
X145701D01*
X145201Y299999D01*
Y298500D01*
Y303498D02*
Y301499D01*
X148200D01*
Y303498D01*
X146701Y301499D02*
Y302499D01*
X145201Y304498D02*
X148200D01*
Y305998D01*
X147700Y306497D01*
X145701D01*
X145201Y305998D01*
Y304498D01*
X146701Y307497D02*
Y309496D01*
X145201Y310496D02*
X148200D01*
X146701D01*
Y312495D01*
X145201D01*
X148200D01*
X145201Y315494D02*
Y313495D01*
X148200D01*
Y315494D01*
X146701Y313495D02*
Y314495D01*
X148200Y316494D02*
X146201D01*
X145201Y317494D01*
X146201Y318494D01*
X148200D01*
X146701D01*
Y316494D01*
X145201Y319493D02*
Y321493D01*
Y320493D01*
X148200D01*
X135001Y304300D02*
X138000D01*
X136501D01*
Y306299D01*
X135001D01*
X138000D01*
X135001Y309298D02*
Y307299D01*
X138000D01*
Y309298D01*
X136501Y307299D02*
Y308299D01*
X138000Y310298D02*
X136001D01*
X135001Y311298D01*
X136001Y312297D01*
X138000D01*
X136501D01*
Y310298D01*
X135001Y313297D02*
Y315296D01*
Y314297D01*
X138000D01*
X136501Y316296D02*
Y318296D01*
X135501Y319295D02*
X135001Y319795D01*
Y320795D01*
X135501Y321294D01*
X137500D01*
X138000Y320795D01*
Y319795D01*
X137500Y319295D01*
X135501D01*
X125001Y303999D02*
Y302000D01*
X128000D01*
Y303999D01*
X126500Y302000D02*
Y303000D01*
X125501Y304999D02*
X125001Y305499D01*
Y306499D01*
X125501Y306998D01*
X127500D01*
X128000Y306499D01*
Y305499D01*
X127500Y304999D01*
X125501D01*
X128500Y307998D02*
Y309997D01*
X125001Y310997D02*
X128000D01*
Y312497D01*
X127500Y312996D01*
X125501D01*
X125001Y312497D01*
Y310997D01*
Y313996D02*
Y314996D01*
Y314496D01*
X128000D01*
Y313996D01*
Y314996D01*
Y316495D02*
X126001D01*
X125001Y317495D01*
X126001Y318495D01*
X128000D01*
X126500D01*
Y316495D01*
X125501Y321494D02*
X125001Y320994D01*
Y319994D01*
X125501Y319494D01*
X127500D01*
X128000Y319994D01*
Y320994D01*
X127500Y321494D01*
X126500D01*
Y320494D01*
X115101Y304800D02*
Y306799D01*
X115601D01*
X117600Y304800D01*
X118100D01*
Y306799D01*
X118600Y307799D02*
Y309798D01*
X115101Y310798D02*
X118100D01*
Y312298D01*
X117600Y312797D01*
X115601D01*
X115101Y312298D01*
Y310798D01*
Y313797D02*
Y314797D01*
Y314297D01*
X118100D01*
Y313797D01*
Y314797D01*
Y316296D02*
X116101D01*
X115101Y317296D01*
X116101Y318296D01*
X118100D01*
X116601D01*
Y316296D01*
X115601Y321295D02*
X115101Y320795D01*
Y319795D01*
X115601Y319295D01*
X117600D01*
X118100Y319795D01*
Y320795D01*
X117600Y321295D01*
X116601D01*
Y320295D01*
X95001Y309499D02*
Y307500D01*
X96500D01*
Y308500D01*
Y307500D01*
X98000D01*
X95001Y312498D02*
Y310499D01*
X98000D01*
Y312498D01*
X96500Y310499D02*
Y311499D01*
X95001Y313498D02*
Y315497D01*
Y314498D01*
X98000D01*
X96500Y316497D02*
Y318496D01*
X95501Y319496D02*
X95001Y319996D01*
Y320996D01*
X95501Y321496D01*
X97500D01*
X98000Y320996D01*
Y319996D01*
X97500Y319496D01*
X95501D01*
X359199Y219699D02*
X357200D01*
Y216700D01*
X359199D01*
X357200Y218199D02*
X358200D01*
X360199Y216700D02*
Y219699D01*
X362198Y216700D01*
Y219699D01*
X363198Y216200D02*
X365197D01*
X366197Y219699D02*
Y216700D01*
X367697D01*
X368196Y217200D01*
Y219199D01*
X367697Y219699D01*
X366197D01*
X369196Y216700D02*
Y219699D01*
X370696D01*
X371196Y219199D01*
Y218199D01*
X370696Y217700D01*
X369196D01*
X370196D02*
X371196Y216700D01*
X372195Y219699D02*
Y217700D01*
X373195Y216700D01*
X374195Y217700D01*
Y219699D01*
X384000Y228299D02*
X385999Y225300D01*
Y228299D02*
X384000Y225300D01*
X394200Y228199D02*
Y227699D01*
X395200Y226699D01*
X396199Y227699D01*
Y228199D01*
X395200Y226699D02*
Y225200D01*
X404200Y228399D02*
X406199D01*
Y227899D01*
X404200Y225900D01*
Y225400D01*
X406199D01*
X414899Y228299D02*
X412900D01*
Y225300D01*
X414899D01*
X412900Y226800D02*
X413900D01*
X415899Y227799D02*
X416399Y228299D01*
X417399D01*
X417898Y227799D01*
Y225800D01*
X417399Y225300D01*
X416399D01*
X415899Y225800D01*
Y227799D01*
X366700Y198000D02*
X368699D01*
X369699Y196500D02*
Y199499D01*
X371698Y196500D01*
Y199499D01*
X374697Y198999D02*
X374198Y199499D01*
X373198D01*
X372698Y198999D01*
Y197000D01*
X373198Y196500D01*
X374198D01*
X374697Y197000D01*
X375697Y198000D02*
X377696D01*
X366900Y206000D02*
X368899D01*
X369899D02*
X371898D01*
X374897Y209499D02*
X372898D01*
Y206500D01*
X374897D01*
X372898Y207999D02*
X373898D01*
X375897Y206500D02*
Y209499D01*
X377896Y206500D01*
Y209499D01*
X472000Y206200D02*
X473999D01*
X474999D02*
X476998D01*
X479997Y209199D02*
X479498Y209699D01*
X478498D01*
X477998Y209199D01*
Y207200D01*
X478498Y206700D01*
X479498D01*
X479997Y207200D01*
X482996Y209199D02*
X482497Y209699D01*
X481497D01*
X480997Y209199D01*
Y208699D01*
X481497Y208200D01*
X482497D01*
X482996Y207700D01*
Y207200D01*
X482497Y206700D01*
X481497D01*
X480997Y207200D01*
X434001Y168300D02*
X437000Y170299D01*
X434001D02*
X437000Y168300D01*
X435500Y171299D02*
Y173298D01*
X434501Y176297D02*
X434001Y175798D01*
Y174798D01*
X434501Y174298D01*
X436500D01*
X437000Y174798D01*
Y175798D01*
X436500Y176297D01*
X434501Y179296D02*
X434001Y178797D01*
Y177797D01*
X434501Y177297D01*
X435001D01*
X435500Y177797D01*
Y178797D01*
X436000Y179296D01*
X436500D01*
X437000Y178797D01*
Y177797D01*
X436500Y177297D01*
X437500Y180296D02*
Y182296D01*
X434001Y183295D02*
X437000D01*
Y184795D01*
X436500Y185294D01*
X434501D01*
X434001Y184795D01*
Y183295D01*
X437000Y186294D02*
X434001D01*
Y187794D01*
X434501Y188294D01*
X435500D01*
X436000Y187794D01*
Y186294D01*
Y187294D02*
X437000Y188294D01*
X434001Y189293D02*
X436000D01*
X437000Y190293D01*
X436000Y191293D01*
X434001D01*
X471800Y219399D02*
X473799Y216400D01*
Y219399D02*
X471800Y216400D01*
X474799Y217899D02*
X476798D01*
X479797Y218899D02*
X479298Y219399D01*
X478298D01*
X477798Y218899D01*
Y216900D01*
X478298Y216400D01*
X479298D01*
X479797Y216900D01*
X482796Y218899D02*
X482297Y219399D01*
X481297D01*
X480797Y218899D01*
Y218399D01*
X481297Y217899D01*
X482297D01*
X482796Y217400D01*
Y216900D01*
X482297Y216400D01*
X481297D01*
X480797Y216900D01*
X483796Y215900D02*
X485795D01*
X486795Y219399D02*
Y216400D01*
X488295D01*
X488795Y216900D01*
Y218899D01*
X488295Y219399D01*
X486795D01*
X489794Y216400D02*
Y219399D01*
X491294D01*
X491793Y218899D01*
Y217899D01*
X491294Y217400D01*
X489794D01*
X490794D02*
X491793Y216400D01*
X492793Y219399D02*
Y217400D01*
X493793Y216400D01*
X494793Y217400D01*
Y219399D01*
X473800Y195800D02*
X475799D01*
X476799D02*
X478798D01*
X479798Y197800D02*
X481797D01*
X484796Y198799D02*
X484297Y199299D01*
X483297D01*
X482797Y198799D01*
Y196800D01*
X483297Y196300D01*
X484297D01*
X484796Y196800D01*
X487795Y198799D02*
X487296Y199299D01*
X486296D01*
X485796Y198799D01*
Y198299D01*
X486296Y197800D01*
X487296D01*
X487795Y197300D01*
Y196800D01*
X487296Y196300D01*
X486296D01*
X485796Y196800D01*
X488795Y195800D02*
X490795D01*
X491794Y199299D02*
Y196300D01*
X493294D01*
X493793Y196800D01*
Y198799D01*
X493294Y199299D01*
X491794D01*
X494793Y196300D02*
Y199299D01*
X496293D01*
X496793Y198799D01*
Y197800D01*
X496293Y197300D01*
X494793D01*
X495793D02*
X496793Y196300D01*
X497792Y199299D02*
Y197300D01*
X498792Y196300D01*
X499792Y197300D01*
Y199299D01*
X444001Y168500D02*
X444501D01*
X445501Y169500D01*
X444501Y170499D01*
X444001D01*
X445501Y169500D02*
X447000D01*
X445501Y171499D02*
Y173498D01*
X444501Y176497D02*
X444001Y175998D01*
Y174998D01*
X444501Y174498D01*
X446500D01*
X447000Y174998D01*
Y175998D01*
X446500Y176497D01*
X444501Y179496D02*
X444001Y178997D01*
Y177997D01*
X444501Y177497D01*
X445001D01*
X445501Y177997D01*
Y178997D01*
X446000Y179496D01*
X446500D01*
X447000Y178997D01*
Y177997D01*
X446500Y177497D01*
X447500Y180496D02*
Y182495D01*
X444001Y183495D02*
X447000D01*
Y184995D01*
X446500Y185494D01*
X444501D01*
X444001Y184995D01*
Y183495D01*
X447000Y186494D02*
X444001D01*
Y187994D01*
X444501Y188494D01*
X445501D01*
X446000Y187994D01*
Y186494D01*
Y187494D02*
X447000Y188494D01*
X444001Y189493D02*
X446000D01*
X447000Y190493D01*
X446000Y191493D01*
X444001D01*
X454201Y168500D02*
Y170499D01*
X454701D01*
X456700Y168500D01*
X457200D01*
Y170499D01*
X455700Y171499D02*
Y173498D01*
X454701Y176497D02*
X454201Y175998D01*
Y174998D01*
X454701Y174498D01*
X456700D01*
X457200Y174998D01*
Y175998D01*
X456700Y176497D01*
X454701Y179496D02*
X454201Y178997D01*
Y177997D01*
X454701Y177497D01*
X455201D01*
X455700Y177997D01*
Y178997D01*
X456200Y179496D01*
X456700D01*
X457200Y178997D01*
Y177997D01*
X456700Y177497D01*
X457700Y180496D02*
Y182495D01*
X454201Y183495D02*
X457200D01*
Y184995D01*
X456700Y185494D01*
X454701D01*
X454201Y184995D01*
Y183495D01*
X457200Y186494D02*
X454201D01*
Y187994D01*
X454701Y188494D01*
X455700D01*
X456200Y187994D01*
Y186494D01*
Y187494D02*
X457200Y188494D01*
X454201Y189493D02*
X456200D01*
X457200Y190493D01*
X456200Y191493D01*
X454201D01*
X463801Y167499D02*
Y165500D01*
X466800D01*
Y167499D01*
X465301Y165500D02*
Y166500D01*
X464301Y168499D02*
X463801Y168999D01*
Y169999D01*
X464301Y170498D01*
X466300D01*
X466800Y169999D01*
Y168999D01*
X466300Y168499D01*
X464301D01*
X465301Y171498D02*
Y173497D01*
X464301Y176496D02*
X463801Y175997D01*
Y174997D01*
X464301Y174497D01*
X466300D01*
X466800Y174997D01*
Y175997D01*
X466300Y176496D01*
X464301Y179496D02*
X463801Y178996D01*
Y177996D01*
X464301Y177496D01*
X464801D01*
X465301Y177996D01*
Y178996D01*
X465800Y179496D01*
X466300D01*
X466800Y178996D01*
Y177996D01*
X466300Y177496D01*
X467300Y180495D02*
Y182494D01*
X463801Y183494D02*
X466800D01*
Y184994D01*
X466300Y185494D01*
X464301D01*
X463801Y184994D01*
Y183494D01*
X466800Y186493D02*
X463801D01*
Y187993D01*
X464301Y188493D01*
X465301D01*
X465800Y187993D01*
Y186493D01*
Y187493D02*
X466800Y188493D01*
X463801Y189492D02*
X465800D01*
X466800Y190492D01*
X465800Y191492D01*
X463801D01*
X466699Y100199D02*
X466199Y100699D01*
X465200D01*
X464700Y100199D01*
Y99699D01*
X465200Y99199D01*
X466199D01*
X466699Y98700D01*
Y98200D01*
X466199Y97700D01*
X465200D01*
X464700Y98200D01*
X467699Y97700D02*
Y100699D01*
X469199D01*
X469698Y100199D01*
Y99199D01*
X469199Y98700D01*
X467699D01*
X468699D02*
X469698Y97700D01*
X472697Y100199D02*
X472198Y100699D01*
X471198D01*
X470698Y100199D01*
Y98200D01*
X471198Y97700D01*
X472198D01*
X472697Y98200D01*
X477696Y97700D02*
X476696Y98700D01*
Y99699D01*
X477696Y100699D01*
X480695D02*
X479695D01*
X479195Y100199D01*
Y98200D01*
X479695Y97700D01*
X480695D01*
X481195Y98200D01*
Y100199D01*
X480695Y100699D01*
X484194Y100199D02*
X483694Y100699D01*
X482694D01*
X482194Y100199D01*
Y98200D01*
X482694Y97700D01*
X483694D01*
X484194Y98200D01*
X485193Y100699D02*
X487193D01*
X486193D01*
Y97700D01*
X488192D02*
Y99699D01*
X489192Y100699D01*
X490192Y99699D01*
Y97700D01*
Y99199D01*
X488192D01*
X491191Y100699D02*
Y98700D01*
X492191Y97700D01*
X493191Y98700D01*
Y100699D01*
X495690D02*
X494690D01*
X494191Y100199D01*
Y98200D01*
X494690Y97700D01*
X495690D01*
X496190Y98200D01*
Y100199D01*
X495690Y100699D01*
X497190Y97700D02*
X498189Y98700D01*
Y99699D01*
X497190Y100699D01*
X466699Y90199D02*
X466199Y90699D01*
X465200D01*
X464700Y90199D01*
Y89699D01*
X465200Y89200D01*
X466199D01*
X466699Y88700D01*
Y88200D01*
X466199Y87700D01*
X465200D01*
X464700Y88200D01*
X467699Y90699D02*
X468699D01*
X468199D01*
Y87700D01*
X467699D01*
X468699D01*
X470198D02*
Y90699D01*
X472198Y87700D01*
Y90699D01*
X473197D02*
Y87700D01*
Y88700D01*
X475197Y90699D01*
X473697Y89200D01*
X475197Y87700D01*
X480195D02*
X479195Y88700D01*
Y89699D01*
X480195Y90699D01*
X483694D02*
X481695D01*
Y87700D01*
X483694D01*
X481695Y89200D02*
X482694D01*
X484693Y90699D02*
X485693D01*
X485193D01*
Y87700D01*
X484693D01*
X485693D01*
X487193D02*
Y90699D01*
X489192Y87700D01*
Y90699D01*
X492191Y90199D02*
X491691Y90699D01*
X490692D01*
X490192Y90199D01*
Y89699D01*
X490692Y89200D01*
X491691D01*
X492191Y88700D01*
Y88200D01*
X491691Y87700D01*
X490692D01*
X490192Y88200D01*
X493191Y90699D02*
Y90199D01*
X494191Y89200D01*
X495190Y90199D01*
Y90699D01*
X494191Y89200D02*
Y87700D01*
X496190D02*
X497190Y88700D01*
Y89699D01*
X496190Y90699D01*
X439300Y105800D02*
Y106800D01*
Y106300D01*
X436301D01*
X436801Y105800D01*
X436301Y108299D02*
X438300D01*
X439300Y109299D01*
X438300Y110299D01*
X436301D01*
X436801Y111298D02*
X436301Y111798D01*
Y112798D01*
X436801Y113298D01*
X437301D01*
X437801Y112798D01*
X438300Y113298D01*
X438800D01*
X439300Y112798D01*
Y111798D01*
X438800Y111298D01*
X438300D01*
X437801Y111798D01*
X437301Y111298D01*
X436801D01*
X437801Y111798D02*
Y112798D01*
X439800Y114297D02*
Y116297D01*
X439300Y117296D02*
X437301D01*
X436301Y118296D01*
X437301Y119296D01*
X439300D01*
X437801D01*
Y117296D01*
X439300Y120295D02*
X436301D01*
X439300Y122295D01*
X436301D01*
X439300Y123294D02*
X437301D01*
X436301Y124294D01*
X437301Y125294D01*
X439300D01*
X437801D01*
Y123294D01*
X446601Y106000D02*
X446101Y106500D01*
Y107500D01*
X446601Y107999D01*
X447101D01*
X447601Y107500D01*
Y107000D01*
Y107500D01*
X448100Y107999D01*
X448600D01*
X449100Y107500D01*
Y106500D01*
X448600Y106000D01*
X446101Y108999D02*
X448100D01*
X449100Y109999D01*
X448100Y110998D01*
X446101D01*
X446601Y111998D02*
X446101Y112498D01*
Y113498D01*
X446601Y113997D01*
X447101D01*
X447601Y113498D01*
Y112998D01*
Y113498D01*
X448100Y113997D01*
X448600D01*
X449100Y113498D01*
Y112498D01*
X448600Y111998D01*
X456301Y108199D02*
Y106200D01*
X457800D01*
X457301Y107200D01*
Y107700D01*
X457800Y108199D01*
X458800D01*
X459300Y107700D01*
Y106700D01*
X458800Y106200D01*
X456301Y109199D02*
X458300D01*
X459300Y110199D01*
X458300Y111198D01*
X456301D01*
X456801Y112198D02*
X456301Y112698D01*
Y113698D01*
X456801Y114197D01*
X458800D01*
X459300Y113698D01*
Y112698D01*
X458800Y112198D01*
X456801D01*
X408399Y113399D02*
X407900Y113899D01*
X406900D01*
X406400Y113399D01*
Y112899D01*
X406900Y112399D01*
X407900D01*
X408399Y111900D01*
Y111400D01*
X407900Y110900D01*
X406900D01*
X406400Y111400D01*
X409399Y110900D02*
Y113899D01*
X410898D01*
X411398Y113399D01*
Y112399D01*
X410898Y111900D01*
X409399D01*
X412398Y110900D02*
Y112899D01*
X413398Y113899D01*
X414397Y112899D01*
Y110900D01*
Y112399D01*
X412398D01*
X415397Y110900D02*
Y113899D01*
X416897D01*
X417396Y113399D01*
Y112399D01*
X416897Y111900D01*
X415397D01*
X416397D02*
X417396Y110900D01*
X420396Y113899D02*
X418396D01*
Y110900D01*
X420396D01*
X418396Y112399D02*
X419396D01*
X540100Y16200D02*
X541100D01*
X540600D01*
Y19199D01*
X540100Y18699D01*
X531299Y16400D02*
X529300D01*
X531299Y18399D01*
Y18899D01*
X530799Y19399D01*
X529800D01*
X529300Y18899D01*
X538400Y92500D02*
X539400D01*
X538900D01*
Y95499D01*
X538400Y94999D01*
X540899D02*
X541399Y95499D01*
X542399D01*
X542899Y94999D01*
Y94499D01*
X542399Y93999D01*
X541899D01*
X542399D01*
X542899Y93500D01*
Y93000D01*
X542399Y92500D01*
X541399D01*
X540899Y93000D01*
X528100Y92300D02*
X529100D01*
X528600D01*
Y95299D01*
X528100Y94799D01*
X532099Y92300D02*
Y95299D01*
X530599Y93800D01*
X532598D01*
X517399Y87499D02*
X515400D01*
Y86000D01*
X516400Y86499D01*
X516899D01*
X517399Y86000D01*
Y85000D01*
X516899Y84500D01*
X515900D01*
X515400Y85000D01*
X518399Y87499D02*
Y85500D01*
X519399Y84500D01*
X520398Y85500D01*
Y87499D01*
X521398Y86999D02*
X521898Y87499D01*
X522898D01*
X523397Y86999D01*
Y85000D01*
X522898Y84500D01*
X521898D01*
X521398Y85000D01*
Y86999D01*
X548999Y87699D02*
X547000D01*
Y86199D01*
X548000Y86699D01*
X548499D01*
X548999Y86199D01*
Y85200D01*
X548499Y84700D01*
X547500D01*
X547000Y85200D01*
X549999Y87699D02*
Y85700D01*
X550999Y84700D01*
X551998Y85700D01*
Y87699D01*
X552998Y87199D02*
X553498Y87699D01*
X554498D01*
X554997Y87199D01*
Y85200D01*
X554498Y84700D01*
X553498D01*
X552998Y85200D01*
Y87199D01*
X504200Y74300D02*
X505200D01*
X504700D01*
Y77299D01*
X504200Y76799D01*
X506699Y77299D02*
Y75300D01*
X507699Y74300D01*
X508699Y75300D01*
Y77299D01*
X509698Y76799D02*
X510198Y77299D01*
X511198D01*
X511698Y76799D01*
Y76299D01*
X511198Y75800D01*
X511698Y75300D01*
Y74800D01*
X511198Y74300D01*
X510198D01*
X509698Y74800D01*
Y75300D01*
X510198Y75800D01*
X509698Y76299D01*
Y76799D01*
X510198Y75800D02*
X511198D01*
X512697Y73800D02*
X514697D01*
X515696Y74300D02*
Y76299D01*
X516696Y77299D01*
X517696Y76299D01*
Y74300D01*
Y75800D01*
X515696D01*
X518695Y74300D02*
Y77299D01*
X520695Y74300D01*
Y77299D01*
X521694Y74300D02*
Y76299D01*
X522694Y77299D01*
X523694Y76299D01*
Y74300D01*
Y75800D01*
X521694D01*
X547200Y76999D02*
X547700Y77499D01*
X548700D01*
X549199Y76999D01*
Y76499D01*
X548700Y75999D01*
X548200D01*
X548700D01*
X549199Y75500D01*
Y75000D01*
X548700Y74500D01*
X547700D01*
X547200Y75000D01*
X550199Y77499D02*
Y75500D01*
X551199Y74500D01*
X552198Y75500D01*
Y77499D01*
X553198Y76999D02*
X553698Y77499D01*
X554698D01*
X555197Y76999D01*
Y76499D01*
X554698Y75999D01*
X554198D01*
X554698D01*
X555197Y75500D01*
Y75000D01*
X554698Y74500D01*
X553698D01*
X553198Y75000D01*
X507300Y64600D02*
Y67599D01*
X508300Y66599D01*
X509299Y67599D01*
Y64600D01*
X511798Y67599D02*
X510799D01*
X510299Y67099D01*
Y65100D01*
X510799Y64600D01*
X511798D01*
X512298Y65100D01*
Y67099D01*
X511798Y67599D01*
X515297Y67099D02*
X514798Y67599D01*
X513798D01*
X513298Y67099D01*
Y66599D01*
X513798Y66100D01*
X514798D01*
X515297Y65600D01*
Y65100D01*
X514798Y64600D01*
X513798D01*
X513298Y65100D01*
X516297Y67599D02*
X517297D01*
X516797D01*
Y64600D01*
X516297D01*
X517297D01*
X518796Y64100D02*
X520796D01*
X523795Y67599D02*
X521795D01*
Y64600D01*
X523795D01*
X521795Y66100D02*
X522795D01*
X507300Y54600D02*
Y57599D01*
X508300Y56599D01*
X509299Y57599D01*
Y54600D01*
X511798Y57599D02*
X510799D01*
X510299Y57099D01*
Y55100D01*
X510799Y54600D01*
X511798D01*
X512298Y55100D01*
Y57099D01*
X511798Y57599D01*
X515297Y57099D02*
X514798Y57599D01*
X513798D01*
X513298Y57099D01*
Y56599D01*
X513798Y56099D01*
X514798D01*
X515297Y55600D01*
Y55100D01*
X514798Y54600D01*
X513798D01*
X513298Y55100D01*
X516297Y57599D02*
X517297D01*
X516797D01*
Y54600D01*
X516297D01*
X517297D01*
X518796Y54100D02*
X520796D01*
X521795Y57599D02*
X523795D01*
Y57099D01*
X521795Y55100D01*
Y54600D01*
X523795D01*
X507200Y44500D02*
Y47499D01*
X508200Y46499D01*
X509199Y47499D01*
Y44500D01*
X511698Y47499D02*
X510699D01*
X510199Y46999D01*
Y45000D01*
X510699Y44500D01*
X511698D01*
X512198Y45000D01*
Y46999D01*
X511698Y47499D01*
X515197Y46999D02*
X514698Y47499D01*
X513698D01*
X513198Y46999D01*
Y46499D01*
X513698Y46000D01*
X514698D01*
X515197Y45500D01*
Y45000D01*
X514698Y44500D01*
X513698D01*
X513198Y45000D01*
X516197Y47499D02*
X517197D01*
X516697D01*
Y44500D01*
X516197D01*
X517197D01*
X518696Y44000D02*
X520696D01*
X521695Y47499D02*
Y46999D01*
X522695Y46000D01*
X523695Y46999D01*
Y47499D01*
X522695Y46000D02*
Y44500D01*
X507300Y34600D02*
Y37599D01*
X508300Y36599D01*
X509299Y37599D01*
Y34600D01*
X511798Y37599D02*
X510799D01*
X510299Y37099D01*
Y35100D01*
X510799Y34600D01*
X511798D01*
X512298Y35100D01*
Y37099D01*
X511798Y37599D01*
X515297Y37099D02*
X514798Y37599D01*
X513798D01*
X513298Y37099D01*
Y36599D01*
X513798Y36099D01*
X514798D01*
X515297Y35600D01*
Y35100D01*
X514798Y34600D01*
X513798D01*
X513298Y35100D01*
X516297Y37599D02*
X517297D01*
X516797D01*
Y34600D01*
X516297D01*
X517297D01*
X518796Y34100D02*
X520796D01*
X521795Y37599D02*
X523795Y34600D01*
Y37599D02*
X521795Y34600D01*
X544900Y37100D02*
X544124Y39997D01*
X545348Y39290D01*
X546055Y40514D01*
X546831Y37617D01*
X547021Y40773D02*
X547986Y41032D01*
X547503Y40902D01*
X548280Y38006D01*
X547797Y37876D01*
X548763Y38135D01*
X551495Y41455D02*
X550883Y41808D01*
X549918Y41549D01*
X549564Y40937D01*
X549693Y40454D01*
X550306Y40101D01*
X551271Y40360D01*
X551883Y40006D01*
X552013Y39523D01*
X551659Y38911D01*
X550694Y38652D01*
X550081Y39006D01*
X553780Y42584D02*
X552814Y42325D01*
X552461Y41713D01*
X552978Y39782D01*
X553590Y39429D01*
X554556Y39687D01*
X554910Y40299D01*
X554392Y42231D01*
X553780Y42584D01*
X556134Y39593D02*
X558065Y40110D01*
X558125Y43749D02*
X560833Y41369D01*
X560056Y44266D02*
X558901Y40852D01*
X544700Y47000D02*
X543924Y49897D01*
X545148Y49190D01*
X545855Y50414D01*
X546631Y47517D01*
X546821Y50673D02*
X547786Y50932D01*
X547303Y50802D01*
X548080Y47906D01*
X547597Y47776D01*
X548562Y48035D01*
X551295Y51354D02*
X550683Y51708D01*
X549718Y51449D01*
X549364Y50837D01*
X549493Y50354D01*
X550106Y50001D01*
X551071Y50260D01*
X551683Y49906D01*
X551813Y49423D01*
X551459Y48811D01*
X550494Y48552D01*
X549882Y48906D01*
X553580Y52484D02*
X552614Y52226D01*
X552261Y51613D01*
X552778Y49682D01*
X553391Y49329D01*
X554356Y49587D01*
X554710Y50200D01*
X554192Y52131D01*
X553580Y52484D01*
X555934Y49493D02*
X557865Y50010D01*
X557925Y53649D02*
X558055Y53166D01*
X559279Y52459D01*
X559986Y53683D01*
X559856Y54166D01*
X559279Y52459D02*
X559667Y51010D01*
X544800Y56800D02*
X544024Y59697D01*
X545248Y58990D01*
X545955Y60214D01*
X546731Y57318D01*
X546921Y60473D02*
X547886Y60732D01*
X547403Y60602D01*
X548180Y57706D01*
X547697Y57576D01*
X548663Y57835D01*
X551395Y61155D02*
X550783Y61508D01*
X549818Y61249D01*
X549464Y60637D01*
X549593Y60154D01*
X550206Y59801D01*
X551171Y60060D01*
X551783Y59706D01*
X551913Y59223D01*
X551559Y58611D01*
X550594Y58352D01*
X549981Y58706D01*
X553680Y62284D02*
X552714Y62025D01*
X552361Y61413D01*
X552878Y59482D01*
X553490Y59129D01*
X554456Y59387D01*
X554810Y60000D01*
X554292Y61931D01*
X553680Y62284D01*
X556034Y59293D02*
X557965Y59810D01*
X558025Y63449D02*
X559956Y63966D01*
X560086Y63483D01*
X558672Y61035D01*
X558801Y60552D01*
X560733Y61069D01*
X544900Y66000D02*
X544124Y68897D01*
X545348Y68190D01*
X546055Y69414D01*
X546831Y66518D01*
X547021Y69673D02*
X547986Y69932D01*
X547503Y69802D01*
X548280Y66906D01*
X547797Y66776D01*
X548763Y67035D01*
X551495Y70354D02*
X550883Y70708D01*
X549918Y70449D01*
X549564Y69837D01*
X549693Y69354D01*
X550306Y69001D01*
X551271Y69260D01*
X551883Y68906D01*
X552013Y68423D01*
X551659Y67811D01*
X550694Y67552D01*
X550081Y67906D01*
X553780Y71484D02*
X552814Y71226D01*
X552461Y70613D01*
X552978Y68682D01*
X553590Y68329D01*
X554556Y68587D01*
X554910Y69200D01*
X554392Y71131D01*
X553780Y71484D01*
X556134Y68493D02*
X558065Y69010D01*
X560056Y73166D02*
X558125Y72649D01*
X558901Y69752D01*
X560833Y70269D01*
X558513Y71200D02*
X559479Y71459D01*
X517299Y26899D02*
X516799Y27399D01*
X515800D01*
X515300Y26899D01*
Y24900D01*
X515800Y24400D01*
X516799D01*
X517299Y24900D01*
Y25899D01*
X516300D01*
X518299Y24400D02*
Y27399D01*
X520298Y24400D01*
Y27399D01*
X521298D02*
Y24400D01*
X522798D01*
X523297Y24900D01*
Y26899D01*
X522798Y27399D01*
X521298D01*
X550499Y27099D02*
X550000Y27599D01*
X549000D01*
X548500Y27099D01*
Y25100D01*
X549000Y24600D01*
X550000D01*
X550499Y25100D01*
Y26100D01*
X549500D01*
X551499Y24600D02*
Y27599D01*
X553498Y24600D01*
Y27599D01*
X554498D02*
Y24600D01*
X555998D01*
X556497Y25100D01*
Y27099D01*
X555998Y27599D01*
X554498D01*
X528100Y302300D02*
X529100D01*
X528600D01*
Y305299D01*
X528100Y304799D01*
X532099Y302300D02*
Y305299D01*
X530599Y303800D01*
X532598D01*
X538400Y302500D02*
X539400D01*
X538900D01*
Y305499D01*
X538400Y304999D01*
X540899D02*
X541399Y305499D01*
X542399D01*
X542899Y304999D01*
Y304499D01*
X542399Y303999D01*
X541899D01*
X542399D01*
X542899Y303500D01*
Y303000D01*
X542399Y302500D01*
X541399D01*
X540899Y303000D01*
X531299Y226400D02*
X529300D01*
X531299Y228399D01*
Y228899D01*
X530799Y229399D01*
X529800D01*
X529300Y228899D01*
X540100Y226200D02*
X541100D01*
X540600D01*
Y229199D01*
X540100Y228699D01*
X593558Y302500D02*
X594557D01*
X594057D01*
Y305499D01*
X593558Y304999D01*
X596057D02*
X596557Y305499D01*
X597556D01*
X598056Y304999D01*
Y304499D01*
X597556Y303999D01*
X597056D01*
X597556D01*
X598056Y303500D01*
Y303000D01*
X597556Y302500D01*
X596557D01*
X596057Y303000D01*
X583257Y302300D02*
X584257D01*
X583757D01*
Y305299D01*
X583257Y304799D01*
X587256Y302300D02*
Y305299D01*
X585757Y303800D01*
X587756D01*
X586437Y16400D02*
X584438D01*
X586437Y18399D01*
Y18899D01*
X585937Y19399D01*
X584938D01*
X584438Y18899D01*
X595238Y16200D02*
X596238D01*
X595738D01*
Y19199D01*
X595238Y18699D01*
X564724Y20097D02*
X567431Y17718D01*
X566655Y20614D02*
X565500Y17200D01*
X568009Y19425D02*
X569940Y19942D01*
X572578Y21684D02*
X571966Y22037D01*
X571000Y21779D01*
X570647Y21166D01*
X570776Y20684D01*
X571388Y20330D01*
X572354Y20589D01*
X572966Y20235D01*
X573096Y19753D01*
X572742Y19140D01*
X571776Y18882D01*
X571164Y19235D01*
X573414Y22425D02*
X575346Y22943D01*
X574380Y22684D01*
X575156Y19787D01*
X578242Y23719D02*
X576311Y23202D01*
X577087Y20305D01*
X579019Y20822D01*
X576699Y21753D02*
X577665Y22012D01*
X579984Y21081D02*
X579208Y23978D01*
X580656Y24366D01*
X581269Y24013D01*
X581527Y23047D01*
X581174Y22435D01*
X579726Y22047D01*
X564824Y50697D02*
X564953Y50214D01*
X566178Y49507D01*
X566884Y50731D01*
X566755Y51214D01*
X566178Y49507D02*
X566566Y48059D01*
X568109Y50025D02*
X570040Y50542D01*
X572678Y52284D02*
X572066Y52637D01*
X571100Y52379D01*
X570747Y51766D01*
X570876Y51284D01*
X571488Y50930D01*
X572454Y51189D01*
X573066Y50836D01*
X573196Y50353D01*
X572842Y49740D01*
X571876Y49482D01*
X571264Y49835D01*
X573514Y53026D02*
X575446Y53543D01*
X574480Y53284D01*
X575256Y50387D01*
X578342Y54319D02*
X576411Y53802D01*
X577187Y50905D01*
X579119Y51422D01*
X576799Y52353D02*
X577765Y52612D01*
X580084Y51681D02*
X579308Y54578D01*
X580756Y54966D01*
X581369Y54612D01*
X581627Y53647D01*
X581274Y53035D01*
X579825Y52647D01*
X564624Y60597D02*
X566555Y61114D01*
X566684Y60632D01*
X565271Y58183D01*
X565400Y57700D01*
X567331Y58218D01*
X567909Y59925D02*
X569840Y60442D01*
X572478Y62184D02*
X571866Y62537D01*
X570900Y62279D01*
X570547Y61666D01*
X570676Y61184D01*
X571288Y60830D01*
X572254Y61089D01*
X572866Y60735D01*
X572996Y60253D01*
X572642Y59641D01*
X571676Y59382D01*
X571064Y59735D01*
X573314Y62925D02*
X575246Y63443D01*
X574280Y63184D01*
X575056Y60287D01*
X578142Y64219D02*
X576211Y63702D01*
X576987Y60805D01*
X578919Y61322D01*
X576599Y62253D02*
X577565Y62512D01*
X579884Y61581D02*
X579108Y64478D01*
X580556Y64866D01*
X581169Y64512D01*
X581427Y63547D01*
X581074Y62935D01*
X579626Y62547D01*
X602000Y67499D02*
Y66999D01*
X603000Y66000D01*
X603999Y66999D01*
Y67499D01*
X603000Y66000D02*
Y64500D01*
X604999Y66000D02*
X606998D01*
X607998Y67499D02*
Y64500D01*
X609498D01*
X609997Y65000D01*
Y66999D01*
X609498Y67499D01*
X607998D01*
X610997D02*
X611997D01*
X611497D01*
Y64500D01*
X610997D01*
X611997D01*
X613496D02*
Y66499D01*
X614496Y67499D01*
X615496Y66499D01*
Y64500D01*
Y66000D01*
X613496D01*
X618495Y66999D02*
X617995Y67499D01*
X616995D01*
X616495Y66999D01*
Y65000D01*
X616995Y64500D01*
X617995D01*
X618495Y65000D01*
Y66000D01*
X617495D01*
X565324Y30697D02*
X568031Y28317D01*
X567255Y31214D02*
X566100Y27800D01*
X568609Y30025D02*
X570540Y30542D01*
X571117Y32249D02*
X571894Y29352D01*
X573342Y29741D01*
X573696Y30353D01*
X573178Y32284D01*
X572566Y32637D01*
X571117Y32249D01*
X574014Y33026D02*
X574980Y33284D01*
X574497Y33155D01*
X575273Y30258D01*
X574790Y30129D01*
X575756Y30387D01*
X577205Y30775D02*
X576687Y32707D01*
X577394Y33931D01*
X578618Y33224D01*
X579136Y31293D01*
X578748Y32741D01*
X576816Y32224D01*
X581386Y34483D02*
X580774Y34837D01*
X579808Y34578D01*
X579455Y33966D01*
X579972Y32035D01*
X580584Y31681D01*
X581550Y31940D01*
X581903Y32552D01*
X581644Y33518D01*
X580679Y33259D01*
X604400Y28499D02*
X606399Y25500D01*
Y28499D02*
X604400Y25500D01*
X607399Y27000D02*
X609398D01*
X610398Y28499D02*
Y25500D01*
X611898D01*
X612397Y26000D01*
Y27999D01*
X611898Y28499D01*
X610398D01*
X613397D02*
X614397D01*
X613897D01*
Y25500D01*
X613397D01*
X614397D01*
X615896D02*
Y28499D01*
X617396D01*
X617896Y27999D01*
Y27000D01*
X617396Y26500D01*
X615896D01*
X616896D02*
X617896Y25500D01*
X604200Y47299D02*
Y46799D01*
X605200Y45799D01*
X606199Y46799D01*
Y47299D01*
X605200Y45799D02*
Y44300D01*
X607199Y45799D02*
X609198D01*
X610198Y47299D02*
Y44300D01*
X611698D01*
X612197Y44800D01*
Y46799D01*
X611698Y47299D01*
X610198D01*
X613197D02*
X614197D01*
X613697D01*
Y44300D01*
X613197D01*
X614197D01*
X615696D02*
Y47299D01*
X617196D01*
X617696Y46799D01*
Y45799D01*
X617196Y45300D01*
X615696D01*
X616696D02*
X617696Y44300D01*
X603200Y37399D02*
X605199Y34400D01*
Y37399D02*
X603200Y34400D01*
X606199Y33900D02*
X608198D01*
X609198Y34400D02*
Y36399D01*
X610698D01*
X611197Y35899D01*
Y34400D01*
X614196Y36899D02*
X613697Y37399D01*
X612697D01*
X612197Y36899D01*
Y34900D01*
X612697Y34400D01*
X613697D01*
X614196Y34900D01*
X617196Y36899D02*
X616696Y37399D01*
X615696D01*
X615196Y36899D01*
Y36399D01*
X615696Y35899D01*
X616696D01*
X617196Y35400D01*
Y34900D01*
X616696Y34400D01*
X615696D01*
X615196Y34900D01*
X567624Y41697D02*
X567753Y41214D01*
X568977Y40507D01*
X569684Y41732D01*
X569555Y42214D01*
X568977Y40507D02*
X569366Y39059D01*
X571426Y39093D02*
X573357Y39611D01*
X574194Y40352D02*
X573676Y42284D01*
X575125Y42672D01*
X575737Y42318D01*
X576125Y40870D01*
X578375Y44060D02*
X577763Y44414D01*
X576797Y44155D01*
X576444Y43543D01*
X576961Y41611D01*
X577573Y41258D01*
X578539Y41517D01*
X578892Y42129D01*
X581272Y44836D02*
X580660Y45190D01*
X579694Y44931D01*
X579341Y44319D01*
X579470Y43836D01*
X580082Y43483D01*
X581048Y43741D01*
X581660Y43388D01*
X581789Y42905D01*
X581436Y42293D01*
X580470Y42034D01*
X579858Y42388D01*
X602000Y57499D02*
X603999Y54500D01*
Y57499D02*
X602000Y54500D01*
X604999Y55999D02*
X606998D01*
X609997Y57499D02*
X607998D01*
Y54500D01*
X609997D01*
X607998Y55999D02*
X608998D01*
X610997Y54500D02*
Y57499D01*
X612996Y54500D01*
Y57499D01*
X602100Y77699D02*
Y77199D01*
X603100Y76200D01*
X604099Y77199D01*
Y77699D01*
X603100Y76200D02*
Y74700D01*
X605099Y76200D02*
X607098D01*
X610097Y77699D02*
X608098D01*
Y74700D01*
X610097D01*
X608098Y76200D02*
X609098D01*
X611097Y74700D02*
Y77699D01*
X613096Y74700D01*
Y77699D01*
X567500Y77399D02*
X569499D01*
Y76899D01*
X567500Y74900D01*
Y74400D01*
X569499D01*
X570499Y75899D02*
X572498D01*
X575497Y77399D02*
X573498D01*
Y74400D01*
X575497D01*
X573498Y75899D02*
X574498D01*
X576497Y74400D02*
Y77399D01*
X578496Y74400D01*
Y77399D01*
X604399Y87699D02*
X602400D01*
Y84700D01*
X604399D01*
X602400Y86199D02*
X603400D01*
X605399Y87199D02*
X605899Y87699D01*
X606898D01*
X607398Y87199D01*
Y85200D01*
X606898Y84700D01*
X605899D01*
X605399Y85200D01*
Y87199D01*
X608398Y86199D02*
X610397D01*
X613396Y87699D02*
X611397D01*
Y84700D01*
X613396D01*
X611397Y86199D02*
X612397D01*
X614396Y84700D02*
Y87699D01*
X616396Y84700D01*
Y87699D01*
X570800Y84300D02*
Y87299D01*
X572299D01*
X572799Y86799D01*
Y85799D01*
X572299Y85300D01*
X570800D01*
X575798Y86799D02*
X575299Y87299D01*
X574299D01*
X573799Y86799D01*
Y84800D01*
X574299Y84300D01*
X575299D01*
X575798Y84800D01*
X578797Y87299D02*
X576798D01*
Y85799D01*
X577798Y86299D01*
X578298D01*
X578797Y85799D01*
Y84800D01*
X578298Y84300D01*
X577298D01*
X576798Y84800D01*
X566899Y97099D02*
X566399Y97599D01*
X565400D01*
X564900Y97099D01*
Y96599D01*
X565400Y96100D01*
X566399D01*
X566899Y95600D01*
Y95100D01*
X566399Y94600D01*
X565400D01*
X564900Y95100D01*
X567899Y97599D02*
Y94600D01*
X569398D01*
X569898Y95100D01*
Y97099D01*
X569398Y97599D01*
X567899D01*
X570898Y94100D02*
X572897D01*
X575896Y97099D02*
X575397Y97599D01*
X574397D01*
X573897Y97099D01*
Y96599D01*
X574397Y96100D01*
X575397D01*
X575896Y95600D01*
Y95100D01*
X575397Y94600D01*
X574397D01*
X573897Y95100D01*
X578896Y97099D02*
X578396Y97599D01*
X577396D01*
X576896Y97099D01*
Y96599D01*
X577396Y96100D01*
X578396D01*
X578896Y95600D01*
Y95100D01*
X578396Y94600D01*
X577396D01*
X576896Y95100D01*
X604799Y98699D02*
X602800D01*
Y95700D01*
X604799D01*
X602800Y97199D02*
X603800D01*
X605799Y98199D02*
X606299Y98699D01*
X607299D01*
X607798Y98199D01*
Y96200D01*
X607299Y95700D01*
X606299D01*
X605799Y96200D01*
Y98199D01*
X608798Y97199D02*
X610797D01*
X613796Y98199D02*
X613297Y98699D01*
X612297D01*
X611797Y98199D01*
Y97699D01*
X612297Y97199D01*
X613297D01*
X613796Y96700D01*
Y96200D01*
X613297Y95700D01*
X612297D01*
X611797Y96200D01*
X614796Y98699D02*
X616795D01*
X615796D01*
Y95700D01*
X619795Y98699D02*
X617795D01*
Y95700D01*
X619795D01*
X617795Y97199D02*
X618795D01*
X620794Y95700D02*
Y98699D01*
X622294D01*
X622793Y98199D01*
Y97199D01*
X622294Y96700D01*
X620794D01*
X602200Y104100D02*
Y107099D01*
X603699D01*
X604199Y106599D01*
Y105599D01*
X603699Y105100D01*
X602200D01*
X607198Y107099D02*
X606199D01*
X606699D01*
Y104600D01*
X606199Y104100D01*
X605699D01*
X605199Y104600D01*
X610197Y107099D02*
X608198D01*
Y105599D01*
X609198Y106099D01*
X609698D01*
X610197Y105599D01*
Y104600D01*
X609698Y104100D01*
X608698D01*
X608198Y104600D01*
X602200Y114400D02*
Y117399D01*
X603699D01*
X604199Y116899D01*
Y115900D01*
X603699Y115400D01*
X602200D01*
X607198Y117399D02*
X606199D01*
X606699D01*
Y114900D01*
X606199Y114400D01*
X605699D01*
X605199Y114900D01*
X610197Y114400D02*
X608198D01*
X610197Y116399D01*
Y116899D01*
X609698Y117399D01*
X608698D01*
X608198Y116899D01*
X571000Y117499D02*
X572999D01*
X572000D01*
Y114500D01*
X573999Y117499D02*
X575998Y114500D01*
Y117499D02*
X573999Y114500D01*
X576998Y116999D02*
X577498Y117499D01*
X578498D01*
X578997Y116999D01*
Y116499D01*
X578498Y115999D01*
X577998D01*
X578498D01*
X578997Y115500D01*
Y115000D01*
X578498Y114500D01*
X577498D01*
X576998Y115000D01*
X571100Y104400D02*
Y107399D01*
X572600D01*
X573099Y106899D01*
Y105900D01*
X572600Y105400D01*
X571100D01*
X572100D02*
X573099Y104400D01*
X574099Y107399D02*
X576098Y104400D01*
Y107399D02*
X574099Y104400D01*
X577098Y106899D02*
X577598Y107399D01*
X578598D01*
X579097Y106899D01*
Y106399D01*
X578598Y105900D01*
X578098D01*
X578598D01*
X579097Y105400D01*
Y104900D01*
X578598Y104400D01*
X577598D01*
X577098Y104900D01*
X564800Y127899D02*
X566799D01*
Y127399D01*
X564800Y125400D01*
Y124900D01*
X566799D01*
X567799Y124400D02*
X569798D01*
X570798Y124900D02*
Y126899D01*
X572298D01*
X572797Y126400D01*
Y124900D01*
X575796Y127399D02*
X575297Y127899D01*
X574297D01*
X573797Y127399D01*
Y125400D01*
X574297Y124900D01*
X575297D01*
X575796Y125400D01*
X578795Y127399D02*
X578296Y127899D01*
X577296D01*
X576796Y127399D01*
Y126899D01*
X577296Y126400D01*
X578296D01*
X578795Y125900D01*
Y125400D01*
X578296Y124900D01*
X577296D01*
X576796Y125400D01*
X572499Y137099D02*
X572000Y137599D01*
X571000D01*
X570500Y137099D01*
Y136599D01*
X571000Y136100D01*
X572000D01*
X572499Y135600D01*
Y135100D01*
X572000Y134600D01*
X571000D01*
X570500Y135100D01*
X573499Y137599D02*
Y134600D01*
X574999D01*
X575498Y135100D01*
Y137099D01*
X574999Y137599D01*
X573499D01*
X576498Y134600D02*
Y136599D01*
X577498Y137599D01*
X578497Y136599D01*
Y134600D01*
Y136100D01*
X576498D01*
X561899Y147699D02*
X559900D01*
Y144700D01*
X561899D01*
X559900Y146200D02*
X560900D01*
X562899Y147199D02*
X563399Y147699D01*
X564398D01*
X564898Y147199D01*
Y145200D01*
X564398Y144700D01*
X563399D01*
X562899Y145200D01*
Y147199D01*
X565898Y144200D02*
X567897D01*
X568897Y147699D02*
Y144700D01*
X570397D01*
X570896Y145200D01*
Y147199D01*
X570397Y147699D01*
X568897D01*
X571896D02*
X572896D01*
X572396D01*
Y144700D01*
X571896D01*
X572896D01*
X574395D02*
Y146699D01*
X575395Y147699D01*
X576395Y146699D01*
Y144700D01*
Y146200D01*
X574395D01*
X579394Y147199D02*
X578894Y147699D01*
X577894D01*
X577394Y147199D01*
Y145200D01*
X577894Y144700D01*
X578894D01*
X579394Y145200D01*
Y146200D01*
X578394D01*
X554999Y157399D02*
X553000D01*
Y154400D01*
X554999D01*
X553000Y155900D02*
X554000D01*
X555999D02*
X557998D01*
X558998Y154400D02*
Y157399D01*
X560498D01*
X560997Y156899D01*
Y155900D01*
X560498Y155400D01*
X558998D01*
X559998D02*
X560997Y154400D01*
X563996Y157399D02*
X561997D01*
Y154400D01*
X563996D01*
X561997Y155900D02*
X562997D01*
X566995Y157399D02*
X564996D01*
Y155900D01*
X565996D01*
X564996D01*
Y154400D01*
X567995Y155900D02*
X569994D01*
X570994Y154400D02*
Y157399D01*
X572494D01*
X572994Y156899D01*
Y155900D01*
X572494Y155400D01*
X570994D01*
X573993Y157399D02*
Y154400D01*
X574993Y155400D01*
X575993Y154400D01*
Y157399D01*
X576992Y154400D02*
Y157399D01*
X577992Y156399D01*
X578992Y157399D01*
Y154400D01*
X602100Y127399D02*
X604099D01*
Y126899D01*
X602100Y124900D01*
Y124400D01*
X604099D01*
X605099Y123900D02*
X607098D01*
X608098Y127399D02*
Y124400D01*
X609598D01*
X610097Y124900D01*
Y126899D01*
X609598Y127399D01*
X608098D01*
X611097D02*
X612097D01*
X611597D01*
Y124400D01*
X611097D01*
X612097D01*
X613596D02*
Y126399D01*
X614596Y127399D01*
X615596Y126399D01*
Y124400D01*
Y125900D01*
X613596D01*
X618595Y126899D02*
X618095Y127399D01*
X617095D01*
X616595Y126899D01*
Y124900D01*
X617095Y124400D01*
X618095D01*
X618595Y124900D01*
Y125900D01*
X617595D01*
X603999Y137299D02*
X602000D01*
Y134300D01*
X603999D01*
X602000Y135800D02*
X603000D01*
X604999Y136799D02*
X605499Y137299D01*
X606498D01*
X606998Y136799D01*
Y134800D01*
X606498Y134300D01*
X605499D01*
X604999Y134800D01*
Y136799D01*
X607998Y133800D02*
X609997D01*
X610997Y134300D02*
Y136299D01*
X612497D01*
X612996Y135800D01*
Y134300D01*
X615996Y136799D02*
X615496Y137299D01*
X614496D01*
X613996Y136799D01*
Y134800D01*
X614496Y134300D01*
X615496D01*
X615996Y134800D01*
X618995Y136799D02*
X618495Y137299D01*
X617495D01*
X616995Y136799D01*
Y136299D01*
X617495Y135800D01*
X618495D01*
X618995Y135300D01*
Y134800D01*
X618495Y134300D01*
X617495D01*
X616995Y134800D01*
X603899Y147299D02*
X603400Y147799D01*
X602400D01*
X601900Y147299D01*
Y146799D01*
X602400Y146300D01*
X603400D01*
X603899Y145800D01*
Y145300D01*
X603400Y144800D01*
X602400D01*
X601900Y145300D01*
X606898Y147299D02*
X606398Y147799D01*
X605399D01*
X604899Y147299D01*
Y145300D01*
X605399Y144800D01*
X606398D01*
X606898Y145300D01*
X607898Y147799D02*
Y144800D01*
X609897D01*
X604099Y157499D02*
X602100D01*
Y154500D01*
X604099D01*
X602100Y156000D02*
X603100D01*
X605099Y156999D02*
X605599Y157499D01*
X606599D01*
X607098Y156999D01*
Y155000D01*
X606599Y154500D01*
X605599D01*
X605099Y155000D01*
Y156999D01*
X608098Y156000D02*
X610097D01*
X611097Y157499D02*
Y154500D01*
X612597D01*
X613096Y155000D01*
Y156999D01*
X612597Y157499D01*
X611097D01*
X614096D02*
X615096D01*
X614596D01*
Y154500D01*
X614096D01*
X615096D01*
X616595D02*
Y157499D01*
X618095D01*
X618595Y156999D01*
Y156000D01*
X618095Y155500D01*
X616595D01*
X617595D02*
X618595Y154500D01*
X550100Y167399D02*
X552099Y164400D01*
Y167399D02*
X550100Y164400D01*
X553099Y167399D02*
Y166899D01*
X554099Y165900D01*
X555098Y166899D01*
Y167399D01*
X554099Y165900D02*
Y164400D01*
X556098Y165900D02*
X558097D01*
X559097Y164400D02*
Y167399D01*
X560597D01*
X561096Y166899D01*
Y165900D01*
X560597Y165400D01*
X559097D01*
X560097D02*
X561096Y164400D01*
X564095Y167399D02*
X562096D01*
Y164400D01*
X564095D01*
X562096Y165900D02*
X563096D01*
X567095Y167399D02*
X565095D01*
Y165900D01*
X566095D01*
X565095D01*
Y164400D01*
X568094Y165900D02*
X570093D01*
X571093Y164400D02*
Y167399D01*
X572593D01*
X573093Y166899D01*
Y165900D01*
X572593Y165400D01*
X571093D01*
X574092Y167399D02*
Y164400D01*
X575092Y165400D01*
X576092Y164400D01*
Y167399D01*
X577091Y164400D02*
Y167399D01*
X578091Y166399D01*
X579091Y167399D01*
Y164400D01*
X602600Y168799D02*
X604599D01*
Y168299D01*
X602600Y166300D01*
Y165800D01*
X604599D01*
X605599Y167299D02*
X607598D01*
X608598Y165800D02*
Y168799D01*
X610098D01*
X610597Y168299D01*
Y167299D01*
X610098Y166800D01*
X608598D01*
X609598D02*
X610597Y165800D01*
X613596Y168799D02*
X611597D01*
Y165800D01*
X613596D01*
X611597Y167299D02*
X612597D01*
X616596Y168799D02*
X614596D01*
Y167299D01*
X615596D01*
X614596D01*
Y165800D01*
X617595Y167299D02*
X619594D01*
X620594Y165800D02*
Y168799D01*
X622094D01*
X622593Y168299D01*
Y167299D01*
X622094Y166800D01*
X620594D01*
X623593Y168799D02*
Y165800D01*
X624593Y166800D01*
X625593Y165800D01*
Y168799D01*
X626592Y165800D02*
Y168799D01*
X627592Y167799D01*
X628592Y168799D01*
Y165800D01*
X602100Y177199D02*
Y174200D01*
X603600D01*
X604099Y174700D01*
Y175200D01*
X603600Y175699D01*
X602100D01*
X603600D01*
X604099Y176199D01*
Y176699D01*
X603600Y177199D01*
X602100D01*
X607098D02*
X605099D01*
Y174200D01*
X607098D01*
X605099Y175699D02*
X606099D01*
X608098Y177199D02*
Y174200D01*
X609598D01*
X610097Y174700D01*
Y176699D01*
X609598Y177199D01*
X608098D01*
X611097Y173700D02*
X613096D01*
X614096Y174200D02*
Y177199D01*
X615096Y176199D01*
X616095Y177199D01*
Y174200D01*
X618595Y177199D02*
X617595D01*
X617095Y176699D01*
Y174700D01*
X617595Y174200D01*
X618595D01*
X619095Y174700D01*
Y176699D01*
X618595Y177199D01*
X620094Y174200D02*
Y177199D01*
X622093Y174200D01*
Y177199D01*
X570900Y174100D02*
Y177099D01*
X572400D01*
X572899Y176599D01*
Y175600D01*
X572400Y175100D01*
X570900D01*
X573899Y177099D02*
Y174100D01*
Y175100D01*
X575898Y177099D01*
X574399Y175600D01*
X575898Y174100D01*
X576898Y176599D02*
X577398Y177099D01*
X578398D01*
X578897Y176599D01*
Y174600D01*
X578398Y174100D01*
X577398D01*
X576898Y174600D01*
Y176599D01*
X571100Y184600D02*
Y187599D01*
X572600D01*
X573099Y187099D01*
Y186100D01*
X572600Y185600D01*
X571100D01*
X576098Y187599D02*
X574099D01*
Y186100D01*
X575099D01*
X574099D01*
Y184600D01*
X579097Y187599D02*
X577098D01*
Y186100D01*
X578098Y186599D01*
X578598D01*
X579097Y186100D01*
Y185100D01*
X578598Y184600D01*
X577598D01*
X577098Y185100D01*
X602300Y182200D02*
Y185199D01*
X603799D01*
X604299Y184699D01*
Y183700D01*
X603799Y183200D01*
X602300D01*
X607298Y185199D02*
X605299D01*
Y183700D01*
X606299D01*
X605299D01*
Y182200D01*
X610297Y185199D02*
X609298Y184699D01*
X608298Y183700D01*
Y182700D01*
X608798Y182200D01*
X609798D01*
X610297Y182700D01*
Y183200D01*
X609798Y183700D01*
X608298D01*
X562800Y197599D02*
X564799D01*
X563800D01*
Y194600D01*
X565799Y197599D02*
Y194600D01*
Y196099D01*
X567798D01*
Y197599D01*
Y194600D01*
X570797Y197599D02*
X568798D01*
Y194600D01*
X570797D01*
X568798Y196099D02*
X569798D01*
X571797Y194600D02*
Y197599D01*
X573297D01*
X573796Y197099D01*
Y196099D01*
X573297Y195600D01*
X571797D01*
X572797D02*
X573796Y194600D01*
X574796D02*
Y197599D01*
X575796Y196599D01*
X576795Y197599D01*
Y194600D01*
X577795D02*
X578795D01*
X578295D01*
Y197599D01*
X577795Y197099D01*
X603100Y189299D02*
X605099D01*
X604100D01*
Y186300D01*
X606099Y189299D02*
Y186300D01*
Y187800D01*
X608098D01*
Y189299D01*
Y186300D01*
X611097Y189299D02*
X609098D01*
Y186300D01*
X611097D01*
X609098Y187800D02*
X610098D01*
X612097Y186300D02*
Y189299D01*
X613597D01*
X614096Y188799D01*
Y187800D01*
X613597Y187300D01*
X612097D01*
X613097D02*
X614096Y186300D01*
X615096D02*
Y189299D01*
X616096Y188299D01*
X617096Y189299D01*
Y186300D01*
X620094D02*
X618095D01*
X620094Y188299D01*
Y188799D01*
X619595Y189299D01*
X618595D01*
X618095Y188799D01*
X604200Y193599D02*
X606199D01*
X605200D01*
Y190600D01*
X607199D02*
Y192599D01*
X608199Y193599D01*
X609198Y192599D01*
Y190600D01*
Y192099D01*
X607199D01*
X612197Y193099D02*
X611698Y193599D01*
X610698D01*
X610198Y193099D01*
Y191100D01*
X610698Y190600D01*
X611698D01*
X612197Y191100D01*
X613197Y193599D02*
Y190600D01*
Y192099D01*
X615196D01*
Y193599D01*
Y190600D01*
X616196Y190100D02*
X618195D01*
X619195Y193099D02*
X619695Y193599D01*
X620695D01*
X621195Y193099D01*
Y191100D01*
X620695Y190600D01*
X619695D01*
X619195Y191100D01*
Y193099D01*
X606400Y197799D02*
X608399D01*
X607400D01*
Y194800D01*
X609399D02*
Y196799D01*
X610399Y197799D01*
X611398Y196799D01*
Y194800D01*
Y196300D01*
X609399D01*
X614397Y197299D02*
X613898Y197799D01*
X612898D01*
X612398Y197299D01*
Y195300D01*
X612898Y194800D01*
X613898D01*
X614397Y195300D01*
X615397Y197799D02*
Y194800D01*
Y196300D01*
X617396D01*
Y197799D01*
Y194800D01*
X618396Y194300D02*
X620396D01*
X621395Y194800D02*
X622395D01*
X621895D01*
Y197799D01*
X621395Y197299D01*
X602200Y235900D02*
Y238899D01*
X603699D01*
X604199Y238399D01*
Y237400D01*
X603699Y236900D01*
X602200D01*
X605199Y238899D02*
Y235900D01*
Y237400D01*
X607198D01*
Y238899D01*
Y235900D01*
X610197D02*
X608198D01*
X610197Y237899D01*
Y238399D01*
X609698Y238899D01*
X608698D01*
X608198Y238399D01*
X601700Y240100D02*
Y243099D01*
X603199D01*
X603699Y242599D01*
Y241599D01*
X603199Y241100D01*
X601700D01*
X604699Y243099D02*
Y240100D01*
Y241599D01*
X606698D01*
Y243099D01*
Y240100D01*
X609697Y243099D02*
X608698Y242599D01*
X607698Y241599D01*
Y240600D01*
X608198Y240100D01*
X609198D01*
X609697Y240600D01*
Y241100D01*
X609198Y241599D01*
X607698D01*
X547200Y207499D02*
Y204500D01*
X548700D01*
X549199Y205000D01*
Y205500D01*
X548700Y205999D01*
X547200D01*
X548700D01*
X549199Y206499D01*
Y206999D01*
X548700Y207499D01*
X547200D01*
X552198D02*
X550199D01*
Y204500D01*
X552198D01*
X550199Y205999D02*
X551199D01*
X553198Y207499D02*
Y204500D01*
X554698D01*
X555197Y205000D01*
Y206999D01*
X554698Y207499D01*
X553198D01*
X556197Y205999D02*
X558196D01*
X559196Y207499D02*
Y204500D01*
Y205999D01*
X561196D01*
Y207499D01*
Y204500D01*
X564194Y207499D02*
X562195D01*
Y204500D01*
X564194D01*
X562195Y205999D02*
X563195D01*
X565194Y204500D02*
Y206499D01*
X566194Y207499D01*
X567194Y206499D01*
Y204500D01*
Y205999D01*
X565194D01*
X568193Y207499D02*
X570193D01*
X569193D01*
Y204500D01*
X571192Y204000D02*
X573192D01*
X576191Y207499D02*
X574191D01*
Y205999D01*
X575191Y206499D01*
X575691D01*
X576191Y205999D01*
Y205000D01*
X575691Y204500D01*
X574691D01*
X574191Y205000D01*
X577190Y207499D02*
Y205500D01*
X578190Y204500D01*
X579190Y205500D01*
Y207499D01*
X571000Y214200D02*
Y217199D01*
X572500D01*
X572999Y216699D01*
Y215700D01*
X572500Y215200D01*
X571000D01*
X572000D02*
X572999Y214200D01*
X573999Y217199D02*
X575998Y214200D01*
Y217199D02*
X573999Y214200D01*
X578997D02*
X576998D01*
X578997Y216199D01*
Y216699D01*
X578498Y217199D01*
X577498D01*
X576998Y216699D01*
X560955Y220014D02*
X559024Y219497D01*
X559412Y218048D01*
X560378Y218307D01*
X559412Y218048D01*
X559800Y216600D01*
X562697Y217376D02*
X562179Y219307D01*
X562886Y220532D01*
X564111Y219825D01*
X564628Y217894D01*
X564240Y219342D01*
X562309Y218825D01*
X565594Y218152D02*
X564817Y221049D01*
X567525Y218670D01*
X566749Y221567D01*
X568102Y220377D02*
X570034Y220895D01*
X571387Y219705D02*
X572353Y219964D01*
X571870Y219834D01*
X571094Y222731D01*
X570741Y222119D01*
X573931Y219869D02*
X575862Y220386D01*
X577853Y224542D02*
X575922Y224025D01*
X576310Y222576D01*
X577146Y223318D01*
X577629Y223447D01*
X578241Y223094D01*
X578500Y222128D01*
X578147Y221516D01*
X577181Y221257D01*
X576569Y221611D01*
X578819Y224801D02*
X579336Y222870D01*
X580561Y222163D01*
X581268Y223387D01*
X580750Y225318D01*
X571600Y239700D02*
Y242699D01*
X573100D01*
X573599Y242199D01*
Y241199D01*
X573100Y240700D01*
X571600D01*
X576598Y242199D02*
X576098Y242699D01*
X575099D01*
X574599Y242199D01*
Y240200D01*
X575099Y239700D01*
X576098D01*
X576598Y240200D01*
Y241199D01*
X575599D01*
X579098Y239700D02*
Y242699D01*
X577598Y241199D01*
X579597D01*
X573399Y246899D02*
X572899Y247399D01*
X571900D01*
X571400Y246899D01*
Y246399D01*
X571900Y245900D01*
X572899D01*
X573399Y245400D01*
Y244900D01*
X572899Y244400D01*
X571900D01*
X571400Y244900D01*
X576398Y246899D02*
X575899Y247399D01*
X574899D01*
X574399Y246899D01*
Y244900D01*
X574899Y244400D01*
X575899D01*
X576398Y244900D01*
X577398Y247399D02*
Y244400D01*
Y245400D01*
X579397Y247399D01*
X577898Y245900D01*
X579397Y244400D01*
X569300Y254500D02*
Y257499D01*
X570300Y256499D01*
X571299Y257499D01*
Y254500D01*
X573799Y257499D02*
X572799D01*
X572299Y256999D01*
Y255000D01*
X572799Y254500D01*
X573799D01*
X574298Y255000D01*
Y256999D01*
X573799Y257499D01*
X577297Y256999D02*
X576798Y257499D01*
X575798D01*
X575298Y256999D01*
Y256499D01*
X575798Y255999D01*
X576798D01*
X577297Y255500D01*
Y255000D01*
X576798Y254500D01*
X575798D01*
X575298Y255000D01*
X578297Y257499D02*
X579297D01*
X578797D01*
Y254500D01*
X578297D01*
X579297D01*
X556900Y257700D02*
X556383Y259631D01*
X557831Y260019D01*
X558443Y259666D01*
X558831Y258218D01*
X559797Y258476D02*
X559279Y260407D01*
X559986Y261632D01*
X561211Y260925D01*
X561728Y258994D01*
X561340Y260442D01*
X559409Y259925D01*
X563978Y262184D02*
X563366Y262537D01*
X562400Y262279D01*
X562047Y261666D01*
X562564Y259735D01*
X563176Y259382D01*
X564142Y259641D01*
X564496Y260253D01*
X565720Y259546D02*
X567651Y260063D01*
X569642Y264219D02*
X567711Y263702D01*
X568099Y262253D01*
X569065Y262512D01*
X568099Y262253D01*
X568487Y260805D01*
X571384Y261581D02*
X570867Y263512D01*
X571574Y264737D01*
X572798Y264030D01*
X573315Y262099D01*
X572927Y263547D01*
X570996Y263030D01*
X573505Y265254D02*
X574152Y262840D01*
X574764Y262487D01*
X575730Y262745D01*
X576083Y263357D01*
X575436Y265772D01*
X576402Y266030D02*
X577178Y263133D01*
X579109Y263651D01*
X579298Y266807D02*
X581230Y267324D01*
X580264Y267065D01*
X581040Y264168D01*
X601700Y243900D02*
Y246899D01*
X603199D01*
X603699Y246399D01*
Y245399D01*
X603199Y244900D01*
X601700D01*
X606698Y246399D02*
X606199Y246899D01*
X605199D01*
X604699Y246399D01*
Y244400D01*
X605199Y243900D01*
X606199D01*
X606698Y244400D01*
Y245399D01*
X605699D01*
X607698Y246399D02*
X608198Y246899D01*
X609198D01*
X609697Y246399D01*
Y245899D01*
X609198Y245399D01*
X608698D01*
X609198D01*
X609697Y244900D01*
Y244400D01*
X609198Y243900D01*
X608198D01*
X607698Y244400D01*
X602800Y254500D02*
Y256499D01*
X604299D01*
X604799Y255999D01*
Y254500D01*
X605799D02*
Y257499D01*
X607299D01*
X607798Y256999D01*
Y255999D01*
X607299Y255500D01*
X605799D01*
X606799D02*
X607798Y254500D01*
X610797Y257499D02*
X608798D01*
Y254500D01*
X610797D01*
X608798Y255999D02*
X609798D01*
X613796Y256999D02*
X613297Y257499D01*
X612297D01*
X611797Y256999D01*
Y256499D01*
X612297Y255999D01*
X613297D01*
X613796Y255500D01*
Y255000D01*
X613297Y254500D01*
X612297D01*
X611797Y255000D01*
X616795Y257499D02*
X614796D01*
Y254500D01*
X616795D01*
X614796Y255999D02*
X615796D01*
X617795Y257499D02*
X619795D01*
X618795D01*
Y254500D01*
X602300Y267499D02*
X604299D01*
Y266999D01*
X602300Y265000D01*
Y264500D01*
X604299D01*
X605299Y264000D02*
X607298D01*
X608298Y264500D02*
Y267499D01*
X609298Y266499D01*
X610297Y267499D01*
Y264500D01*
X611297Y267499D02*
X612297D01*
X611797D01*
Y264500D01*
X611297D01*
X612297D01*
X613796D02*
Y267499D01*
X615796Y264500D01*
Y267499D01*
X602100Y277099D02*
Y276599D01*
X603100Y275600D01*
X604099Y276599D01*
Y277099D01*
X603100Y275600D02*
Y274100D01*
X605099Y273600D02*
X607098D01*
X608098Y274100D02*
Y277099D01*
X609098Y276099D01*
X610097Y277099D01*
Y274100D01*
X611097Y277099D02*
X612097D01*
X611597D01*
Y274100D01*
X611097D01*
X612097D01*
X613596D02*
Y277099D01*
X615596Y274100D01*
Y277099D01*
X604499Y286399D02*
X604000Y286899D01*
X603000D01*
X602500Y286399D01*
Y284400D01*
X603000Y283900D01*
X604000D01*
X604499Y284400D01*
Y285400D01*
X603500D01*
X605499Y283900D02*
Y286899D01*
X607498Y283900D01*
Y286899D01*
X608498D02*
Y283900D01*
X609998D01*
X610497Y284400D01*
Y286399D01*
X609998Y286899D01*
X608498D01*
X604699Y291799D02*
X604200Y292299D01*
X603200D01*
X602700Y291799D01*
Y289800D01*
X603200Y289300D01*
X604200D01*
X604699Y289800D01*
Y290799D01*
X603700D01*
X605699Y289300D02*
Y292299D01*
X607698Y289300D01*
Y292299D01*
X608698D02*
Y289300D01*
X610198D01*
X610697Y289800D01*
Y291799D01*
X610198Y292299D01*
X608698D01*
X572299Y286799D02*
X571800Y287299D01*
X570800D01*
X570300Y286799D01*
Y284800D01*
X570800Y284300D01*
X571800D01*
X572299Y284800D01*
Y285800D01*
X571300D01*
X573299Y284300D02*
Y287299D01*
X575298Y284300D01*
Y287299D01*
X576298D02*
Y284300D01*
X577798D01*
X578297Y284800D01*
Y286799D01*
X577798Y287299D01*
X576298D01*
X572499Y296899D02*
X572000Y297399D01*
X571000D01*
X570500Y296899D01*
Y294900D01*
X571000Y294400D01*
X572000D01*
X572499Y294900D01*
Y295900D01*
X571500D01*
X573499Y294400D02*
Y297399D01*
X575498Y294400D01*
Y297399D01*
X576498D02*
Y294400D01*
X577998D01*
X578497Y294900D01*
Y296899D01*
X577998Y297399D01*
X576498D01*
X567724Y272597D02*
X570431Y270217D01*
X569655Y273114D02*
X568500Y269700D01*
X571526Y269993D02*
X573457Y270511D01*
X574294Y271252D02*
X573518Y274149D01*
X574742Y273442D01*
X575449Y274667D01*
X576225Y271770D01*
X576414Y274925D02*
X577380Y275184D01*
X576897Y275055D01*
X577673Y272158D01*
X577190Y272029D01*
X578156Y272287D01*
X579605Y272675D02*
X578828Y275572D01*
X581536Y273193D01*
X580760Y276090D01*
X548499Y237699D02*
X546500D01*
Y236199D01*
X547500D01*
X546500D01*
Y234700D01*
X549499D02*
Y236699D01*
X550499Y237699D01*
X551498Y236699D01*
Y234700D01*
Y236199D01*
X549499D01*
X552498Y234700D02*
Y237699D01*
X554497Y234700D01*
Y237699D01*
X555497Y236199D02*
X557496D01*
X558496Y237199D02*
X558996Y237699D01*
X559996D01*
X560496Y237199D01*
Y235200D01*
X559996Y234700D01*
X558996D01*
X558496Y235200D01*
Y237199D01*
X561495Y234200D02*
X563494D01*
X566494Y237699D02*
X564494D01*
Y236199D01*
X565494Y236699D01*
X565994D01*
X566494Y236199D01*
Y235200D01*
X565994Y234700D01*
X564994D01*
X564494Y235200D01*
X567493Y237699D02*
Y235700D01*
X568493Y234700D01*
X569493Y235700D01*
Y237699D01*
X506700Y237799D02*
X508699D01*
X507700D01*
Y234800D01*
X509699Y237799D02*
Y234800D01*
Y236299D01*
X511698D01*
Y237799D01*
Y234800D01*
X514697Y237799D02*
X512698D01*
Y234800D01*
X514697D01*
X512698Y236299D02*
X513698D01*
X515697Y234800D02*
Y237799D01*
X517197D01*
X517696Y237299D01*
Y236299D01*
X517197Y235800D01*
X515697D01*
X516697D02*
X517696Y234800D01*
X518696D02*
Y237799D01*
X519696Y236799D01*
X520695Y237799D01*
Y234800D01*
X521695Y237299D02*
X522195Y237799D01*
X523195D01*
X523695Y237299D01*
Y235300D01*
X523195Y234800D01*
X522195D01*
X521695Y235300D01*
Y237299D01*
X503700Y244300D02*
Y247299D01*
X505199D01*
X505699Y246799D01*
Y245799D01*
X505199Y245300D01*
X503700D01*
X506699Y247299D02*
Y244300D01*
X507699Y245300D01*
X508698Y244300D01*
Y247299D01*
X509698Y244300D02*
Y247299D01*
X511198D01*
X511697Y246799D01*
Y245799D01*
X511198Y245300D01*
X509698D01*
X510698D02*
X511697Y244300D01*
X512697Y243800D02*
X514696D01*
X515696Y244300D02*
Y247299D01*
X516696Y246299D01*
X517696Y247299D01*
Y244300D01*
X520195Y247299D02*
X519195D01*
X518695Y246799D01*
Y244800D01*
X519195Y244300D01*
X520195D01*
X520694Y244800D01*
Y246799D01*
X520195Y247299D01*
X521694Y244300D02*
Y247299D01*
X523694Y244300D01*
Y247299D01*
X546700Y244400D02*
Y247399D01*
X548200D01*
X548699Y246899D01*
Y245900D01*
X548200Y245400D01*
X546700D01*
X549699Y247399D02*
Y244400D01*
Y245900D01*
X551698D01*
Y247399D01*
Y244400D01*
X552698Y247399D02*
X554697D01*
Y246899D01*
X552698Y244900D01*
Y244400D01*
X546900Y254600D02*
Y257599D01*
X548399D01*
X548899Y257099D01*
Y256100D01*
X548399Y255600D01*
X546900D01*
X549899Y257599D02*
Y254600D01*
X551399D01*
X551898Y255100D01*
Y257099D01*
X551399Y257599D01*
X549899D01*
X554897D02*
X552898D01*
Y256100D01*
X553898Y256599D01*
X554398D01*
X554897Y256100D01*
Y255100D01*
X554398Y254600D01*
X553398D01*
X552898Y255100D01*
X515700Y254400D02*
Y257399D01*
X517200D01*
X517699Y256899D01*
Y255900D01*
X517200Y255400D01*
X515700D01*
X520698Y257399D02*
X518699D01*
Y255900D01*
X519699D01*
X518699D01*
Y254400D01*
X521698Y257399D02*
X523697D01*
Y256899D01*
X521698Y254900D01*
Y254400D01*
X510500Y267899D02*
X512499D01*
Y267399D01*
X510500Y265400D01*
Y264900D01*
X512499D01*
X513499Y266400D02*
X515498D01*
X516498Y267899D02*
Y264900D01*
X517998D01*
X518497Y265400D01*
Y267399D01*
X517998Y267899D01*
X516498D01*
X519497D02*
X520497D01*
X519997D01*
Y264900D01*
X519497D01*
X520497D01*
X521996D02*
Y267899D01*
X523496D01*
X523996Y267399D01*
Y266400D01*
X523496Y265900D01*
X521996D01*
X522996D02*
X523996Y264900D01*
X498000Y277599D02*
Y274600D01*
Y276099D01*
X499999D01*
Y277599D01*
Y274600D01*
X502998Y277599D02*
X500999D01*
Y274600D01*
X502998D01*
X500999Y276099D02*
X501999D01*
X503998Y274600D02*
Y276599D01*
X504998Y277599D01*
X505997Y276599D01*
Y274600D01*
Y276099D01*
X503998D01*
X506997Y277599D02*
X508996D01*
X507997D01*
Y274600D01*
X509996Y276099D02*
X511996D01*
X512995Y277099D02*
X513495Y277599D01*
X514495D01*
X514994Y277099D01*
Y275100D01*
X514495Y274600D01*
X513495D01*
X512995Y275100D01*
Y277099D01*
X515994Y274100D02*
X517993D01*
X520993Y277599D02*
X518993D01*
Y276099D01*
X519993Y276599D01*
X520493D01*
X520993Y276099D01*
Y275100D01*
X520493Y274600D01*
X519493D01*
X518993Y275100D01*
X521992Y277599D02*
Y275600D01*
X522992Y274600D01*
X523992Y275600D01*
Y277599D01*
X516000Y287699D02*
X517999D01*
X517000D01*
Y284700D01*
X518999Y287699D02*
X520998Y284700D01*
Y287699D02*
X518999Y284700D01*
X523997D02*
X521998D01*
X523997Y286699D01*
Y287199D01*
X523498Y287699D01*
X522498D01*
X521998Y287199D01*
X518099Y297299D02*
X517599Y297799D01*
X516600D01*
X516100Y297299D01*
Y295300D01*
X516600Y294800D01*
X517599D01*
X518099Y295300D01*
Y296300D01*
X517100D01*
X519099Y294800D02*
Y297799D01*
X521098Y294800D01*
Y297799D01*
X522098D02*
Y294800D01*
X523598D01*
X524097Y295300D01*
Y297299D01*
X523598Y297799D01*
X522098D01*
X548999Y297399D02*
X548499Y297899D01*
X547500D01*
X547000Y297399D01*
Y295400D01*
X547500Y294900D01*
X548499D01*
X548999Y295400D01*
Y296399D01*
X548000D01*
X549999Y294900D02*
Y297899D01*
X551998Y294900D01*
Y297899D01*
X552998D02*
Y294900D01*
X554498D01*
X554997Y295400D01*
Y297399D01*
X554498Y297899D01*
X552998D01*
X545000Y286300D02*
X544483Y288231D01*
X545189Y289456D01*
X546414Y288749D01*
X546931Y286818D01*
X546543Y288266D01*
X544612Y287748D01*
X549181Y290008D02*
X548569Y290361D01*
X547603Y290102D01*
X547250Y289490D01*
X547767Y287559D01*
X548380Y287206D01*
X549345Y287464D01*
X549699Y288076D01*
X550017Y290749D02*
X551949Y291267D01*
X550983Y291008D01*
X551759Y288111D01*
X552914Y291526D02*
X553880Y291784D01*
X553397Y291655D01*
X554173Y288758D01*
X553690Y288629D01*
X554656Y288887D01*
X555328Y292172D02*
X555846Y290241D01*
X557070Y289534D01*
X557777Y290758D01*
X557260Y292690D01*
X560156Y293466D02*
X558225Y292949D01*
X559001Y290052D01*
X560933Y290569D01*
X558613Y291500D02*
X559579Y291759D01*
X544324Y279197D02*
X546255Y279714D01*
X546384Y279232D01*
X544971Y276783D01*
X545100Y276300D01*
X547031Y276817D01*
X548126Y276593D02*
X550057Y277111D01*
X550117Y280749D02*
X552049Y281267D01*
X551083Y281008D01*
X551859Y278111D01*
X553014Y281525D02*
X553791Y278629D01*
X553402Y280077D01*
X555334Y280594D01*
X554946Y282043D01*
X555722Y279146D01*
X557842Y282819D02*
X555911Y282302D01*
X556687Y279405D01*
X558619Y279922D01*
X556299Y280853D02*
X557265Y281112D01*
X559584Y280181D02*
X558808Y283078D01*
X560256Y283466D01*
X560869Y283113D01*
X561127Y282147D01*
X560774Y281535D01*
X559326Y281147D01*
X560291Y281405D02*
X561515Y280698D01*
X562481Y280957D02*
X561705Y283854D01*
X562929Y283147D01*
X563636Y284371D01*
X564412Y281475D01*
X544900Y266500D02*
X544124Y269397D01*
X545348Y268690D01*
X546055Y269914D01*
X546831Y267018D01*
X547021Y270173D02*
X547986Y270432D01*
X547503Y270302D01*
X548280Y267406D01*
X547797Y267276D01*
X548763Y267535D01*
X551495Y270855D02*
X550883Y271208D01*
X549918Y270949D01*
X549564Y270337D01*
X549693Y269854D01*
X550306Y269501D01*
X551271Y269760D01*
X551883Y269406D01*
X552013Y268923D01*
X551659Y268311D01*
X550694Y268052D01*
X550081Y268406D01*
X553780Y271984D02*
X552814Y271726D01*
X552461Y271113D01*
X552978Y269182D01*
X553590Y268829D01*
X554556Y269087D01*
X554910Y269700D01*
X554392Y271631D01*
X553780Y271984D01*
G54D59*
X5605Y55000D02*
D03*
Y147300D02*
D03*
Y244800D02*
D03*
G54D60*
X8000Y55000D02*
D03*
Y147300D02*
D03*
Y244800D02*
D03*
G54D61*
X3238Y55000D02*
D03*
Y147300D02*
D03*
Y244800D02*
D03*
G54D62*
X16395Y50371D02*
D03*
Y142671D02*
D03*
Y240171D02*
D03*
M02*
