G04*
G04 #@! TF.GenerationSoftware,Altium Limited,Altium Designer,18.1.6 (161)*
G04*
G04 Layer_Physical_Order=4*
G04 Layer_Color=16711680*
%FSLAX25Y25*%
%MOIN*%
G70*
G01*
G75*
%ADD20C,0.00700*%
%ADD62C,0.05400*%
%ADD79C,0.06000*%
%ADD91C,0.02000*%
%ADD93C,0.06496*%
%ADD120C,0.07500*%
%ADD122C,0.02500*%
%ADD127C,0.05000*%
%ADD128C,0.13050*%
%ADD129R,0.05906X0.05906*%
%ADD130C,0.05906*%
%ADD131C,0.15000*%
%ADD132R,0.08250X0.16500*%
%ADD133O,0.08250X0.16500*%
%ADD134R,0.05906X0.05906*%
%ADD135C,0.02200*%
%ADD136C,0.03000*%
G36*
X631900Y600D02*
X600D01*
Y322200D01*
X631900D01*
Y600D01*
D02*
G37*
%LPC*%
G36*
X480700Y319485D02*
Y318300D01*
X481885D01*
X481848Y318483D01*
X481462Y319062D01*
X480883Y319448D01*
X480700Y319485D01*
D02*
G37*
G36*
X479700D02*
X479517Y319448D01*
X478938Y319062D01*
X478551Y318483D01*
X478515Y318300D01*
X479700D01*
Y319485D01*
D02*
G37*
G36*
X40500D02*
Y318300D01*
X41685D01*
X41649Y318483D01*
X41262Y319062D01*
X40683Y319448D01*
X40500Y319485D01*
D02*
G37*
G36*
X39500D02*
X39317Y319448D01*
X38738Y319062D01*
X38352Y318483D01*
X38315Y318300D01*
X39500D01*
Y319485D01*
D02*
G37*
G36*
X41685Y317300D02*
X40500D01*
Y316115D01*
X40683Y316151D01*
X41262Y316538D01*
X41649Y317117D01*
X41685Y317300D01*
D02*
G37*
G36*
X39500D02*
X38315D01*
X38352Y317117D01*
X38738Y316538D01*
X39317Y316151D01*
X39500Y316115D01*
Y317300D01*
D02*
G37*
G36*
X481885D02*
X480700D01*
Y316115D01*
X480883Y316151D01*
X481462Y316538D01*
X481848Y317117D01*
X481885Y317300D01*
D02*
G37*
G36*
X479700D02*
X478515D01*
X478551Y317117D01*
X478938Y316538D01*
X479517Y316151D01*
X479700Y316115D01*
Y317300D01*
D02*
G37*
G36*
X487700Y316485D02*
Y315300D01*
X488885D01*
X488848Y315483D01*
X488462Y316062D01*
X487883Y316448D01*
X487700Y316485D01*
D02*
G37*
G36*
X486700D02*
X486517Y316448D01*
X485938Y316062D01*
X485552Y315483D01*
X485515Y315300D01*
X486700D01*
Y316485D01*
D02*
G37*
G36*
X473700D02*
Y315300D01*
X474885D01*
X474849Y315483D01*
X474462Y316062D01*
X473883Y316448D01*
X473700Y316485D01*
D02*
G37*
G36*
X472700D02*
X472517Y316448D01*
X471938Y316062D01*
X471552Y315483D01*
X471515Y315300D01*
X472700D01*
Y316485D01*
D02*
G37*
G36*
X47500D02*
Y315300D01*
X48685D01*
X48649Y315483D01*
X48262Y316062D01*
X47683Y316448D01*
X47500Y316485D01*
D02*
G37*
G36*
X46500D02*
X46317Y316448D01*
X45738Y316062D01*
X45351Y315483D01*
X45315Y315300D01*
X46500D01*
Y316485D01*
D02*
G37*
G36*
X33500D02*
Y315300D01*
X34685D01*
X34648Y315483D01*
X34262Y316062D01*
X33683Y316448D01*
X33500Y316485D01*
D02*
G37*
G36*
X32500D02*
X32317Y316448D01*
X31738Y316062D01*
X31352Y315483D01*
X31315Y315300D01*
X32500D01*
Y316485D01*
D02*
G37*
G36*
X488885Y314300D02*
X487700D01*
Y313115D01*
X487883Y313152D01*
X488462Y313538D01*
X488848Y314117D01*
X488885Y314300D01*
D02*
G37*
G36*
X486700D02*
X485515D01*
X485552Y314117D01*
X485938Y313538D01*
X486517Y313152D01*
X486700Y313115D01*
Y314300D01*
D02*
G37*
G36*
X474885D02*
X473700D01*
Y313115D01*
X473883Y313152D01*
X474462Y313538D01*
X474849Y314117D01*
X474885Y314300D01*
D02*
G37*
G36*
X472700D02*
X471515D01*
X471552Y314117D01*
X471938Y313538D01*
X472517Y313152D01*
X472700Y313115D01*
Y314300D01*
D02*
G37*
G36*
X48685D02*
X47500D01*
Y313115D01*
X47683Y313152D01*
X48262Y313538D01*
X48649Y314117D01*
X48685Y314300D01*
D02*
G37*
G36*
X46500D02*
X45315D01*
X45351Y314117D01*
X45738Y313538D01*
X46317Y313152D01*
X46500Y313115D01*
Y314300D01*
D02*
G37*
G36*
X34685D02*
X33500D01*
Y313115D01*
X33683Y313152D01*
X34262Y313538D01*
X34648Y314117D01*
X34685Y314300D01*
D02*
G37*
G36*
X32500D02*
X31315D01*
X31352Y314117D01*
X31738Y313538D01*
X32317Y313152D01*
X32500Y313115D01*
Y314300D01*
D02*
G37*
G36*
X490700Y309485D02*
Y308300D01*
X491885D01*
X491849Y308483D01*
X491462Y309062D01*
X490883Y309449D01*
X490700Y309485D01*
D02*
G37*
G36*
X489700D02*
X489517Y309449D01*
X488938Y309062D01*
X488552Y308483D01*
X488515Y308300D01*
X489700D01*
Y309485D01*
D02*
G37*
G36*
X470700D02*
Y308300D01*
X471885D01*
X471848Y308483D01*
X471462Y309062D01*
X470883Y309449D01*
X470700Y309485D01*
D02*
G37*
G36*
X469700D02*
X469517Y309449D01*
X468938Y309062D01*
X468551Y308483D01*
X468515Y308300D01*
X469700D01*
Y309485D01*
D02*
G37*
G36*
X50500D02*
Y308300D01*
X51685D01*
X51648Y308483D01*
X51262Y309062D01*
X50683Y309449D01*
X50500Y309485D01*
D02*
G37*
G36*
X49500D02*
X49317Y309449D01*
X48738Y309062D01*
X48351Y308483D01*
X48315Y308300D01*
X49500D01*
Y309485D01*
D02*
G37*
G36*
X30500D02*
Y308300D01*
X31685D01*
X31648Y308483D01*
X31262Y309062D01*
X30683Y309449D01*
X30500Y309485D01*
D02*
G37*
G36*
X29500D02*
X29317Y309449D01*
X28738Y309062D01*
X28352Y308483D01*
X28315Y308300D01*
X29500D01*
Y309485D01*
D02*
G37*
G36*
X491885Y307300D02*
X490700D01*
Y306115D01*
X490883Y306152D01*
X491462Y306538D01*
X491849Y307117D01*
X491885Y307300D01*
D02*
G37*
G36*
X489700D02*
X488515D01*
X488552Y307117D01*
X488938Y306538D01*
X489517Y306152D01*
X489700Y306115D01*
Y307300D01*
D02*
G37*
G36*
X471885D02*
X470700D01*
Y306115D01*
X470883Y306152D01*
X471462Y306538D01*
X471848Y307117D01*
X471885Y307300D01*
D02*
G37*
G36*
X469700D02*
X468515D01*
X468551Y307117D01*
X468938Y306538D01*
X469517Y306152D01*
X469700Y306115D01*
Y307300D01*
D02*
G37*
G36*
X51685D02*
X50500D01*
Y306115D01*
X50683Y306152D01*
X51262Y306538D01*
X51648Y307117D01*
X51685Y307300D01*
D02*
G37*
G36*
X49500D02*
X48315D01*
X48351Y307117D01*
X48738Y306538D01*
X49317Y306152D01*
X49500Y306115D01*
Y307300D01*
D02*
G37*
G36*
X31685D02*
X30500D01*
Y306115D01*
X30683Y306152D01*
X31262Y306538D01*
X31648Y307117D01*
X31685Y307300D01*
D02*
G37*
G36*
X29500D02*
X28315D01*
X28352Y307117D01*
X28738Y306538D01*
X29317Y306152D01*
X29500Y306115D01*
Y307300D01*
D02*
G37*
G36*
X487700Y302485D02*
Y301300D01*
X488885D01*
X488848Y301483D01*
X488462Y302062D01*
X487883Y302449D01*
X487700Y302485D01*
D02*
G37*
G36*
X486700D02*
X486517Y302449D01*
X485938Y302062D01*
X485552Y301483D01*
X485515Y301300D01*
X486700D01*
Y302485D01*
D02*
G37*
G36*
X473700D02*
Y301300D01*
X474885D01*
X474849Y301483D01*
X474462Y302062D01*
X473883Y302449D01*
X473700Y302485D01*
D02*
G37*
G36*
X472700D02*
X472517Y302449D01*
X471938Y302062D01*
X471552Y301483D01*
X471515Y301300D01*
X472700D01*
Y302485D01*
D02*
G37*
G36*
X47500D02*
Y301300D01*
X48685D01*
X48649Y301483D01*
X48262Y302062D01*
X47683Y302449D01*
X47500Y302485D01*
D02*
G37*
G36*
X46500D02*
X46317Y302449D01*
X45738Y302062D01*
X45351Y301483D01*
X45315Y301300D01*
X46500D01*
Y302485D01*
D02*
G37*
G36*
X33500D02*
Y301300D01*
X34685D01*
X34648Y301483D01*
X34262Y302062D01*
X33683Y302449D01*
X33500Y302485D01*
D02*
G37*
G36*
X32500D02*
X32317Y302449D01*
X31738Y302062D01*
X31352Y301483D01*
X31315Y301300D01*
X32500D01*
Y302485D01*
D02*
G37*
G36*
X480200Y314739D02*
X478846Y314606D01*
X477545Y314211D01*
X476345Y313569D01*
X475293Y312707D01*
X474431Y311655D01*
X473789Y310455D01*
X473394Y309154D01*
X473261Y307800D01*
X473394Y306446D01*
X473789Y305145D01*
X474431Y303945D01*
X475293Y302893D01*
X476345Y302030D01*
X477545Y301389D01*
X478846Y300994D01*
X480200Y300861D01*
X481554Y300994D01*
X482855Y301389D01*
X484055Y302030D01*
X485107Y302893D01*
X485969Y303945D01*
X486611Y305145D01*
X487006Y306446D01*
X487139Y307800D01*
X487006Y309154D01*
X486611Y310455D01*
X485969Y311655D01*
X485107Y312707D01*
X484055Y313569D01*
X482855Y314211D01*
X481554Y314606D01*
X480200Y314739D01*
D02*
G37*
G36*
X40000D02*
X38646Y314606D01*
X37345Y314211D01*
X36145Y313569D01*
X35093Y312707D01*
X34231Y311655D01*
X33589Y310455D01*
X33194Y309154D01*
X33061Y307800D01*
X33194Y306446D01*
X33589Y305145D01*
X34231Y303945D01*
X35093Y302893D01*
X36145Y302030D01*
X37345Y301389D01*
X38646Y300994D01*
X40000Y300861D01*
X41354Y300994D01*
X42655Y301389D01*
X43855Y302030D01*
X44907Y302893D01*
X45770Y303945D01*
X46411Y305145D01*
X46806Y306446D01*
X46939Y307800D01*
X46806Y309154D01*
X46411Y310455D01*
X45770Y311655D01*
X44907Y312707D01*
X43855Y313569D01*
X42655Y314211D01*
X41354Y314606D01*
X40000Y314739D01*
D02*
G37*
G36*
X48685Y300300D02*
X47500D01*
Y299115D01*
X47683Y299151D01*
X48262Y299538D01*
X48649Y300117D01*
X48685Y300300D01*
D02*
G37*
G36*
X46500D02*
X45315D01*
X45351Y300117D01*
X45738Y299538D01*
X46317Y299151D01*
X46500Y299115D01*
Y300300D01*
D02*
G37*
G36*
X34685D02*
X33500D01*
Y299115D01*
X33683Y299151D01*
X34262Y299538D01*
X34648Y300117D01*
X34685Y300300D01*
D02*
G37*
G36*
X32500D02*
X31315D01*
X31352Y300117D01*
X31738Y299538D01*
X32317Y299151D01*
X32500Y299115D01*
Y300300D01*
D02*
G37*
G36*
X488885D02*
X487700D01*
Y299115D01*
X487883Y299151D01*
X488462Y299538D01*
X488848Y300117D01*
X488885Y300300D01*
D02*
G37*
G36*
X486700D02*
X485515D01*
X485552Y300117D01*
X485938Y299538D01*
X486517Y299151D01*
X486700Y299115D01*
Y300300D01*
D02*
G37*
G36*
X474885D02*
X473700D01*
Y299115D01*
X473883Y299151D01*
X474462Y299538D01*
X474849Y300117D01*
X474885Y300300D01*
D02*
G37*
G36*
X472700D02*
X471515D01*
X471552Y300117D01*
X471938Y299538D01*
X472517Y299151D01*
X472700Y299115D01*
Y300300D01*
D02*
G37*
G36*
X480700Y299485D02*
Y298300D01*
X481885D01*
X481848Y298483D01*
X481462Y299062D01*
X480883Y299448D01*
X480700Y299485D01*
D02*
G37*
G36*
X479700D02*
X479517Y299448D01*
X478938Y299062D01*
X478551Y298483D01*
X478515Y298300D01*
X479700D01*
Y299485D01*
D02*
G37*
G36*
X40500D02*
Y298300D01*
X41685D01*
X41649Y298483D01*
X41262Y299062D01*
X40683Y299448D01*
X40500Y299485D01*
D02*
G37*
G36*
X39500D02*
X39317Y299448D01*
X38738Y299062D01*
X38352Y298483D01*
X38315Y298300D01*
X39500D01*
Y299485D01*
D02*
G37*
G36*
X540838Y299949D02*
Y296528D01*
X544259D01*
X544189Y297060D01*
X543790Y298022D01*
X543157Y298848D01*
X542331Y299481D01*
X541370Y299879D01*
X540838Y299949D01*
D02*
G37*
G36*
X530838D02*
Y296528D01*
X534259D01*
X534189Y297060D01*
X533790Y298022D01*
X533157Y298848D01*
X532331Y299481D01*
X531370Y299879D01*
X530838Y299949D01*
D02*
G37*
G36*
X539838Y299949D02*
X539306Y299879D01*
X538344Y299481D01*
X537519Y298848D01*
X536885Y298022D01*
X536487Y297060D01*
X536417Y296528D01*
X539838D01*
Y299949D01*
D02*
G37*
G36*
X529838D02*
X529306Y299879D01*
X528344Y299481D01*
X527519Y298848D01*
X526885Y298022D01*
X526487Y297060D01*
X526417Y296528D01*
X529838D01*
Y299949D01*
D02*
G37*
G36*
X595995D02*
Y296528D01*
X599416D01*
X599346Y297060D01*
X598948Y298022D01*
X598314Y298848D01*
X597489Y299481D01*
X596527Y299879D01*
X595995Y299949D01*
D02*
G37*
G36*
X585995D02*
Y296528D01*
X589416D01*
X589346Y297060D01*
X588948Y298022D01*
X588314Y298848D01*
X587489Y299481D01*
X586527Y299879D01*
X585995Y299949D01*
D02*
G37*
G36*
X594995D02*
X594463Y299879D01*
X593502Y299481D01*
X592676Y298848D01*
X592043Y298022D01*
X591644Y297060D01*
X591574Y296528D01*
X594995D01*
Y299949D01*
D02*
G37*
G36*
X584995D02*
X584463Y299879D01*
X583502Y299481D01*
X582676Y298848D01*
X582043Y298022D01*
X581644Y297060D01*
X581574Y296528D01*
X584995D01*
Y299949D01*
D02*
G37*
G36*
X481885Y297300D02*
X480700D01*
Y296115D01*
X480883Y296151D01*
X481462Y296538D01*
X481848Y297117D01*
X481885Y297300D01*
D02*
G37*
G36*
X479700D02*
X478515D01*
X478551Y297117D01*
X478938Y296538D01*
X479517Y296151D01*
X479700Y296115D01*
Y297300D01*
D02*
G37*
G36*
X41685D02*
X40500D01*
Y296115D01*
X40683Y296151D01*
X41262Y296538D01*
X41649Y297117D01*
X41685Y297300D01*
D02*
G37*
G36*
X39500D02*
X38315D01*
X38352Y297117D01*
X38738Y296538D01*
X39317Y296151D01*
X39500Y296115D01*
Y297300D01*
D02*
G37*
G36*
X539838Y295528D02*
X536417D01*
X536487Y294997D01*
X536885Y294035D01*
X537519Y293209D01*
X538344Y292576D01*
X539306Y292177D01*
X539838Y292107D01*
Y295528D01*
D02*
G37*
G36*
X529838D02*
X526417D01*
X526487Y294997D01*
X526885Y294035D01*
X527519Y293209D01*
X528344Y292576D01*
X529306Y292177D01*
X529838Y292107D01*
Y295528D01*
D02*
G37*
G36*
X589416Y295528D02*
X585995D01*
Y292107D01*
X586527Y292177D01*
X587489Y292576D01*
X588314Y293209D01*
X588948Y294035D01*
X589346Y294997D01*
X589416Y295528D01*
D02*
G37*
G36*
X599416D02*
X595995D01*
Y292107D01*
X596527Y292177D01*
X597489Y292576D01*
X598314Y293209D01*
X598948Y294035D01*
X599346Y294997D01*
X599416Y295528D01*
D02*
G37*
G36*
X594995D02*
X591574D01*
X591644Y294997D01*
X592043Y294035D01*
X592676Y293209D01*
X593502Y292576D01*
X594463Y292177D01*
X594995Y292107D01*
Y295528D01*
D02*
G37*
G36*
X584995D02*
X581574D01*
X581644Y294997D01*
X582043Y294035D01*
X582676Y293209D01*
X583502Y292576D01*
X584463Y292177D01*
X584995Y292107D01*
Y295528D01*
D02*
G37*
G36*
X534259Y295528D02*
X530838D01*
Y292107D01*
X531370Y292177D01*
X532331Y292576D01*
X533157Y293209D01*
X533790Y294035D01*
X534189Y294997D01*
X534259Y295528D01*
D02*
G37*
G36*
X544259D02*
X540838D01*
Y292107D01*
X541370Y292177D01*
X542331Y292576D01*
X543157Y293209D01*
X543790Y294035D01*
X544189Y294997D01*
X544259Y295528D01*
D02*
G37*
G36*
X595995Y289949D02*
Y286528D01*
X599416D01*
X599346Y287060D01*
X598948Y288022D01*
X598314Y288847D01*
X597489Y289481D01*
X596527Y289879D01*
X595995Y289949D01*
D02*
G37*
G36*
X585995D02*
Y286528D01*
X589416D01*
X589346Y287060D01*
X588948Y288022D01*
X588314Y288847D01*
X587489Y289481D01*
X586527Y289879D01*
X585995Y289949D01*
D02*
G37*
G36*
X594995D02*
X594463Y289879D01*
X593502Y289481D01*
X592676Y288847D01*
X592043Y288022D01*
X591644Y287060D01*
X591574Y286528D01*
X594995D01*
Y289949D01*
D02*
G37*
G36*
X584995D02*
X584463Y289879D01*
X583502Y289481D01*
X582676Y288847D01*
X582043Y288022D01*
X581644Y287060D01*
X581574Y286528D01*
X584995D01*
Y289949D01*
D02*
G37*
G36*
X589416Y285528D02*
X585995D01*
Y282107D01*
X586527Y282177D01*
X587489Y282576D01*
X588314Y283209D01*
X588948Y284035D01*
X589346Y284997D01*
X589416Y285528D01*
D02*
G37*
G36*
X599416D02*
X595995D01*
Y282107D01*
X596527Y282177D01*
X597489Y282576D01*
X598314Y283209D01*
X598948Y284035D01*
X599346Y284997D01*
X599416Y285528D01*
D02*
G37*
G36*
X594995D02*
X591574D01*
X591644Y284997D01*
X592043Y284035D01*
X592676Y283209D01*
X593502Y282576D01*
X594463Y282177D01*
X594995Y282107D01*
Y285528D01*
D02*
G37*
G36*
X584995D02*
X581574D01*
X581644Y284997D01*
X582043Y284035D01*
X582676Y283209D01*
X583502Y282576D01*
X584463Y282177D01*
X584995Y282107D01*
Y285528D01*
D02*
G37*
G36*
X540338Y290015D02*
X539306Y289879D01*
X538344Y289481D01*
X537519Y288847D01*
X536885Y288022D01*
X536487Y287060D01*
X536351Y286028D01*
X536487Y284997D01*
X536885Y284035D01*
X537519Y283209D01*
X538344Y282576D01*
X539306Y282177D01*
X540338Y282042D01*
X541370Y282177D01*
X542331Y282576D01*
X543157Y283209D01*
X543790Y284035D01*
X544189Y284997D01*
X544325Y286028D01*
X544189Y287060D01*
X543790Y288022D01*
X543157Y288847D01*
X542331Y289481D01*
X541370Y289879D01*
X540338Y290015D01*
D02*
G37*
G36*
X530338D02*
X529306Y289879D01*
X528344Y289481D01*
X527519Y288847D01*
X526885Y288022D01*
X526487Y287060D01*
X526351Y286028D01*
X526487Y284997D01*
X526885Y284035D01*
X527519Y283209D01*
X528344Y282576D01*
X529306Y282177D01*
X530338Y282042D01*
X531370Y282177D01*
X532331Y282576D01*
X533157Y283209D01*
X533790Y284035D01*
X534189Y284997D01*
X534325Y286028D01*
X534189Y287060D01*
X533790Y288022D01*
X533157Y288847D01*
X532331Y289481D01*
X531370Y289879D01*
X530338Y290015D01*
D02*
G37*
G36*
X424900Y285192D02*
Y277200D01*
X432892D01*
X432777Y278366D01*
X432291Y279969D01*
X431502Y281445D01*
X430440Y282739D01*
X429145Y283802D01*
X427669Y284591D01*
X426066Y285077D01*
X424900Y285192D01*
D02*
G37*
G36*
X423900D02*
X422734Y285077D01*
X421132Y284591D01*
X419655Y283802D01*
X418361Y282739D01*
X417298Y281445D01*
X416509Y279969D01*
X416023Y278366D01*
X415908Y277200D01*
X423900D01*
Y285192D01*
D02*
G37*
G36*
X100500Y282428D02*
Y273700D01*
X105169D01*
Y277325D01*
X104993Y278663D01*
X104477Y279910D01*
X103655Y280980D01*
X102585Y281802D01*
X101338Y282318D01*
X100500Y282428D01*
D02*
G37*
G36*
X99500D02*
X98662Y282318D01*
X97415Y281802D01*
X96345Y280980D01*
X95523Y279910D01*
X95007Y278663D01*
X94831Y277325D01*
Y273700D01*
X99500D01*
Y282428D01*
D02*
G37*
G36*
X595495Y280015D02*
X594463Y279879D01*
X593502Y279481D01*
X592676Y278848D01*
X592043Y278022D01*
X591644Y277060D01*
X591508Y276028D01*
X591644Y274996D01*
X592043Y274035D01*
X592676Y273209D01*
X593502Y272576D01*
X594463Y272177D01*
X595495Y272042D01*
X596527Y272177D01*
X597489Y272576D01*
X598314Y273209D01*
X598948Y274035D01*
X599346Y274996D01*
X599482Y276028D01*
X599346Y277060D01*
X598948Y278022D01*
X598314Y278848D01*
X597489Y279481D01*
X596527Y279879D01*
X595495Y280015D01*
D02*
G37*
G36*
X585495D02*
X584463Y279879D01*
X583502Y279481D01*
X582676Y278848D01*
X582043Y278022D01*
X581644Y277060D01*
X581508Y276028D01*
X581644Y274996D01*
X582043Y274035D01*
X582676Y273209D01*
X583502Y272576D01*
X584463Y272177D01*
X585495Y272042D01*
X586527Y272177D01*
X587489Y272576D01*
X588314Y273209D01*
X588948Y274035D01*
X589346Y274996D01*
X589482Y276028D01*
X589346Y277060D01*
X588948Y278022D01*
X588314Y278848D01*
X587489Y279481D01*
X586527Y279879D01*
X585495Y280015D01*
D02*
G37*
G36*
X540338D02*
X539306Y279879D01*
X538344Y279481D01*
X537519Y278848D01*
X536885Y278022D01*
X536487Y277060D01*
X536351Y276028D01*
X536487Y274996D01*
X536885Y274035D01*
X537519Y273209D01*
X538344Y272576D01*
X539306Y272177D01*
X540338Y272042D01*
X541370Y272177D01*
X542331Y272576D01*
X543157Y273209D01*
X543790Y274035D01*
X544189Y274996D01*
X544325Y276028D01*
X544189Y277060D01*
X543790Y278022D01*
X543157Y278848D01*
X542331Y279481D01*
X541370Y279879D01*
X540338Y280015D01*
D02*
G37*
G36*
X530338D02*
X529306Y279879D01*
X528344Y279481D01*
X527519Y278848D01*
X526885Y278022D01*
X526487Y277060D01*
X526351Y276028D01*
X526487Y274996D01*
X526885Y274035D01*
X527519Y273209D01*
X528344Y272576D01*
X529306Y272177D01*
X530338Y272042D01*
X531370Y272177D01*
X532331Y272576D01*
X533157Y273209D01*
X533790Y274035D01*
X534189Y274996D01*
X534325Y276028D01*
X534189Y277060D01*
X533790Y278022D01*
X533157Y278848D01*
X532331Y279481D01*
X531370Y279879D01*
X530338Y280015D01*
D02*
G37*
G36*
X432892Y276200D02*
X424900D01*
Y268208D01*
X426066Y268323D01*
X427669Y268809D01*
X429145Y269598D01*
X430440Y270660D01*
X431502Y271955D01*
X432291Y273431D01*
X432777Y275034D01*
X432892Y276200D01*
D02*
G37*
G36*
X423900D02*
X415908D01*
X416023Y275034D01*
X416509Y273431D01*
X417298Y271955D01*
X418361Y270660D01*
X419655Y269598D01*
X421132Y268809D01*
X422734Y268323D01*
X423900Y268208D01*
Y276200D01*
D02*
G37*
G36*
X105169Y272700D02*
X100500D01*
Y263972D01*
X101338Y264082D01*
X102585Y264598D01*
X103655Y265420D01*
X104477Y266490D01*
X104993Y267737D01*
X105169Y269075D01*
Y272700D01*
D02*
G37*
G36*
X99500D02*
X94831D01*
Y269075D01*
X95007Y267737D01*
X95523Y266490D01*
X96345Y265420D01*
X97415Y264598D01*
X98662Y264082D01*
X99500Y263972D01*
Y272700D01*
D02*
G37*
G36*
X85125Y282450D02*
X74875D01*
Y263950D01*
X85125D01*
Y282450D01*
D02*
G37*
G36*
X595495Y270015D02*
X594463Y269879D01*
X593502Y269481D01*
X592676Y268847D01*
X592043Y268022D01*
X591644Y267060D01*
X591508Y266028D01*
X591644Y264997D01*
X592043Y264035D01*
X592676Y263209D01*
X593502Y262576D01*
X594463Y262177D01*
X595495Y262041D01*
X596527Y262177D01*
X597489Y262576D01*
X598314Y263209D01*
X598948Y264035D01*
X599346Y264997D01*
X599482Y266028D01*
X599346Y267060D01*
X598948Y268022D01*
X598314Y268847D01*
X597489Y269481D01*
X596527Y269879D01*
X595495Y270015D01*
D02*
G37*
G36*
X585495D02*
X584463Y269879D01*
X583502Y269481D01*
X582676Y268847D01*
X582043Y268022D01*
X581644Y267060D01*
X581508Y266028D01*
X581644Y264997D01*
X582043Y264035D01*
X582676Y263209D01*
X583502Y262576D01*
X584463Y262177D01*
X585495Y262041D01*
X586527Y262177D01*
X587489Y262576D01*
X588314Y263209D01*
X588948Y264035D01*
X589346Y264997D01*
X589482Y266028D01*
X589346Y267060D01*
X588948Y268022D01*
X588314Y268847D01*
X587489Y269481D01*
X586527Y269879D01*
X585495Y270015D01*
D02*
G37*
G36*
X540338D02*
X539306Y269879D01*
X538344Y269481D01*
X537519Y268847D01*
X536885Y268022D01*
X536487Y267060D01*
X536351Y266028D01*
X536487Y264997D01*
X536885Y264035D01*
X537519Y263209D01*
X538344Y262576D01*
X539306Y262177D01*
X540338Y262041D01*
X541370Y262177D01*
X542331Y262576D01*
X543157Y263209D01*
X543790Y264035D01*
X544189Y264997D01*
X544325Y266028D01*
X544189Y267060D01*
X543790Y268022D01*
X543157Y268847D01*
X542331Y269481D01*
X541370Y269879D01*
X540338Y270015D01*
D02*
G37*
G36*
X530338D02*
X529306Y269879D01*
X528344Y269481D01*
X527519Y268847D01*
X526885Y268022D01*
X526487Y267060D01*
X526351Y266028D01*
X526487Y264997D01*
X526885Y264035D01*
X527519Y263209D01*
X528344Y262576D01*
X529306Y262177D01*
X530338Y262041D01*
X531370Y262177D01*
X532331Y262576D01*
X533157Y263209D01*
X533790Y264035D01*
X534189Y264997D01*
X534325Y266028D01*
X534189Y267060D01*
X533790Y268022D01*
X533157Y268847D01*
X532331Y269481D01*
X531370Y269879D01*
X530338Y270015D01*
D02*
G37*
G36*
X57700Y293420D02*
X21700D01*
X21310Y293342D01*
X20979Y293121D01*
X20758Y292790D01*
X20680Y292400D01*
X20680Y256276D01*
X20180Y256106D01*
X19888Y256488D01*
X19491Y256885D01*
Y263950D01*
X19825D01*
Y282450D01*
X9575D01*
Y263950D01*
X9909D01*
Y254900D01*
X10072Y253660D01*
X10551Y252504D01*
X11312Y251512D01*
X11709Y251115D01*
Y229599D01*
X11522Y229319D01*
X11359Y228500D01*
X11522Y227681D01*
X11709Y227400D01*
Y201985D01*
X11312Y201588D01*
X10551Y200595D01*
X10072Y199440D01*
X9909Y198200D01*
Y184950D01*
X9575D01*
Y166450D01*
X9909D01*
Y142700D01*
X10072Y141460D01*
X10551Y140305D01*
X11312Y139312D01*
X11609Y139015D01*
Y131950D01*
X11522Y131819D01*
X11359Y131000D01*
X11522Y130181D01*
X11609Y130050D01*
Y101985D01*
X11312Y101688D01*
X10551Y100696D01*
X10072Y99540D01*
X9909Y98300D01*
Y92650D01*
X9575D01*
Y74150D01*
X9909D01*
Y67200D01*
X10072Y65960D01*
X10551Y64805D01*
X11312Y63812D01*
X11609Y63516D01*
Y39650D01*
X11522Y39519D01*
X11359Y38700D01*
X11522Y37881D01*
X11640Y37703D01*
X11672Y37460D01*
X12151Y36305D01*
X12912Y35312D01*
X13905Y34551D01*
X15060Y34072D01*
X16300Y33909D01*
X17540Y34072D01*
X18696Y34551D01*
X19688Y35312D01*
X19788Y35412D01*
X20549Y36404D01*
X21028Y37560D01*
X21043Y37679D01*
X21178Y37881D01*
X21180Y37889D01*
X21700Y38280D01*
X25277D01*
X25375Y38300D01*
X25476Y38300D01*
X25568Y38338D01*
X25667Y38358D01*
X25750Y38414D01*
X25843Y38452D01*
X25866Y38476D01*
X26378Y38818D01*
X26800Y38902D01*
X27222Y38818D01*
X27733Y38476D01*
X27757Y38452D01*
X27850Y38414D01*
X27933Y38358D01*
X28032Y38338D01*
X28124Y38300D01*
X28225Y38300D01*
X28323Y38280D01*
X30277D01*
X30375Y38300D01*
X30476Y38300D01*
X30568Y38338D01*
X30667Y38358D01*
X30750Y38414D01*
X30843Y38452D01*
X30867Y38476D01*
X31378Y38818D01*
X31800Y38902D01*
X32222Y38818D01*
X32734Y38476D01*
X32757Y38452D01*
X32850Y38414D01*
X32933Y38358D01*
X33032Y38338D01*
X33124Y38300D01*
X33225Y38300D01*
X33323Y38280D01*
X35277D01*
X35375Y38300D01*
X35476Y38300D01*
X35568Y38338D01*
X35667Y38358D01*
X35750Y38414D01*
X35843Y38452D01*
X35866Y38476D01*
X36378Y38818D01*
X36800Y38902D01*
X37222Y38818D01*
X37734Y38476D01*
X37757Y38452D01*
X37850Y38414D01*
X37933Y38358D01*
X38032Y38338D01*
X38124Y38300D01*
X38225Y38300D01*
X38323Y38280D01*
X57700D01*
X58090Y38358D01*
X58421Y38579D01*
X58642Y38910D01*
X58720Y39300D01*
Y127800D01*
X58642Y128190D01*
X58421Y128521D01*
X58090Y128742D01*
X57700Y128820D01*
X21700D01*
X21691Y128818D01*
X21191Y129218D01*
Y130182D01*
X21267Y130295D01*
X21700Y130580D01*
X25277D01*
X25375Y130600D01*
X25476Y130600D01*
X25568Y130638D01*
X25667Y130658D01*
X25750Y130714D01*
X25843Y130752D01*
X25866Y130776D01*
X26378Y131118D01*
X26800Y131202D01*
X27222Y131118D01*
X27733Y130776D01*
X27757Y130752D01*
X27850Y130714D01*
X27933Y130658D01*
X28032Y130638D01*
X28124Y130600D01*
X28225Y130600D01*
X28323Y130580D01*
X30277D01*
X30375Y130600D01*
X30476Y130600D01*
X30568Y130638D01*
X30667Y130658D01*
X30750Y130714D01*
X30843Y130752D01*
X30867Y130776D01*
X31378Y131118D01*
X31800Y131202D01*
X32222Y131118D01*
X32734Y130776D01*
X32757Y130752D01*
X32850Y130714D01*
X32933Y130658D01*
X33032Y130638D01*
X33124Y130600D01*
X33225Y130600D01*
X33323Y130580D01*
X35277D01*
X35375Y130600D01*
X35476Y130600D01*
X35568Y130638D01*
X35667Y130658D01*
X35750Y130714D01*
X35843Y130752D01*
X35866Y130776D01*
X36378Y131118D01*
X36800Y131202D01*
X37222Y131118D01*
X37734Y130776D01*
X37757Y130752D01*
X37850Y130714D01*
X37933Y130658D01*
X38032Y130638D01*
X38124Y130600D01*
X38225Y130600D01*
X38323Y130580D01*
X57700D01*
X58090Y130658D01*
X58421Y130879D01*
X58642Y131210D01*
X58720Y131600D01*
Y167679D01*
X58768Y167744D01*
X59566Y167823D01*
X61169Y168309D01*
X62645Y169098D01*
X63939Y170160D01*
X65002Y171455D01*
X65791Y172931D01*
X66277Y174534D01*
X66392Y175700D01*
X57900D01*
Y176700D01*
X66392D01*
X66277Y177866D01*
X65791Y179469D01*
X65002Y180945D01*
X63939Y182239D01*
X62645Y183302D01*
X61169Y184091D01*
X59566Y184577D01*
X58768Y184656D01*
X58720Y184721D01*
Y220100D01*
X58642Y220490D01*
X58421Y220821D01*
X58090Y221042D01*
X57700Y221120D01*
X21700D01*
X21291Y221548D01*
Y227652D01*
X21700Y228080D01*
X25277D01*
X25375Y228100D01*
X25476Y228100D01*
X25568Y228138D01*
X25667Y228158D01*
X25750Y228214D01*
X25843Y228252D01*
X25866Y228276D01*
X26378Y228618D01*
X26800Y228702D01*
X27222Y228618D01*
X27733Y228276D01*
X27757Y228252D01*
X27850Y228214D01*
X27933Y228158D01*
X28032Y228138D01*
X28124Y228100D01*
X28225Y228100D01*
X28323Y228080D01*
X30277D01*
X30375Y228100D01*
X30476Y228100D01*
X30568Y228138D01*
X30667Y228158D01*
X30750Y228214D01*
X30843Y228252D01*
X30867Y228276D01*
X31378Y228618D01*
X31800Y228702D01*
X32222Y228618D01*
X32734Y228276D01*
X32757Y228252D01*
X32850Y228214D01*
X32933Y228158D01*
X33032Y228138D01*
X33124Y228100D01*
X33225Y228100D01*
X33323Y228080D01*
X35277D01*
X35375Y228100D01*
X35476Y228100D01*
X35568Y228138D01*
X35667Y228158D01*
X35750Y228214D01*
X35843Y228252D01*
X35866Y228276D01*
X36378Y228618D01*
X36800Y228702D01*
X37222Y228618D01*
X37734Y228276D01*
X37757Y228252D01*
X37850Y228214D01*
X37933Y228158D01*
X38032Y228138D01*
X38124Y228100D01*
X38225Y228100D01*
X38323Y228080D01*
X57700D01*
X58090Y228158D01*
X58421Y228379D01*
X58642Y228710D01*
X58720Y229100D01*
X58720Y292400D01*
X58642Y292790D01*
X58421Y293121D01*
X58090Y293342D01*
X57700Y293420D01*
D02*
G37*
G36*
X595495Y260015D02*
X594463Y259879D01*
X593502Y259481D01*
X592676Y258847D01*
X592043Y258022D01*
X591644Y257060D01*
X591508Y256028D01*
X591644Y254996D01*
X592043Y254035D01*
X592676Y253209D01*
X593502Y252576D01*
X594463Y252177D01*
X595495Y252042D01*
X596527Y252177D01*
X597489Y252576D01*
X598314Y253209D01*
X598948Y254035D01*
X599346Y254996D01*
X599482Y256028D01*
X599346Y257060D01*
X598948Y258022D01*
X598314Y258847D01*
X597489Y259481D01*
X596527Y259879D01*
X595495Y260015D01*
D02*
G37*
G36*
X585495D02*
X584463Y259879D01*
X583502Y259481D01*
X582676Y258847D01*
X582043Y258022D01*
X581644Y257060D01*
X581508Y256028D01*
X581644Y254996D01*
X582043Y254035D01*
X582676Y253209D01*
X583502Y252576D01*
X584463Y252177D01*
X585495Y252042D01*
X586527Y252177D01*
X587489Y252576D01*
X588314Y253209D01*
X588948Y254035D01*
X589346Y254996D01*
X589482Y256028D01*
X589346Y257060D01*
X588948Y258022D01*
X588314Y258847D01*
X587489Y259481D01*
X586527Y259879D01*
X585495Y260015D01*
D02*
G37*
G36*
X540338D02*
X539306Y259879D01*
X538344Y259481D01*
X537519Y258847D01*
X536885Y258022D01*
X536487Y257060D01*
X536351Y256028D01*
X536487Y254996D01*
X536885Y254035D01*
X537519Y253209D01*
X538344Y252576D01*
X539306Y252177D01*
X540338Y252042D01*
X541370Y252177D01*
X542331Y252576D01*
X543157Y253209D01*
X543790Y254035D01*
X544189Y254996D01*
X544325Y256028D01*
X544189Y257060D01*
X543790Y258022D01*
X543157Y258847D01*
X542331Y259481D01*
X541370Y259879D01*
X540338Y260015D01*
D02*
G37*
G36*
X530338D02*
X529306Y259879D01*
X528344Y259481D01*
X527519Y258847D01*
X526885Y258022D01*
X526487Y257060D01*
X526351Y256028D01*
X526487Y254996D01*
X526885Y254035D01*
X527519Y253209D01*
X528344Y252576D01*
X529306Y252177D01*
X530338Y252042D01*
X531370Y252177D01*
X532331Y252576D01*
X533157Y253209D01*
X533790Y254035D01*
X534189Y254996D01*
X534325Y256028D01*
X534189Y257060D01*
X533790Y258022D01*
X533157Y258847D01*
X532331Y259481D01*
X531370Y259879D01*
X530338Y260015D01*
D02*
G37*
G36*
X595495Y250015D02*
X594463Y249879D01*
X593502Y249481D01*
X592676Y248848D01*
X592043Y248022D01*
X591644Y247060D01*
X591508Y246028D01*
X591644Y244997D01*
X592043Y244035D01*
X592676Y243209D01*
X593502Y242576D01*
X594463Y242177D01*
X595495Y242041D01*
X596527Y242177D01*
X597489Y242576D01*
X598314Y243209D01*
X598948Y244035D01*
X599346Y244997D01*
X599482Y246028D01*
X599346Y247060D01*
X598948Y248022D01*
X598314Y248848D01*
X597489Y249481D01*
X596527Y249879D01*
X595495Y250015D01*
D02*
G37*
G36*
X585495D02*
X584463Y249879D01*
X583502Y249481D01*
X582676Y248848D01*
X582043Y248022D01*
X581644Y247060D01*
X581508Y246028D01*
X581644Y244997D01*
X582043Y244035D01*
X582676Y243209D01*
X583502Y242576D01*
X584463Y242177D01*
X585495Y242041D01*
X586527Y242177D01*
X587489Y242576D01*
X588314Y243209D01*
X588948Y244035D01*
X589346Y244997D01*
X589482Y246028D01*
X589346Y247060D01*
X588948Y248022D01*
X588314Y248848D01*
X587489Y249481D01*
X586527Y249879D01*
X585495Y250015D01*
D02*
G37*
G36*
X540338D02*
X539306Y249879D01*
X538344Y249481D01*
X537519Y248848D01*
X536885Y248022D01*
X536487Y247060D01*
X536351Y246028D01*
X536487Y244997D01*
X536885Y244035D01*
X537519Y243209D01*
X538344Y242576D01*
X539306Y242177D01*
X540338Y242041D01*
X541370Y242177D01*
X542331Y242576D01*
X543157Y243209D01*
X543790Y244035D01*
X544189Y244997D01*
X544325Y246028D01*
X544189Y247060D01*
X543790Y248022D01*
X543157Y248848D01*
X542331Y249481D01*
X541370Y249879D01*
X540338Y250015D01*
D02*
G37*
G36*
X530338D02*
X529306Y249879D01*
X528344Y249481D01*
X527519Y248848D01*
X526885Y248022D01*
X526487Y247060D01*
X526351Y246028D01*
X526487Y244997D01*
X526885Y244035D01*
X527519Y243209D01*
X528344Y242576D01*
X529306Y242177D01*
X530338Y242041D01*
X531370Y242177D01*
X532331Y242576D01*
X533157Y243209D01*
X533790Y244035D01*
X534189Y244997D01*
X534325Y246028D01*
X534189Y247060D01*
X533790Y248022D01*
X533157Y248848D01*
X532331Y249481D01*
X531370Y249879D01*
X530338Y250015D01*
D02*
G37*
G36*
X599448Y239981D02*
X591542D01*
Y232076D01*
X599448D01*
Y239981D01*
D02*
G37*
G36*
X544290D02*
X536385D01*
Y232076D01*
X544290D01*
Y239981D01*
D02*
G37*
G36*
X585495Y240015D02*
X584463Y239879D01*
X583502Y239481D01*
X582676Y238847D01*
X582043Y238022D01*
X581644Y237060D01*
X581508Y236028D01*
X581644Y234997D01*
X582043Y234035D01*
X582676Y233209D01*
X583502Y232576D01*
X584463Y232177D01*
X585495Y232042D01*
X586527Y232177D01*
X587489Y232576D01*
X588314Y233209D01*
X588948Y234035D01*
X589346Y234997D01*
X589482Y236028D01*
X589346Y237060D01*
X588948Y238022D01*
X588314Y238847D01*
X587489Y239481D01*
X586527Y239879D01*
X585495Y240015D01*
D02*
G37*
G36*
X530338D02*
X529306Y239879D01*
X528344Y239481D01*
X527519Y238847D01*
X526885Y238022D01*
X526487Y237060D01*
X526351Y236028D01*
X526487Y234997D01*
X526885Y234035D01*
X527519Y233209D01*
X528344Y232576D01*
X529306Y232177D01*
X530338Y232042D01*
X531370Y232177D01*
X532331Y232576D01*
X533157Y233209D01*
X533790Y234035D01*
X534189Y234997D01*
X534325Y236028D01*
X534189Y237060D01*
X533790Y238022D01*
X533157Y238847D01*
X532331Y239481D01*
X531370Y239879D01*
X530338Y240015D01*
D02*
G37*
G36*
X626800Y229320D02*
X621505D01*
X621406Y229300D01*
X621306D01*
X621213Y229262D01*
X621115Y229242D01*
X621031Y229186D01*
X620938Y229148D01*
X620867Y229077D01*
X620784Y229021D01*
X620728Y228938D01*
X620657Y228867D01*
X620527Y228673D01*
X620170Y228434D01*
X619748Y228350D01*
X619327Y228434D01*
X618970Y228673D01*
X618840Y228867D01*
X618769Y228938D01*
X618713Y229021D01*
X618630Y229077D01*
X618559Y229148D01*
X618466Y229186D01*
X618382Y229242D01*
X618284Y229262D01*
X618191Y229300D01*
X618091D01*
X617992Y229320D01*
X614996D01*
X614897Y229300D01*
X614797D01*
X614704Y229262D01*
X614605Y229242D01*
X614522Y229186D01*
X614429Y229148D01*
X614358Y229077D01*
X614275Y229021D01*
X614219Y228937D01*
X614148Y228867D01*
X614022Y228678D01*
X613664Y228439D01*
X613243Y228355D01*
X612821Y228439D01*
X612464Y228678D01*
X612338Y228867D01*
X612267Y228938D01*
X612211Y229021D01*
X612128Y229077D01*
X612057Y229148D01*
X611964Y229186D01*
X611881Y229242D01*
X611782Y229262D01*
X611689Y229300D01*
X611589D01*
X611490Y229320D01*
X607800D01*
X607410Y229242D01*
X607079Y229021D01*
X606858Y228690D01*
X606780Y228300D01*
Y228029D01*
X606280Y227618D01*
X605900Y227694D01*
X605022Y227519D01*
X604278Y227022D01*
X600178Y222922D01*
X599681Y222178D01*
X599506Y221300D01*
Y217981D01*
X599006Y217882D01*
X598948Y218022D01*
X598314Y218847D01*
X597489Y219481D01*
X596527Y219879D01*
X595495Y220015D01*
X594463Y219879D01*
X593502Y219481D01*
X592676Y218847D01*
X592043Y218022D01*
X591644Y217060D01*
X591508Y216028D01*
X591644Y214997D01*
X592043Y214035D01*
X592676Y213209D01*
X593502Y212576D01*
X594463Y212177D01*
X595495Y212041D01*
X596527Y212177D01*
X597489Y212576D01*
X598314Y213209D01*
X598948Y214035D01*
X599006Y214175D01*
X599506Y214075D01*
Y207981D01*
X599006Y207882D01*
X598948Y208022D01*
X598314Y208847D01*
X597489Y209481D01*
X596527Y209879D01*
X595495Y210015D01*
X594463Y209879D01*
X593502Y209481D01*
X592676Y208847D01*
X592043Y208022D01*
X591644Y207060D01*
X591508Y206028D01*
X591644Y204996D01*
X592043Y204035D01*
X592676Y203209D01*
X593502Y202576D01*
X594463Y202177D01*
X595495Y202042D01*
X596527Y202177D01*
X597489Y202576D01*
X598314Y203209D01*
X598948Y204035D01*
X599006Y204175D01*
X599506Y204075D01*
Y198000D01*
X599513Y197964D01*
X599032Y197818D01*
X598948Y198022D01*
X598314Y198847D01*
X597489Y199481D01*
X596527Y199879D01*
X595495Y200015D01*
X594463Y199879D01*
X593502Y199481D01*
X592676Y198847D01*
X592043Y198022D01*
X591644Y197060D01*
X591508Y196028D01*
X591644Y194997D01*
X592043Y194035D01*
X592676Y193209D01*
X593502Y192576D01*
X594463Y192177D01*
X595495Y192042D01*
X596527Y192177D01*
X597489Y192576D01*
X598314Y193209D01*
X598948Y194035D01*
X599346Y194997D01*
X599482Y196028D01*
X599402Y196639D01*
X599882Y196820D01*
X600178Y196378D01*
X600922Y195880D01*
X601800Y195706D01*
X602678Y195880D01*
X603422Y196378D01*
X603919Y197122D01*
X604094Y198000D01*
Y220350D01*
X606319Y222574D01*
X606780Y222383D01*
Y214336D01*
X606800Y214238D01*
Y214137D01*
X606838Y214045D01*
X606858Y213946D01*
X606908Y213872D01*
X607002Y213400D01*
X606908Y212928D01*
X606858Y212854D01*
X606838Y212755D01*
X606800Y212663D01*
Y212562D01*
X606780Y212464D01*
Y210800D01*
X606858Y210410D01*
X607079Y210079D01*
X607410Y209858D01*
X607800Y209780D01*
X616110D01*
X616208Y209800D01*
X616308D01*
X616401Y209838D01*
X616500Y209858D01*
X616583Y209914D01*
X616676Y209952D01*
X616747Y210023D01*
X616831Y210079D01*
X616886Y210162D01*
X616957Y210234D01*
X617001Y210299D01*
X617358Y210538D01*
X617780Y210622D01*
X618202Y210538D01*
X618559Y210299D01*
X618603Y210234D01*
X618674Y210162D01*
X618729Y210079D01*
X618813Y210023D01*
X618884Y209952D01*
X618977Y209914D01*
X619060Y209858D01*
X619159Y209838D01*
X619251Y209800D01*
X619352D01*
X619450Y209780D01*
X626800D01*
X627190Y209858D01*
X627521Y210079D01*
X627742Y210410D01*
X627820Y210800D01*
Y214676D01*
X627800Y214775D01*
Y214875D01*
X627762Y214968D01*
X627742Y215066D01*
X627686Y215150D01*
X627648Y215243D01*
X627577Y215314D01*
X627521Y215397D01*
X627437Y215453D01*
X627366Y215524D01*
X627221Y215621D01*
X626982Y215978D01*
X626898Y216400D01*
X626982Y216822D01*
X627221Y217179D01*
X627366Y217276D01*
X627437Y217347D01*
X627521Y217403D01*
X627577Y217486D01*
X627648Y217557D01*
X627686Y217650D01*
X627742Y217734D01*
X627762Y217832D01*
X627800Y217925D01*
Y218025D01*
X627820Y218124D01*
Y228300D01*
X627742Y228690D01*
X627521Y229021D01*
X627190Y229242D01*
X626800Y229320D01*
D02*
G37*
G36*
X595495Y230015D02*
X594463Y229879D01*
X593502Y229481D01*
X592676Y228848D01*
X592043Y228022D01*
X591644Y227060D01*
X591508Y226028D01*
X591644Y224996D01*
X592043Y224035D01*
X592676Y223209D01*
X593502Y222576D01*
X594463Y222177D01*
X595495Y222042D01*
X596527Y222177D01*
X597489Y222576D01*
X598314Y223209D01*
X598948Y224035D01*
X599346Y224996D01*
X599482Y226028D01*
X599346Y227060D01*
X598948Y228022D01*
X598314Y228848D01*
X597489Y229481D01*
X596527Y229879D01*
X595495Y230015D01*
D02*
G37*
G36*
X585495D02*
X584463Y229879D01*
X583502Y229481D01*
X582676Y228848D01*
X582043Y228022D01*
X581644Y227060D01*
X581508Y226028D01*
X581644Y224996D01*
X582043Y224035D01*
X582676Y223209D01*
X583502Y222576D01*
X584463Y222177D01*
X585495Y222042D01*
X586527Y222177D01*
X587489Y222576D01*
X588314Y223209D01*
X588948Y224035D01*
X589346Y224996D01*
X589482Y226028D01*
X589346Y227060D01*
X588948Y228022D01*
X588314Y228848D01*
X587489Y229481D01*
X586527Y229879D01*
X585495Y230015D01*
D02*
G37*
G36*
X465200Y221951D02*
X464168Y221815D01*
X463207Y221416D01*
X462381Y220783D01*
X461747Y219957D01*
X461349Y218996D01*
X461213Y217964D01*
X461349Y216932D01*
X461747Y215970D01*
X462381Y215145D01*
X463207Y214511D01*
X464168Y214113D01*
X465200Y213977D01*
X466232Y214113D01*
X467193Y214511D01*
X468019Y215145D01*
X468653Y215970D01*
X469051Y216932D01*
X469187Y217964D01*
X469051Y218996D01*
X468653Y219957D01*
X468019Y220783D01*
X467193Y221416D01*
X466232Y221815D01*
X465200Y221951D01*
D02*
G37*
G36*
X455200D02*
X454168Y221815D01*
X453207Y221416D01*
X452381Y220783D01*
X451747Y219957D01*
X451349Y218996D01*
X451213Y217964D01*
X451349Y216932D01*
X451747Y215970D01*
X452381Y215145D01*
X453207Y214511D01*
X454168Y214113D01*
X455200Y213977D01*
X456232Y214113D01*
X457193Y214511D01*
X458019Y215145D01*
X458653Y215970D01*
X459051Y216932D01*
X459187Y217964D01*
X459051Y218996D01*
X458653Y219957D01*
X458019Y220783D01*
X457193Y221416D01*
X456232Y221815D01*
X455200Y221951D01*
D02*
G37*
G36*
X445200D02*
X444168Y221815D01*
X443207Y221416D01*
X442381Y220783D01*
X441747Y219957D01*
X441349Y218996D01*
X441213Y217964D01*
X441349Y216932D01*
X441747Y215970D01*
X442381Y215145D01*
X443207Y214511D01*
X444168Y214113D01*
X445200Y213977D01*
X446232Y214113D01*
X447193Y214511D01*
X448019Y215145D01*
X448653Y215970D01*
X449051Y216932D01*
X449187Y217964D01*
X449051Y218996D01*
X448653Y219957D01*
X448019Y220783D01*
X447193Y221416D01*
X446232Y221815D01*
X445200Y221951D01*
D02*
G37*
G36*
X435200D02*
X434168Y221815D01*
X433207Y221416D01*
X432381Y220783D01*
X431747Y219957D01*
X431349Y218996D01*
X431213Y217964D01*
X431349Y216932D01*
X431605Y216315D01*
X429227Y213937D01*
X428928Y213491D01*
X428824Y212964D01*
Y203200D01*
X428928Y202673D01*
X429227Y202227D01*
X431247Y200206D01*
Y194247D01*
X438824D01*
Y131100D01*
X438928Y130573D01*
X439227Y130127D01*
X441851Y127502D01*
X441853Y127498D01*
X441859Y127485D01*
X441864Y127468D01*
X441870Y127444D01*
X441875Y127412D01*
X441877Y127392D01*
X441859Y127300D01*
X442022Y126481D01*
X442486Y125786D01*
X443181Y125322D01*
X444000Y125159D01*
X444819Y125322D01*
X445514Y125786D01*
X445978Y126481D01*
X446141Y127300D01*
X445978Y128119D01*
X445514Y128814D01*
X444819Y129278D01*
X444000Y129441D01*
X443908Y129423D01*
X443888Y129425D01*
X443856Y129430D01*
X443832Y129436D01*
X443815Y129441D01*
X443802Y129447D01*
X443798Y129449D01*
X441576Y131670D01*
Y194247D01*
X448823D01*
Y131946D01*
X448481Y131878D01*
X447786Y131414D01*
X447322Y130719D01*
X447159Y129900D01*
X447322Y129081D01*
X447786Y128386D01*
X448481Y127922D01*
X449300Y127759D01*
X450119Y127922D01*
X450814Y128386D01*
X451278Y129081D01*
X451441Y129900D01*
X451391Y130152D01*
X451472Y130273D01*
X451577Y130800D01*
Y194247D01*
X458823D01*
Y151362D01*
X458822Y151358D01*
X458817Y151345D01*
X458809Y151329D01*
X458796Y151307D01*
X458777Y151281D01*
X458764Y151266D01*
X458686Y151214D01*
X458222Y150519D01*
X458059Y149700D01*
X458222Y148881D01*
X458686Y148186D01*
X459381Y147722D01*
X460200Y147559D01*
X461019Y147722D01*
X461714Y148186D01*
X462178Y148881D01*
X462341Y149700D01*
X462178Y150519D01*
X461714Y151214D01*
X461636Y151266D01*
X461623Y151281D01*
X461604Y151307D01*
X461591Y151329D01*
X461583Y151345D01*
X461578Y151358D01*
X461577Y151362D01*
Y194247D01*
X468823D01*
Y151362D01*
X468822Y151358D01*
X468817Y151345D01*
X468809Y151329D01*
X468796Y151307D01*
X468777Y151281D01*
X468764Y151266D01*
X468686Y151214D01*
X468222Y150519D01*
X468059Y149700D01*
X468222Y148881D01*
X468686Y148186D01*
X469381Y147722D01*
X470200Y147559D01*
X470594Y147637D01*
X470980Y147320D01*
Y104748D01*
X470951Y104600D01*
X470980Y104452D01*
Y86148D01*
X470951Y86000D01*
X470980Y85852D01*
Y73300D01*
X471058Y72910D01*
X471279Y72579D01*
X471610Y72358D01*
X472000Y72280D01*
X507135D01*
X507326Y71819D01*
X461138Y25630D01*
X336273D01*
X335360Y25510D01*
X334508Y25157D01*
X333777Y24596D01*
X325211Y16030D01*
X321677D01*
X321652Y16530D01*
X322197Y16584D01*
X323616Y17014D01*
X324923Y17713D01*
X326069Y18653D01*
X327009Y19799D01*
X327708Y21106D01*
X328138Y22525D01*
X328283Y24000D01*
X328138Y25475D01*
X327708Y26894D01*
X327009Y28201D01*
X326069Y29347D01*
X324923Y30287D01*
X323616Y30986D01*
X322197Y31416D01*
X320722Y31561D01*
X319247Y31416D01*
X317828Y30986D01*
X316521Y30287D01*
X315375Y29347D01*
X314435Y28201D01*
X313736Y26894D01*
X313306Y25475D01*
X313161Y24000D01*
X313306Y22525D01*
X313736Y21106D01*
X314435Y19799D01*
X315375Y18653D01*
X316521Y17713D01*
X317828Y17014D01*
X319247Y16584D01*
X319792Y16530D01*
X319767Y16030D01*
X274355D01*
X274330Y16530D01*
X274875Y16584D01*
X276294Y17014D01*
X277601Y17713D01*
X278747Y18653D01*
X279687Y19799D01*
X280386Y21106D01*
X280816Y22525D01*
X280961Y24000D01*
X280816Y25475D01*
X280386Y26894D01*
X279687Y28201D01*
X278747Y29347D01*
X277601Y30287D01*
X276294Y30986D01*
X274875Y31416D01*
X273400Y31561D01*
X271925Y31416D01*
X270506Y30986D01*
X269199Y30287D01*
X268053Y29347D01*
X267113Y28201D01*
X266414Y26894D01*
X265984Y25475D01*
X265839Y24000D01*
X265984Y22525D01*
X266414Y21106D01*
X267113Y19799D01*
X268053Y18653D01*
X269199Y17713D01*
X270506Y17014D01*
X271925Y16584D01*
X272470Y16530D01*
X272445Y16030D01*
X86862D01*
X83830Y19062D01*
Y148400D01*
X83710Y149314D01*
X83357Y150165D01*
X82796Y150896D01*
X79130Y154562D01*
Y165338D01*
X80919Y167126D01*
X81380Y166935D01*
Y166156D01*
X81410Y166009D01*
X81420Y165900D01*
X81410Y165791D01*
X81380Y165644D01*
Y160886D01*
X81400Y160787D01*
Y160687D01*
X81438Y160594D01*
X81458Y160496D01*
X81514Y160412D01*
X81552Y160320D01*
X81618Y160222D01*
X81702Y159800D01*
X81618Y159378D01*
X81552Y159280D01*
X81514Y159188D01*
X81458Y159104D01*
X81438Y159006D01*
X81400Y158913D01*
Y158812D01*
X81380Y158714D01*
Y156500D01*
X81458Y156110D01*
X81679Y155779D01*
X82010Y155558D01*
X82400Y155480D01*
X93683D01*
X93781Y155500D01*
X93882D01*
X93975Y155538D01*
X94073Y155558D01*
X94156Y155614D01*
X94249Y155652D01*
X94320Y155723D01*
X94404Y155779D01*
X94460Y155862D01*
X94531Y155933D01*
X94641Y156099D01*
X94998Y156338D01*
X95420Y156422D01*
X95842Y156338D01*
X96199Y156099D01*
X96309Y155933D01*
X96380Y155862D01*
X96436Y155779D01*
X96520Y155723D01*
X96591Y155652D01*
X96684Y155614D01*
X96767Y155558D01*
X96865Y155538D01*
X96958Y155500D01*
X97059D01*
X97157Y155480D01*
X101131D01*
X101522Y155558D01*
X101852Y155779D01*
X102073Y156110D01*
X102151Y156500D01*
Y172900D01*
X102073Y173290D01*
X101852Y173621D01*
X101522Y173842D01*
X101131Y173920D01*
X89876D01*
Y182330D01*
X91698Y184151D01*
X91702Y184153D01*
X91715Y184159D01*
X91732Y184165D01*
X91756Y184170D01*
X91788Y184175D01*
X91808Y184177D01*
X91900Y184159D01*
X92719Y184322D01*
X93414Y184786D01*
X93878Y185481D01*
X94041Y186300D01*
X93878Y187119D01*
X93414Y187814D01*
X92719Y188278D01*
X91900Y188441D01*
X91081Y188278D01*
X90386Y187814D01*
X89922Y187119D01*
X89759Y186300D01*
X89777Y186208D01*
X89775Y186188D01*
X89770Y186156D01*
X89764Y186132D01*
X89759Y186115D01*
X89753Y186102D01*
X89751Y186098D01*
X87527Y183873D01*
X87228Y183427D01*
X87124Y182900D01*
Y173920D01*
X84436D01*
X84370Y173907D01*
X84304Y173911D01*
X84177Y173868D01*
X84046Y173842D01*
X83990Y173805D01*
X83927Y173784D01*
X83429Y173886D01*
X83367Y173943D01*
X83364Y173947D01*
X83096Y174296D01*
X82365Y174857D01*
X81514Y175210D01*
X80600Y175330D01*
X79686Y175210D01*
X78835Y174857D01*
X78104Y174296D01*
X73104Y169296D01*
X72543Y168565D01*
X72190Y167714D01*
X72070Y166800D01*
Y153100D01*
X72190Y152186D01*
X72543Y151335D01*
X73104Y150604D01*
X76770Y146938D01*
Y17600D01*
X76890Y16686D01*
X77243Y15835D01*
X77804Y15104D01*
X82904Y10004D01*
X83635Y9443D01*
X84486Y9090D01*
X85400Y8970D01*
X326673D01*
X327587Y9090D01*
X328438Y9443D01*
X329170Y10004D01*
X337736Y18570D01*
X462600D01*
X463514Y18690D01*
X464365Y19043D01*
X465096Y19604D01*
X527991Y82498D01*
X528531D01*
X529306Y82177D01*
X530338Y82042D01*
X531370Y82177D01*
X532331Y82576D01*
X533157Y83209D01*
X533790Y84035D01*
X534189Y84996D01*
X534325Y86028D01*
X534189Y87060D01*
X533790Y88022D01*
X533157Y88848D01*
X532331Y89481D01*
X531370Y89879D01*
X530338Y90015D01*
X529306Y89879D01*
X528531Y89559D01*
X526528D01*
X525620Y89439D01*
X525513Y89425D01*
X525120Y89735D01*
Y186200D01*
X525042Y186590D01*
X524821Y186921D01*
X524490Y187142D01*
X524100Y187220D01*
X472000D01*
X471576Y187645D01*
Y203200D01*
X471576Y203200D01*
X471472Y203727D01*
X471173Y204173D01*
X468795Y206551D01*
X469051Y207168D01*
X469187Y208200D01*
X469051Y209232D01*
X468653Y210193D01*
X468019Y211019D01*
X467193Y211653D01*
X466232Y212051D01*
X465200Y212187D01*
X464168Y212051D01*
X463207Y211653D01*
X462381Y211019D01*
X461747Y210193D01*
X461349Y209232D01*
X461213Y208200D01*
X461349Y207168D01*
X461747Y206207D01*
X462381Y205381D01*
X463207Y204747D01*
X464168Y204349D01*
X465200Y204213D01*
X466232Y204349D01*
X466849Y204605D01*
X468801Y202653D01*
X468768Y202153D01*
X461577D01*
Y203200D01*
X461577Y203200D01*
X461472Y203727D01*
X461173Y204173D01*
X458795Y206551D01*
X459051Y207168D01*
X459187Y208200D01*
X459051Y209232D01*
X458653Y210193D01*
X458019Y211019D01*
X457193Y211653D01*
X456232Y212051D01*
X455200Y212187D01*
X454168Y212051D01*
X453207Y211653D01*
X452381Y211019D01*
X451747Y210193D01*
X451349Y209232D01*
X451213Y208200D01*
X451349Y207168D01*
X451747Y206207D01*
X452381Y205381D01*
X453207Y204747D01*
X454168Y204349D01*
X455200Y204213D01*
X456232Y204349D01*
X456849Y204605D01*
X458801Y202653D01*
X458768Y202153D01*
X451577D01*
Y203200D01*
X451577Y203200D01*
X451472Y203727D01*
X451173Y204173D01*
X448795Y206551D01*
X449051Y207168D01*
X449187Y208200D01*
X449051Y209232D01*
X448653Y210193D01*
X448019Y211019D01*
X447193Y211653D01*
X446232Y212051D01*
X445200Y212187D01*
X444168Y212051D01*
X443207Y211653D01*
X442381Y211019D01*
X441747Y210193D01*
X441349Y209232D01*
X441213Y208200D01*
X441349Y207168D01*
X441747Y206207D01*
X442381Y205381D01*
X443207Y204747D01*
X444168Y204349D01*
X445200Y204213D01*
X446232Y204349D01*
X446849Y204605D01*
X448801Y202653D01*
X448768Y202153D01*
X441576D01*
Y203200D01*
X441576Y203200D01*
X441472Y203727D01*
X441173Y204173D01*
X438795Y206551D01*
X439051Y207168D01*
X439187Y208200D01*
X439051Y209232D01*
X438653Y210193D01*
X438019Y211019D01*
X437193Y211653D01*
X436232Y212051D01*
X435200Y212187D01*
X434168Y212051D01*
X433207Y211653D01*
X432381Y211019D01*
X432077Y210622D01*
X431576Y210792D01*
Y212394D01*
X433551Y214368D01*
X434168Y214113D01*
X435200Y213977D01*
X436232Y214113D01*
X437193Y214511D01*
X438019Y215145D01*
X438653Y215970D01*
X439051Y216932D01*
X439187Y217964D01*
X439051Y218996D01*
X438653Y219957D01*
X438019Y220783D01*
X437193Y221416D01*
X436232Y221815D01*
X435200Y221951D01*
D02*
G37*
G36*
X415200D02*
X414168Y221815D01*
X413207Y221416D01*
X412381Y220783D01*
X411747Y219957D01*
X411349Y218996D01*
X411213Y217964D01*
X411349Y216932D01*
X411747Y215970D01*
X412381Y215145D01*
X413207Y214511D01*
X414168Y214113D01*
X415200Y213977D01*
X416232Y214113D01*
X417193Y214511D01*
X418019Y215145D01*
X418653Y215970D01*
X419051Y216932D01*
X419187Y217964D01*
X419051Y218996D01*
X418653Y219957D01*
X418019Y220783D01*
X417193Y221416D01*
X416232Y221815D01*
X415200Y221951D01*
D02*
G37*
G36*
X405200D02*
X404168Y221815D01*
X403207Y221416D01*
X402381Y220783D01*
X401747Y219957D01*
X401349Y218996D01*
X401213Y217964D01*
X401349Y216932D01*
X401747Y215970D01*
X402381Y215145D01*
X403207Y214511D01*
X404168Y214113D01*
X405200Y213977D01*
X406232Y214113D01*
X407193Y214511D01*
X408019Y215145D01*
X408653Y215970D01*
X409051Y216932D01*
X409187Y217964D01*
X409051Y218996D01*
X408653Y219957D01*
X408019Y220783D01*
X407193Y221416D01*
X406232Y221815D01*
X405200Y221951D01*
D02*
G37*
G36*
X395200D02*
X394168Y221815D01*
X393207Y221416D01*
X392381Y220783D01*
X391747Y219957D01*
X391349Y218996D01*
X391213Y217964D01*
X391349Y216932D01*
X391747Y215970D01*
X392381Y215145D01*
X393207Y214511D01*
X394168Y214113D01*
X395200Y213977D01*
X396232Y214113D01*
X397193Y214511D01*
X398019Y215145D01*
X398653Y215970D01*
X399051Y216932D01*
X399187Y217964D01*
X399051Y218996D01*
X398653Y219957D01*
X398019Y220783D01*
X397193Y221416D01*
X396232Y221815D01*
X395200Y221951D01*
D02*
G37*
G36*
X385200D02*
X384168Y221815D01*
X383207Y221416D01*
X382381Y220783D01*
X381747Y219957D01*
X381349Y218996D01*
X381213Y217964D01*
X381349Y216932D01*
X381605Y216315D01*
X379227Y213937D01*
X378928Y213491D01*
X378823Y212964D01*
Y203100D01*
X378928Y202573D01*
X379227Y202127D01*
X381247Y200106D01*
Y194247D01*
X383823D01*
Y191570D01*
X382127Y189873D01*
X381828Y189427D01*
X381723Y188900D01*
Y170291D01*
X381337Y169974D01*
X381000Y170041D01*
X380181Y169878D01*
X379486Y169414D01*
X379022Y168719D01*
X378859Y167900D01*
X379022Y167081D01*
X379486Y166386D01*
X379564Y166334D01*
X379577Y166319D01*
X379596Y166293D01*
X379609Y166271D01*
X379617Y166255D01*
X379622Y166242D01*
X379624Y166238D01*
Y108070D01*
X379527Y107973D01*
X379228Y107527D01*
X379123Y107000D01*
Y106362D01*
X379122Y106358D01*
X379117Y106345D01*
X379109Y106329D01*
X379096Y106307D01*
X379077Y106281D01*
X379064Y106266D01*
X378986Y106214D01*
X378522Y105519D01*
X378359Y104700D01*
X378522Y103881D01*
X378986Y103186D01*
X379064Y103134D01*
X379077Y103119D01*
X379096Y103093D01*
X379109Y103071D01*
X379117Y103055D01*
X379122Y103042D01*
X379123Y103038D01*
Y55300D01*
X379228Y54773D01*
X379527Y54327D01*
X384147Y49706D01*
Y43747D01*
X384060Y43643D01*
X383428Y43619D01*
X374676Y52370D01*
Y105138D01*
X374678Y105142D01*
X374683Y105155D01*
X374691Y105171D01*
X374704Y105192D01*
X374723Y105219D01*
X374736Y105234D01*
X374814Y105286D01*
X375278Y105981D01*
X375441Y106800D01*
X375278Y107619D01*
X374814Y108314D01*
X374736Y108366D01*
X374723Y108381D01*
X374704Y108407D01*
X374691Y108429D01*
X374683Y108445D01*
X374678Y108458D01*
X374676Y108462D01*
Y183392D01*
X374680Y183398D01*
X374692Y183412D01*
X374712Y183432D01*
X374768Y183481D01*
X374779Y183496D01*
X374914Y183586D01*
X375378Y184281D01*
X375541Y185100D01*
X375378Y185919D01*
X374914Y186614D01*
X374219Y187078D01*
X373400Y187241D01*
X372581Y187078D01*
X371886Y186614D01*
X371422Y185919D01*
X371259Y185100D01*
X371422Y184281D01*
X371731Y183817D01*
X371767Y183749D01*
X371823Y183680D01*
X371833Y183665D01*
X371872Y183607D01*
X371877Y183598D01*
X371895Y183565D01*
X371908Y183536D01*
X371917Y183512D01*
X371923Y183491D01*
X371923Y183488D01*
Y108462D01*
X371922Y108458D01*
X371917Y108445D01*
X371909Y108429D01*
X371896Y108407D01*
X371877Y108381D01*
X371864Y108366D01*
X371786Y108314D01*
X371322Y107619D01*
X371159Y106800D01*
X371322Y105981D01*
X371786Y105286D01*
X371864Y105234D01*
X371877Y105219D01*
X371896Y105192D01*
X371909Y105171D01*
X371917Y105155D01*
X371922Y105142D01*
X371923Y105138D01*
Y100791D01*
X371537Y100474D01*
X371200Y100541D01*
X370381Y100378D01*
X369686Y99914D01*
X369222Y99219D01*
X369059Y98400D01*
X369222Y97581D01*
X369686Y96886D01*
X369764Y96834D01*
X369777Y96819D01*
X369796Y96792D01*
X369809Y96771D01*
X369817Y96755D01*
X369822Y96742D01*
X369824Y96738D01*
Y54270D01*
X367006Y51453D01*
X361047D01*
Y43547D01*
X368953D01*
Y49506D01*
X371462Y52015D01*
X371742Y51899D01*
X371929Y51775D01*
X372028Y51273D01*
X372327Y50827D01*
X382127Y41027D01*
X382573Y40728D01*
X383100Y40624D01*
X392400D01*
X392927Y40728D01*
X393373Y41027D01*
X396094Y43747D01*
X400106D01*
X402827Y41027D01*
X403273Y40728D01*
X403800Y40624D01*
X403800Y40624D01*
X412400D01*
X412927Y40728D01*
X413373Y41027D01*
X416094Y43747D01*
X420106D01*
X422827Y41027D01*
X423273Y40728D01*
X423800Y40624D01*
X423800Y40624D01*
X432400D01*
X432927Y40728D01*
X433373Y41027D01*
X436094Y43747D01*
X440106D01*
X442827Y41027D01*
X443273Y40728D01*
X443800Y40624D01*
X443800Y40624D01*
X452400D01*
X452927Y40728D01*
X453373Y41027D01*
X456094Y43747D01*
X462053D01*
Y51653D01*
X454147D01*
Y45694D01*
X452553Y44099D01*
X452053Y44306D01*
Y51653D01*
X446094D01*
X443973Y53773D01*
X443527Y54072D01*
X443000Y54176D01*
X440823D01*
X440653Y54676D01*
X440919Y54881D01*
X441553Y55707D01*
X441951Y56668D01*
X442087Y57700D01*
X441951Y58732D01*
X441553Y59693D01*
X440919Y60519D01*
X440093Y61153D01*
X439132Y61551D01*
X438100Y61687D01*
X437068Y61551D01*
X436107Y61153D01*
X435281Y60519D01*
X434647Y59693D01*
X434249Y58732D01*
X434113Y57700D01*
X434249Y56668D01*
X434647Y55707D01*
X435281Y54881D01*
X435547Y54676D01*
X435378Y54176D01*
X433200D01*
X432673Y54072D01*
X432227Y53773D01*
X430106Y51653D01*
X426094D01*
X423873Y53873D01*
X423427Y54172D01*
X422900Y54276D01*
X420909D01*
X420749Y54750D01*
X420919Y54881D01*
X421553Y55707D01*
X421951Y56668D01*
X422087Y57700D01*
X421951Y58732D01*
X421553Y59693D01*
X420919Y60519D01*
X420093Y61153D01*
X419132Y61551D01*
X418100Y61687D01*
X417068Y61551D01*
X416107Y61153D01*
X415281Y60519D01*
X414647Y59693D01*
X414249Y58732D01*
X414113Y57700D01*
X414249Y56668D01*
X414647Y55707D01*
X415281Y54881D01*
X415451Y54750D01*
X415291Y54276D01*
X413300D01*
X412773Y54172D01*
X412327Y53873D01*
X410106Y51653D01*
X406094D01*
X403973Y53773D01*
X403527Y54072D01*
X403000Y54176D01*
X400822D01*
X400653Y54676D01*
X400919Y54881D01*
X401553Y55707D01*
X401951Y56668D01*
X402087Y57700D01*
X401951Y58732D01*
X401553Y59693D01*
X400919Y60519D01*
X400093Y61153D01*
X399132Y61551D01*
X398100Y61687D01*
X397068Y61551D01*
X396107Y61153D01*
X395281Y60519D01*
X394647Y59693D01*
X394249Y58732D01*
X394113Y57700D01*
X394249Y56668D01*
X394647Y55707D01*
X395281Y54881D01*
X395547Y54676D01*
X395377Y54176D01*
X393200D01*
X392673Y54072D01*
X392227Y53773D01*
X390106Y51653D01*
X386094D01*
X381876Y55870D01*
Y103038D01*
X381878Y103042D01*
X381883Y103055D01*
X381891Y103071D01*
X381904Y103093D01*
X381923Y103119D01*
X381936Y103134D01*
X382014Y103186D01*
X382478Y103881D01*
X382641Y104700D01*
X382478Y105519D01*
X382103Y106081D01*
X381973Y106527D01*
X382272Y106973D01*
X382377Y107500D01*
X382377Y107500D01*
Y111709D01*
X382763Y112026D01*
X383100Y111959D01*
X383919Y112122D01*
X384614Y112586D01*
X385078Y113281D01*
X385241Y114100D01*
X385078Y114919D01*
X384614Y115614D01*
X384536Y115666D01*
X384523Y115681D01*
X384504Y115708D01*
X384491Y115729D01*
X384483Y115745D01*
X384478Y115758D01*
X384476Y115762D01*
Y188330D01*
X386173Y190027D01*
X386472Y190473D01*
X386577Y191000D01*
X386577Y191000D01*
Y194247D01*
X388824D01*
Y136762D01*
X388822Y136758D01*
X388817Y136745D01*
X388809Y136729D01*
X388796Y136707D01*
X388777Y136681D01*
X388764Y136666D01*
X388686Y136614D01*
X388222Y135919D01*
X388059Y135100D01*
X388222Y134281D01*
X388686Y133586D01*
X389381Y133122D01*
X390200Y132959D01*
X391019Y133122D01*
X391714Y133586D01*
X392178Y134281D01*
X392341Y135100D01*
X392178Y135919D01*
X391714Y136614D01*
X391636Y136666D01*
X391623Y136681D01*
X391604Y136707D01*
X391591Y136729D01*
X391583Y136745D01*
X391578Y136758D01*
X391577Y136762D01*
Y194247D01*
X398823D01*
Y142262D01*
X398822Y142258D01*
X398817Y142245D01*
X398809Y142229D01*
X398796Y142208D01*
X398777Y142181D01*
X398764Y142166D01*
X398686Y142114D01*
X398222Y141419D01*
X398059Y140600D01*
X398222Y139781D01*
X398686Y139086D01*
X399381Y138622D01*
X400200Y138459D01*
X401019Y138622D01*
X401714Y139086D01*
X402178Y139781D01*
X402341Y140600D01*
X402178Y141419D01*
X401714Y142114D01*
X401636Y142166D01*
X401623Y142181D01*
X401604Y142208D01*
X401591Y142229D01*
X401583Y142245D01*
X401578Y142258D01*
X401577Y142262D01*
Y194247D01*
X408923D01*
Y142262D01*
X408922Y142258D01*
X408917Y142245D01*
X408909Y142229D01*
X408896Y142208D01*
X408877Y142181D01*
X408864Y142166D01*
X408786Y142114D01*
X408322Y141419D01*
X408159Y140600D01*
X408322Y139781D01*
X408786Y139086D01*
X409481Y138622D01*
X410300Y138459D01*
X411119Y138622D01*
X411814Y139086D01*
X412278Y139781D01*
X412441Y140600D01*
X412278Y141419D01*
X411814Y142114D01*
X411736Y142166D01*
X411723Y142181D01*
X411704Y142208D01*
X411691Y142229D01*
X411683Y142245D01*
X411678Y142258D01*
X411677Y142262D01*
Y194247D01*
X418823D01*
Y142262D01*
X418822Y142258D01*
X418817Y142245D01*
X418809Y142229D01*
X418796Y142208D01*
X418777Y142181D01*
X418764Y142166D01*
X418686Y142114D01*
X418222Y141419D01*
X418059Y140600D01*
X418222Y139781D01*
X418686Y139086D01*
X419381Y138622D01*
X420200Y138459D01*
X421019Y138622D01*
X421714Y139086D01*
X422178Y139781D01*
X422341Y140600D01*
X422178Y141419D01*
X421714Y142114D01*
X421636Y142166D01*
X421623Y142181D01*
X421604Y142208D01*
X421591Y142229D01*
X421583Y142245D01*
X421578Y142258D01*
X421576Y142262D01*
Y203200D01*
X421576Y203200D01*
X421472Y203727D01*
X421173Y204173D01*
X418795Y206551D01*
X419051Y207168D01*
X419187Y208200D01*
X419051Y209232D01*
X418653Y210193D01*
X418019Y211019D01*
X417193Y211653D01*
X416232Y212051D01*
X415200Y212187D01*
X414168Y212051D01*
X413207Y211653D01*
X412381Y211019D01*
X411747Y210193D01*
X411349Y209232D01*
X411213Y208200D01*
X411349Y207168D01*
X411747Y206207D01*
X412381Y205381D01*
X413207Y204747D01*
X414168Y204349D01*
X415200Y204213D01*
X416232Y204349D01*
X416849Y204605D01*
X418801Y202653D01*
X418768Y202153D01*
X411677D01*
Y203100D01*
X411572Y203627D01*
X411273Y204073D01*
X408795Y206551D01*
X409051Y207168D01*
X409187Y208200D01*
X409051Y209232D01*
X408653Y210193D01*
X408019Y211019D01*
X407193Y211653D01*
X406232Y212051D01*
X405200Y212187D01*
X404168Y212051D01*
X403207Y211653D01*
X402381Y211019D01*
X401747Y210193D01*
X401349Y209232D01*
X401213Y208200D01*
X401349Y207168D01*
X401747Y206207D01*
X402381Y205381D01*
X403207Y204747D01*
X404168Y204349D01*
X405200Y204213D01*
X406232Y204349D01*
X406849Y204605D01*
X408801Y202653D01*
X408627Y202153D01*
X401577D01*
Y203200D01*
X401577Y203200D01*
X401472Y203727D01*
X401173Y204173D01*
X398795Y206551D01*
X399051Y207168D01*
X399187Y208200D01*
X399051Y209232D01*
X398653Y210193D01*
X398019Y211019D01*
X397193Y211653D01*
X396232Y212051D01*
X395200Y212187D01*
X394168Y212051D01*
X393207Y211653D01*
X392381Y211019D01*
X391747Y210193D01*
X391349Y209232D01*
X391213Y208200D01*
X391349Y207168D01*
X391747Y206207D01*
X392381Y205381D01*
X393207Y204747D01*
X394168Y204349D01*
X395200Y204213D01*
X396232Y204349D01*
X396849Y204605D01*
X398801Y202653D01*
X398768Y202153D01*
X391577D01*
Y203200D01*
X391577Y203200D01*
X391472Y203727D01*
X391173Y204173D01*
X388795Y206551D01*
X389051Y207168D01*
X389187Y208200D01*
X389051Y209232D01*
X388653Y210193D01*
X388019Y211019D01*
X387193Y211653D01*
X386232Y212051D01*
X385200Y212187D01*
X384168Y212051D01*
X383207Y211653D01*
X382381Y211019D01*
X382077Y210622D01*
X381576Y210792D01*
Y212394D01*
X383551Y214368D01*
X384168Y214113D01*
X385200Y213977D01*
X386232Y214113D01*
X387193Y214511D01*
X388019Y215145D01*
X388653Y215970D01*
X389051Y216932D01*
X389187Y217964D01*
X389051Y218996D01*
X388653Y219957D01*
X388019Y220783D01*
X387193Y221416D01*
X386232Y221815D01*
X385200Y221951D01*
D02*
G37*
G36*
X585495Y220015D02*
X584463Y219879D01*
X583502Y219481D01*
X582676Y218847D01*
X582043Y218022D01*
X581644Y217060D01*
X581508Y216028D01*
X581644Y214997D01*
X582043Y214035D01*
X582676Y213209D01*
X583502Y212576D01*
X584463Y212177D01*
X585495Y212041D01*
X586527Y212177D01*
X587489Y212576D01*
X588314Y213209D01*
X588948Y214035D01*
X589346Y214997D01*
X589482Y216028D01*
X589346Y217060D01*
X588948Y218022D01*
X588314Y218847D01*
X587489Y219481D01*
X586527Y219879D01*
X585495Y220015D01*
D02*
G37*
G36*
Y210015D02*
X584463Y209879D01*
X583502Y209481D01*
X582676Y208847D01*
X582043Y208022D01*
X581644Y207060D01*
X581508Y206028D01*
X581644Y204996D01*
X582043Y204035D01*
X582676Y203209D01*
X583502Y202576D01*
X584463Y202177D01*
X585495Y202042D01*
X586527Y202177D01*
X587489Y202576D01*
X588314Y203209D01*
X588948Y204035D01*
X589346Y204996D01*
X589482Y206028D01*
X589346Y207060D01*
X588948Y208022D01*
X588314Y208847D01*
X587489Y209481D01*
X586527Y209879D01*
X585495Y210015D01*
D02*
G37*
G36*
Y200015D02*
X584463Y199879D01*
X583502Y199481D01*
X582676Y198847D01*
X582043Y198022D01*
X581644Y197060D01*
X581508Y196028D01*
X581644Y194997D01*
X582043Y194035D01*
X582676Y193209D01*
X583502Y192576D01*
X584463Y192177D01*
X585495Y192042D01*
X586527Y192177D01*
X587489Y192576D01*
X588314Y193209D01*
X588948Y194035D01*
X589346Y194997D01*
X589482Y196028D01*
X589346Y197060D01*
X588948Y198022D01*
X588314Y198847D01*
X587489Y199481D01*
X586527Y199879D01*
X585495Y200015D01*
D02*
G37*
G36*
X305100Y216041D02*
X304281Y215878D01*
X303586Y215414D01*
X303122Y214719D01*
X302959Y213900D01*
X303122Y213081D01*
X303586Y212386D01*
X303664Y212334D01*
X303677Y212319D01*
X303696Y212293D01*
X303709Y212271D01*
X303717Y212255D01*
X303722Y212242D01*
X303724Y212238D01*
Y179891D01*
X303337Y179574D01*
X303000Y179641D01*
X302181Y179478D01*
X301550Y179057D01*
X300919Y179478D01*
X300100Y179641D01*
X299281Y179478D01*
X298650Y179057D01*
X298019Y179478D01*
X297200Y179641D01*
X296381Y179478D01*
X295686Y179014D01*
X295676Y179000D01*
X295177Y179151D01*
Y184430D01*
X295798Y185051D01*
X295802Y185053D01*
X295815Y185059D01*
X295832Y185064D01*
X295856Y185070D01*
X295888Y185075D01*
X295908Y185077D01*
X296000Y185059D01*
X296819Y185222D01*
X297514Y185686D01*
X297978Y186381D01*
X298141Y187200D01*
X297978Y188019D01*
X297514Y188714D01*
X296819Y189178D01*
X296000Y189341D01*
X295181Y189178D01*
X294486Y188714D01*
X294022Y188019D01*
X293859Y187200D01*
X293877Y187108D01*
X293875Y187088D01*
X293870Y187056D01*
X293864Y187032D01*
X293859Y187015D01*
X293853Y187002D01*
X293851Y186998D01*
X292827Y185973D01*
X292528Y185527D01*
X292424Y185000D01*
Y136403D01*
X291923Y136196D01*
X285377Y142743D01*
Y146438D01*
X285378Y146442D01*
X285383Y146455D01*
X285391Y146471D01*
X285404Y146493D01*
X285423Y146519D01*
X285436Y146534D01*
X285514Y146586D01*
X285978Y147281D01*
X286141Y148100D01*
X285978Y148919D01*
X285514Y149614D01*
X284819Y150078D01*
X284000Y150241D01*
X283977Y150260D01*
Y158735D01*
X284017Y158765D01*
X284070Y158823D01*
X284314Y158986D01*
X284778Y159681D01*
X284941Y160500D01*
X284778Y161319D01*
X284314Y162014D01*
X283619Y162478D01*
X282800Y162641D01*
X282463Y162574D01*
X282077Y162891D01*
Y164930D01*
X283273Y166127D01*
X283572Y166573D01*
X283677Y167100D01*
Y168900D01*
X283572Y169427D01*
X283273Y169873D01*
X280777Y172370D01*
Y180973D01*
X281019Y181022D01*
X281714Y181486D01*
X282178Y182181D01*
X282341Y183000D01*
X282178Y183819D01*
X281714Y184514D01*
X281019Y184978D01*
X280200Y185141D01*
X279863Y185074D01*
X279476Y185391D01*
Y186776D01*
X279800Y187159D01*
X280619Y187322D01*
X281314Y187786D01*
X281778Y188481D01*
X281941Y189300D01*
X281778Y190119D01*
X281314Y190814D01*
X280619Y191278D01*
X279800Y191441D01*
X278981Y191278D01*
X278677Y191075D01*
X278176Y191342D01*
Y197330D01*
X281273Y200427D01*
X281572Y200873D01*
X281677Y201400D01*
X281677Y201400D01*
Y203200D01*
X281677Y203200D01*
X281572Y203727D01*
X281273Y204173D01*
X280349Y205098D01*
X280347Y205102D01*
X280341Y205115D01*
X280335Y205132D01*
X280330Y205156D01*
X280325Y205188D01*
X280323Y205208D01*
X280341Y205300D01*
X280178Y206119D01*
X279714Y206814D01*
X279019Y207278D01*
X278200Y207441D01*
X277381Y207278D01*
X276686Y206814D01*
X276222Y206119D01*
X276059Y205300D01*
X276222Y204481D01*
X276677Y203800D01*
X276222Y203119D01*
X276059Y202300D01*
X276077Y202208D01*
X276075Y202188D01*
X276070Y202156D01*
X276064Y202132D01*
X276059Y202115D01*
X276053Y202102D01*
X276051Y202098D01*
X274527Y200573D01*
X274228Y200127D01*
X274124Y199600D01*
Y152770D01*
X270477Y149123D01*
X269976Y149330D01*
Y162673D01*
X270219Y162722D01*
X270914Y163186D01*
X271378Y163881D01*
X271541Y164700D01*
X271378Y165519D01*
X270914Y166214D01*
X270219Y166678D01*
X269400Y166841D01*
X268581Y166678D01*
X268376Y166542D01*
X267877Y166809D01*
Y170638D01*
X267878Y170642D01*
X267883Y170655D01*
X267891Y170671D01*
X267904Y170693D01*
X267923Y170719D01*
X267936Y170734D01*
X268014Y170786D01*
X268478Y171481D01*
X268641Y172300D01*
X268478Y173119D01*
X268014Y173814D01*
X267319Y174278D01*
X266500Y174441D01*
X265681Y174278D01*
X264986Y173814D01*
X264522Y173119D01*
X264359Y172300D01*
X264522Y171481D01*
X264986Y170786D01*
X265064Y170734D01*
X265077Y170719D01*
X265096Y170693D01*
X265109Y170671D01*
X265117Y170655D01*
X265122Y170642D01*
X265124Y170638D01*
Y165700D01*
X265228Y165173D01*
X265342Y165003D01*
X265191Y164715D01*
X265055Y164532D01*
X264281Y164378D01*
X263586Y163914D01*
X263122Y163219D01*
X262959Y162400D01*
X263122Y161581D01*
X263586Y160886D01*
X264281Y160422D01*
X264623Y160354D01*
Y159291D01*
X264237Y158974D01*
X263900Y159041D01*
X263081Y158878D01*
X262386Y158414D01*
X261922Y157719D01*
X261759Y156900D01*
X261922Y156081D01*
X261648Y155590D01*
X261086Y155214D01*
X260622Y154519D01*
X260459Y153700D01*
X260622Y152881D01*
X261086Y152186D01*
X261781Y151722D01*
X262023Y151673D01*
Y143687D01*
X261524Y143277D01*
X261200Y143341D01*
X260381Y143178D01*
X259686Y142714D01*
X259222Y142019D01*
X259059Y141200D01*
X259222Y140381D01*
X259686Y139686D01*
X260381Y139222D01*
X260723Y139154D01*
Y113870D01*
X257202Y110349D01*
X257198Y110347D01*
X257185Y110341D01*
X257168Y110336D01*
X257144Y110330D01*
X257112Y110325D01*
X257092Y110323D01*
X257000Y110341D01*
X256181Y110178D01*
X255486Y109714D01*
X255022Y109019D01*
X254859Y108200D01*
X255022Y107381D01*
X255486Y106686D01*
X256181Y106222D01*
X257000Y106059D01*
X257819Y106222D01*
X258450Y106643D01*
X259081Y106222D01*
X259900Y106059D01*
X260719Y106222D01*
X261414Y106686D01*
X261422Y106699D01*
X262035Y106289D01*
X262117Y106161D01*
X262232Y105779D01*
X261502Y105049D01*
X261498Y105047D01*
X261485Y105041D01*
X261468Y105035D01*
X261444Y105030D01*
X261412Y105025D01*
X261392Y105023D01*
X261300Y105041D01*
X260481Y104878D01*
X259786Y104414D01*
X259322Y103719D01*
X259159Y102900D01*
X259322Y102081D01*
X259786Y101386D01*
X260481Y100922D01*
X261300Y100759D01*
X262119Y100922D01*
X262800Y101377D01*
X263481Y100922D01*
X264300Y100759D01*
X265119Y100922D01*
X265800Y101377D01*
X266481Y100922D01*
X267300Y100759D01*
X268119Y100922D01*
X268814Y101386D01*
X269278Y102081D01*
X269441Y102900D01*
X269423Y102992D01*
X269425Y103012D01*
X269430Y103044D01*
X269436Y103068D01*
X269441Y103085D01*
X269447Y103098D01*
X269449Y103102D01*
X269573Y103227D01*
X269872Y103673D01*
X269976Y104200D01*
X269976Y104200D01*
Y129070D01*
X270477Y129277D01*
X272223Y127530D01*
Y75070D01*
X272328Y74543D01*
X272627Y74097D01*
X275921Y70802D01*
X275923Y70798D01*
X275929Y70785D01*
X275935Y70768D01*
X275940Y70744D01*
X275945Y70712D01*
X275947Y70692D01*
X275929Y70600D01*
X276092Y69781D01*
X276513Y69150D01*
X276092Y68519D01*
X275929Y67700D01*
X276092Y66881D01*
X276556Y66186D01*
X277251Y65722D01*
X278070Y65559D01*
X278889Y65722D01*
X279584Y66186D01*
X280048Y66881D01*
X280173Y67506D01*
X280397Y67615D01*
X280689Y67664D01*
X281551Y66802D01*
X281553Y66798D01*
X281559Y66785D01*
X281564Y66768D01*
X281570Y66744D01*
X281575Y66712D01*
X281577Y66692D01*
X281559Y66600D01*
X281722Y65781D01*
X282186Y65086D01*
X282881Y64622D01*
X283700Y64459D01*
X284519Y64622D01*
X285214Y65086D01*
X285381Y65336D01*
X285912Y65231D01*
X285922Y65181D01*
X286377Y64500D01*
X285922Y63819D01*
X285759Y63000D01*
X285922Y62181D01*
X286377Y61500D01*
X285922Y60819D01*
X285759Y60000D01*
X285922Y59181D01*
X286386Y58486D01*
X287081Y58022D01*
X287900Y57859D01*
X288719Y58022D01*
X289414Y58486D01*
X289878Y59181D01*
X290041Y60000D01*
X290023Y60092D01*
X290025Y60112D01*
X290030Y60144D01*
X290036Y60168D01*
X290041Y60185D01*
X290047Y60198D01*
X290049Y60202D01*
X293973Y64127D01*
X294272Y64573D01*
X294376Y65100D01*
Y107030D01*
X294873Y107527D01*
X295172Y107973D01*
X295276Y108500D01*
Y120395D01*
X295663Y120712D01*
X295988Y120647D01*
X296808Y120810D01*
X297502Y121274D01*
X297966Y121969D01*
X298129Y122788D01*
X298111Y122880D01*
X298113Y122900D01*
X298118Y122932D01*
X298124Y122956D01*
X298130Y122974D01*
X298135Y122986D01*
X298137Y122990D01*
X300398Y125252D01*
X300877Y125107D01*
X300922Y124881D01*
X301343Y124250D01*
X300922Y123619D01*
X300759Y122800D01*
X300922Y121981D01*
X301386Y121286D01*
X302081Y120822D01*
X302900Y120659D01*
X303719Y120822D01*
X304414Y121286D01*
X304878Y121981D01*
X305041Y122800D01*
X305023Y122892D01*
X305025Y122912D01*
X305030Y122944D01*
X305035Y122968D01*
X305041Y122985D01*
X305047Y122998D01*
X305049Y123002D01*
X306144Y124098D01*
X306747Y123993D01*
X306799Y123884D01*
X306622Y123619D01*
X306459Y122800D01*
X306622Y121981D01*
X307086Y121286D01*
X307781Y120822D01*
X308600Y120659D01*
X309419Y120822D01*
X310114Y121286D01*
X310578Y121981D01*
X310741Y122800D01*
X310723Y122892D01*
X310725Y122912D01*
X310730Y122944D01*
X310736Y122968D01*
X310741Y122985D01*
X310747Y122998D01*
X310749Y123002D01*
X312948Y125202D01*
X313388Y125116D01*
X313488Y125048D01*
X313522Y124881D01*
X313943Y124250D01*
X313522Y123619D01*
X313359Y122800D01*
X313522Y121981D01*
X313986Y121286D01*
X314681Y120822D01*
X315500Y120659D01*
X316319Y120822D01*
X317014Y121286D01*
X317478Y121981D01*
X317641Y122800D01*
X317623Y122892D01*
X317625Y122912D01*
X317630Y122944D01*
X317635Y122968D01*
X317641Y122985D01*
X317647Y122998D01*
X317649Y123002D01*
X318573Y123927D01*
X318872Y124373D01*
X318976Y124900D01*
X318976Y124900D01*
Y164973D01*
X319219Y165022D01*
X319914Y165486D01*
X320378Y166181D01*
X320541Y167000D01*
X320378Y167819D01*
X319914Y168514D01*
X319219Y168978D01*
X318400Y169141D01*
X317581Y168978D01*
X316886Y168514D01*
X316422Y167819D01*
X316259Y167000D01*
X316321Y166689D01*
X316224Y166200D01*
Y156591D01*
X315837Y156274D01*
X315500Y156341D01*
X314681Y156178D01*
X313986Y155714D01*
X313977Y155700D01*
X313476Y155851D01*
Y177773D01*
X313719Y177822D01*
X314414Y178286D01*
X314878Y178981D01*
X315041Y179800D01*
X314878Y180619D01*
X314414Y181314D01*
X313719Y181778D01*
X312900Y181941D01*
X312081Y181778D01*
X311386Y181314D01*
X310922Y180619D01*
X310797Y179992D01*
X310395Y179631D01*
X310292Y179583D01*
X310000Y179641D01*
X309181Y179478D01*
X308486Y179014D01*
X308022Y178319D01*
X307859Y177500D01*
X308022Y176681D01*
X308486Y175986D01*
X308564Y175934D01*
X308577Y175919D01*
X308596Y175892D01*
X308609Y175871D01*
X308617Y175855D01*
X308622Y175842D01*
X308624Y175838D01*
Y165270D01*
X306938Y163585D01*
X306476Y163776D01*
Y212238D01*
X306478Y212242D01*
X306483Y212255D01*
X306491Y212271D01*
X306504Y212293D01*
X306523Y212319D01*
X306536Y212334D01*
X306614Y212386D01*
X307078Y213081D01*
X307241Y213900D01*
X307078Y214719D01*
X306614Y215414D01*
X305919Y215878D01*
X305100Y216041D01*
D02*
G37*
G36*
X595495Y190015D02*
X594463Y189879D01*
X593502Y189481D01*
X592676Y188847D01*
X592043Y188022D01*
X591644Y187060D01*
X591508Y186028D01*
X591644Y184996D01*
X592043Y184035D01*
X592676Y183209D01*
X593502Y182576D01*
X594463Y182177D01*
X595495Y182042D01*
X596527Y182177D01*
X597489Y182576D01*
X598314Y183209D01*
X598948Y184035D01*
X599346Y184996D01*
X599482Y186028D01*
X599346Y187060D01*
X598948Y188022D01*
X598314Y188847D01*
X597489Y189481D01*
X596527Y189879D01*
X595495Y190015D01*
D02*
G37*
G36*
X585495D02*
X584463Y189879D01*
X583502Y189481D01*
X582676Y188847D01*
X582043Y188022D01*
X581644Y187060D01*
X581508Y186028D01*
X581644Y184996D01*
X582043Y184035D01*
X582676Y183209D01*
X583502Y182576D01*
X584463Y182177D01*
X585495Y182042D01*
X586527Y182177D01*
X587489Y182576D01*
X588314Y183209D01*
X588948Y184035D01*
X589346Y184996D01*
X589482Y186028D01*
X589346Y187060D01*
X588948Y188022D01*
X588314Y188847D01*
X587489Y189481D01*
X586527Y189879D01*
X585495Y190015D01*
D02*
G37*
G36*
X329700Y213641D02*
X328881Y213478D01*
X328186Y213014D01*
X327722Y212319D01*
X327559Y211500D01*
X327621Y211189D01*
X327523Y210700D01*
Y181991D01*
X327137Y181674D01*
X326800Y181741D01*
X325981Y181578D01*
X325286Y181114D01*
X324822Y180419D01*
X324659Y179600D01*
X324822Y178781D01*
X325286Y178086D01*
X325364Y178034D01*
X325377Y178019D01*
X325396Y177992D01*
X325409Y177971D01*
X325417Y177955D01*
X325422Y177942D01*
X325424Y177938D01*
Y170870D01*
X323727Y169173D01*
X323428Y168727D01*
X323323Y168200D01*
Y162664D01*
X322824Y162257D01*
X322400Y162341D01*
X321581Y162178D01*
X320886Y161714D01*
X320422Y161019D01*
X320259Y160200D01*
X320422Y159381D01*
X320886Y158686D01*
X321581Y158222D01*
X322024Y158134D01*
Y115600D01*
X322128Y115073D01*
X322427Y114627D01*
X323542Y113511D01*
X323223Y113123D01*
X323176Y113155D01*
X322200Y113349D01*
X321224Y113155D01*
X320398Y112602D01*
X319845Y111776D01*
X319651Y110800D01*
X319845Y109825D01*
X320398Y108998D01*
X321224Y108445D01*
X322200Y108251D01*
X323176Y108445D01*
X323623Y108745D01*
X324124Y108477D01*
Y90200D01*
X324228Y89673D01*
X324527Y89227D01*
X326327Y87427D01*
X326327Y87427D01*
X326773Y87128D01*
X327300Y87024D01*
X329100D01*
X329627Y87128D01*
X330073Y87427D01*
X330998Y88351D01*
X331002Y88353D01*
X331015Y88359D01*
X331032Y88364D01*
X331056Y88370D01*
X331088Y88375D01*
X331108Y88377D01*
X331200Y88359D01*
X332019Y88522D01*
X332650Y88943D01*
X333281Y88522D01*
X334100Y88359D01*
X334919Y88522D01*
X335614Y88986D01*
X335666Y89064D01*
X335681Y89077D01*
X335707Y89096D01*
X335729Y89109D01*
X335745Y89117D01*
X335758Y89122D01*
X335762Y89124D01*
X337800D01*
X338327Y89228D01*
X338773Y89527D01*
X342073Y92827D01*
X342073Y92827D01*
X342372Y93273D01*
X342477Y93800D01*
Y106791D01*
X342976Y107058D01*
X343181Y106922D01*
X344000Y106759D01*
X344323Y106823D01*
X344824Y106413D01*
Y69270D01*
X336649Y61095D01*
X336032Y61351D01*
X335000Y61487D01*
X333968Y61351D01*
X333007Y60953D01*
X332181Y60319D01*
X331547Y59493D01*
X331149Y58532D01*
X331013Y57500D01*
X331149Y56468D01*
X331547Y55507D01*
X332181Y54681D01*
X333007Y54047D01*
X333968Y53649D01*
X335000Y53513D01*
X336032Y53649D01*
X336993Y54047D01*
X337819Y54681D01*
X338453Y55507D01*
X338851Y56468D01*
X338987Y57500D01*
X338851Y58532D01*
X338595Y59149D01*
X347173Y67727D01*
X347472Y68173D01*
X347576Y68700D01*
Y150360D01*
X348077Y150409D01*
X348122Y150181D01*
X348586Y149486D01*
X348664Y149434D01*
X348677Y149419D01*
X348696Y149392D01*
X348709Y149371D01*
X348717Y149355D01*
X348722Y149342D01*
X348724Y149338D01*
Y63170D01*
X346649Y61095D01*
X346032Y61351D01*
X345000Y61487D01*
X343968Y61351D01*
X343007Y60953D01*
X342181Y60319D01*
X341547Y59493D01*
X341149Y58532D01*
X341013Y57500D01*
X341149Y56468D01*
X341547Y55507D01*
X342181Y54681D01*
X343007Y54047D01*
X343968Y53649D01*
X345000Y53513D01*
X346032Y53649D01*
X346993Y54047D01*
X347819Y54681D01*
X348453Y55507D01*
X348851Y56468D01*
X348987Y57500D01*
X348851Y58532D01*
X348595Y59149D01*
X351073Y61627D01*
X351372Y62073D01*
X351477Y62600D01*
Y149338D01*
X351478Y149342D01*
X351483Y149355D01*
X351491Y149371D01*
X351504Y149392D01*
X351523Y149419D01*
X351536Y149434D01*
X351614Y149486D01*
X352078Y150181D01*
X352241Y151000D01*
X352078Y151819D01*
X351614Y152514D01*
X350919Y152978D01*
X350100Y153141D01*
X349281Y152978D01*
X348586Y152514D01*
X348122Y151819D01*
X348077Y151591D01*
X347576Y151640D01*
Y153238D01*
X347578Y153242D01*
X347583Y153255D01*
X347591Y153271D01*
X347604Y153293D01*
X347623Y153319D01*
X347636Y153334D01*
X347714Y153386D01*
X348178Y154081D01*
X348341Y154900D01*
X348178Y155719D01*
X347714Y156414D01*
X347019Y156878D01*
X346200Y157041D01*
X345381Y156878D01*
X344686Y156414D01*
X344222Y155719D01*
X344059Y154900D01*
X344222Y154081D01*
X344686Y153386D01*
X344764Y153334D01*
X344777Y153319D01*
X344796Y153293D01*
X344809Y153271D01*
X344817Y153255D01*
X344822Y153242D01*
X344824Y153238D01*
Y146591D01*
X344437Y146274D01*
X344100Y146341D01*
X343281Y146178D01*
X342586Y145714D01*
X342122Y145019D01*
X341959Y144200D01*
X342122Y143381D01*
X342431Y142917D01*
X342467Y142849D01*
X342523Y142780D01*
X342533Y142765D01*
X342563Y142720D01*
X342567Y142661D01*
X342504Y142428D01*
X342412Y142374D01*
X341933Y142314D01*
X341549Y142698D01*
X341547Y142702D01*
X341541Y142715D01*
X341535Y142732D01*
X341530Y142756D01*
X341525Y142788D01*
X341523Y142808D01*
X341541Y142900D01*
X341378Y143719D01*
X340914Y144414D01*
X340219Y144878D01*
X339400Y145041D01*
X338581Y144878D01*
X338417Y144769D01*
X337977Y145005D01*
Y165314D01*
X338519Y165422D01*
X339214Y165886D01*
X339678Y166581D01*
X339841Y167400D01*
X339678Y168219D01*
X339214Y168914D01*
X338519Y169378D01*
X337700Y169541D01*
X336881Y169378D01*
X336412Y169666D01*
X336273Y169873D01*
X334549Y171598D01*
X334547Y171602D01*
X334541Y171615D01*
X334536Y171632D01*
X334530Y171656D01*
X334525Y171688D01*
X334523Y171708D01*
X334541Y171800D01*
X334378Y172619D01*
X333914Y173314D01*
X333219Y173778D01*
X332400Y173941D01*
X331581Y173778D01*
X330886Y173314D01*
X330777Y173150D01*
X330276Y173302D01*
Y209473D01*
X330519Y209522D01*
X331214Y209986D01*
X331678Y210681D01*
X331841Y211500D01*
X331678Y212319D01*
X331214Y213014D01*
X330519Y213478D01*
X329700Y213641D01*
D02*
G37*
G36*
X595495Y180015D02*
X594463Y179879D01*
X593502Y179481D01*
X592676Y178848D01*
X592043Y178022D01*
X591644Y177060D01*
X591508Y176028D01*
X591644Y174996D01*
X592043Y174035D01*
X592676Y173209D01*
X593502Y172576D01*
X594463Y172177D01*
X595495Y172041D01*
X596527Y172177D01*
X597489Y172576D01*
X598314Y173209D01*
X598948Y174035D01*
X599346Y174996D01*
X599482Y176028D01*
X599346Y177060D01*
X598948Y178022D01*
X598314Y178848D01*
X597489Y179481D01*
X596527Y179879D01*
X595495Y180015D01*
D02*
G37*
G36*
X585495D02*
X584463Y179879D01*
X583502Y179481D01*
X582676Y178848D01*
X582043Y178022D01*
X581644Y177060D01*
X581508Y176028D01*
X581644Y174996D01*
X582043Y174035D01*
X582676Y173209D01*
X583502Y172576D01*
X584463Y172177D01*
X585495Y172041D01*
X586527Y172177D01*
X587489Y172576D01*
X588314Y173209D01*
X588948Y174035D01*
X589346Y174996D01*
X589482Y176028D01*
X589346Y177060D01*
X588948Y178022D01*
X588314Y178848D01*
X587489Y179481D01*
X586527Y179879D01*
X585495Y180015D01*
D02*
G37*
G36*
X599448Y169981D02*
X591542D01*
Y162076D01*
X599448D01*
Y169981D01*
D02*
G37*
G36*
X585495Y170015D02*
X584463Y169879D01*
X583502Y169481D01*
X582676Y168848D01*
X582043Y168022D01*
X581644Y167060D01*
X581508Y166028D01*
X581644Y164997D01*
X582043Y164035D01*
X582676Y163209D01*
X583502Y162576D01*
X584463Y162177D01*
X585495Y162041D01*
X586527Y162177D01*
X587489Y162576D01*
X588314Y163209D01*
X588948Y164035D01*
X589346Y164997D01*
X589482Y166028D01*
X589346Y167060D01*
X588948Y168022D01*
X588314Y168848D01*
X587489Y169481D01*
X586527Y169879D01*
X585495Y170015D01*
D02*
G37*
G36*
X595495Y160015D02*
X594463Y159879D01*
X593502Y159481D01*
X592676Y158847D01*
X592043Y158022D01*
X591644Y157060D01*
X591508Y156028D01*
X591644Y154997D01*
X592043Y154035D01*
X592676Y153209D01*
X593502Y152576D01*
X594463Y152177D01*
X595495Y152041D01*
X596527Y152177D01*
X597489Y152576D01*
X598314Y153209D01*
X598948Y154035D01*
X599346Y154997D01*
X599482Y156028D01*
X599346Y157060D01*
X598948Y158022D01*
X598314Y158847D01*
X597489Y159481D01*
X596527Y159879D01*
X595495Y160015D01*
D02*
G37*
G36*
X585495D02*
X584463Y159879D01*
X583502Y159481D01*
X582676Y158847D01*
X582043Y158022D01*
X581644Y157060D01*
X581508Y156028D01*
X581644Y154997D01*
X582043Y154035D01*
X582676Y153209D01*
X583502Y152576D01*
X584463Y152177D01*
X585495Y152041D01*
X586527Y152177D01*
X587489Y152576D01*
X588314Y153209D01*
X588948Y154035D01*
X589346Y154997D01*
X589482Y156028D01*
X589346Y157060D01*
X588948Y158022D01*
X588314Y158847D01*
X587489Y159481D01*
X586527Y159879D01*
X585495Y160015D01*
D02*
G37*
G36*
X223985Y148034D02*
X223010Y147840D01*
X222183Y147287D01*
X221630Y146460D01*
X221436Y145485D01*
X221630Y144510D01*
X222183Y143683D01*
X223010Y143130D01*
X223985Y142936D01*
X224960Y143130D01*
X225787Y143683D01*
X226340Y144510D01*
X226534Y145485D01*
X226340Y146460D01*
X225787Y147287D01*
X224960Y147840D01*
X223985Y148034D01*
D02*
G37*
G36*
X595495Y150015D02*
X594463Y149879D01*
X593502Y149481D01*
X592676Y148847D01*
X592043Y148022D01*
X591644Y147060D01*
X591508Y146028D01*
X591644Y144997D01*
X592043Y144035D01*
X592676Y143209D01*
X593502Y142576D01*
X594463Y142177D01*
X595495Y142042D01*
X596527Y142177D01*
X597489Y142576D01*
X598314Y143209D01*
X598948Y144035D01*
X599346Y144997D01*
X599482Y146028D01*
X599346Y147060D01*
X598948Y148022D01*
X598314Y148847D01*
X597489Y149481D01*
X596527Y149879D01*
X595495Y150015D01*
D02*
G37*
G36*
X585495D02*
X584463Y149879D01*
X583502Y149481D01*
X582676Y148847D01*
X582043Y148022D01*
X581644Y147060D01*
X581508Y146028D01*
X581644Y144997D01*
X582043Y144035D01*
X582676Y143209D01*
X583502Y142576D01*
X584463Y142177D01*
X585495Y142042D01*
X586527Y142177D01*
X587489Y142576D01*
X588314Y143209D01*
X588948Y144035D01*
X589346Y144997D01*
X589482Y146028D01*
X589346Y147060D01*
X588948Y148022D01*
X588314Y148847D01*
X587489Y149481D01*
X586527Y149879D01*
X585495Y150015D01*
D02*
G37*
G36*
X249700Y160341D02*
X248881Y160178D01*
X248186Y159714D01*
X247722Y159019D01*
X247559Y158200D01*
X247722Y157381D01*
X248186Y156686D01*
X248264Y156634D01*
X248277Y156619D01*
X248296Y156593D01*
X248309Y156571D01*
X248317Y156555D01*
X248322Y156542D01*
X248323Y156538D01*
Y141370D01*
X245302Y138349D01*
X245298Y138347D01*
X245285Y138341D01*
X245268Y138336D01*
X245244Y138330D01*
X245212Y138325D01*
X245192Y138323D01*
X245100Y138341D01*
X244281Y138178D01*
X243586Y137714D01*
X243122Y137019D01*
X242959Y136200D01*
X243122Y135381D01*
X243586Y134686D01*
X244281Y134222D01*
X245100Y134059D01*
X245919Y134222D01*
X246614Y134686D01*
X247078Y135381D01*
X247241Y136200D01*
X247223Y136292D01*
X247225Y136312D01*
X247230Y136344D01*
X247235Y136368D01*
X247241Y136385D01*
X247247Y136398D01*
X247249Y136402D01*
X250673Y139827D01*
X250972Y140273D01*
X251077Y140800D01*
Y156538D01*
X251078Y156542D01*
X251083Y156555D01*
X251091Y156571D01*
X251104Y156593D01*
X251123Y156619D01*
X251136Y156634D01*
X251214Y156686D01*
X251678Y157381D01*
X251841Y158200D01*
X251678Y159019D01*
X251214Y159714D01*
X250519Y160178D01*
X249700Y160341D01*
D02*
G37*
G36*
X595495Y140015D02*
X594463Y139879D01*
X593502Y139481D01*
X592676Y138847D01*
X592043Y138022D01*
X591644Y137060D01*
X591508Y136028D01*
X591644Y134996D01*
X592043Y134035D01*
X592676Y133209D01*
X593502Y132576D01*
X594463Y132177D01*
X595495Y132042D01*
X596527Y132177D01*
X597489Y132576D01*
X598314Y133209D01*
X598948Y134035D01*
X599346Y134996D01*
X599482Y136028D01*
X599346Y137060D01*
X598948Y138022D01*
X598314Y138847D01*
X597489Y139481D01*
X596527Y139879D01*
X595495Y140015D01*
D02*
G37*
G36*
X585495D02*
X584463Y139879D01*
X583502Y139481D01*
X582676Y138847D01*
X582043Y138022D01*
X581644Y137060D01*
X581508Y136028D01*
X581644Y134996D01*
X582043Y134035D01*
X582676Y133209D01*
X583502Y132576D01*
X584463Y132177D01*
X585495Y132042D01*
X586527Y132177D01*
X587489Y132576D01*
X588314Y133209D01*
X588948Y134035D01*
X589346Y134996D01*
X589482Y136028D01*
X589346Y137060D01*
X588948Y138022D01*
X588314Y138847D01*
X587489Y139481D01*
X586527Y139879D01*
X585495Y140015D01*
D02*
G37*
G36*
X595495Y130015D02*
X594463Y129879D01*
X593502Y129481D01*
X592676Y128848D01*
X592043Y128022D01*
X591644Y127060D01*
X591508Y126028D01*
X591644Y124996D01*
X592043Y124035D01*
X592676Y123209D01*
X593502Y122576D01*
X594463Y122177D01*
X595495Y122041D01*
X596527Y122177D01*
X597489Y122576D01*
X598314Y123209D01*
X598948Y124035D01*
X599346Y124996D01*
X599482Y126028D01*
X599346Y127060D01*
X598948Y128022D01*
X598314Y128848D01*
X597489Y129481D01*
X596527Y129879D01*
X595495Y130015D01*
D02*
G37*
G36*
X585495D02*
X584463Y129879D01*
X583502Y129481D01*
X582676Y128848D01*
X582043Y128022D01*
X581644Y127060D01*
X581508Y126028D01*
X581644Y124996D01*
X582043Y124035D01*
X582676Y123209D01*
X583502Y122576D01*
X584463Y122177D01*
X585495Y122041D01*
X586527Y122177D01*
X587489Y122576D01*
X588314Y123209D01*
X588948Y124035D01*
X589346Y124996D01*
X589482Y126028D01*
X589346Y127060D01*
X588948Y128022D01*
X588314Y128848D01*
X587489Y129481D01*
X586527Y129879D01*
X585495Y130015D01*
D02*
G37*
G36*
X256348Y172341D02*
X255528Y172178D01*
X254834Y171714D01*
X254370Y171019D01*
X254207Y170200D01*
X254370Y169381D01*
X254834Y168686D01*
X254912Y168634D01*
X254924Y168619D01*
X254943Y168593D01*
X254956Y168571D01*
X254965Y168555D01*
X254970Y168542D01*
X254971Y168538D01*
Y124183D01*
X254967Y124166D01*
X254952Y124127D01*
X254926Y124075D01*
X254888Y124010D01*
X254843Y123946D01*
X254674Y123744D01*
X254664Y123734D01*
X254545Y123655D01*
X253993Y122828D01*
X253799Y121852D01*
X253993Y120877D01*
X254545Y120050D01*
X255372Y119497D01*
X256348Y119303D01*
X257323Y119497D01*
X258150Y120050D01*
X258703Y120877D01*
X258897Y121852D01*
X258703Y122828D01*
X258150Y123655D01*
X258032Y123734D01*
X258012Y123754D01*
X257929Y123848D01*
X257861Y123934D01*
X257808Y124010D01*
X257770Y124075D01*
X257744Y124127D01*
X257729Y124166D01*
X257724Y124183D01*
Y168538D01*
X257726Y168542D01*
X257731Y168555D01*
X257739Y168571D01*
X257752Y168593D01*
X257771Y168619D01*
X257784Y168634D01*
X257862Y168686D01*
X258326Y169381D01*
X258489Y170200D01*
X258326Y171019D01*
X257862Y171714D01*
X257167Y172178D01*
X256348Y172341D01*
D02*
G37*
G36*
X253300Y117741D02*
X252481Y117578D01*
X251786Y117114D01*
X251322Y116419D01*
X251159Y115600D01*
X251322Y114781D01*
X251786Y114086D01*
X252481Y113622D01*
X253300Y113459D01*
X254119Y113622D01*
X254814Y114086D01*
X255278Y114781D01*
X255441Y115600D01*
X255278Y116419D01*
X254814Y117114D01*
X254119Y117578D01*
X253300Y117741D01*
D02*
G37*
G36*
X595495Y120015D02*
X594463Y119879D01*
X593502Y119481D01*
X592676Y118848D01*
X592043Y118022D01*
X591644Y117060D01*
X591508Y116028D01*
X591644Y114997D01*
X592043Y114035D01*
X592676Y113209D01*
X593502Y112576D01*
X594463Y112177D01*
X595495Y112041D01*
X596527Y112177D01*
X597489Y112576D01*
X598314Y113209D01*
X598948Y114035D01*
X599346Y114997D01*
X599482Y116028D01*
X599346Y117060D01*
X598948Y118022D01*
X598314Y118848D01*
X597489Y119481D01*
X596527Y119879D01*
X595495Y120015D01*
D02*
G37*
G36*
X585495D02*
X584463Y119879D01*
X583502Y119481D01*
X582676Y118848D01*
X582043Y118022D01*
X581644Y117060D01*
X581508Y116028D01*
X581644Y114997D01*
X582043Y114035D01*
X582676Y113209D01*
X583502Y112576D01*
X584463Y112177D01*
X585495Y112041D01*
X586527Y112177D01*
X587489Y112576D01*
X588314Y113209D01*
X588948Y114035D01*
X589346Y114997D01*
X589482Y116028D01*
X589346Y117060D01*
X588948Y118022D01*
X588314Y118848D01*
X587489Y119481D01*
X586527Y119879D01*
X585495Y120015D01*
D02*
G37*
G36*
X595495Y110015D02*
X594463Y109879D01*
X593502Y109481D01*
X592676Y108847D01*
X592043Y108022D01*
X591644Y107060D01*
X591508Y106028D01*
X591644Y104997D01*
X592043Y104035D01*
X592676Y103209D01*
X593502Y102576D01*
X594463Y102177D01*
X595495Y102041D01*
X596527Y102177D01*
X597489Y102576D01*
X598314Y103209D01*
X598948Y104035D01*
X599346Y104997D01*
X599482Y106028D01*
X599346Y107060D01*
X598948Y108022D01*
X598314Y108847D01*
X597489Y109481D01*
X596527Y109879D01*
X595495Y110015D01*
D02*
G37*
G36*
X585495D02*
X584463Y109879D01*
X583502Y109481D01*
X582676Y108847D01*
X582043Y108022D01*
X581644Y107060D01*
X581508Y106028D01*
X581644Y104997D01*
X582043Y104035D01*
X582676Y103209D01*
X583502Y102576D01*
X584463Y102177D01*
X585495Y102041D01*
X586527Y102177D01*
X587489Y102576D01*
X588314Y103209D01*
X588948Y104035D01*
X589346Y104997D01*
X589482Y106028D01*
X589346Y107060D01*
X588948Y108022D01*
X588314Y108847D01*
X587489Y109481D01*
X586527Y109879D01*
X585495Y110015D01*
D02*
G37*
G36*
X469453Y103931D02*
X461547D01*
Y96026D01*
X469453D01*
Y103931D01*
D02*
G37*
G36*
X599448Y99981D02*
X591542D01*
Y92076D01*
X599448D01*
Y99981D01*
D02*
G37*
G36*
X585495Y100015D02*
X584463Y99879D01*
X583502Y99481D01*
X582676Y98848D01*
X582043Y98022D01*
X581644Y97060D01*
X581508Y96028D01*
X581644Y94997D01*
X582043Y94035D01*
X582676Y93209D01*
X583502Y92576D01*
X584463Y92177D01*
X585495Y92041D01*
X586527Y92177D01*
X587489Y92576D01*
X588314Y93209D01*
X588948Y94035D01*
X589346Y94997D01*
X589482Y96028D01*
X589346Y97060D01*
X588948Y98022D01*
X588314Y98848D01*
X587489Y99481D01*
X586527Y99879D01*
X585495Y100015D01*
D02*
G37*
G36*
X465500Y93966D02*
X464468Y93830D01*
X463507Y93432D01*
X462681Y92798D01*
X462047Y91972D01*
X461649Y91011D01*
X461513Y89979D01*
X461649Y88947D01*
X462047Y87985D01*
X462681Y87160D01*
X463507Y86526D01*
X464468Y86128D01*
X465500Y85992D01*
X466532Y86128D01*
X467493Y86526D01*
X468319Y87160D01*
X468953Y87985D01*
X469351Y88947D01*
X469487Y89979D01*
X469351Y91011D01*
X468953Y91972D01*
X468319Y92798D01*
X467493Y93432D01*
X466532Y93830D01*
X465500Y93966D01*
D02*
G37*
G36*
X310297Y87901D02*
X309478Y87738D01*
X308783Y87274D01*
X308319Y86579D01*
X308156Y85760D01*
X308319Y84940D01*
X308783Y84246D01*
X309478Y83782D01*
X310297Y83619D01*
X311116Y83782D01*
X311811Y84246D01*
X312275Y84940D01*
X312438Y85760D01*
X312275Y86579D01*
X311811Y87274D01*
X311116Y87738D01*
X310297Y87901D01*
D02*
G37*
G36*
X540338Y90015D02*
X539306Y89879D01*
X538344Y89481D01*
X537519Y88848D01*
X536885Y88022D01*
X536487Y87060D01*
X536351Y86028D01*
X536487Y84996D01*
X536885Y84035D01*
X537519Y83209D01*
X538344Y82576D01*
X539306Y82177D01*
X540338Y82042D01*
X541370Y82177D01*
X542331Y82576D01*
X543157Y83209D01*
X543790Y84035D01*
X544189Y84996D01*
X544325Y86028D01*
X544189Y87060D01*
X543790Y88022D01*
X543157Y88848D01*
X542331Y89481D01*
X541370Y89879D01*
X540338Y90015D01*
D02*
G37*
G36*
X595476Y90015D02*
X594444Y89879D01*
X593482Y89481D01*
X592657Y88848D01*
X592023Y88022D01*
X591625Y87060D01*
X591489Y86028D01*
X591625Y84996D01*
X592023Y84035D01*
X592657Y83209D01*
X593482Y82576D01*
X594444Y82177D01*
X595476Y82042D01*
X596508Y82177D01*
X597469Y82576D01*
X598295Y83209D01*
X598928Y84035D01*
X599327Y84996D01*
X599463Y86028D01*
X599327Y87060D01*
X598928Y88022D01*
X598295Y88848D01*
X597469Y89481D01*
X596508Y89879D01*
X595476Y90015D01*
D02*
G37*
G36*
X585476D02*
X584444Y89879D01*
X583482Y89481D01*
X582656Y88848D01*
X582023Y88022D01*
X581625Y87060D01*
X581489Y86028D01*
X581625Y84996D01*
X582023Y84035D01*
X582656Y83209D01*
X583482Y82576D01*
X584444Y82177D01*
X585476Y82042D01*
X586508Y82177D01*
X587469Y82576D01*
X588295Y83209D01*
X588928Y84035D01*
X589327Y84996D01*
X589463Y86028D01*
X589327Y87060D01*
X588928Y88022D01*
X588295Y88848D01*
X587469Y89481D01*
X586508Y89879D01*
X585476Y90015D01*
D02*
G37*
G36*
X306100Y85341D02*
X305281Y85178D01*
X304586Y84714D01*
X304122Y84019D01*
X303959Y83200D01*
X304122Y82381D01*
X304586Y81686D01*
X305281Y81222D01*
X306100Y81059D01*
X306919Y81222D01*
X307614Y81686D01*
X308078Y82381D01*
X308241Y83200D01*
X308078Y84019D01*
X307614Y84714D01*
X306919Y85178D01*
X306100Y85341D01*
D02*
G37*
G36*
X323500Y84749D02*
X322524Y84555D01*
X321698Y84002D01*
X321145Y83175D01*
X320951Y82200D01*
X321145Y81225D01*
X321698Y80398D01*
X322524Y79845D01*
X323500Y79651D01*
X324476Y79845D01*
X325302Y80398D01*
X325855Y81225D01*
X326049Y82200D01*
X325855Y83175D01*
X325302Y84002D01*
X324476Y84555D01*
X323500Y84749D01*
D02*
G37*
G36*
X540338Y80015D02*
X539306Y79879D01*
X538344Y79481D01*
X537519Y78847D01*
X536885Y78022D01*
X536487Y77060D01*
X536351Y76028D01*
X536487Y74997D01*
X536885Y74035D01*
X537519Y73209D01*
X538344Y72576D01*
X539306Y72177D01*
X540338Y72041D01*
X541370Y72177D01*
X542331Y72576D01*
X543157Y73209D01*
X543790Y74035D01*
X544189Y74997D01*
X544325Y76028D01*
X544189Y77060D01*
X543790Y78022D01*
X543157Y78847D01*
X542331Y79481D01*
X541370Y79879D01*
X540338Y80015D01*
D02*
G37*
G36*
X530338D02*
X529306Y79879D01*
X528344Y79481D01*
X527519Y78847D01*
X526885Y78022D01*
X526487Y77060D01*
X526351Y76028D01*
X526487Y74997D01*
X526885Y74035D01*
X527519Y73209D01*
X528344Y72576D01*
X529306Y72177D01*
X530338Y72041D01*
X531370Y72177D01*
X532331Y72576D01*
X533157Y73209D01*
X533790Y74035D01*
X534189Y74997D01*
X534325Y76028D01*
X534189Y77060D01*
X533790Y78022D01*
X533157Y78847D01*
X532331Y79481D01*
X531370Y79879D01*
X530338Y80015D01*
D02*
G37*
G36*
X595476Y80015D02*
X594444Y79879D01*
X593482Y79481D01*
X592657Y78847D01*
X592023Y78022D01*
X591625Y77060D01*
X591489Y76028D01*
X591625Y74997D01*
X592023Y74035D01*
X592657Y73209D01*
X593482Y72576D01*
X594444Y72177D01*
X595476Y72041D01*
X596508Y72177D01*
X597469Y72576D01*
X598295Y73209D01*
X598928Y74035D01*
X599327Y74997D01*
X599463Y76028D01*
X599327Y77060D01*
X598928Y78022D01*
X598295Y78847D01*
X597469Y79481D01*
X596508Y79879D01*
X595476Y80015D01*
D02*
G37*
G36*
X585476D02*
X584444Y79879D01*
X583482Y79481D01*
X582656Y78847D01*
X582023Y78022D01*
X581625Y77060D01*
X581489Y76028D01*
X581625Y74997D01*
X582023Y74035D01*
X582656Y73209D01*
X583482Y72576D01*
X584444Y72177D01*
X585476Y72041D01*
X586508Y72177D01*
X587469Y72576D01*
X588295Y73209D01*
X588928Y74035D01*
X589327Y74997D01*
X589463Y76028D01*
X589327Y77060D01*
X588928Y78022D01*
X588295Y78847D01*
X587469Y79481D01*
X586508Y79879D01*
X585476Y80015D01*
D02*
G37*
G36*
X323500Y73649D02*
X322524Y73455D01*
X321698Y72902D01*
X321145Y72075D01*
X320951Y71100D01*
X321145Y70125D01*
X321698Y69298D01*
X322524Y68745D01*
X323500Y68551D01*
X324476Y68745D01*
X325302Y69298D01*
X325855Y70125D01*
X326049Y71100D01*
X325855Y72075D01*
X325302Y72902D01*
X324476Y73455D01*
X323500Y73649D01*
D02*
G37*
G36*
X302500Y71549D02*
X301524Y71355D01*
X300698Y70802D01*
X300145Y69976D01*
X299951Y69000D01*
X300145Y68024D01*
X300698Y67198D01*
X301524Y66645D01*
X302500Y66451D01*
X303475Y66645D01*
X304302Y67198D01*
X304855Y68024D01*
X305049Y69000D01*
X304855Y69976D01*
X304302Y70802D01*
X303475Y71355D01*
X302500Y71549D01*
D02*
G37*
G36*
X540338Y70015D02*
X539306Y69879D01*
X538344Y69481D01*
X537519Y68848D01*
X536885Y68022D01*
X536487Y67060D01*
X536351Y66028D01*
X536487Y64996D01*
X536885Y64035D01*
X537519Y63209D01*
X538344Y62576D01*
X539306Y62177D01*
X540338Y62041D01*
X541370Y62177D01*
X542331Y62576D01*
X543157Y63209D01*
X543790Y64035D01*
X544189Y64996D01*
X544325Y66028D01*
X544189Y67060D01*
X543790Y68022D01*
X543157Y68848D01*
X542331Y69481D01*
X541370Y69879D01*
X540338Y70015D01*
D02*
G37*
G36*
X530338D02*
X529306Y69879D01*
X528344Y69481D01*
X527519Y68848D01*
X526885Y68022D01*
X526487Y67060D01*
X526351Y66028D01*
X526487Y64996D01*
X526885Y64035D01*
X527519Y63209D01*
X528344Y62576D01*
X529306Y62177D01*
X530338Y62041D01*
X531370Y62177D01*
X532331Y62576D01*
X533157Y63209D01*
X533790Y64035D01*
X534189Y64996D01*
X534325Y66028D01*
X534189Y67060D01*
X533790Y68022D01*
X533157Y68848D01*
X532331Y69481D01*
X531370Y69879D01*
X530338Y70015D01*
D02*
G37*
G36*
X595476Y70015D02*
X594444Y69879D01*
X593482Y69481D01*
X592657Y68848D01*
X592023Y68022D01*
X591625Y67060D01*
X591489Y66028D01*
X591625Y64996D01*
X592023Y64035D01*
X592657Y63209D01*
X593482Y62576D01*
X594444Y62177D01*
X595476Y62041D01*
X596508Y62177D01*
X597469Y62576D01*
X598295Y63209D01*
X598928Y64035D01*
X599327Y64996D01*
X599463Y66028D01*
X599327Y67060D01*
X598928Y68022D01*
X598295Y68848D01*
X597469Y69481D01*
X596508Y69879D01*
X595476Y70015D01*
D02*
G37*
G36*
X585476D02*
X584444Y69879D01*
X583482Y69481D01*
X582656Y68848D01*
X582023Y68022D01*
X581625Y67060D01*
X581489Y66028D01*
X581625Y64996D01*
X582023Y64035D01*
X582656Y63209D01*
X583482Y62576D01*
X584444Y62177D01*
X585476Y62041D01*
X586508Y62177D01*
X587469Y62576D01*
X588295Y63209D01*
X588928Y64035D01*
X589327Y64996D01*
X589463Y66028D01*
X589327Y67060D01*
X588928Y68022D01*
X588295Y68848D01*
X587469Y69481D01*
X586508Y69879D01*
X585476Y70015D01*
D02*
G37*
G36*
X312600Y61349D02*
X311625Y61155D01*
X310798Y60602D01*
X310245Y59776D01*
X310051Y58800D01*
X310245Y57824D01*
X310798Y56998D01*
X311625Y56445D01*
X312600Y56251D01*
X313576Y56445D01*
X314402Y56998D01*
X314955Y57824D01*
X315149Y58800D01*
X314955Y59776D01*
X314402Y60602D01*
X313576Y61155D01*
X312600Y61349D01*
D02*
G37*
G36*
X458100Y61687D02*
X457068Y61551D01*
X456107Y61153D01*
X455281Y60519D01*
X454647Y59693D01*
X454249Y58732D01*
X454113Y57700D01*
X454249Y56668D01*
X454647Y55707D01*
X455281Y54881D01*
X456107Y54247D01*
X457068Y53849D01*
X458100Y53713D01*
X459132Y53849D01*
X460093Y54247D01*
X460919Y54881D01*
X461553Y55707D01*
X461951Y56668D01*
X462087Y57700D01*
X461951Y58732D01*
X461553Y59693D01*
X460919Y60519D01*
X460093Y61153D01*
X459132Y61551D01*
X458100Y61687D01*
D02*
G37*
G36*
X448100D02*
X447068Y61551D01*
X446107Y61153D01*
X445281Y60519D01*
X444647Y59693D01*
X444249Y58732D01*
X444113Y57700D01*
X444249Y56668D01*
X444647Y55707D01*
X445281Y54881D01*
X446107Y54247D01*
X447068Y53849D01*
X448100Y53713D01*
X449132Y53849D01*
X450093Y54247D01*
X450919Y54881D01*
X451553Y55707D01*
X451951Y56668D01*
X452087Y57700D01*
X451951Y58732D01*
X451553Y59693D01*
X450919Y60519D01*
X450093Y61153D01*
X449132Y61551D01*
X448100Y61687D01*
D02*
G37*
G36*
X428100D02*
X427068Y61551D01*
X426107Y61153D01*
X425281Y60519D01*
X424647Y59693D01*
X424249Y58732D01*
X424113Y57700D01*
X424249Y56668D01*
X424647Y55707D01*
X425281Y54881D01*
X426107Y54247D01*
X427068Y53849D01*
X428100Y53713D01*
X429132Y53849D01*
X430093Y54247D01*
X430919Y54881D01*
X431553Y55707D01*
X431951Y56668D01*
X432087Y57700D01*
X431951Y58732D01*
X431553Y59693D01*
X430919Y60519D01*
X430093Y61153D01*
X429132Y61551D01*
X428100Y61687D01*
D02*
G37*
G36*
X408100D02*
X407068Y61551D01*
X406107Y61153D01*
X405281Y60519D01*
X404647Y59693D01*
X404249Y58732D01*
X404113Y57700D01*
X404249Y56668D01*
X404647Y55707D01*
X405281Y54881D01*
X406107Y54247D01*
X407068Y53849D01*
X408100Y53713D01*
X409132Y53849D01*
X410093Y54247D01*
X410919Y54881D01*
X411553Y55707D01*
X411951Y56668D01*
X412087Y57700D01*
X411951Y58732D01*
X411553Y59693D01*
X410919Y60519D01*
X410093Y61153D01*
X409132Y61551D01*
X408100Y61687D01*
D02*
G37*
G36*
X388100D02*
X387068Y61551D01*
X386107Y61153D01*
X385281Y60519D01*
X384647Y59693D01*
X384249Y58732D01*
X384113Y57700D01*
X384249Y56668D01*
X384647Y55707D01*
X385281Y54881D01*
X386107Y54247D01*
X387068Y53849D01*
X388100Y53713D01*
X389132Y53849D01*
X390093Y54247D01*
X390919Y54881D01*
X391553Y55707D01*
X391951Y56668D01*
X392087Y57700D01*
X391951Y58732D01*
X391553Y59693D01*
X390919Y60519D01*
X390093Y61153D01*
X389132Y61551D01*
X388100Y61687D01*
D02*
G37*
G36*
X362700Y138741D02*
X361881Y138578D01*
X361186Y138114D01*
X360722Y137419D01*
X360559Y136600D01*
X360722Y135781D01*
X361186Y135086D01*
X361264Y135034D01*
X361277Y135019D01*
X361296Y134993D01*
X361309Y134971D01*
X361317Y134955D01*
X361322Y134942D01*
X361323Y134938D01*
Y64700D01*
X361428Y64173D01*
X361727Y63727D01*
X363623Y61830D01*
Y61208D01*
X363007Y60953D01*
X362181Y60319D01*
X361547Y59493D01*
X361149Y58532D01*
X361013Y57500D01*
X361149Y56468D01*
X361547Y55507D01*
X362181Y54681D01*
X363007Y54047D01*
X363968Y53649D01*
X365000Y53513D01*
X366032Y53649D01*
X366993Y54047D01*
X367819Y54681D01*
X368453Y55507D01*
X368851Y56468D01*
X368987Y57500D01*
X368851Y58532D01*
X368453Y59493D01*
X367819Y60319D01*
X366993Y60953D01*
X366376Y61208D01*
Y62400D01*
X366272Y62927D01*
X365973Y63373D01*
X364076Y65270D01*
Y134938D01*
X364078Y134942D01*
X364083Y134955D01*
X364091Y134971D01*
X364104Y134993D01*
X364123Y135019D01*
X364136Y135034D01*
X364214Y135086D01*
X364678Y135781D01*
X364841Y136600D01*
X364678Y137419D01*
X364214Y138114D01*
X363519Y138578D01*
X362700Y138741D01*
D02*
G37*
G36*
X357000Y142741D02*
X356181Y142578D01*
X355486Y142114D01*
X355022Y141419D01*
X354859Y140600D01*
X355022Y139781D01*
X355486Y139086D01*
X355564Y139034D01*
X355577Y139019D01*
X355596Y138993D01*
X355609Y138971D01*
X355617Y138955D01*
X355622Y138942D01*
X355624Y138938D01*
Y64970D01*
X354027Y63373D01*
X353728Y62927D01*
X353624Y62400D01*
Y61208D01*
X353007Y60953D01*
X352181Y60319D01*
X351547Y59493D01*
X351149Y58532D01*
X351013Y57500D01*
X351149Y56468D01*
X351547Y55507D01*
X352181Y54681D01*
X353007Y54047D01*
X353968Y53649D01*
X355000Y53513D01*
X356032Y53649D01*
X356993Y54047D01*
X357819Y54681D01*
X358453Y55507D01*
X358851Y56468D01*
X358987Y57500D01*
X358851Y58532D01*
X358453Y59493D01*
X357819Y60319D01*
X356993Y60953D01*
X356377Y61208D01*
Y61830D01*
X357973Y63427D01*
X358272Y63873D01*
X358377Y64400D01*
X358377Y64400D01*
Y138938D01*
X358378Y138942D01*
X358383Y138955D01*
X358391Y138971D01*
X358404Y138993D01*
X358423Y139019D01*
X358436Y139034D01*
X358514Y139086D01*
X358978Y139781D01*
X359141Y140600D01*
X358978Y141419D01*
X358514Y142114D01*
X357819Y142578D01*
X357000Y142741D01*
D02*
G37*
G36*
X540338Y60015D02*
X539306Y59879D01*
X538344Y59481D01*
X537519Y58847D01*
X536885Y58022D01*
X536487Y57060D01*
X536351Y56028D01*
X536487Y54997D01*
X536885Y54035D01*
X537519Y53209D01*
X538344Y52576D01*
X539306Y52177D01*
X540338Y52042D01*
X541370Y52177D01*
X542331Y52576D01*
X543157Y53209D01*
X543790Y54035D01*
X544189Y54997D01*
X544325Y56028D01*
X544189Y57060D01*
X543790Y58022D01*
X543157Y58847D01*
X542331Y59481D01*
X541370Y59879D01*
X540338Y60015D01*
D02*
G37*
G36*
X530338D02*
X529306Y59879D01*
X528344Y59481D01*
X527519Y58847D01*
X526885Y58022D01*
X526487Y57060D01*
X526351Y56028D01*
X526487Y54997D01*
X526885Y54035D01*
X527519Y53209D01*
X528344Y52576D01*
X529306Y52177D01*
X530338Y52042D01*
X531370Y52177D01*
X532331Y52576D01*
X533157Y53209D01*
X533790Y54035D01*
X534189Y54997D01*
X534325Y56028D01*
X534189Y57060D01*
X533790Y58022D01*
X533157Y58847D01*
X532331Y59481D01*
X531370Y59879D01*
X530338Y60015D01*
D02*
G37*
G36*
X595476Y60015D02*
X594444Y59879D01*
X593482Y59481D01*
X592657Y58847D01*
X592023Y58022D01*
X591625Y57060D01*
X591489Y56028D01*
X591625Y54997D01*
X592023Y54035D01*
X592657Y53209D01*
X593482Y52576D01*
X594444Y52177D01*
X595476Y52042D01*
X596508Y52177D01*
X597469Y52576D01*
X598295Y53209D01*
X598928Y54035D01*
X599327Y54997D01*
X599463Y56028D01*
X599327Y57060D01*
X598928Y58022D01*
X598295Y58847D01*
X597469Y59481D01*
X596508Y59879D01*
X595476Y60015D01*
D02*
G37*
G36*
X585476D02*
X584444Y59879D01*
X583482Y59481D01*
X582656Y58847D01*
X582023Y58022D01*
X581625Y57060D01*
X581489Y56028D01*
X581625Y54997D01*
X582023Y54035D01*
X582656Y53209D01*
X583482Y52576D01*
X584444Y52177D01*
X585476Y52042D01*
X586508Y52177D01*
X587469Y52576D01*
X588295Y53209D01*
X588928Y54035D01*
X589327Y54997D01*
X589463Y56028D01*
X589327Y57060D01*
X588928Y58022D01*
X588295Y58847D01*
X587469Y59481D01*
X586508Y59879D01*
X585476Y60015D01*
D02*
G37*
G36*
X105200Y170847D02*
X104381Y170684D01*
X103686Y170220D01*
X103222Y169525D01*
X103059Y168705D01*
X103222Y167886D01*
X103686Y167192D01*
X104381Y166727D01*
X105200Y166564D01*
X105292Y166583D01*
X105312Y166581D01*
X105344Y166576D01*
X105368Y166570D01*
X105385Y166564D01*
X105398Y166559D01*
X105402Y166557D01*
X108024Y163935D01*
Y52162D01*
X108022Y52158D01*
X108017Y52145D01*
X108009Y52129D01*
X107996Y52108D01*
X107977Y52081D01*
X107964Y52066D01*
X107886Y52014D01*
X107422Y51319D01*
X107259Y50500D01*
X107422Y49681D01*
X107886Y48986D01*
X108581Y48522D01*
X109400Y48359D01*
X110219Y48522D01*
X110914Y48986D01*
X111378Y49681D01*
X111541Y50500D01*
X111378Y51319D01*
X110914Y52014D01*
X110836Y52066D01*
X110823Y52081D01*
X110804Y52108D01*
X110791Y52129D01*
X110783Y52145D01*
X110778Y52158D01*
X110776Y52162D01*
Y164506D01*
X110776Y164506D01*
X110672Y165032D01*
X110373Y165479D01*
X110373Y165479D01*
X107349Y168503D01*
X107347Y168507D01*
X107341Y168520D01*
X107335Y168538D01*
X107330Y168562D01*
X107325Y168594D01*
X107323Y168614D01*
X107341Y168705D01*
X107178Y169525D01*
X106714Y170220D01*
X106019Y170684D01*
X105200Y170847D01*
D02*
G37*
G36*
X358953Y51453D02*
X351047D01*
Y43547D01*
X358953D01*
Y51453D01*
D02*
G37*
G36*
X348953D02*
X341047D01*
Y43547D01*
X348953D01*
Y51453D01*
D02*
G37*
G36*
X338953D02*
X331047D01*
Y43547D01*
X338953D01*
Y51453D01*
D02*
G37*
G36*
X540338Y50015D02*
X539306Y49879D01*
X538344Y49481D01*
X537519Y48847D01*
X536885Y48022D01*
X536487Y47060D01*
X536351Y46028D01*
X536487Y44997D01*
X536885Y44035D01*
X537519Y43209D01*
X538344Y42576D01*
X539306Y42177D01*
X540338Y42042D01*
X541370Y42177D01*
X542331Y42576D01*
X543157Y43209D01*
X543790Y44035D01*
X544189Y44997D01*
X544325Y46028D01*
X544189Y47060D01*
X543790Y48022D01*
X543157Y48847D01*
X542331Y49481D01*
X541370Y49879D01*
X540338Y50015D01*
D02*
G37*
G36*
X530338D02*
X529306Y49879D01*
X528344Y49481D01*
X527519Y48847D01*
X526885Y48022D01*
X526487Y47060D01*
X526351Y46028D01*
X526487Y44997D01*
X526885Y44035D01*
X527519Y43209D01*
X528344Y42576D01*
X529306Y42177D01*
X530338Y42042D01*
X531370Y42177D01*
X532331Y42576D01*
X533157Y43209D01*
X533790Y44035D01*
X534189Y44997D01*
X534325Y46028D01*
X534189Y47060D01*
X533790Y48022D01*
X533157Y48847D01*
X532331Y49481D01*
X531370Y49879D01*
X530338Y50015D01*
D02*
G37*
G36*
X595476Y50015D02*
X594444Y49879D01*
X593482Y49481D01*
X592657Y48847D01*
X592023Y48022D01*
X591625Y47060D01*
X591489Y46028D01*
X591625Y44997D01*
X592023Y44035D01*
X592657Y43209D01*
X593482Y42576D01*
X594444Y42177D01*
X595476Y42042D01*
X596508Y42177D01*
X597469Y42576D01*
X598295Y43209D01*
X598928Y44035D01*
X599327Y44997D01*
X599463Y46028D01*
X599327Y47060D01*
X598928Y48022D01*
X598295Y48847D01*
X597469Y49481D01*
X596508Y49879D01*
X595476Y50015D01*
D02*
G37*
G36*
X585476D02*
X584444Y49879D01*
X583482Y49481D01*
X582656Y48847D01*
X582023Y48022D01*
X581625Y47060D01*
X581489Y46028D01*
X581625Y44997D01*
X582023Y44035D01*
X582656Y43209D01*
X583482Y42576D01*
X584444Y42177D01*
X585476Y42042D01*
X586508Y42177D01*
X587469Y42576D01*
X588295Y43209D01*
X588928Y44035D01*
X589327Y44997D01*
X589463Y46028D01*
X589327Y47060D01*
X588928Y48022D01*
X588295Y48847D01*
X587469Y49481D01*
X586508Y49879D01*
X585476Y50015D01*
D02*
G37*
G36*
X302022Y46332D02*
X301056Y46205D01*
X300156Y45832D01*
X299383Y45239D01*
X298790Y44466D01*
X298417Y43566D01*
X298290Y42600D01*
X298417Y41634D01*
X298790Y40734D01*
X299383Y39961D01*
X300156Y39368D01*
X301056Y38995D01*
X301763Y38902D01*
Y38398D01*
X301056Y38305D01*
X300156Y37932D01*
X299383Y37339D01*
X298790Y36566D01*
X298417Y35666D01*
X298356Y35200D01*
X305688D01*
X305627Y35666D01*
X305254Y36566D01*
X304661Y37339D01*
X303888Y37932D01*
X302988Y38305D01*
X302281Y38398D01*
Y38902D01*
X302988Y38995D01*
X303888Y39368D01*
X304661Y39961D01*
X305254Y40734D01*
X305627Y41634D01*
X305754Y42600D01*
X305627Y43566D01*
X305254Y44466D01*
X304661Y45239D01*
X303888Y45832D01*
X302988Y46205D01*
X302022Y46332D01*
D02*
G37*
G36*
X540338Y40015D02*
X539306Y39879D01*
X538344Y39481D01*
X537519Y38848D01*
X536885Y38022D01*
X536487Y37060D01*
X536351Y36028D01*
X536487Y34997D01*
X536885Y34035D01*
X537519Y33209D01*
X538344Y32576D01*
X539306Y32177D01*
X540338Y32041D01*
X541370Y32177D01*
X542331Y32576D01*
X543157Y33209D01*
X543790Y34035D01*
X544189Y34997D01*
X544325Y36028D01*
X544189Y37060D01*
X543790Y38022D01*
X543157Y38848D01*
X542331Y39481D01*
X541370Y39879D01*
X540338Y40015D01*
D02*
G37*
G36*
X530338D02*
X529306Y39879D01*
X528344Y39481D01*
X527519Y38848D01*
X526885Y38022D01*
X526487Y37060D01*
X526351Y36028D01*
X526487Y34997D01*
X526885Y34035D01*
X527519Y33209D01*
X528344Y32576D01*
X529306Y32177D01*
X530338Y32041D01*
X531370Y32177D01*
X532331Y32576D01*
X533157Y33209D01*
X533790Y34035D01*
X534189Y34997D01*
X534325Y36028D01*
X534189Y37060D01*
X533790Y38022D01*
X533157Y38848D01*
X532331Y39481D01*
X531370Y39879D01*
X530338Y40015D01*
D02*
G37*
G36*
X595476Y40015D02*
X594444Y39879D01*
X593482Y39481D01*
X592657Y38848D01*
X592023Y38022D01*
X591625Y37060D01*
X591489Y36028D01*
X591625Y34997D01*
X592023Y34035D01*
X592657Y33209D01*
X593482Y32576D01*
X594444Y32177D01*
X595476Y32041D01*
X596508Y32177D01*
X597469Y32576D01*
X598295Y33209D01*
X598928Y34035D01*
X599327Y34997D01*
X599463Y36028D01*
X599327Y37060D01*
X598928Y38022D01*
X598295Y38848D01*
X597469Y39481D01*
X596508Y39879D01*
X595476Y40015D01*
D02*
G37*
G36*
X585476D02*
X584444Y39879D01*
X583482Y39481D01*
X582656Y38848D01*
X582023Y38022D01*
X581625Y37060D01*
X581489Y36028D01*
X581625Y34997D01*
X582023Y34035D01*
X582656Y33209D01*
X583482Y32576D01*
X584444Y32177D01*
X585476Y32041D01*
X586508Y32177D01*
X587469Y32576D01*
X588295Y33209D01*
X588928Y34035D01*
X589327Y34997D01*
X589463Y36028D01*
X589327Y37060D01*
X588928Y38022D01*
X588295Y38848D01*
X587469Y39481D01*
X586508Y39879D01*
X585476Y40015D01*
D02*
G37*
G36*
X305688Y34200D02*
X302522D01*
Y31034D01*
X302988Y31095D01*
X303888Y31468D01*
X304661Y32061D01*
X305254Y32834D01*
X305627Y33734D01*
X305688Y34200D01*
D02*
G37*
G36*
X301522D02*
X298356D01*
X298417Y33734D01*
X298790Y32834D01*
X299383Y32061D01*
X300156Y31468D01*
X301056Y31095D01*
X301522Y31034D01*
Y34200D01*
D02*
G37*
G36*
X292101Y46332D02*
X291135Y46205D01*
X290235Y45832D01*
X289462Y45239D01*
X288869Y44466D01*
X288496Y43566D01*
X288369Y42600D01*
X288496Y41634D01*
X288869Y40734D01*
X289462Y39961D01*
X290235Y39368D01*
X291135Y38995D01*
X291842Y38902D01*
Y38398D01*
X291135Y38305D01*
X290235Y37932D01*
X289462Y37339D01*
X288869Y36566D01*
X288496Y35666D01*
X288369Y34700D01*
X288496Y33734D01*
X288869Y32834D01*
X289462Y32061D01*
X290235Y31468D01*
X291135Y31095D01*
X292101Y30968D01*
X293067Y31095D01*
X293967Y31468D01*
X294740Y32061D01*
X295333Y32834D01*
X295706Y33734D01*
X295833Y34700D01*
X295706Y35666D01*
X295333Y36566D01*
X294740Y37339D01*
X293967Y37932D01*
X293067Y38305D01*
X292360Y38398D01*
Y38902D01*
X293067Y38995D01*
X293967Y39368D01*
X294740Y39961D01*
X295333Y40734D01*
X295706Y41634D01*
X295833Y42600D01*
X295706Y43566D01*
X295333Y44466D01*
X294740Y45239D01*
X293967Y45832D01*
X293067Y46205D01*
X292101Y46332D01*
D02*
G37*
G36*
X544290Y29981D02*
X540838D01*
Y26528D01*
X544290D01*
Y29981D01*
D02*
G37*
G36*
X530838Y29949D02*
Y26528D01*
X534259D01*
X534189Y27060D01*
X533790Y28022D01*
X533157Y28848D01*
X532331Y29481D01*
X531370Y29879D01*
X530838Y29949D01*
D02*
G37*
G36*
X529838Y29949D02*
X529306Y29879D01*
X528344Y29481D01*
X527519Y28848D01*
X526885Y28022D01*
X526487Y27060D01*
X526417Y26528D01*
X529838D01*
Y29949D01*
D02*
G37*
G36*
X539838Y29981D02*
X536385D01*
Y26528D01*
X539838D01*
Y29981D01*
D02*
G37*
G36*
X480700Y26685D02*
Y25500D01*
X481885D01*
X481848Y25683D01*
X481462Y26262D01*
X480883Y26649D01*
X480700Y26685D01*
D02*
G37*
G36*
X479700D02*
X479517Y26649D01*
X478938Y26262D01*
X478551Y25683D01*
X478515Y25500D01*
X479700D01*
Y26685D01*
D02*
G37*
G36*
X45500D02*
Y25500D01*
X46685D01*
X46648Y25683D01*
X46262Y26262D01*
X45683Y26649D01*
X45500Y26685D01*
D02*
G37*
G36*
X44500D02*
X44317Y26649D01*
X43738Y26262D01*
X43352Y25683D01*
X43315Y25500D01*
X44500D01*
Y26685D01*
D02*
G37*
G36*
X481885Y24500D02*
X480700D01*
Y23315D01*
X480883Y23351D01*
X481462Y23738D01*
X481848Y24317D01*
X481885Y24500D01*
D02*
G37*
G36*
X479700D02*
X478515D01*
X478551Y24317D01*
X478938Y23738D01*
X479517Y23351D01*
X479700Y23315D01*
Y24500D01*
D02*
G37*
G36*
X46685D02*
X45500D01*
Y23315D01*
X45683Y23351D01*
X46262Y23738D01*
X46648Y24317D01*
X46685Y24500D01*
D02*
G37*
G36*
X44500D02*
X43315D01*
X43352Y24317D01*
X43738Y23738D01*
X44317Y23351D01*
X44500Y23315D01*
Y24500D01*
D02*
G37*
G36*
X487700Y23685D02*
Y22500D01*
X488885D01*
X488848Y22683D01*
X488462Y23262D01*
X487883Y23649D01*
X487700Y23685D01*
D02*
G37*
G36*
X486700D02*
X486517Y23649D01*
X485938Y23262D01*
X485552Y22683D01*
X485515Y22500D01*
X486700D01*
Y23685D01*
D02*
G37*
G36*
X473700D02*
Y22500D01*
X474885D01*
X474849Y22683D01*
X474462Y23262D01*
X473883Y23649D01*
X473700Y23685D01*
D02*
G37*
G36*
X472700D02*
X472517Y23649D01*
X471938Y23262D01*
X471552Y22683D01*
X471515Y22500D01*
X472700D01*
Y23685D01*
D02*
G37*
G36*
X52500D02*
Y22500D01*
X53685D01*
X53649Y22683D01*
X53262Y23262D01*
X52683Y23649D01*
X52500Y23685D01*
D02*
G37*
G36*
X51500D02*
X51317Y23649D01*
X50738Y23262D01*
X50352Y22683D01*
X50315Y22500D01*
X51500D01*
Y23685D01*
D02*
G37*
G36*
X38500D02*
Y22500D01*
X39685D01*
X39649Y22683D01*
X39262Y23262D01*
X38683Y23649D01*
X38500Y23685D01*
D02*
G37*
G36*
X37500D02*
X37317Y23649D01*
X36738Y23262D01*
X36351Y22683D01*
X36315Y22500D01*
X37500D01*
Y23685D01*
D02*
G37*
G36*
X529838Y25528D02*
X526417D01*
X526487Y24996D01*
X526885Y24035D01*
X527519Y23209D01*
X528344Y22576D01*
X529306Y22177D01*
X529838Y22107D01*
Y25528D01*
D02*
G37*
G36*
X534259D02*
X530838D01*
Y22107D01*
X531370Y22177D01*
X532331Y22576D01*
X533157Y23209D01*
X533790Y24035D01*
X534189Y24996D01*
X534259Y25528D01*
D02*
G37*
G36*
X544290D02*
X540838D01*
Y22076D01*
X544290D01*
Y25528D01*
D02*
G37*
G36*
X539838D02*
X536385D01*
Y22076D01*
X539838D01*
Y25528D01*
D02*
G37*
G36*
X599428Y29981D02*
X591523D01*
Y22076D01*
X599428D01*
Y29981D01*
D02*
G37*
G36*
X585476Y30015D02*
X584444Y29879D01*
X583482Y29481D01*
X582656Y28848D01*
X582023Y28022D01*
X581625Y27060D01*
X581489Y26028D01*
X581625Y24996D01*
X582023Y24035D01*
X582656Y23209D01*
X583482Y22576D01*
X584444Y22177D01*
X585476Y22041D01*
X586508Y22177D01*
X587469Y22576D01*
X588295Y23209D01*
X588928Y24035D01*
X589327Y24996D01*
X589463Y26028D01*
X589327Y27060D01*
X588928Y28022D01*
X588295Y28848D01*
X587469Y29481D01*
X586508Y29879D01*
X585476Y30015D01*
D02*
G37*
G36*
X488885Y21500D02*
X487700D01*
Y20315D01*
X487883Y20351D01*
X488462Y20738D01*
X488848Y21317D01*
X488885Y21500D01*
D02*
G37*
G36*
X486700D02*
X485515D01*
X485552Y21317D01*
X485938Y20738D01*
X486517Y20351D01*
X486700Y20315D01*
Y21500D01*
D02*
G37*
G36*
X474885D02*
X473700D01*
Y20315D01*
X473883Y20351D01*
X474462Y20738D01*
X474849Y21317D01*
X474885Y21500D01*
D02*
G37*
G36*
X472700D02*
X471515D01*
X471552Y21317D01*
X471938Y20738D01*
X472517Y20351D01*
X472700Y20315D01*
Y21500D01*
D02*
G37*
G36*
X53685D02*
X52500D01*
Y20315D01*
X52683Y20351D01*
X53262Y20738D01*
X53649Y21317D01*
X53685Y21500D01*
D02*
G37*
G36*
X51500D02*
X50315D01*
X50352Y21317D01*
X50738Y20738D01*
X51317Y20351D01*
X51500Y20315D01*
Y21500D01*
D02*
G37*
G36*
X39685D02*
X38500D01*
Y20315D01*
X38683Y20351D01*
X39262Y20738D01*
X39649Y21317D01*
X39685Y21500D01*
D02*
G37*
G36*
X37500D02*
X36315D01*
X36351Y21317D01*
X36738Y20738D01*
X37317Y20351D01*
X37500Y20315D01*
Y21500D01*
D02*
G37*
G36*
X490700Y16685D02*
Y15500D01*
X491885D01*
X491849Y15683D01*
X491462Y16262D01*
X490883Y16648D01*
X490700Y16685D01*
D02*
G37*
G36*
X489700D02*
X489517Y16648D01*
X488938Y16262D01*
X488552Y15683D01*
X488515Y15500D01*
X489700D01*
Y16685D01*
D02*
G37*
G36*
X470700D02*
Y15500D01*
X471885D01*
X471848Y15683D01*
X471462Y16262D01*
X470883Y16648D01*
X470700Y16685D01*
D02*
G37*
G36*
X469700D02*
X469517Y16648D01*
X468938Y16262D01*
X468551Y15683D01*
X468515Y15500D01*
X469700D01*
Y16685D01*
D02*
G37*
G36*
X55500D02*
Y15500D01*
X56685D01*
X56648Y15683D01*
X56262Y16262D01*
X55683Y16648D01*
X55500Y16685D01*
D02*
G37*
G36*
X54500D02*
X54317Y16648D01*
X53738Y16262D01*
X53351Y15683D01*
X53315Y15500D01*
X54500D01*
Y16685D01*
D02*
G37*
G36*
X35500D02*
Y15500D01*
X36685D01*
X36648Y15683D01*
X36262Y16262D01*
X35683Y16648D01*
X35500Y16685D01*
D02*
G37*
G36*
X34500D02*
X34317Y16648D01*
X33738Y16262D01*
X33351Y15683D01*
X33315Y15500D01*
X34500D01*
Y16685D01*
D02*
G37*
G36*
X491885Y14500D02*
X490700D01*
Y13315D01*
X490883Y13352D01*
X491462Y13738D01*
X491849Y14317D01*
X491885Y14500D01*
D02*
G37*
G36*
X489700D02*
X488515D01*
X488552Y14317D01*
X488938Y13738D01*
X489517Y13352D01*
X489700Y13315D01*
Y14500D01*
D02*
G37*
G36*
X471885D02*
X470700D01*
Y13315D01*
X470883Y13352D01*
X471462Y13738D01*
X471848Y14317D01*
X471885Y14500D01*
D02*
G37*
G36*
X469700D02*
X468515D01*
X468551Y14317D01*
X468938Y13738D01*
X469517Y13352D01*
X469700Y13315D01*
Y14500D01*
D02*
G37*
G36*
X56685D02*
X55500D01*
Y13315D01*
X55683Y13352D01*
X56262Y13738D01*
X56648Y14317D01*
X56685Y14500D01*
D02*
G37*
G36*
X54500D02*
X53315D01*
X53351Y14317D01*
X53738Y13738D01*
X54317Y13352D01*
X54500Y13315D01*
Y14500D01*
D02*
G37*
G36*
X36685D02*
X35500D01*
Y13315D01*
X35683Y13352D01*
X36262Y13738D01*
X36648Y14317D01*
X36685Y14500D01*
D02*
G37*
G36*
X34500D02*
X33315D01*
X33351Y14317D01*
X33738Y13738D01*
X34317Y13352D01*
X34500Y13315D01*
Y14500D01*
D02*
G37*
G36*
X487700Y9685D02*
Y8500D01*
X488885D01*
X488848Y8683D01*
X488462Y9262D01*
X487883Y9648D01*
X487700Y9685D01*
D02*
G37*
G36*
X486700D02*
X486517Y9648D01*
X485938Y9262D01*
X485552Y8683D01*
X485515Y8500D01*
X486700D01*
Y9685D01*
D02*
G37*
G36*
X473700D02*
Y8500D01*
X474885D01*
X474849Y8683D01*
X474462Y9262D01*
X473883Y9648D01*
X473700Y9685D01*
D02*
G37*
G36*
X472700D02*
X472517Y9648D01*
X471938Y9262D01*
X471552Y8683D01*
X471515Y8500D01*
X472700D01*
Y9685D01*
D02*
G37*
G36*
X52500D02*
Y8500D01*
X53685D01*
X53649Y8683D01*
X53262Y9262D01*
X52683Y9648D01*
X52500Y9685D01*
D02*
G37*
G36*
X51500D02*
X51317Y9648D01*
X50738Y9262D01*
X50352Y8683D01*
X50315Y8500D01*
X51500D01*
Y9685D01*
D02*
G37*
G36*
X38500D02*
Y8500D01*
X39685D01*
X39649Y8683D01*
X39262Y9262D01*
X38683Y9648D01*
X38500Y9685D01*
D02*
G37*
G36*
X37500D02*
X37317Y9648D01*
X36738Y9262D01*
X36351Y8683D01*
X36315Y8500D01*
X37500D01*
Y9685D01*
D02*
G37*
G36*
X480200Y21939D02*
X478846Y21806D01*
X477545Y21411D01*
X476345Y20770D01*
X475293Y19907D01*
X474431Y18855D01*
X473789Y17655D01*
X473394Y16354D01*
X473261Y15000D01*
X473394Y13646D01*
X473789Y12345D01*
X474431Y11145D01*
X475293Y10093D01*
X476345Y9230D01*
X477545Y8589D01*
X478846Y8194D01*
X480200Y8061D01*
X481554Y8194D01*
X482855Y8589D01*
X484055Y9230D01*
X485107Y10093D01*
X485969Y11145D01*
X486611Y12345D01*
X487006Y13646D01*
X487139Y15000D01*
X487006Y16354D01*
X486611Y17655D01*
X485969Y18855D01*
X485107Y19907D01*
X484055Y20770D01*
X482855Y21411D01*
X481554Y21806D01*
X480200Y21939D01*
D02*
G37*
G36*
X45000D02*
X43646Y21806D01*
X42345Y21411D01*
X41145Y20770D01*
X40093Y19907D01*
X39230Y18855D01*
X38589Y17655D01*
X38194Y16354D01*
X38061Y15000D01*
X38194Y13646D01*
X38589Y12345D01*
X39230Y11145D01*
X40093Y10093D01*
X41145Y9230D01*
X42345Y8589D01*
X43646Y8194D01*
X45000Y8061D01*
X46354Y8194D01*
X47655Y8589D01*
X48855Y9230D01*
X49907Y10093D01*
X50770Y11145D01*
X51411Y12345D01*
X51806Y13646D01*
X51939Y15000D01*
X51806Y16354D01*
X51411Y17655D01*
X50770Y18855D01*
X49907Y19907D01*
X48855Y20770D01*
X47655Y21411D01*
X46354Y21806D01*
X45000Y21939D01*
D02*
G37*
G36*
X488885Y7500D02*
X487700D01*
Y6315D01*
X487883Y6352D01*
X488462Y6738D01*
X488848Y7317D01*
X488885Y7500D01*
D02*
G37*
G36*
X486700D02*
X485515D01*
X485552Y7317D01*
X485938Y6738D01*
X486517Y6352D01*
X486700Y6315D01*
Y7500D01*
D02*
G37*
G36*
X474885D02*
X473700D01*
Y6315D01*
X473883Y6352D01*
X474462Y6738D01*
X474849Y7317D01*
X474885Y7500D01*
D02*
G37*
G36*
X472700D02*
X471515D01*
X471552Y7317D01*
X471938Y6738D01*
X472517Y6352D01*
X472700Y6315D01*
Y7500D01*
D02*
G37*
G36*
X53685D02*
X52500D01*
Y6315D01*
X52683Y6352D01*
X53262Y6738D01*
X53649Y7317D01*
X53685Y7500D01*
D02*
G37*
G36*
X51500D02*
X50315D01*
X50352Y7317D01*
X50738Y6738D01*
X51317Y6352D01*
X51500Y6315D01*
Y7500D01*
D02*
G37*
G36*
X39685D02*
X38500D01*
Y6315D01*
X38683Y6352D01*
X39262Y6738D01*
X39649Y7317D01*
X39685Y7500D01*
D02*
G37*
G36*
X37500D02*
X36315D01*
X36351Y7317D01*
X36738Y6738D01*
X37317Y6352D01*
X37500Y6315D01*
Y7500D01*
D02*
G37*
G36*
X480700Y6685D02*
Y5500D01*
X481885D01*
X481848Y5683D01*
X481462Y6262D01*
X480883Y6649D01*
X480700Y6685D01*
D02*
G37*
G36*
X479700D02*
X479517Y6649D01*
X478938Y6262D01*
X478551Y5683D01*
X478515Y5500D01*
X479700D01*
Y6685D01*
D02*
G37*
G36*
X45500D02*
Y5500D01*
X46685D01*
X46648Y5683D01*
X46262Y6262D01*
X45683Y6649D01*
X45500Y6685D01*
D02*
G37*
G36*
X44500D02*
X44317Y6649D01*
X43738Y6262D01*
X43352Y5683D01*
X43315Y5500D01*
X44500D01*
Y6685D01*
D02*
G37*
G36*
X481885Y4500D02*
X480700D01*
Y3315D01*
X480883Y3351D01*
X481462Y3738D01*
X481848Y4317D01*
X481885Y4500D01*
D02*
G37*
G36*
X479700D02*
X478515D01*
X478551Y4317D01*
X478938Y3738D01*
X479517Y3351D01*
X479700Y3315D01*
Y4500D01*
D02*
G37*
G36*
X46685D02*
X45500D01*
Y3315D01*
X45683Y3351D01*
X46262Y3738D01*
X46648Y4317D01*
X46685Y4500D01*
D02*
G37*
G36*
X44500D02*
X43315D01*
X43352Y4317D01*
X43738Y3738D01*
X44317Y3351D01*
X44500Y3315D01*
Y4500D01*
D02*
G37*
%LPD*%
G36*
X57700Y229100D02*
X38323D01*
X38314Y229114D01*
X37619Y229578D01*
X36800Y229741D01*
X35981Y229578D01*
X35286Y229114D01*
X35277Y229100D01*
X33323D01*
X33314Y229114D01*
X32619Y229578D01*
X31800Y229741D01*
X30981Y229578D01*
X30286Y229114D01*
X30277Y229100D01*
X28323D01*
X28314Y229114D01*
X27619Y229578D01*
X26800Y229741D01*
X25981Y229578D01*
X25286Y229114D01*
X25277Y229100D01*
X21700D01*
X21700Y292400D01*
X57700D01*
X57700Y229100D01*
D02*
G37*
G36*
X20680Y196824D02*
Y144046D01*
X20180Y143876D01*
X19788Y144388D01*
X19491Y144685D01*
Y166450D01*
X19825D01*
Y184950D01*
X19491D01*
Y196215D01*
X19888Y196612D01*
X20180Y196994D01*
X20680Y196824D01*
D02*
G37*
G36*
X57700Y184721D02*
X56234Y184577D01*
X54631Y184091D01*
X53155Y183302D01*
X51860Y182239D01*
X50798Y180945D01*
X50009Y179469D01*
X49523Y177866D01*
X49359Y176200D01*
X49523Y174534D01*
X50009Y172931D01*
X50798Y171455D01*
X51860Y170160D01*
X53155Y169098D01*
X54631Y168309D01*
X56234Y167823D01*
X57700Y167679D01*
Y131600D01*
X38323D01*
X38314Y131614D01*
X37619Y132078D01*
X36800Y132241D01*
X35981Y132078D01*
X35286Y131614D01*
X35277Y131600D01*
X33323D01*
X33314Y131614D01*
X32619Y132078D01*
X31800Y132241D01*
X30981Y132078D01*
X30286Y131614D01*
X30277Y131600D01*
X28323D01*
X28314Y131614D01*
X27619Y132078D01*
X26800Y132241D01*
X25981Y132078D01*
X25286Y131614D01*
X25277Y131600D01*
X21700D01*
Y220100D01*
X57700D01*
Y184721D01*
D02*
G37*
G36*
X20680Y96954D02*
Y68546D01*
X20180Y68376D01*
X19788Y68888D01*
X19491Y69184D01*
Y74150D01*
X19825D01*
Y92650D01*
X19491D01*
Y96315D01*
X19788Y96612D01*
X20180Y97124D01*
X20680Y96954D01*
D02*
G37*
G36*
X57700Y39300D02*
X38323D01*
X38314Y39314D01*
X37619Y39778D01*
X36800Y39941D01*
X35981Y39778D01*
X35286Y39314D01*
X35277Y39300D01*
X33323D01*
X33314Y39314D01*
X32619Y39778D01*
X31800Y39941D01*
X30981Y39778D01*
X30286Y39314D01*
X30277Y39300D01*
X28323D01*
X28314Y39314D01*
X27619Y39778D01*
X26800Y39941D01*
X25981Y39778D01*
X25286Y39314D01*
X25277Y39300D01*
X21700D01*
Y127800D01*
X57700D01*
Y39300D01*
D02*
G37*
%LPC*%
G36*
X35200Y282428D02*
Y273700D01*
X39869D01*
Y277325D01*
X39693Y278663D01*
X39177Y279910D01*
X38355Y280980D01*
X37285Y281802D01*
X36038Y282318D01*
X35200Y282428D01*
D02*
G37*
G36*
X34200D02*
X33362Y282318D01*
X32115Y281802D01*
X31045Y280980D01*
X30223Y279910D01*
X29707Y278663D01*
X29531Y277325D01*
Y273700D01*
X34200D01*
Y282428D01*
D02*
G37*
G36*
X39869Y272700D02*
X35200D01*
Y263972D01*
X36038Y264082D01*
X37285Y264598D01*
X38355Y265420D01*
X39177Y266490D01*
X39693Y267737D01*
X39869Y269075D01*
Y272700D01*
D02*
G37*
G36*
X34200D02*
X29531D01*
Y269075D01*
X29707Y267737D01*
X30223Y266490D01*
X31045Y265420D01*
X32115Y264598D01*
X33362Y264082D01*
X34200Y263972D01*
Y272700D01*
D02*
G37*
G36*
X35200Y184928D02*
Y176200D01*
X39869D01*
Y179825D01*
X39693Y181163D01*
X39177Y182410D01*
X38355Y183480D01*
X37285Y184302D01*
X36038Y184818D01*
X35200Y184928D01*
D02*
G37*
G36*
X34200D02*
X33362Y184818D01*
X32115Y184302D01*
X31045Y183480D01*
X30223Y182410D01*
X29707Y181163D01*
X29531Y179825D01*
Y176200D01*
X34200D01*
Y184928D01*
D02*
G37*
G36*
X39869Y175200D02*
X35200D01*
Y166472D01*
X36038Y166582D01*
X37285Y167098D01*
X38355Y167920D01*
X39177Y168990D01*
X39693Y170237D01*
X39869Y171575D01*
Y175200D01*
D02*
G37*
G36*
X34200D02*
X29531D01*
Y171575D01*
X29707Y170237D01*
X30223Y168990D01*
X31045Y167920D01*
X32115Y167098D01*
X33362Y166582D01*
X34200Y166472D01*
Y175200D01*
D02*
G37*
G36*
X35200Y92628D02*
Y83900D01*
X39869D01*
Y87525D01*
X39693Y88863D01*
X39177Y90110D01*
X38355Y91180D01*
X37285Y92002D01*
X36038Y92518D01*
X35200Y92628D01*
D02*
G37*
G36*
X34200D02*
X33362Y92518D01*
X32115Y92002D01*
X31045Y91180D01*
X30223Y90110D01*
X29707Y88863D01*
X29531Y87525D01*
Y83900D01*
X34200D01*
Y92628D01*
D02*
G37*
G36*
X39869Y82900D02*
X35200D01*
Y74172D01*
X36038Y74282D01*
X37285Y74798D01*
X38355Y75620D01*
X39177Y76690D01*
X39693Y77937D01*
X39869Y79275D01*
Y82900D01*
D02*
G37*
G36*
X34200D02*
X29531D01*
Y79275D01*
X29707Y77937D01*
X30223Y76690D01*
X31045Y75620D01*
X32115Y74798D01*
X33362Y74282D01*
X34200Y74172D01*
Y82900D01*
D02*
G37*
%LPD*%
G36*
X626800Y218124D02*
X626486Y217914D01*
X626022Y217219D01*
X625859Y216400D01*
X626022Y215581D01*
X626486Y214886D01*
X626800Y214676D01*
Y210800D01*
X619450D01*
X619294Y211034D01*
X618599Y211498D01*
X617780Y211661D01*
X616961Y211498D01*
X616266Y211034D01*
X616110Y210800D01*
X607800D01*
Y212464D01*
X607878Y212581D01*
X608041Y213400D01*
X607878Y214219D01*
X607800Y214336D01*
Y224194D01*
X608019Y224522D01*
X608194Y225400D01*
X608019Y226278D01*
X607800Y226606D01*
Y228300D01*
X611490D01*
X611729Y227943D01*
X612424Y227479D01*
X613243Y227316D01*
X614062Y227479D01*
X614757Y227943D01*
X614996Y228300D01*
X617992D01*
X618234Y227938D01*
X618929Y227473D01*
X619748Y227310D01*
X620568Y227473D01*
X621263Y227938D01*
X621505Y228300D01*
X626800D01*
Y218124D01*
D02*
G37*
G36*
X91889Y185200D02*
X91774Y185198D01*
X91663Y185188D01*
X91557Y185171D01*
X91455Y185147D01*
X91359Y185115D01*
X91266Y185076D01*
X91179Y185030D01*
X91096Y184977D01*
X91017Y184916D01*
X90943Y184848D01*
X90448Y185343D01*
X90516Y185417D01*
X90577Y185496D01*
X90630Y185579D01*
X90676Y185666D01*
X90715Y185759D01*
X90747Y185855D01*
X90771Y185957D01*
X90788Y186063D01*
X90798Y186174D01*
X90800Y186289D01*
X91889Y185200D01*
D02*
G37*
G36*
X87124Y169970D02*
X85202Y168049D01*
X85198Y168047D01*
X85185Y168041D01*
X85168Y168035D01*
X85144Y168030D01*
X85112Y168025D01*
X85092Y168023D01*
X85000Y168041D01*
X84181Y167878D01*
X83486Y167414D01*
X83022Y166719D01*
X82900Y166107D01*
X82400Y166156D01*
Y168607D01*
X83096Y169304D01*
X83657Y170035D01*
X84010Y170886D01*
X84130Y171800D01*
X84051Y172400D01*
X84436Y172900D01*
X87124D01*
Y169970D01*
D02*
G37*
G36*
X86452Y166857D02*
X86384Y166783D01*
X86323Y166704D01*
X86270Y166621D01*
X86224Y166534D01*
X86185Y166441D01*
X86153Y166345D01*
X86129Y166243D01*
X86112Y166137D01*
X86102Y166026D01*
X86100Y165911D01*
X85011Y167000D01*
X85126Y167002D01*
X85237Y167012D01*
X85343Y167029D01*
X85445Y167053D01*
X85541Y167085D01*
X85634Y167124D01*
X85721Y167170D01*
X85804Y167223D01*
X85883Y167284D01*
X85957Y167352D01*
X86452Y166857D01*
D02*
G37*
G36*
X101131Y156500D02*
X97157D01*
X96934Y156834D01*
X96239Y157298D01*
X95420Y157461D01*
X94601Y157298D01*
X93906Y156834D01*
X93683Y156500D01*
X82400D01*
Y158714D01*
X82578Y158981D01*
X82741Y159800D01*
X82578Y160619D01*
X82400Y160886D01*
Y165644D01*
X82900Y165693D01*
X83022Y165081D01*
X83486Y164386D01*
X84181Y163922D01*
X85000Y163759D01*
X85819Y163922D01*
X86514Y164386D01*
X86978Y165081D01*
X87141Y165900D01*
X87123Y165992D01*
X87125Y166012D01*
X87130Y166044D01*
X87135Y166068D01*
X87141Y166085D01*
X87147Y166098D01*
X87149Y166102D01*
X89473Y168427D01*
X89772Y168873D01*
X89877Y169400D01*
X89876Y169400D01*
Y172900D01*
X101131D01*
Y156500D01*
D02*
G37*
G36*
X470554Y151303D02*
X470567Y151204D01*
X470588Y151108D01*
X470617Y151013D01*
X470655Y150921D01*
X470701Y150830D01*
X470756Y150741D01*
X470819Y150654D01*
X470890Y150569D01*
X470970Y150486D01*
X469430D01*
X469510Y150569D01*
X469581Y150654D01*
X469644Y150741D01*
X469699Y150830D01*
X469745Y150921D01*
X469783Y151013D01*
X469812Y151108D01*
X469833Y151204D01*
X469846Y151303D01*
X469850Y151403D01*
X470550D01*
X470554Y151303D01*
D02*
G37*
G36*
X460554D02*
X460567Y151204D01*
X460588Y151108D01*
X460617Y151013D01*
X460655Y150921D01*
X460701Y150830D01*
X460756Y150741D01*
X460819Y150654D01*
X460890Y150569D01*
X460970Y150486D01*
X459430D01*
X459510Y150569D01*
X459581Y150654D01*
X459644Y150741D01*
X459699Y150830D01*
X459745Y150921D01*
X459783Y151013D01*
X459812Y151108D01*
X459833Y151204D01*
X459846Y151303D01*
X459850Y151403D01*
X460550D01*
X460554Y151303D01*
D02*
G37*
G36*
X443117Y128684D02*
X443196Y128623D01*
X443279Y128570D01*
X443366Y128524D01*
X443459Y128485D01*
X443555Y128453D01*
X443657Y128429D01*
X443763Y128412D01*
X443874Y128402D01*
X443989Y128400D01*
X442900Y127311D01*
X442898Y127426D01*
X442888Y127537D01*
X442871Y127643D01*
X442847Y127745D01*
X442815Y127841D01*
X442776Y127934D01*
X442730Y128021D01*
X442677Y128104D01*
X442616Y128183D01*
X442548Y128257D01*
X443043Y128752D01*
X443117Y128684D01*
D02*
G37*
G36*
X524100Y88577D02*
X524032Y88525D01*
X512519Y77011D01*
X511943Y77143D01*
X511502Y77802D01*
X510675Y78355D01*
X509700Y78549D01*
X508724Y78355D01*
X507898Y77802D01*
X507345Y76976D01*
X507151Y76000D01*
X507345Y75024D01*
X507898Y74198D01*
X508493Y73800D01*
X508341Y73300D01*
X472000D01*
Y148614D01*
X472178Y148881D01*
X472341Y149700D01*
X472178Y150519D01*
X472000Y150786D01*
Y186200D01*
X524100D01*
Y88577D01*
D02*
G37*
%LPC*%
G36*
X508800Y176841D02*
X507981Y176678D01*
X507286Y176214D01*
X506822Y175519D01*
X506659Y174700D01*
X506822Y173881D01*
X507286Y173186D01*
X507981Y172722D01*
X508800Y172559D01*
X509619Y172722D01*
X510314Y173186D01*
X510778Y173881D01*
X510941Y174700D01*
X510778Y175519D01*
X510314Y176214D01*
X509619Y176678D01*
X508800Y176841D01*
D02*
G37*
G36*
X509200Y115849D02*
X508224Y115655D01*
X507398Y115102D01*
X506845Y114276D01*
X506651Y113300D01*
X506845Y112325D01*
X507398Y111498D01*
X508224Y110945D01*
X509200Y110751D01*
X510176Y110945D01*
X511002Y111498D01*
X511555Y112325D01*
X511749Y113300D01*
X511555Y114276D01*
X511002Y115102D01*
X510176Y115655D01*
X509200Y115849D01*
D02*
G37*
G36*
X513300Y90549D02*
X512324Y90355D01*
X511498Y89802D01*
X510945Y88976D01*
X510751Y88000D01*
X510898Y87259D01*
X510612Y86692D01*
X510425Y86655D01*
X509671Y86151D01*
X509411Y86102D01*
X509289D01*
X509029Y86151D01*
X508276Y86655D01*
X507300Y86849D01*
X506324Y86655D01*
X505498Y86102D01*
X504945Y85276D01*
X504751Y84300D01*
X504945Y83324D01*
X505498Y82498D01*
X506324Y81945D01*
X507300Y81751D01*
X508276Y81945D01*
X509102Y82498D01*
X509598D01*
X510425Y81945D01*
X511400Y81751D01*
X512375Y81945D01*
X513202Y82498D01*
X513755Y83324D01*
X513949Y84300D01*
X513802Y85041D01*
X514088Y85608D01*
X514276Y85645D01*
X515102Y86198D01*
X515655Y87024D01*
X515849Y88000D01*
X515655Y88976D01*
X515102Y89802D01*
X514276Y90355D01*
X513300Y90549D01*
D02*
G37*
%LPD*%
G36*
X513878Y89394D02*
X514367Y89067D01*
X514694Y88578D01*
X514809Y88000D01*
X514694Y87422D01*
X514367Y86933D01*
X513868Y86599D01*
X513832Y86584D01*
X513771Y86577D01*
X513650Y86509D01*
X513522Y86456D01*
X513478Y86412D01*
X513424Y86381D01*
X513339Y86272D01*
X513241Y86174D01*
X513217Y86117D01*
X513179Y86068D01*
X512892Y85501D01*
X512855Y85368D01*
X512802Y85240D01*
Y85178D01*
X512785Y85118D01*
X512802Y84981D01*
Y84842D01*
X512909Y84300D01*
X512794Y83722D01*
X512467Y83233D01*
X511978Y82906D01*
X511400Y82791D01*
X510822Y82906D01*
X510164Y83345D01*
X510071Y83384D01*
X509988Y83440D01*
X509889Y83459D01*
X509796Y83498D01*
X509696D01*
X509598Y83517D01*
X509102D01*
X509004Y83498D01*
X508904D01*
X508811Y83459D01*
X508712Y83440D01*
X508629Y83384D01*
X508536Y83345D01*
X507878Y82906D01*
X507300Y82791D01*
X506722Y82906D01*
X506233Y83233D01*
X505905Y83722D01*
X505791Y84300D01*
X505905Y84878D01*
X506233Y85367D01*
X506722Y85694D01*
X507300Y85809D01*
X507878Y85694D01*
X508463Y85304D01*
X508467Y85302D01*
X508471Y85298D01*
X508651Y85225D01*
X508830Y85151D01*
X508835D01*
X508840Y85150D01*
X509100Y85100D01*
X509196Y85101D01*
X509289Y85083D01*
X509411D01*
X509504Y85101D01*
X509599Y85100D01*
X509860Y85150D01*
X509865Y85151D01*
X509870D01*
X510049Y85225D01*
X510229Y85298D01*
X510233Y85302D01*
X510237Y85304D01*
X510832Y85701D01*
X510868Y85716D01*
X510929Y85723D01*
X511050Y85791D01*
X511178Y85844D01*
X511222Y85888D01*
X511276Y85919D01*
X511361Y86028D01*
X511459Y86126D01*
X511483Y86183D01*
X511521Y86232D01*
X511808Y86799D01*
X511845Y86932D01*
X511898Y87060D01*
Y87122D01*
X511915Y87182D01*
X511898Y87319D01*
Y87458D01*
X511791Y88000D01*
X511905Y88578D01*
X512233Y89067D01*
X512722Y89394D01*
X513300Y89509D01*
X513878Y89394D01*
D02*
G37*
G36*
X374095Y184248D02*
X374011Y184174D01*
X373935Y184096D01*
X373868Y184016D01*
X373810Y183933D01*
X373761Y183846D01*
X373721Y183757D01*
X373690Y183664D01*
X373668Y183569D01*
X373654Y183470D01*
X373650Y183369D01*
X372950Y183436D01*
X372946Y183535D01*
X372935Y183633D01*
X372915Y183730D01*
X372888Y183826D01*
X372853Y183921D01*
X372810Y184016D01*
X372760Y184110D01*
X372702Y184203D01*
X372636Y184296D01*
X372562Y184388D01*
X374095Y184248D01*
D02*
G37*
G36*
X381690Y167031D02*
X381619Y166946D01*
X381556Y166859D01*
X381501Y166770D01*
X381455Y166679D01*
X381417Y166587D01*
X381388Y166492D01*
X381367Y166396D01*
X381354Y166297D01*
X381350Y166197D01*
X380650D01*
X380646Y166297D01*
X380633Y166396D01*
X380612Y166492D01*
X380583Y166587D01*
X380545Y166679D01*
X380499Y166770D01*
X380444Y166859D01*
X380381Y166946D01*
X380310Y167031D01*
X380230Y167114D01*
X381770D01*
X381690Y167031D01*
D02*
G37*
G36*
X420554Y142203D02*
X420567Y142104D01*
X420588Y142008D01*
X420617Y141913D01*
X420655Y141821D01*
X420701Y141730D01*
X420756Y141641D01*
X420819Y141554D01*
X420890Y141469D01*
X420970Y141386D01*
X419430D01*
X419510Y141469D01*
X419581Y141554D01*
X419644Y141641D01*
X419699Y141730D01*
X419745Y141821D01*
X419783Y141913D01*
X419812Y142008D01*
X419833Y142104D01*
X419846Y142203D01*
X419850Y142303D01*
X420550D01*
X420554Y142203D01*
D02*
G37*
G36*
X410654D02*
X410667Y142104D01*
X410688Y142008D01*
X410717Y141913D01*
X410755Y141821D01*
X410801Y141730D01*
X410856Y141641D01*
X410919Y141554D01*
X410990Y141469D01*
X411070Y141386D01*
X409530D01*
X409610Y141469D01*
X409681Y141554D01*
X409744Y141641D01*
X409799Y141730D01*
X409845Y141821D01*
X409883Y141913D01*
X409912Y142008D01*
X409933Y142104D01*
X409946Y142203D01*
X409950Y142303D01*
X410650D01*
X410654Y142203D01*
D02*
G37*
G36*
X400554D02*
X400567Y142104D01*
X400588Y142008D01*
X400617Y141913D01*
X400655Y141821D01*
X400701Y141730D01*
X400756Y141641D01*
X400819Y141554D01*
X400890Y141469D01*
X400970Y141386D01*
X399430D01*
X399510Y141469D01*
X399581Y141554D01*
X399644Y141641D01*
X399699Y141730D01*
X399745Y141821D01*
X399783Y141913D01*
X399812Y142008D01*
X399833Y142104D01*
X399846Y142203D01*
X399850Y142303D01*
X400550D01*
X400554Y142203D01*
D02*
G37*
G36*
X390554Y136703D02*
X390567Y136604D01*
X390588Y136508D01*
X390617Y136413D01*
X390655Y136321D01*
X390701Y136230D01*
X390756Y136141D01*
X390819Y136054D01*
X390890Y135969D01*
X390970Y135886D01*
X389430D01*
X389510Y135969D01*
X389581Y136054D01*
X389644Y136141D01*
X389699Y136230D01*
X389745Y136321D01*
X389783Y136413D01*
X389812Y136508D01*
X389833Y136604D01*
X389846Y136703D01*
X389850Y136803D01*
X390550D01*
X390554Y136703D01*
D02*
G37*
G36*
X383454Y115703D02*
X383467Y115604D01*
X383488Y115508D01*
X383517Y115413D01*
X383555Y115321D01*
X383601Y115230D01*
X383656Y115141D01*
X383719Y115054D01*
X383790Y114969D01*
X383870Y114886D01*
X382330D01*
X382410Y114969D01*
X382481Y115054D01*
X382544Y115141D01*
X382599Y115230D01*
X382645Y115321D01*
X382683Y115413D01*
X382712Y115508D01*
X382733Y115604D01*
X382746Y115703D01*
X382750Y115803D01*
X383450D01*
X383454Y115703D01*
D02*
G37*
G36*
X373654Y108403D02*
X373667Y108304D01*
X373688Y108208D01*
X373717Y108113D01*
X373755Y108021D01*
X373801Y107930D01*
X373856Y107841D01*
X373919Y107754D01*
X373990Y107669D01*
X374070Y107586D01*
X372530D01*
X372610Y107669D01*
X372681Y107754D01*
X372744Y107841D01*
X372799Y107930D01*
X372845Y108021D01*
X372883Y108113D01*
X372912Y108208D01*
X372933Y108304D01*
X372946Y108403D01*
X372950Y108503D01*
X373650D01*
X373654Y108403D01*
D02*
G37*
G36*
X380854Y106303D02*
X380867Y106204D01*
X380888Y106108D01*
X380917Y106013D01*
X380955Y105921D01*
X381001Y105830D01*
X381056Y105741D01*
X381119Y105654D01*
X381190Y105569D01*
X381270Y105486D01*
X379730D01*
X379810Y105569D01*
X379881Y105654D01*
X379944Y105741D01*
X379999Y105830D01*
X380045Y105921D01*
X380083Y106013D01*
X380112Y106108D01*
X380133Y106204D01*
X380146Y106303D01*
X380150Y106403D01*
X380850D01*
X380854Y106303D01*
D02*
G37*
G36*
X373990Y105931D02*
X373919Y105846D01*
X373856Y105759D01*
X373801Y105670D01*
X373755Y105579D01*
X373717Y105487D01*
X373688Y105392D01*
X373667Y105296D01*
X373654Y105197D01*
X373650Y105097D01*
X372950D01*
X372946Y105197D01*
X372933Y105296D01*
X372912Y105392D01*
X372883Y105487D01*
X372845Y105579D01*
X372799Y105670D01*
X372744Y105759D01*
X372681Y105846D01*
X372610Y105931D01*
X372530Y106014D01*
X374070D01*
X373990Y105931D01*
D02*
G37*
G36*
X381190Y103831D02*
X381119Y103746D01*
X381056Y103659D01*
X381001Y103570D01*
X380955Y103479D01*
X380917Y103387D01*
X380888Y103292D01*
X380867Y103196D01*
X380854Y103097D01*
X380850Y102997D01*
X380150D01*
X380146Y103097D01*
X380133Y103196D01*
X380112Y103292D01*
X380083Y103387D01*
X380045Y103479D01*
X379999Y103570D01*
X379944Y103659D01*
X379881Y103746D01*
X379810Y103831D01*
X379730Y103914D01*
X381270D01*
X381190Y103831D01*
D02*
G37*
G36*
X371890Y97531D02*
X371819Y97446D01*
X371756Y97359D01*
X371701Y97270D01*
X371655Y97179D01*
X371617Y97087D01*
X371588Y96992D01*
X371567Y96896D01*
X371554Y96797D01*
X371550Y96697D01*
X370850D01*
X370846Y96797D01*
X370833Y96896D01*
X370812Y96992D01*
X370783Y97087D01*
X370745Y97179D01*
X370699Y97270D01*
X370644Y97359D01*
X370581Y97446D01*
X370510Y97531D01*
X370430Y97614D01*
X371970D01*
X371890Y97531D01*
D02*
G37*
G36*
X305790Y213031D02*
X305719Y212946D01*
X305656Y212859D01*
X305601Y212770D01*
X305555Y212679D01*
X305517Y212587D01*
X305488Y212492D01*
X305467Y212396D01*
X305454Y212297D01*
X305450Y212197D01*
X304750D01*
X304746Y212297D01*
X304733Y212396D01*
X304712Y212492D01*
X304683Y212587D01*
X304645Y212679D01*
X304599Y212770D01*
X304544Y212859D01*
X304481Y212946D01*
X304410Y213031D01*
X304330Y213114D01*
X305870D01*
X305790Y213031D01*
D02*
G37*
G36*
X279302Y205174D02*
X279312Y205063D01*
X279329Y204957D01*
X279353Y204855D01*
X279385Y204759D01*
X279424Y204666D01*
X279470Y204579D01*
X279523Y204496D01*
X279584Y204417D01*
X279652Y204343D01*
X279157Y203848D01*
X279083Y203916D01*
X279004Y203977D01*
X278921Y204030D01*
X278834Y204076D01*
X278741Y204115D01*
X278645Y204147D01*
X278543Y204171D01*
X278437Y204188D01*
X278326Y204198D01*
X278211Y204200D01*
X279300Y205289D01*
X279302Y205174D01*
D02*
G37*
G36*
X278189Y201200D02*
X278074Y201198D01*
X277963Y201188D01*
X277857Y201171D01*
X277755Y201147D01*
X277659Y201115D01*
X277566Y201076D01*
X277479Y201030D01*
X277396Y200977D01*
X277317Y200916D01*
X277243Y200848D01*
X276748Y201343D01*
X276816Y201417D01*
X276877Y201496D01*
X276930Y201579D01*
X276976Y201666D01*
X277015Y201759D01*
X277047Y201855D01*
X277071Y201957D01*
X277088Y202063D01*
X277098Y202174D01*
X277100Y202289D01*
X278189Y201200D01*
D02*
G37*
G36*
X279789Y188200D02*
X279674Y188198D01*
X279563Y188188D01*
X279457Y188171D01*
X279355Y188147D01*
X279259Y188115D01*
X279166Y188076D01*
X279079Y188030D01*
X278996Y187977D01*
X278917Y187916D01*
X278843Y187848D01*
X278348Y188343D01*
X278416Y188417D01*
X278477Y188496D01*
X278530Y188579D01*
X278576Y188666D01*
X278615Y188759D01*
X278647Y188855D01*
X278671Y188957D01*
X278688Y189063D01*
X278698Y189174D01*
X278700Y189289D01*
X279789Y188200D01*
D02*
G37*
G36*
X295989Y186100D02*
X295874Y186098D01*
X295763Y186088D01*
X295657Y186071D01*
X295555Y186047D01*
X295459Y186015D01*
X295366Y185976D01*
X295279Y185930D01*
X295196Y185877D01*
X295117Y185816D01*
X295043Y185748D01*
X294548Y186243D01*
X294616Y186317D01*
X294677Y186396D01*
X294730Y186479D01*
X294776Y186566D01*
X294815Y186659D01*
X294847Y186755D01*
X294871Y186857D01*
X294888Y186963D01*
X294898Y187074D01*
X294900Y187189D01*
X295989Y186100D01*
D02*
G37*
G36*
X298302Y177374D02*
X298312Y177263D01*
X298329Y177157D01*
X298353Y177055D01*
X298385Y176959D01*
X298424Y176866D01*
X298470Y176779D01*
X298523Y176696D01*
X298584Y176617D01*
X298652Y176543D01*
X298157Y176048D01*
X298083Y176116D01*
X298004Y176177D01*
X297921Y176230D01*
X297834Y176276D01*
X297741Y176315D01*
X297645Y176347D01*
X297543Y176371D01*
X297437Y176388D01*
X297326Y176398D01*
X297211Y176400D01*
X298300Y177489D01*
X298302Y177374D01*
D02*
G37*
G36*
X310690Y176631D02*
X310619Y176546D01*
X310556Y176459D01*
X310501Y176370D01*
X310455Y176279D01*
X310417Y176187D01*
X310388Y176092D01*
X310367Y175996D01*
X310354Y175897D01*
X310350Y175797D01*
X309650D01*
X309646Y175897D01*
X309633Y175996D01*
X309612Y176092D01*
X309583Y176187D01*
X309545Y176279D01*
X309499Y176370D01*
X309444Y176459D01*
X309381Y176546D01*
X309310Y176631D01*
X309230Y176714D01*
X310770D01*
X310690Y176631D01*
D02*
G37*
G36*
X301170Y177234D02*
X301166Y177179D01*
X301152Y176593D01*
X301150Y175991D01*
X300450Y175797D01*
X300446Y175906D01*
X300432Y176003D01*
X300410Y176091D01*
X300379Y176167D01*
X300339Y176233D01*
X300290Y176289D01*
X300232Y176333D01*
X300166Y176368D01*
X300090Y176391D01*
X300006Y176404D01*
X301175Y177268D01*
X301170Y177234D01*
D02*
G37*
G36*
X303695Y176648D02*
X303611Y176574D01*
X303535Y176496D01*
X303468Y176416D01*
X303410Y176333D01*
X303361Y176246D01*
X303321Y176157D01*
X303290Y176064D01*
X303268Y175969D01*
X303254Y175870D01*
X303250Y175769D01*
X302550Y175836D01*
X302546Y175935D01*
X302535Y176033D01*
X302515Y176130D01*
X302488Y176226D01*
X302453Y176321D01*
X302410Y176416D01*
X302360Y176510D01*
X302302Y176603D01*
X302236Y176696D01*
X302162Y176788D01*
X303695Y176648D01*
D02*
G37*
G36*
X267190Y171431D02*
X267119Y171346D01*
X267056Y171259D01*
X267001Y171170D01*
X266955Y171079D01*
X266917Y170987D01*
X266888Y170892D01*
X266867Y170796D01*
X266854Y170697D01*
X266850Y170597D01*
X266150D01*
X266146Y170697D01*
X266133Y170796D01*
X266112Y170892D01*
X266083Y170987D01*
X266045Y171079D01*
X265999Y171170D01*
X265944Y171259D01*
X265881Y171346D01*
X265810Y171431D01*
X265730Y171514D01*
X267270D01*
X267190Y171431D01*
D02*
G37*
G36*
X295686Y175986D02*
X296381Y175522D01*
X297200Y175359D01*
X297292Y175377D01*
X297312Y175375D01*
X297344Y175370D01*
X297368Y175364D01*
X297385Y175359D01*
X297398Y175353D01*
X297402Y175351D01*
X298024Y174730D01*
Y166591D01*
X297637Y166274D01*
X297300Y166341D01*
X296481Y166178D01*
X295786Y165714D01*
X295676Y165550D01*
X295177Y165702D01*
Y175849D01*
X295676Y176000D01*
X295686Y175986D01*
D02*
G37*
G36*
X298096Y163436D02*
X298089Y163415D01*
X298088Y163390D01*
X298093Y163364D01*
X298103Y163334D01*
X298120Y163302D01*
X298143Y163267D01*
X298172Y163230D01*
X298207Y163190D01*
X298248Y163147D01*
X297752Y162653D01*
X297667Y162737D01*
X297263Y163096D01*
X297247Y163101D01*
X298109Y163455D01*
X298096Y163436D01*
D02*
G37*
G36*
X296696Y160336D02*
X296689Y160315D01*
X296688Y160290D01*
X296692Y160264D01*
X296703Y160234D01*
X296720Y160202D01*
X296743Y160167D01*
X296772Y160130D01*
X296807Y160090D01*
X296848Y160047D01*
X296353Y159553D01*
X296267Y159637D01*
X295863Y159996D01*
X295847Y160001D01*
X296709Y160355D01*
X296696Y160336D01*
D02*
G37*
G36*
X283414Y159588D02*
X283326Y159523D01*
X283247Y159454D01*
X283177Y159381D01*
X283117Y159303D01*
X283066Y159222D01*
X283024Y159136D01*
X282992Y159046D01*
X282969Y158952D01*
X282955Y158853D01*
X282950Y158750D01*
X282250Y158887D01*
X282246Y158984D01*
X282236Y159081D01*
X282219Y159178D01*
X282194Y159276D01*
X282162Y159373D01*
X282124Y159472D01*
X282079Y159570D01*
X282026Y159669D01*
X281900Y159868D01*
X283414Y159588D01*
D02*
G37*
G36*
X309989Y158400D02*
X309874Y158398D01*
X309763Y158388D01*
X309657Y158371D01*
X309555Y158347D01*
X309459Y158315D01*
X309366Y158276D01*
X309279Y158230D01*
X309196Y158177D01*
X309117Y158116D01*
X309043Y158048D01*
X308548Y158543D01*
X308616Y158617D01*
X308677Y158696D01*
X308730Y158779D01*
X308776Y158866D01*
X308815Y158959D01*
X308847Y159055D01*
X308871Y159157D01*
X308888Y159263D01*
X308898Y159374D01*
X308900Y159489D01*
X309989Y158400D01*
D02*
G37*
G36*
X315489Y153100D02*
X315374Y153098D01*
X315263Y153088D01*
X315157Y153071D01*
X315055Y153047D01*
X314959Y153015D01*
X314866Y152976D01*
X314779Y152930D01*
X314696Y152877D01*
X314617Y152816D01*
X314543Y152748D01*
X314048Y153243D01*
X314116Y153317D01*
X314177Y153396D01*
X314230Y153479D01*
X314276Y153566D01*
X314315Y153659D01*
X314347Y153755D01*
X314371Y153857D01*
X314388Y153963D01*
X314398Y154074D01*
X314400Y154189D01*
X315489Y153100D01*
D02*
G37*
G36*
X284690Y147231D02*
X284619Y147146D01*
X284556Y147059D01*
X284501Y146970D01*
X284455Y146879D01*
X284417Y146787D01*
X284388Y146692D01*
X284367Y146596D01*
X284354Y146497D01*
X284350Y146397D01*
X283650D01*
X283646Y146497D01*
X283633Y146596D01*
X283612Y146692D01*
X283583Y146787D01*
X283545Y146879D01*
X283499Y146970D01*
X283444Y147059D01*
X283381Y147146D01*
X283310Y147231D01*
X283230Y147314D01*
X284770D01*
X284690Y147231D01*
D02*
G37*
G36*
X316190Y145831D02*
X316119Y145746D01*
X316056Y145659D01*
X316001Y145570D01*
X315955Y145479D01*
X315917Y145387D01*
X315888Y145292D01*
X315867Y145196D01*
X315854Y145097D01*
X315850Y144997D01*
X315150D01*
X315146Y145097D01*
X315133Y145196D01*
X315112Y145292D01*
X315083Y145387D01*
X315045Y145479D01*
X314999Y145570D01*
X314944Y145659D01*
X314881Y145746D01*
X314810Y145831D01*
X314730Y145914D01*
X316270D01*
X316190Y145831D01*
D02*
G37*
G36*
X275702Y143174D02*
X275712Y143063D01*
X275729Y142957D01*
X275753Y142855D01*
X275785Y142759D01*
X275824Y142666D01*
X275870Y142579D01*
X275923Y142496D01*
X275984Y142417D01*
X276052Y142343D01*
X275557Y141848D01*
X275483Y141916D01*
X275404Y141977D01*
X275321Y142030D01*
X275234Y142076D01*
X275141Y142115D01*
X275045Y142147D01*
X274943Y142171D01*
X274837Y142188D01*
X274726Y142198D01*
X274611Y142200D01*
X275700Y143289D01*
X275702Y143174D01*
D02*
G37*
G36*
X275290Y138231D02*
X275219Y138146D01*
X275156Y138059D01*
X275101Y137970D01*
X275055Y137879D01*
X275017Y137787D01*
X274988Y137692D01*
X274967Y137596D01*
X274954Y137497D01*
X274950Y137397D01*
X274250D01*
X274246Y137497D01*
X274233Y137596D01*
X274212Y137692D01*
X274183Y137787D01*
X274145Y137879D01*
X274099Y137970D01*
X274044Y138059D01*
X273981Y138146D01*
X273910Y138231D01*
X273830Y138314D01*
X275370D01*
X275290Y138231D01*
D02*
G37*
G36*
X297552Y132357D02*
X297484Y132283D01*
X297423Y132204D01*
X297370Y132121D01*
X297324Y132034D01*
X297285Y131941D01*
X297253Y131845D01*
X297229Y131743D01*
X297212Y131637D01*
X297202Y131526D01*
X297200Y131411D01*
X296111Y132500D01*
X296226Y132502D01*
X296337Y132512D01*
X296443Y132529D01*
X296545Y132553D01*
X296641Y132585D01*
X296734Y132624D01*
X296821Y132670D01*
X296904Y132723D01*
X296983Y132784D01*
X297057Y132852D01*
X297552Y132357D01*
D02*
G37*
G36*
X315854Y130203D02*
X315867Y130104D01*
X315888Y130008D01*
X315917Y129913D01*
X315955Y129821D01*
X316001Y129730D01*
X316056Y129641D01*
X316119Y129554D01*
X316190Y129469D01*
X316270Y129386D01*
X314730D01*
X314810Y129469D01*
X314881Y129554D01*
X314944Y129641D01*
X314999Y129730D01*
X315045Y129821D01*
X315083Y129913D01*
X315112Y130008D01*
X315133Y130104D01*
X315146Y130203D01*
X315150Y130303D01*
X315850D01*
X315854Y130203D01*
D02*
G37*
G36*
X308954D02*
X308967Y130104D01*
X308988Y130008D01*
X309017Y129913D01*
X309055Y129821D01*
X309101Y129730D01*
X309156Y129641D01*
X309219Y129554D01*
X309290Y129469D01*
X309370Y129386D01*
X307830D01*
X307910Y129469D01*
X307981Y129554D01*
X308044Y129641D01*
X308099Y129730D01*
X308145Y129821D01*
X308183Y129913D01*
X308212Y130008D01*
X308233Y130104D01*
X308246Y130203D01*
X308250Y130303D01*
X308950D01*
X308954Y130203D01*
D02*
G37*
G36*
X303254D02*
X303267Y130104D01*
X303288Y130008D01*
X303317Y129913D01*
X303355Y129821D01*
X303401Y129730D01*
X303456Y129641D01*
X303519Y129554D01*
X303590Y129469D01*
X303670Y129386D01*
X302130D01*
X302210Y129469D01*
X302281Y129554D01*
X302344Y129641D01*
X302399Y129730D01*
X302445Y129821D01*
X302483Y129913D01*
X302512Y130008D01*
X302533Y130104D01*
X302546Y130203D01*
X302550Y130303D01*
X303250D01*
X303254Y130203D01*
D02*
G37*
G36*
X295117Y129984D02*
X295196Y129923D01*
X295279Y129870D01*
X295366Y129824D01*
X295459Y129785D01*
X295555Y129753D01*
X295657Y129729D01*
X295763Y129712D01*
X295874Y129702D01*
X295989Y129700D01*
X294900Y128611D01*
X294898Y128726D01*
X294888Y128837D01*
X294871Y128943D01*
X294847Y129045D01*
X294815Y129141D01*
X294776Y129234D01*
X294730Y129321D01*
X294677Y129404D01*
X294616Y129483D01*
X294548Y129557D01*
X295043Y130052D01*
X295117Y129984D01*
D02*
G37*
G36*
X289723Y134503D02*
Y128378D01*
X289600Y128276D01*
X288670D01*
X283277Y133670D01*
Y140297D01*
X283738Y140488D01*
X289723Y134503D01*
D02*
G37*
G36*
X314617Y127084D02*
X314696Y127023D01*
X314779Y126970D01*
X314866Y126924D01*
X314959Y126885D01*
X315055Y126853D01*
X315157Y126829D01*
X315263Y126812D01*
X315374Y126802D01*
X315489Y126800D01*
X314400Y125711D01*
X314398Y125826D01*
X314388Y125937D01*
X314371Y126043D01*
X314347Y126145D01*
X314315Y126241D01*
X314276Y126334D01*
X314230Y126421D01*
X314177Y126504D01*
X314116Y126583D01*
X314048Y126657D01*
X314543Y127152D01*
X314617Y127084D01*
D02*
G37*
G36*
X310052Y126657D02*
X309984Y126583D01*
X309923Y126504D01*
X309870Y126421D01*
X309824Y126334D01*
X309785Y126241D01*
X309753Y126145D01*
X309729Y126043D01*
X309712Y125937D01*
X309702Y125826D01*
X309700Y125711D01*
X308611Y126800D01*
X308726Y126802D01*
X308837Y126812D01*
X308943Y126829D01*
X309045Y126853D01*
X309141Y126885D01*
X309234Y126924D01*
X309321Y126970D01*
X309404Y127023D01*
X309483Y127084D01*
X309557Y127152D01*
X310052Y126657D01*
D02*
G37*
G36*
X304352D02*
X304284Y126583D01*
X304223Y126504D01*
X304170Y126421D01*
X304124Y126334D01*
X304085Y126241D01*
X304053Y126145D01*
X304029Y126043D01*
X304012Y125937D01*
X304002Y125826D01*
X304000Y125711D01*
X302911Y126800D01*
X303026Y126802D01*
X303137Y126812D01*
X303243Y126829D01*
X303345Y126853D01*
X303441Y126885D01*
X303534Y126924D01*
X303621Y126970D01*
X303704Y127023D01*
X303783Y127084D01*
X303857Y127152D01*
X304352Y126657D01*
D02*
G37*
G36*
X297452D02*
X297384Y126583D01*
X297323Y126504D01*
X297270Y126421D01*
X297224Y126334D01*
X297185Y126241D01*
X297153Y126145D01*
X297129Y126043D01*
X297112Y125937D01*
X297102Y125826D01*
X297100Y125711D01*
X296011Y126800D01*
X296126Y126802D01*
X296237Y126812D01*
X296343Y126829D01*
X296445Y126853D01*
X296541Y126885D01*
X296634Y126924D01*
X296721Y126970D01*
X296804Y127023D01*
X296883Y127084D01*
X296957Y127152D01*
X297452Y126657D01*
D02*
G37*
G36*
X316952Y123757D02*
X316884Y123683D01*
X316823Y123604D01*
X316770Y123521D01*
X316724Y123434D01*
X316685Y123341D01*
X316653Y123245D01*
X316629Y123143D01*
X316612Y123037D01*
X316602Y122926D01*
X316600Y122811D01*
X315511Y123900D01*
X315626Y123902D01*
X315737Y123912D01*
X315843Y123929D01*
X315945Y123953D01*
X316041Y123985D01*
X316134Y124024D01*
X316221Y124070D01*
X316304Y124123D01*
X316383Y124184D01*
X316457Y124252D01*
X316952Y123757D01*
D02*
G37*
G36*
X310052D02*
X309984Y123683D01*
X309923Y123604D01*
X309870Y123521D01*
X309824Y123434D01*
X309785Y123341D01*
X309753Y123245D01*
X309729Y123143D01*
X309712Y123037D01*
X309702Y122926D01*
X309700Y122811D01*
X308611Y123900D01*
X308726Y123902D01*
X308837Y123912D01*
X308943Y123929D01*
X309045Y123953D01*
X309141Y123985D01*
X309234Y124024D01*
X309321Y124070D01*
X309404Y124123D01*
X309483Y124184D01*
X309557Y124252D01*
X310052Y123757D01*
D02*
G37*
G36*
X304352D02*
X304284Y123683D01*
X304223Y123604D01*
X304170Y123521D01*
X304124Y123434D01*
X304085Y123341D01*
X304053Y123245D01*
X304029Y123143D01*
X304012Y123037D01*
X304002Y122926D01*
X304000Y122811D01*
X302911Y123900D01*
X303026Y123902D01*
X303137Y123912D01*
X303243Y123929D01*
X303345Y123953D01*
X303441Y123985D01*
X303534Y124024D01*
X303621Y124070D01*
X303704Y124123D01*
X303783Y124184D01*
X303857Y124252D01*
X304352Y123757D01*
D02*
G37*
G36*
X297440Y123745D02*
X297372Y123671D01*
X297311Y123593D01*
X297258Y123510D01*
X297212Y123422D01*
X297173Y123330D01*
X297142Y123233D01*
X297117Y123131D01*
X297100Y123025D01*
X297091Y122915D01*
X297088Y122799D01*
X295999Y123888D01*
X296114Y123891D01*
X296225Y123900D01*
X296331Y123917D01*
X296433Y123942D01*
X296530Y123973D01*
X296622Y124012D01*
X296709Y124058D01*
X296793Y124111D01*
X296871Y124172D01*
X296945Y124240D01*
X297440Y123745D01*
D02*
G37*
G36*
X264352Y109194D02*
X264284Y109120D01*
X264223Y109041D01*
X264170Y108958D01*
X264124Y108871D01*
X264085Y108778D01*
X264053Y108682D01*
X264029Y108580D01*
X264012Y108474D01*
X264002Y108363D01*
X264000Y108248D01*
X262911Y109337D01*
X263026Y109339D01*
X263137Y109349D01*
X263243Y109366D01*
X263345Y109390D01*
X263441Y109422D01*
X263534Y109461D01*
X263621Y109507D01*
X263704Y109560D01*
X263783Y109621D01*
X263857Y109689D01*
X264352Y109194D01*
D02*
G37*
G36*
X261352Y109157D02*
X261284Y109083D01*
X261223Y109004D01*
X261170Y108921D01*
X261124Y108834D01*
X261085Y108741D01*
X261053Y108645D01*
X261029Y108543D01*
X261012Y108437D01*
X261002Y108326D01*
X261000Y108211D01*
X259911Y109300D01*
X260026Y109302D01*
X260137Y109312D01*
X260243Y109329D01*
X260345Y109353D01*
X260441Y109385D01*
X260534Y109424D01*
X260621Y109470D01*
X260704Y109523D01*
X260783Y109584D01*
X260857Y109652D01*
X261352Y109157D01*
D02*
G37*
G36*
X258452D02*
X258384Y109083D01*
X258323Y109004D01*
X258270Y108921D01*
X258224Y108834D01*
X258185Y108741D01*
X258153Y108645D01*
X258129Y108543D01*
X258112Y108437D01*
X258102Y108326D01*
X258100Y108211D01*
X257011Y109300D01*
X257126Y109302D01*
X257237Y109312D01*
X257343Y109329D01*
X257445Y109353D01*
X257541Y109385D01*
X257634Y109424D01*
X257721Y109470D01*
X257804Y109523D01*
X257883Y109584D01*
X257957Y109652D01*
X258452Y109157D01*
D02*
G37*
G36*
X268752Y103857D02*
X268684Y103783D01*
X268623Y103704D01*
X268570Y103621D01*
X268524Y103534D01*
X268485Y103441D01*
X268453Y103345D01*
X268429Y103243D01*
X268412Y103137D01*
X268402Y103026D01*
X268400Y102911D01*
X267311Y104000D01*
X267426Y104002D01*
X267537Y104012D01*
X267643Y104029D01*
X267745Y104053D01*
X267841Y104085D01*
X267934Y104124D01*
X268021Y104170D01*
X268104Y104223D01*
X268183Y104284D01*
X268257Y104352D01*
X268752Y103857D01*
D02*
G37*
G36*
X265752D02*
X265684Y103783D01*
X265623Y103704D01*
X265570Y103621D01*
X265524Y103534D01*
X265485Y103441D01*
X265453Y103345D01*
X265429Y103243D01*
X265412Y103137D01*
X265402Y103026D01*
X265400Y102911D01*
X264311Y104000D01*
X264426Y104002D01*
X264537Y104012D01*
X264643Y104029D01*
X264745Y104053D01*
X264841Y104085D01*
X264934Y104124D01*
X265021Y104170D01*
X265104Y104223D01*
X265183Y104284D01*
X265257Y104352D01*
X265752Y103857D01*
D02*
G37*
G36*
X262752D02*
X262684Y103783D01*
X262623Y103704D01*
X262570Y103621D01*
X262524Y103534D01*
X262485Y103441D01*
X262453Y103345D01*
X262429Y103243D01*
X262412Y103137D01*
X262402Y103026D01*
X262400Y102911D01*
X261311Y104000D01*
X261426Y104002D01*
X261537Y104012D01*
X261643Y104029D01*
X261745Y104053D01*
X261841Y104085D01*
X261934Y104124D01*
X262021Y104170D01*
X262104Y104223D01*
X262183Y104284D01*
X262257Y104352D01*
X262752Y103857D01*
D02*
G37*
G36*
X279725Y100558D02*
X280700Y100364D01*
X281324Y100488D01*
X281823Y100101D01*
Y77176D01*
X281362Y76985D01*
X278876Y79470D01*
Y100523D01*
X279377Y100790D01*
X279725Y100558D01*
D02*
G37*
G36*
X292524Y120324D02*
Y109070D01*
X292027Y108573D01*
X291728Y108127D01*
X291623Y107600D01*
Y76476D01*
X291162Y76285D01*
X289776Y77670D01*
Y118230D01*
X292062Y120515D01*
X292524Y120324D01*
D02*
G37*
G36*
X277187Y74884D02*
X277266Y74823D01*
X277349Y74770D01*
X277436Y74724D01*
X277529Y74685D01*
X277625Y74653D01*
X277727Y74629D01*
X277833Y74612D01*
X277944Y74602D01*
X278059Y74600D01*
X276970Y73511D01*
X276968Y73626D01*
X276958Y73737D01*
X276941Y73843D01*
X276917Y73945D01*
X276885Y74041D01*
X276846Y74134D01*
X276800Y74221D01*
X276747Y74304D01*
X276686Y74383D01*
X276618Y74457D01*
X277113Y74952D01*
X277187Y74884D01*
D02*
G37*
G36*
X284054Y74003D02*
X284067Y73904D01*
X284088Y73808D01*
X284117Y73713D01*
X284155Y73621D01*
X284201Y73530D01*
X284256Y73441D01*
X284319Y73354D01*
X284390Y73269D01*
X284470Y73186D01*
X282930D01*
X283010Y73269D01*
X283081Y73354D01*
X283144Y73441D01*
X283199Y73530D01*
X283245Y73621D01*
X283283Y73713D01*
X283312Y73808D01*
X283333Y73904D01*
X283346Y74003D01*
X283350Y74103D01*
X284050D01*
X284054Y74003D01*
D02*
G37*
G36*
X277187Y71984D02*
X277266Y71923D01*
X277349Y71870D01*
X277436Y71824D01*
X277529Y71785D01*
X277625Y71753D01*
X277727Y71729D01*
X277833Y71712D01*
X277944Y71702D01*
X278059Y71700D01*
X276970Y70611D01*
X276968Y70726D01*
X276958Y70837D01*
X276941Y70943D01*
X276917Y71045D01*
X276885Y71141D01*
X276846Y71234D01*
X276800Y71321D01*
X276747Y71404D01*
X276686Y71483D01*
X276618Y71557D01*
X277113Y72052D01*
X277187Y71984D01*
D02*
G37*
G36*
X285152Y70457D02*
X285084Y70383D01*
X285023Y70304D01*
X284970Y70221D01*
X284924Y70134D01*
X284885Y70041D01*
X284853Y69945D01*
X284829Y69843D01*
X284812Y69737D01*
X284802Y69626D01*
X284800Y69511D01*
X283711Y70600D01*
X283826Y70602D01*
X283937Y70612D01*
X284043Y70629D01*
X284145Y70653D01*
X284241Y70685D01*
X284334Y70724D01*
X284421Y70770D01*
X284504Y70823D01*
X284583Y70884D01*
X284657Y70952D01*
X285152Y70457D01*
D02*
G37*
G36*
X279522Y68657D02*
X279454Y68583D01*
X279393Y68504D01*
X279340Y68421D01*
X279294Y68334D01*
X279255Y68241D01*
X279223Y68145D01*
X279199Y68043D01*
X279182Y67937D01*
X279172Y67826D01*
X279170Y67711D01*
X278081Y68800D01*
X278196Y68802D01*
X278307Y68812D01*
X278413Y68829D01*
X278515Y68853D01*
X278611Y68885D01*
X278704Y68924D01*
X278791Y68970D01*
X278874Y69023D01*
X278953Y69084D01*
X279027Y69152D01*
X279522Y68657D01*
D02*
G37*
G36*
X282817Y67984D02*
X282896Y67923D01*
X282979Y67870D01*
X283066Y67824D01*
X283159Y67785D01*
X283255Y67753D01*
X283357Y67729D01*
X283463Y67712D01*
X283574Y67702D01*
X283689Y67700D01*
X282600Y66611D01*
X282598Y66726D01*
X282588Y66837D01*
X282571Y66943D01*
X282547Y67045D01*
X282515Y67141D01*
X282476Y67234D01*
X282430Y67321D01*
X282377Y67404D01*
X282316Y67483D01*
X282248Y67557D01*
X282743Y68052D01*
X282817Y67984D01*
D02*
G37*
G36*
X289352Y66957D02*
X289284Y66883D01*
X289223Y66804D01*
X289170Y66721D01*
X289124Y66634D01*
X289085Y66541D01*
X289053Y66445D01*
X289029Y66343D01*
X289012Y66237D01*
X289002Y66126D01*
X289000Y66011D01*
X287911Y67100D01*
X288026Y67102D01*
X288137Y67112D01*
X288243Y67129D01*
X288345Y67153D01*
X288441Y67185D01*
X288534Y67224D01*
X288621Y67270D01*
X288704Y67323D01*
X288783Y67384D01*
X288857Y67452D01*
X289352Y66957D01*
D02*
G37*
G36*
Y63957D02*
X289284Y63883D01*
X289223Y63804D01*
X289170Y63721D01*
X289124Y63634D01*
X289085Y63541D01*
X289053Y63445D01*
X289029Y63343D01*
X289012Y63237D01*
X289002Y63126D01*
X289000Y63011D01*
X287911Y64100D01*
X288026Y64102D01*
X288137Y64112D01*
X288243Y64129D01*
X288345Y64153D01*
X288441Y64185D01*
X288534Y64224D01*
X288621Y64270D01*
X288704Y64323D01*
X288783Y64384D01*
X288857Y64452D01*
X289352Y63957D01*
D02*
G37*
G36*
Y60957D02*
X289284Y60883D01*
X289223Y60804D01*
X289170Y60721D01*
X289124Y60634D01*
X289085Y60541D01*
X289053Y60445D01*
X289029Y60343D01*
X289012Y60237D01*
X289002Y60126D01*
X289000Y60011D01*
X287911Y61100D01*
X288026Y61102D01*
X288137Y61112D01*
X288243Y61129D01*
X288345Y61153D01*
X288441Y61185D01*
X288534Y61224D01*
X288621Y61270D01*
X288704Y61323D01*
X288783Y61384D01*
X288857Y61452D01*
X289352Y60957D01*
D02*
G37*
G36*
X327490Y178731D02*
X327419Y178646D01*
X327356Y178559D01*
X327301Y178470D01*
X327255Y178379D01*
X327217Y178287D01*
X327188Y178192D01*
X327167Y178096D01*
X327154Y177997D01*
X327150Y177897D01*
X326450D01*
X326446Y177997D01*
X326433Y178096D01*
X326412Y178192D01*
X326383Y178287D01*
X326345Y178379D01*
X326299Y178470D01*
X326244Y178559D01*
X326181Y178646D01*
X326110Y178731D01*
X326030Y178814D01*
X327570D01*
X327490Y178731D01*
D02*
G37*
G36*
X333502Y171674D02*
X333512Y171563D01*
X333529Y171457D01*
X333553Y171355D01*
X333585Y171259D01*
X333624Y171166D01*
X333670Y171079D01*
X333723Y170996D01*
X333784Y170917D01*
X333852Y170843D01*
X333357Y170348D01*
X333283Y170416D01*
X333204Y170477D01*
X333121Y170530D01*
X333034Y170576D01*
X332941Y170615D01*
X332845Y170647D01*
X332743Y170671D01*
X332637Y170688D01*
X332526Y170698D01*
X332411Y170700D01*
X333500Y171789D01*
X333502Y171674D01*
D02*
G37*
G36*
X337395Y166343D02*
X337354Y166351D01*
X337309Y166350D01*
X337262Y166341D01*
X337212Y166324D01*
X337158Y166299D01*
X337102Y166266D01*
X337043Y166225D01*
X336981Y166175D01*
X336847Y166052D01*
X336352Y166548D01*
X336418Y166616D01*
X336525Y166743D01*
X336566Y166802D01*
X336599Y166858D01*
X336624Y166912D01*
X336641Y166962D01*
X336650Y167009D01*
X336651Y167054D01*
X336643Y167095D01*
X337395Y166343D01*
D02*
G37*
G36*
X332102Y167274D02*
X332112Y167163D01*
X332129Y167057D01*
X332153Y166955D01*
X332185Y166859D01*
X332224Y166766D01*
X332270Y166679D01*
X332323Y166596D01*
X332384Y166517D01*
X332452Y166443D01*
X331957Y165948D01*
X331883Y166016D01*
X331804Y166077D01*
X331721Y166130D01*
X331634Y166176D01*
X331541Y166215D01*
X331445Y166247D01*
X331343Y166271D01*
X331237Y166288D01*
X331126Y166298D01*
X331011Y166300D01*
X332100Y167389D01*
X332102Y167274D01*
D02*
G37*
G36*
X327490Y166531D02*
X327419Y166446D01*
X327356Y166359D01*
X327301Y166270D01*
X327255Y166179D01*
X327217Y166087D01*
X327188Y165992D01*
X327167Y165896D01*
X327154Y165797D01*
X327150Y165697D01*
X326450D01*
X326446Y165797D01*
X326433Y165896D01*
X326412Y165992D01*
X326383Y166087D01*
X326345Y166179D01*
X326299Y166270D01*
X326244Y166359D01*
X326181Y166446D01*
X326110Y166531D01*
X326030Y166614D01*
X327570D01*
X327490Y166531D01*
D02*
G37*
G36*
X323394Y159720D02*
X323400Y159710D01*
X323412Y159694D01*
X323452Y159648D01*
X323647Y159448D01*
X323152Y158952D01*
X322874Y159207D01*
X323393Y159726D01*
X323394Y159720D01*
D02*
G37*
G36*
X346890Y154031D02*
X346819Y153946D01*
X346756Y153859D01*
X346701Y153770D01*
X346655Y153679D01*
X346617Y153587D01*
X346588Y153492D01*
X346567Y153396D01*
X346554Y153297D01*
X346550Y153197D01*
X345850D01*
X345846Y153297D01*
X345833Y153396D01*
X345812Y153492D01*
X345783Y153587D01*
X345745Y153679D01*
X345699Y153770D01*
X345644Y153859D01*
X345581Y153946D01*
X345510Y154031D01*
X345430Y154114D01*
X346970D01*
X346890Y154031D01*
D02*
G37*
G36*
X330181Y165422D02*
X331000Y165259D01*
X331092Y165277D01*
X331112Y165275D01*
X331144Y165270D01*
X331168Y165264D01*
X331185Y165259D01*
X331198Y165253D01*
X331202Y165251D01*
X332423Y164030D01*
Y149452D01*
X331924Y149300D01*
X331714Y149614D01*
X331019Y150078D01*
X330200Y150241D01*
X329863Y150174D01*
X329476Y150491D01*
Y165030D01*
X329873Y165427D01*
X330104Y165473D01*
X330181Y165422D01*
D02*
G37*
G36*
X350790Y150131D02*
X350719Y150046D01*
X350656Y149959D01*
X350601Y149870D01*
X350555Y149779D01*
X350517Y149687D01*
X350488Y149592D01*
X350467Y149496D01*
X350454Y149397D01*
X350450Y149297D01*
X349750D01*
X349746Y149397D01*
X349733Y149496D01*
X349712Y149592D01*
X349683Y149687D01*
X349645Y149779D01*
X349599Y149870D01*
X349544Y149959D01*
X349481Y150046D01*
X349410Y150131D01*
X349330Y150214D01*
X350870D01*
X350790Y150131D01*
D02*
G37*
G36*
X331302Y147974D02*
X331312Y147863D01*
X331329Y147757D01*
X331353Y147655D01*
X331385Y147559D01*
X331424Y147466D01*
X331470Y147379D01*
X331523Y147296D01*
X331584Y147217D01*
X331652Y147143D01*
X331157Y146648D01*
X331083Y146716D01*
X331004Y146777D01*
X330921Y146830D01*
X330834Y146876D01*
X330741Y146915D01*
X330645Y146947D01*
X330543Y146971D01*
X330437Y146988D01*
X330326Y146998D01*
X330211Y147000D01*
X331300Y148089D01*
X331302Y147974D01*
D02*
G37*
G36*
X344795Y143348D02*
X344711Y143273D01*
X344635Y143196D01*
X344568Y143116D01*
X344510Y143033D01*
X344461Y142946D01*
X344421Y142857D01*
X344390Y142764D01*
X344368Y142669D01*
X344354Y142570D01*
X344350Y142469D01*
X343650Y142536D01*
X343646Y142635D01*
X343635Y142733D01*
X343615Y142830D01*
X343588Y142926D01*
X343553Y143021D01*
X343510Y143116D01*
X343460Y143210D01*
X343402Y143303D01*
X343336Y143396D01*
X343262Y143488D01*
X344795Y143348D01*
D02*
G37*
G36*
X340502Y142774D02*
X340512Y142663D01*
X340529Y142557D01*
X340553Y142455D01*
X340585Y142359D01*
X340624Y142266D01*
X340670Y142179D01*
X340723Y142096D01*
X340784Y142017D01*
X340852Y141943D01*
X340357Y141448D01*
X340283Y141516D01*
X340204Y141577D01*
X340121Y141630D01*
X340034Y141676D01*
X339941Y141715D01*
X339845Y141747D01*
X339743Y141771D01*
X339637Y141788D01*
X339526Y141798D01*
X339411Y141800D01*
X340500Y142889D01*
X340502Y142774D01*
D02*
G37*
G36*
X328252Y117957D02*
X328184Y117883D01*
X328123Y117804D01*
X328070Y117721D01*
X328024Y117634D01*
X327985Y117541D01*
X327953Y117445D01*
X327929Y117343D01*
X327912Y117237D01*
X327902Y117126D01*
X327900Y117011D01*
X326811Y118100D01*
X326926Y118102D01*
X327037Y118112D01*
X327143Y118129D01*
X327245Y118153D01*
X327341Y118185D01*
X327434Y118224D01*
X327521Y118270D01*
X327604Y118323D01*
X327683Y118384D01*
X327757Y118452D01*
X328252Y117957D01*
D02*
G37*
G36*
X338581Y140922D02*
X339400Y140759D01*
X339723Y140376D01*
Y116376D01*
X339262Y116185D01*
X338673Y116773D01*
X338673Y116773D01*
X337977Y117470D01*
Y140795D01*
X338417Y141031D01*
X338581Y140922D01*
D02*
G37*
G36*
X344354Y110503D02*
X344367Y110404D01*
X344388Y110308D01*
X344417Y110213D01*
X344455Y110121D01*
X344501Y110030D01*
X344556Y109941D01*
X344619Y109854D01*
X344690Y109769D01*
X344770Y109686D01*
X343230D01*
X343310Y109769D01*
X343381Y109854D01*
X343444Y109941D01*
X343499Y110030D01*
X343545Y110121D01*
X343583Y110213D01*
X343612Y110308D01*
X343633Y110404D01*
X343646Y110503D01*
X343650Y110603D01*
X344350D01*
X344354Y110503D01*
D02*
G37*
G36*
X333854Y102103D02*
X333867Y102004D01*
X333888Y101908D01*
X333917Y101813D01*
X333955Y101721D01*
X334001Y101630D01*
X334056Y101541D01*
X334119Y101454D01*
X334190Y101369D01*
X334270Y101286D01*
X332730D01*
X332810Y101369D01*
X332881Y101454D01*
X332944Y101541D01*
X332999Y101630D01*
X333045Y101721D01*
X333083Y101813D01*
X333112Y101908D01*
X333133Y102004D01*
X333146Y102103D01*
X333150Y102203D01*
X333850D01*
X333854Y102103D01*
D02*
G37*
G36*
X339352Y96500D02*
X339371Y96321D01*
X339387Y96243D01*
X339408Y96172D01*
X339434Y96109D01*
X339464Y96054D01*
X339499Y96006D01*
X339539Y95965D01*
X339583Y95933D01*
X338417D01*
X338461Y95965D01*
X338501Y96006D01*
X338536Y96054D01*
X338566Y96109D01*
X338592Y96172D01*
X338613Y96243D01*
X338629Y96321D01*
X338641Y96406D01*
X338648Y96500D01*
X338650Y96600D01*
X339350D01*
X339352Y96500D01*
D02*
G37*
G36*
X335954Y96603D02*
X335967Y96504D01*
X335988Y96408D01*
X336017Y96313D01*
X336055Y96221D01*
X336101Y96130D01*
X336156Y96041D01*
X336219Y95954D01*
X336290Y95869D01*
X336370Y95786D01*
X334830D01*
X334910Y95869D01*
X334981Y95954D01*
X335044Y96041D01*
X335099Y96130D01*
X335145Y96221D01*
X335183Y96313D01*
X335212Y96408D01*
X335233Y96504D01*
X335246Y96603D01*
X335250Y96703D01*
X335950D01*
X335954Y96603D01*
D02*
G37*
G36*
X330200Y145959D02*
X330292Y145977D01*
X330312Y145975D01*
X330344Y145970D01*
X330368Y145965D01*
X330385Y145959D01*
X330398Y145953D01*
X330402Y145951D01*
X331123Y145230D01*
Y115300D01*
X331228Y114773D01*
X331527Y114327D01*
X333723Y112130D01*
Y104670D01*
X332527Y103473D01*
X332228Y103027D01*
X332123Y102500D01*
Y102162D01*
X332122Y102158D01*
X332117Y102145D01*
X332109Y102129D01*
X332096Y102108D01*
X332077Y102081D01*
X332064Y102066D01*
X331986Y102014D01*
X331522Y101319D01*
X331359Y100500D01*
X331522Y99681D01*
X331986Y98986D01*
X332681Y98522D01*
X333500Y98359D01*
X333837Y98426D01*
X334224Y98109D01*
Y96662D01*
X334222Y96658D01*
X334217Y96645D01*
X334209Y96629D01*
X334196Y96608D01*
X334177Y96581D01*
X334164Y96566D01*
X334086Y96514D01*
X333622Y95819D01*
X333459Y95000D01*
X333622Y94181D01*
X334086Y93486D01*
X334781Y93022D01*
X335600Y92859D01*
X336419Y93022D01*
X336955Y93380D01*
X337300Y93449D01*
X337645Y93380D01*
X337873Y93227D01*
X337950Y92597D01*
X337230Y91876D01*
X335762D01*
X335758Y91878D01*
X335745Y91883D01*
X335729Y91891D01*
X335707Y91904D01*
X335681Y91923D01*
X335666Y91936D01*
X335614Y92014D01*
X334919Y92478D01*
X334100Y92641D01*
X333281Y92478D01*
X332650Y92057D01*
X332019Y92478D01*
X331200Y92641D01*
X330381Y92478D01*
X330087Y92282D01*
X329588Y92550D01*
Y112689D01*
X329588Y112689D01*
X329483Y113216D01*
X329184Y113662D01*
X329184Y113662D01*
X328021Y114825D01*
X328070Y115323D01*
X328314Y115486D01*
X328778Y116181D01*
X328941Y117000D01*
X328923Y117092D01*
X328925Y117112D01*
X328930Y117144D01*
X328936Y117168D01*
X328941Y117185D01*
X328947Y117198D01*
X328949Y117202D01*
X329873Y118127D01*
X330172Y118573D01*
X330276Y119100D01*
X330276Y119100D01*
Y120900D01*
X330172Y121427D01*
X329873Y121873D01*
X329476Y122270D01*
Y145709D01*
X329863Y146026D01*
X330200Y145959D01*
D02*
G37*
G36*
X328561Y92199D02*
X328565Y92099D01*
X328578Y92001D01*
X328598Y91904D01*
X328628Y91809D01*
X328665Y91716D01*
X328711Y91625D01*
X328765Y91536D01*
X328828Y91448D01*
X328899Y91362D01*
X328978Y91278D01*
X327438Y91293D01*
X327518Y91375D01*
X327590Y91460D01*
X327654Y91546D01*
X327709Y91635D01*
X327755Y91725D01*
X327793Y91817D01*
X327823Y91912D01*
X327844Y92008D01*
X327857Y92106D01*
X327861Y92207D01*
X328561Y92199D01*
D02*
G37*
G36*
X334969Y91190D02*
X335054Y91119D01*
X335141Y91056D01*
X335230Y91001D01*
X335321Y90955D01*
X335413Y90917D01*
X335508Y90888D01*
X335604Y90867D01*
X335703Y90854D01*
X335803Y90850D01*
Y90150D01*
X335703Y90146D01*
X335604Y90133D01*
X335508Y90112D01*
X335413Y90083D01*
X335321Y90045D01*
X335230Y89999D01*
X335141Y89944D01*
X335054Y89881D01*
X334969Y89810D01*
X334886Y89730D01*
Y91270D01*
X334969Y91190D01*
D02*
G37*
G36*
X331189Y89400D02*
X331074Y89398D01*
X330963Y89388D01*
X330857Y89371D01*
X330755Y89347D01*
X330659Y89315D01*
X330566Y89276D01*
X330479Y89230D01*
X330396Y89177D01*
X330317Y89116D01*
X330243Y89048D01*
X329748Y89543D01*
X329816Y89617D01*
X329877Y89696D01*
X329930Y89779D01*
X329976Y89866D01*
X330015Y89959D01*
X330047Y90055D01*
X330071Y90157D01*
X330088Y90263D01*
X330098Y90374D01*
X330100Y90489D01*
X331189Y89400D01*
D02*
G37*
G36*
X250390Y157331D02*
X250319Y157246D01*
X250256Y157159D01*
X250201Y157070D01*
X250155Y156979D01*
X250117Y156887D01*
X250088Y156792D01*
X250067Y156696D01*
X250054Y156597D01*
X250050Y156497D01*
X249350D01*
X249346Y156597D01*
X249333Y156696D01*
X249312Y156792D01*
X249283Y156887D01*
X249245Y156979D01*
X249199Y157070D01*
X249144Y157159D01*
X249081Y157246D01*
X249010Y157331D01*
X248930Y157414D01*
X250470D01*
X250390Y157331D01*
D02*
G37*
G36*
X246552Y137157D02*
X246484Y137083D01*
X246423Y137004D01*
X246370Y136921D01*
X246324Y136834D01*
X246285Y136741D01*
X246253Y136645D01*
X246229Y136543D01*
X246212Y136437D01*
X246202Y136326D01*
X246200Y136211D01*
X245111Y137300D01*
X245226Y137302D01*
X245337Y137312D01*
X245443Y137329D01*
X245545Y137353D01*
X245641Y137385D01*
X245734Y137424D01*
X245821Y137470D01*
X245904Y137523D01*
X245983Y137584D01*
X246057Y137652D01*
X246552Y137157D01*
D02*
G37*
G36*
X257038Y169331D02*
X256967Y169246D01*
X256904Y169159D01*
X256849Y169070D01*
X256803Y168979D01*
X256765Y168887D01*
X256736Y168792D01*
X256715Y168696D01*
X256702Y168597D01*
X256698Y168497D01*
X255998D01*
X255994Y168597D01*
X255981Y168696D01*
X255960Y168792D01*
X255931Y168887D01*
X255893Y168979D01*
X255847Y169070D01*
X255792Y169159D01*
X255729Y169246D01*
X255658Y169331D01*
X255578Y169414D01*
X257118D01*
X257038Y169331D01*
D02*
G37*
G36*
X256705Y124090D02*
X256726Y123967D01*
X256761Y123842D01*
X256810Y123716D01*
X256873Y123588D01*
X256950Y123459D01*
X257041Y123328D01*
X257146Y123195D01*
X257265Y123060D01*
X257398Y122923D01*
X255298D01*
X255431Y123060D01*
X255655Y123328D01*
X255746Y123459D01*
X255823Y123588D01*
X255886Y123716D01*
X255935Y123842D01*
X255970Y123967D01*
X255991Y124090D01*
X255998Y124211D01*
X256698D01*
X256705Y124090D01*
D02*
G37*
G36*
X363390Y135731D02*
X363319Y135646D01*
X363256Y135559D01*
X363201Y135470D01*
X363155Y135379D01*
X363117Y135287D01*
X363088Y135192D01*
X363067Y135096D01*
X363054Y134997D01*
X363050Y134897D01*
X362350D01*
X362346Y134997D01*
X362333Y135096D01*
X362312Y135192D01*
X362283Y135287D01*
X362245Y135379D01*
X362199Y135470D01*
X362144Y135559D01*
X362081Y135646D01*
X362010Y135731D01*
X361930Y135814D01*
X363470D01*
X363390Y135731D01*
D02*
G37*
G36*
X357690Y139731D02*
X357619Y139646D01*
X357556Y139559D01*
X357501Y139470D01*
X357455Y139379D01*
X357417Y139287D01*
X357388Y139192D01*
X357367Y139096D01*
X357354Y138997D01*
X357350Y138897D01*
X356650D01*
X356646Y138997D01*
X356633Y139096D01*
X356612Y139192D01*
X356583Y139287D01*
X356545Y139379D01*
X356499Y139470D01*
X356444Y139559D01*
X356381Y139646D01*
X356310Y139731D01*
X356230Y139814D01*
X357770D01*
X357690Y139731D01*
D02*
G37*
G36*
X106302Y168579D02*
X106312Y168468D01*
X106329Y168362D01*
X106353Y168261D01*
X106385Y168164D01*
X106424Y168072D01*
X106470Y167984D01*
X106523Y167901D01*
X106584Y167823D01*
X106652Y167749D01*
X106157Y167254D01*
X106083Y167322D01*
X106004Y167382D01*
X105921Y167436D01*
X105834Y167482D01*
X105741Y167521D01*
X105645Y167552D01*
X105543Y167576D01*
X105437Y167593D01*
X105326Y167603D01*
X105211Y167606D01*
X106300Y168694D01*
X106302Y168579D01*
D02*
G37*
G36*
X109754Y52103D02*
X109767Y52004D01*
X109788Y51908D01*
X109817Y51813D01*
X109855Y51721D01*
X109901Y51630D01*
X109956Y51541D01*
X110019Y51454D01*
X110090Y51369D01*
X110170Y51286D01*
X108630D01*
X108710Y51369D01*
X108781Y51454D01*
X108844Y51541D01*
X108899Y51630D01*
X108945Y51721D01*
X108983Y51813D01*
X109012Y51908D01*
X109033Y52004D01*
X109046Y52103D01*
X109050Y52203D01*
X109750D01*
X109754Y52103D01*
D02*
G37*
G54D20*
X324700Y116200D02*
X328211Y112689D01*
Y90500D02*
Y112689D01*
X280100Y121300D02*
X284500Y116900D01*
Y75300D02*
Y116900D01*
X281400Y121900D02*
X285800Y117500D01*
Y75900D02*
Y117500D01*
X280100Y121300D02*
Y131100D01*
X272500D02*
X274900Y128700D01*
X271200Y130500D02*
X273600Y128100D01*
X256348Y121852D02*
Y170200D01*
X268600Y163900D02*
X269400Y164700D01*
X109400Y50500D02*
Y164506D01*
X85000Y165900D02*
X88500Y169400D01*
Y182900D01*
X91900Y186300D01*
X262100Y113300D02*
Y140300D01*
X261200Y141200D02*
X262100Y140300D01*
X257000Y108200D02*
X262100Y113300D01*
X262600Y153700D02*
X263400Y152900D01*
Y111700D02*
Y152900D01*
X280600Y149600D02*
X280700Y149700D01*
X279300Y150200D02*
X279400Y150300D01*
X278100Y150900D02*
Y187600D01*
X278000Y150800D02*
X278100Y150900D01*
X272500Y147200D02*
X276800Y151500D01*
X271200Y147900D02*
X275500Y152200D01*
X259900Y108200D02*
X263400Y111700D01*
X245100Y136200D02*
X249700Y140800D01*
Y158200D01*
X263900Y156900D02*
X264700Y156100D01*
Y110037D02*
Y156100D01*
X262900Y108237D02*
X264700Y110037D01*
X265100Y162400D02*
X266000Y161500D01*
Y107600D02*
Y161500D01*
X261300Y102900D02*
X266000Y107600D01*
X266500Y165700D02*
Y172300D01*
Y165700D02*
X267300Y164900D01*
Y105900D02*
Y164900D01*
X264300Y102900D02*
X267300Y105900D01*
X268600Y104200D02*
Y163900D01*
X267300Y102900D02*
X268600Y104200D01*
X293900Y108500D02*
Y128800D01*
X287900Y60000D02*
X293000Y65100D01*
Y107600D01*
X293900Y108500D01*
X287900Y63000D02*
X291300Y66400D01*
Y74200D01*
X288400Y77100D02*
X291300Y74200D01*
X288400Y77100D02*
Y118800D01*
X292400Y122800D01*
Y126000D01*
X291100Y127300D02*
X292400Y126000D01*
X291100Y127300D02*
Y135073D01*
X284000Y142173D02*
X291100Y135073D01*
X284000Y142173D02*
Y148100D01*
X287100Y119400D02*
X291100Y123400D01*
X287100Y76500D02*
Y119400D01*
Y76500D02*
X290000Y73600D01*
X287900Y66000D02*
X290000Y68100D01*
Y73600D01*
X291100Y123400D02*
Y125400D01*
X289600Y126900D02*
X291100Y125400D01*
X288100Y126900D02*
X289600D01*
X281900Y133100D02*
X288100Y126900D01*
X281900Y133100D02*
Y149000D01*
X282600Y149700D01*
Y160300D01*
X282800Y160500D01*
X287100Y69700D02*
X287900Y68900D01*
X287100Y69700D02*
Y74600D01*
X285800Y75900D02*
X287100Y74600D01*
X281400Y121900D02*
Y131700D01*
X280600Y132500D02*
X281400Y131700D01*
X280600Y132500D02*
Y149600D01*
X280700Y149700D02*
Y165500D01*
X282300Y167100D01*
Y168900D01*
X279400Y171800D02*
X282300Y168900D01*
X279400Y171800D02*
Y182200D01*
X280200Y183000D01*
X283700Y69500D02*
X285800Y71600D01*
Y74000D01*
X284500Y75300D02*
X285800Y74000D01*
X279300Y131900D02*
X280100Y131100D01*
X279300Y131900D02*
Y150200D01*
X279400Y150300D02*
Y167200D01*
X280200Y168000D01*
X278100Y187600D02*
X279800Y189300D01*
X278000Y131300D02*
Y150800D01*
Y131300D02*
X278800Y130500D01*
X276800Y197900D02*
X280300Y201400D01*
X276800Y151500D02*
Y197900D01*
X275500Y152200D02*
Y199600D01*
X278800Y108300D02*
Y130500D01*
X283700Y72400D02*
Y74200D01*
X283200Y74700D02*
X283700Y74200D01*
X283200Y74700D02*
Y103900D01*
X278800Y108300D02*
X283200Y103900D01*
X274600Y143300D02*
X276700Y141200D01*
Y130700D02*
Y141200D01*
X272500Y131100D02*
Y147200D01*
X271200Y130500D02*
Y147900D01*
X277500Y78900D02*
Y129900D01*
X276700Y130700D02*
X277500Y129900D01*
Y78900D02*
X281600Y74800D01*
X274600Y130900D02*
X276200Y129300D01*
Y78300D02*
Y129300D01*
X274900Y76670D02*
Y128700D01*
X273600Y75070D02*
Y128100D01*
X276200Y78300D02*
X280200Y74300D01*
X274900Y76670D02*
X278070Y73500D01*
X273600Y75070D02*
X278070Y70600D01*
X281600Y68700D02*
Y74800D01*
Y68700D02*
X283700Y66600D01*
X278070Y67700D02*
X280200Y69830D01*
Y74300D01*
X325500Y90200D02*
Y113500D01*
Y90200D02*
X327300Y88400D01*
X336900Y98700D02*
Y101400D01*
X339000Y95000D02*
Y96600D01*
X336900Y98700D02*
X339000Y96600D01*
X336900Y98700D02*
Y100200D01*
X341100Y93800D02*
Y141200D01*
X337800Y90500D02*
X341100Y93800D01*
X334100Y90500D02*
X337800D01*
X333500Y100500D02*
Y102500D01*
X335100Y104100D01*
Y112700D01*
X332500Y115300D02*
X335100Y112700D01*
X332500Y115300D02*
Y145800D01*
X330200Y148100D02*
X332500Y145800D01*
X335600Y95000D02*
Y102000D01*
X336400Y102800D01*
Y113300D01*
X336900Y101400D02*
X337700Y102200D01*
X335300Y116300D02*
X337700Y113900D01*
Y102200D02*
Y113900D01*
X339000Y100500D02*
Y114500D01*
X337700Y115800D02*
X339000Y114500D01*
X339400Y142900D02*
X341100Y141200D01*
X329100Y88400D02*
X331200Y90500D01*
X327300Y88400D02*
X329100D01*
X307900Y157400D02*
X310000Y159500D01*
X307900Y149400D02*
Y157400D01*
X310000Y164700D02*
Y177500D01*
X306500Y161200D02*
X310000Y164700D01*
X306500Y126400D02*
Y161200D01*
X295900Y160500D02*
X296600Y159800D01*
X297300Y163600D02*
X298000Y162900D01*
Y133300D02*
Y162900D01*
X296100Y131400D02*
X298000Y133300D01*
X296600Y134900D02*
Y159800D01*
X294000Y132300D02*
X296600Y134900D01*
X274600Y130900D02*
Y139100D01*
X440200Y131100D02*
X444000Y127300D01*
X365000Y57500D02*
Y62400D01*
X362700Y64700D02*
X365000Y62400D01*
X362700Y64700D02*
Y136600D01*
X373300Y185000D02*
X373400Y185100D01*
X449300Y129900D02*
X450200Y130800D01*
X275500Y199600D02*
X278200Y202300D01*
X355000Y57500D02*
Y62400D01*
X357000Y64400D01*
Y140600D01*
X336600Y166300D02*
X337700Y167400D01*
X336600Y116900D02*
Y166300D01*
Y116900D02*
X337700Y115800D01*
X344000Y144100D02*
X344100Y144200D01*
X344000Y108900D02*
Y144100D01*
X310000Y150800D02*
X310800Y150000D01*
Y127900D02*
Y150000D01*
X333800Y115900D02*
X336400Y113300D01*
X331000Y167400D02*
X333800Y164600D01*
Y115900D02*
Y164600D01*
X335300Y116300D02*
Y168900D01*
X332400Y171800D02*
X335300Y168900D01*
X328900Y166400D02*
Y210700D01*
X328100Y165600D02*
X328900Y166400D01*
X328100Y121700D02*
Y165600D01*
Y121700D02*
X328900Y120900D01*
Y119100D02*
Y120900D01*
X345000Y57500D02*
X350100Y62600D01*
Y151000D01*
X313400Y127800D02*
Y152100D01*
X315500Y154200D01*
X335000Y57500D02*
X346200Y68700D01*
Y154900D01*
X323400Y115600D02*
Y159200D01*
Y115600D02*
X325500Y113500D01*
X324700Y116200D02*
Y168200D01*
Y116200D02*
Y118100D01*
X322400Y160200D02*
X323400Y159200D01*
X380500Y104700D02*
Y107000D01*
X381000Y107500D01*
Y167900D01*
X297200Y177500D02*
X299400Y175300D01*
Y129100D02*
Y175300D01*
X300100Y177500D02*
X300800Y176800D01*
Y127600D02*
Y176800D01*
X292700Y130000D02*
X293900Y128800D01*
X292700Y130000D02*
Y132900D01*
X293800Y134000D01*
Y185000D01*
X296000Y187200D01*
X373300Y106800D02*
Y185000D01*
X365000Y47500D02*
X371200Y53700D01*
Y98400D01*
X324700Y168200D02*
X326800Y170300D01*
Y179600D01*
X312100Y179000D02*
X312900Y179800D01*
X380500Y55300D02*
Y104700D01*
X373300Y51800D02*
Y106800D01*
X383100Y188900D02*
X383200Y189000D01*
X385200Y191000D01*
X383100Y114100D02*
Y188900D01*
X326800Y120000D02*
Y167400D01*
X294000Y130600D02*
Y132300D01*
Y130600D02*
X296000Y128600D01*
Y125700D02*
X299400Y129100D01*
X317600Y166200D02*
X318400Y167000D01*
X295988Y122788D02*
X300800Y127600D01*
X302900Y128600D02*
Y177500D01*
X305100Y127900D02*
Y213900D01*
X302900Y125700D02*
X305100Y127900D01*
X328900Y210700D02*
X329700Y211500D01*
X326800Y117000D02*
X328900Y119100D01*
X278200Y205300D02*
X280300Y203200D01*
Y201400D02*
Y203200D01*
X302900Y122800D02*
X306500Y126400D01*
X307900Y149400D02*
X308600Y148700D01*
Y128600D02*
Y148700D01*
Y125700D02*
X310800Y127900D01*
X312100Y126300D02*
Y179000D01*
X308600Y122800D02*
X312100Y126300D01*
X313400Y127800D02*
X315500Y125700D01*
Y128600D02*
Y146700D01*
X317600Y124900D02*
Y166200D01*
X315500Y122800D02*
X317600Y124900D01*
X105200Y168705D02*
X109400Y164506D01*
X452400Y42000D02*
X458100Y47700D01*
X443800Y42000D02*
X452400D01*
X438100Y47700D02*
X443800Y42000D01*
X432400D02*
X438100Y47700D01*
X423800Y42000D02*
X432400D01*
X418100Y47700D02*
X423800Y42000D01*
X412400D02*
X418100Y47700D01*
X403800Y42000D02*
X412400D01*
X398100Y47700D02*
X403800Y42000D01*
X392400D02*
X398100Y47700D01*
X383100Y42000D02*
X392400D01*
X373300Y51800D02*
X383100Y42000D01*
X443000Y52800D02*
X448100Y47700D01*
X433200Y52800D02*
X443000D01*
X428100Y47700D02*
X433200Y52800D01*
X422900Y52900D02*
X428100Y47700D01*
X413300Y52900D02*
X422900D01*
X408100Y47700D02*
X413300Y52900D01*
X403000Y52800D02*
X408100Y47700D01*
X393200Y52800D02*
X403000D01*
X388100Y47700D02*
X393200Y52800D01*
X380500Y55300D02*
X388100Y47700D01*
X390200Y135100D02*
Y203200D01*
X400200Y140600D02*
Y203200D01*
X405200Y208200D02*
X410300Y203100D01*
Y140600D02*
Y203100D01*
X420200Y140600D02*
Y203200D01*
X430200D02*
X435200Y198200D01*
X440200Y131100D02*
Y203200D01*
X450200Y130800D02*
Y203200D01*
X460200Y149700D02*
Y203200D01*
X470200Y149700D02*
Y203200D01*
X430200D02*
Y212964D01*
X435200Y217964D01*
X380200Y212964D02*
X385200Y217964D01*
X380200Y203100D02*
Y212964D01*
Y203100D02*
X385100Y198200D01*
X385200D01*
Y191000D02*
Y198200D01*
X465200Y208200D02*
X470200Y203200D01*
X455200Y208200D02*
X460200Y203200D01*
X445200Y208200D02*
X450200Y203200D01*
X435200Y208200D02*
X440200Y203200D01*
X415200Y208200D02*
X420200Y203200D01*
X395200Y208200D02*
X400200Y203200D01*
X385200Y208200D02*
X390200Y203200D01*
G54D62*
X302022Y42600D02*
D03*
X292101D02*
D03*
Y34700D02*
D03*
X302022D02*
D03*
G54D79*
X48937Y5551D02*
D03*
X41063D02*
D03*
X35551Y11063D02*
D03*
Y18937D02*
D03*
X41063Y24449D02*
D03*
X48937D02*
D03*
X54449Y18937D02*
D03*
Y11063D02*
D03*
X43937Y298351D02*
D03*
X36063D02*
D03*
X30551Y303863D02*
D03*
Y311737D02*
D03*
X36063Y317249D02*
D03*
X43937D02*
D03*
X49449Y311737D02*
D03*
Y303863D02*
D03*
X484137Y5551D02*
D03*
X476263D02*
D03*
X470751Y11063D02*
D03*
Y18937D02*
D03*
X476263Y24449D02*
D03*
X484137D02*
D03*
X489649Y18937D02*
D03*
Y11063D02*
D03*
X484137Y298351D02*
D03*
X476263D02*
D03*
X470751Y303863D02*
D03*
Y311737D02*
D03*
X476263Y317249D02*
D03*
X484137D02*
D03*
X489649Y311737D02*
D03*
Y303863D02*
D03*
G54D91*
X290673Y114527D02*
D03*
X312327D02*
D03*
X299335Y110196D02*
D03*
X303665D02*
D03*
X307996Y105865D02*
D03*
Y101535D02*
D03*
X299335Y97204D02*
D03*
X303665D02*
D03*
X290673Y92873D02*
D03*
X312327D02*
D03*
X295004Y101535D02*
D03*
Y105865D02*
D03*
X303665Y101535D02*
D03*
X299335D02*
D03*
Y105865D02*
D03*
X303665D02*
D03*
G54D93*
X52425Y7575D02*
X53117Y8339D01*
X53730Y9166D01*
X54260Y10050D01*
X54701Y10982D01*
X55048Y11952D01*
X55298Y12952D01*
X55449Y13971D01*
X55500Y15000D01*
X55453Y15988D01*
X55314Y16967D01*
X55083Y17929D01*
X54763Y18865D01*
X54356Y19767D01*
X53865Y20626D01*
X53297Y21436D01*
X52654Y22188D01*
X51944Y22876D01*
X51172Y23495D01*
X50345Y24038D01*
X49471Y24501D01*
X48557Y24879D01*
X47611Y25170D01*
X46643Y25371D01*
X45659Y25479D01*
X44670Y25495D01*
X43684Y25417D01*
X42709Y25247D01*
X41755Y24986D01*
X40830Y24636D01*
X39942Y24201D01*
X39098Y23684D01*
X38307Y23090D01*
X37575Y22425D01*
X36903Y21685D01*
X36304Y20885D01*
X35784Y20032D01*
X35348Y19133D01*
X34999Y18197D01*
X34740Y17232D01*
X34574Y16247D01*
X34503Y15250D01*
X34527Y14251D01*
X34645Y13259D01*
X34858Y12282D01*
X35162Y11331D01*
X35555Y10412D01*
X36034Y9535D01*
X36594Y8708D01*
X37231Y7937D01*
X37937Y7231D01*
X38708Y6594D01*
X39535Y6034D01*
X40412Y5555D01*
X41331Y5162D01*
X42282Y4858D01*
X43259Y4645D01*
X44251Y4527D01*
X45250Y4503D01*
X46247Y4574D01*
X47232Y4740D01*
X48197Y4999D01*
X49133Y5348D01*
X50032Y5784D01*
X50885Y6304D01*
X51685Y6903D01*
X52425Y7575D01*
X47425Y300375D02*
X48117Y301139D01*
X48730Y301967D01*
X49260Y302850D01*
X49701Y303782D01*
X50048Y304752D01*
X50298Y305751D01*
X50449Y306771D01*
X50500Y307800D01*
X50453Y308788D01*
X50314Y309768D01*
X50083Y310729D01*
X49763Y311665D01*
X49356Y312567D01*
X48865Y313426D01*
X48297Y314235D01*
X47654Y314988D01*
X46944Y315676D01*
X46172Y316295D01*
X45345Y316838D01*
X44471Y317301D01*
X43557Y317679D01*
X42611Y317970D01*
X41643Y318171D01*
X40659Y318279D01*
X39670Y318295D01*
X38684Y318217D01*
X37710Y318047D01*
X36755Y317786D01*
X35830Y317436D01*
X34942Y317001D01*
X34098Y316484D01*
X33307Y315890D01*
X32575Y315225D01*
X31903Y314485D01*
X31304Y313685D01*
X30784Y312832D01*
X30348Y311933D01*
X29999Y310997D01*
X29740Y310032D01*
X29574Y309047D01*
X29503Y308050D01*
X29527Y307051D01*
X29645Y306059D01*
X29858Y305082D01*
X30162Y304131D01*
X30555Y303212D01*
X31034Y302335D01*
X31594Y301508D01*
X32230Y300737D01*
X32937Y300030D01*
X33708Y299394D01*
X34535Y298834D01*
X35412Y298355D01*
X36331Y297962D01*
X37282Y297658D01*
X38259Y297445D01*
X39251Y297327D01*
X40250Y297303D01*
X41247Y297374D01*
X42232Y297540D01*
X43197Y297799D01*
X44133Y298148D01*
X45032Y298584D01*
X45885Y299104D01*
X46685Y299703D01*
X47425Y300375D01*
X487625Y7575D02*
X488317Y8339D01*
X488930Y9166D01*
X489460Y10050D01*
X489901Y10982D01*
X490248Y11952D01*
X490498Y12952D01*
X490649Y13971D01*
X490700Y15000D01*
X490653Y15988D01*
X490514Y16967D01*
X490283Y17929D01*
X489963Y18865D01*
X489556Y19767D01*
X489065Y20626D01*
X488497Y21436D01*
X487854Y22188D01*
X487144Y22876D01*
X486372Y23495D01*
X485545Y24038D01*
X484671Y24501D01*
X483757Y24879D01*
X482811Y25170D01*
X481843Y25371D01*
X480859Y25479D01*
X479870Y25495D01*
X478884Y25417D01*
X477910Y25247D01*
X476955Y24986D01*
X476030Y24636D01*
X475142Y24201D01*
X474298Y23684D01*
X473507Y23090D01*
X472775Y22425D01*
X472103Y21685D01*
X471504Y20885D01*
X470984Y20032D01*
X470548Y19133D01*
X470199Y18197D01*
X469940Y17232D01*
X469774Y16247D01*
X469703Y15250D01*
X469727Y14251D01*
X469845Y13259D01*
X470058Y12282D01*
X470362Y11331D01*
X470755Y10412D01*
X471234Y9535D01*
X471794Y8708D01*
X472431Y7937D01*
X473137Y7231D01*
X473908Y6594D01*
X474735Y6034D01*
X475612Y5555D01*
X476531Y5162D01*
X477482Y4858D01*
X478459Y4645D01*
X479451Y4527D01*
X480450Y4503D01*
X481447Y4574D01*
X482432Y4740D01*
X483397Y4999D01*
X484333Y5348D01*
X485232Y5784D01*
X486085Y6304D01*
X486885Y6903D01*
X487625Y7575D01*
Y300375D02*
X488317Y301139D01*
X488930Y301967D01*
X489460Y302850D01*
X489901Y303782D01*
X490248Y304752D01*
X490498Y305751D01*
X490649Y306771D01*
X490700Y307800D01*
X490653Y308788D01*
X490514Y309768D01*
X490283Y310729D01*
X489963Y311665D01*
X489556Y312567D01*
X489065Y313426D01*
X488497Y314235D01*
X487854Y314988D01*
X487144Y315676D01*
X486372Y316295D01*
X485545Y316838D01*
X484671Y317301D01*
X483757Y317679D01*
X482811Y317970D01*
X481843Y318171D01*
X480859Y318279D01*
X479870Y318295D01*
X478884Y318217D01*
X477910Y318047D01*
X476955Y317786D01*
X476030Y317436D01*
X475142Y317001D01*
X474298Y316484D01*
X473507Y315890D01*
X472775Y315225D01*
X472103Y314485D01*
X471504Y313685D01*
X470984Y312832D01*
X470548Y311933D01*
X470199Y310997D01*
X469940Y310032D01*
X469774Y309047D01*
X469703Y308050D01*
X469727Y307051D01*
X469845Y306059D01*
X470058Y305082D01*
X470362Y304131D01*
X470755Y303212D01*
X471234Y302335D01*
X471794Y301508D01*
X472431Y300737D01*
X473137Y300030D01*
X473908Y299394D01*
X474735Y298834D01*
X475612Y298355D01*
X476531Y297962D01*
X477482Y297658D01*
X478459Y297445D01*
X479451Y297327D01*
X480450Y297303D01*
X481447Y297374D01*
X482432Y297540D01*
X483397Y297799D01*
X484333Y298148D01*
X485232Y298584D01*
X486085Y299104D01*
X486885Y299703D01*
X487625Y300375D01*
G54D120*
X16500Y200000D02*
Y253100D01*
X14700Y254900D02*
X16500Y253100D01*
X14700Y254900D02*
Y273200D01*
X16300Y38700D02*
X16400Y38800D01*
Y65500D01*
X14700Y67200D02*
X16400Y65500D01*
X14700Y67200D02*
Y83400D01*
X16400Y100000D02*
Y141000D01*
X14700Y83400D02*
Y98300D01*
X16400Y100000D01*
X14700Y142700D02*
X16400Y141000D01*
X14700Y142700D02*
Y175700D01*
Y198200D01*
X16500Y200000D01*
G54D122*
X601800Y221300D02*
X605900Y225400D01*
X601800Y198000D02*
Y221300D01*
G54D127*
X75600Y166800D02*
X80600Y171800D01*
X75600Y153100D02*
Y166800D01*
Y153100D02*
X80300Y148400D01*
Y17600D02*
Y148400D01*
Y17600D02*
X85400Y12500D01*
X326673D01*
X336273Y22100D01*
X462600D01*
X526528Y86028D01*
X530338D01*
G54D128*
X273400Y24000D02*
D03*
X320722D02*
D03*
G54D129*
X465500Y99979D02*
D03*
X365000Y47500D02*
D03*
X355000D02*
D03*
X345000D02*
D03*
X335000D02*
D03*
X465200Y198200D02*
D03*
X455200D02*
D03*
X445200D02*
D03*
X435200D02*
D03*
X415200D02*
D03*
X405200D02*
D03*
X395200D02*
D03*
X385200D02*
D03*
X458100Y47700D02*
D03*
X448100D02*
D03*
X438100D02*
D03*
X428100D02*
D03*
X418100D02*
D03*
X408100D02*
D03*
X398100D02*
D03*
X388100D02*
D03*
G54D130*
X465500Y89979D02*
D03*
X365000Y57500D02*
D03*
X355000D02*
D03*
X345000D02*
D03*
X335000D02*
D03*
X465200Y208200D02*
D03*
Y217964D02*
D03*
X455200Y208200D02*
D03*
Y217964D02*
D03*
X445200Y208200D02*
D03*
Y217964D02*
D03*
X435200Y208200D02*
D03*
Y217964D02*
D03*
X415200Y208200D02*
D03*
Y217964D02*
D03*
X405200Y208200D02*
D03*
Y217964D02*
D03*
X395200Y208200D02*
D03*
Y217964D02*
D03*
X385200Y208200D02*
D03*
Y217964D02*
D03*
X458100Y57700D02*
D03*
X540338Y86028D02*
D03*
X530338D02*
D03*
X540338Y76028D02*
D03*
X530338D02*
D03*
X540338Y66028D02*
D03*
X530338D02*
D03*
X540338Y56028D02*
D03*
X530338D02*
D03*
X540338Y46028D02*
D03*
X530338D02*
D03*
X540338Y36028D02*
D03*
X530338D02*
D03*
Y26028D02*
D03*
Y236028D02*
D03*
Y246028D02*
D03*
X540338D02*
D03*
X530338Y256028D02*
D03*
X540338D02*
D03*
X530338Y266028D02*
D03*
X540338D02*
D03*
X530338Y276028D02*
D03*
X540338D02*
D03*
X530338Y286028D02*
D03*
X540338D02*
D03*
X530338Y296028D02*
D03*
X540338D02*
D03*
X595476Y86028D02*
D03*
X585476D02*
D03*
X595476Y76028D02*
D03*
X585476D02*
D03*
X595476Y66028D02*
D03*
X585476D02*
D03*
X595476Y56028D02*
D03*
X585476D02*
D03*
X595476Y46028D02*
D03*
X585476D02*
D03*
X595476Y36028D02*
D03*
X585476D02*
D03*
Y26028D02*
D03*
X585495Y96028D02*
D03*
Y106028D02*
D03*
X595495D02*
D03*
X585495Y116028D02*
D03*
X595495D02*
D03*
X585495Y126028D02*
D03*
X595495D02*
D03*
X585495Y136028D02*
D03*
X595495D02*
D03*
X585495Y146028D02*
D03*
X595495D02*
D03*
X585495Y156028D02*
D03*
X595495D02*
D03*
Y296028D02*
D03*
X585495D02*
D03*
X595495Y286028D02*
D03*
X585495D02*
D03*
X595495Y276028D02*
D03*
X585495D02*
D03*
X595495Y266028D02*
D03*
X585495D02*
D03*
X595495Y256028D02*
D03*
X585495D02*
D03*
X595495Y246028D02*
D03*
X585495D02*
D03*
Y236028D02*
D03*
Y166028D02*
D03*
Y176028D02*
D03*
X595495D02*
D03*
X585495Y186028D02*
D03*
X595495D02*
D03*
X585495Y196028D02*
D03*
X595495D02*
D03*
X585495Y206028D02*
D03*
X595495D02*
D03*
X585495Y216028D02*
D03*
X595495D02*
D03*
X585495Y226028D02*
D03*
X595495D02*
D03*
X448100Y57700D02*
D03*
X438100D02*
D03*
X428100D02*
D03*
X418100D02*
D03*
X408100D02*
D03*
X398100D02*
D03*
X388100D02*
D03*
G54D131*
X57900Y176200D02*
D03*
X424400Y276700D02*
D03*
G54D132*
X80000Y273200D02*
D03*
X14700Y83400D02*
D03*
Y175700D02*
D03*
Y273200D02*
D03*
G54D133*
X100000D02*
D03*
X34700Y83400D02*
D03*
Y175700D02*
D03*
Y273200D02*
D03*
G54D134*
X540338Y26028D02*
D03*
Y236028D02*
D03*
X595476Y26028D02*
D03*
X595495Y96028D02*
D03*
Y236028D02*
D03*
Y166028D02*
D03*
G54D135*
X460800Y16500D02*
D03*
X463800Y30600D02*
D03*
X481500Y32576D02*
D03*
X516900Y68500D02*
D03*
X512200Y63500D02*
D03*
X506800Y58400D02*
D03*
X501900Y53500D02*
D03*
X496700Y48400D02*
D03*
X491700Y43500D02*
D03*
X487006Y38500D02*
D03*
X498700Y68600D02*
D03*
X493800Y63500D02*
D03*
X488938Y58400D02*
D03*
X484300Y53600D02*
D03*
X480700Y48400D02*
D03*
X476600Y43600D02*
D03*
X228100Y18200D02*
D03*
X181700Y18300D02*
D03*
X85800Y130050D02*
D03*
X138800Y18800D02*
D03*
X90700Y18100D02*
D03*
X86200Y46100D02*
D03*
X60900Y46200D02*
D03*
X61000Y70900D02*
D03*
X61500Y117600D02*
D03*
X5300Y162900D02*
D03*
X60400Y280000D02*
D03*
X61200Y265400D02*
D03*
X60800Y240800D02*
D03*
Y219400D02*
D03*
X61400Y197800D02*
D03*
X451300Y244000D02*
D03*
X364400Y221815D02*
D03*
X318600Y218200D02*
D03*
X351300Y195900D02*
D03*
X317300Y195400D02*
D03*
X292500Y195500D02*
D03*
X292200Y208300D02*
D03*
X424600Y208200D02*
D03*
X364900Y208300D02*
D03*
X380300Y192800D02*
D03*
X387700Y192700D02*
D03*
X397300D02*
D03*
X407600D02*
D03*
X417500D02*
D03*
X425400Y194000D02*
D03*
X437600Y192900D02*
D03*
X447400Y192800D02*
D03*
X457600Y192900D02*
D03*
X467600D02*
D03*
X478000Y190500D02*
D03*
X354100Y262000D02*
D03*
X260600Y261700D02*
D03*
X172000Y248500D02*
D03*
X89100Y230900D02*
D03*
X453200Y62700D02*
D03*
X433200D02*
D03*
X413200Y62600D02*
D03*
X393300Y61800D02*
D03*
X371322Y49900D02*
D03*
X329900Y53300D02*
D03*
X349900D02*
D03*
X451600Y83800D02*
D03*
X394800Y80200D02*
D03*
X343007Y77800D02*
D03*
X213800Y87100D02*
D03*
X151900Y88100D02*
D03*
X88300Y86000D02*
D03*
X161800Y166400D02*
D03*
X162000Y173900D02*
D03*
X236900Y174300D02*
D03*
X236500Y165400D02*
D03*
X292300Y58500D02*
D03*
X281700Y62700D02*
D03*
X274100Y70000D02*
D03*
X320500Y135900D02*
D03*
X353300Y123200D02*
D03*
X359800Y123000D02*
D03*
X368900Y122700D02*
D03*
X377100Y123700D02*
D03*
X386900Y124800D02*
D03*
X438600Y122300D02*
D03*
X467500Y117600D02*
D03*
X546300Y81300D02*
D03*
X568200Y89700D02*
D03*
X565700Y82300D02*
D03*
X564200Y63800D02*
D03*
Y53700D02*
D03*
X564300Y42200D02*
D03*
X590100Y172300D02*
D03*
Y191200D02*
D03*
X554700Y36000D02*
D03*
X570000Y159800D02*
D03*
X559900Y160500D02*
D03*
X551000Y161700D02*
D03*
X541200Y163600D02*
D03*
X508800Y174700D02*
D03*
X559400Y226600D02*
D03*
X549000Y263200D02*
D03*
X228400Y6400D02*
D03*
X182100Y6200D02*
D03*
X256348Y170200D02*
D03*
X270700Y167900D02*
D03*
X262600Y172300D02*
D03*
X253200Y97300D02*
D03*
X253300Y115600D02*
D03*
X109400Y50500D02*
D03*
X85000Y165900D02*
D03*
X91900Y186300D02*
D03*
X261200Y141200D02*
D03*
X265100Y162400D02*
D03*
X266500Y172300D02*
D03*
X269400Y164700D02*
D03*
X257000Y108200D02*
D03*
X259900D02*
D03*
X262900Y108237D02*
D03*
X261300Y102900D02*
D03*
X264300D02*
D03*
X267300D02*
D03*
X287900Y60000D02*
D03*
X284000Y148100D02*
D03*
X287900Y63000D02*
D03*
Y66000D02*
D03*
Y68900D02*
D03*
X283700Y66600D02*
D03*
Y69500D02*
D03*
Y72400D02*
D03*
X335600Y95000D02*
D03*
X339000D02*
D03*
X334100Y90500D02*
D03*
X331200D02*
D03*
X328200D02*
D03*
X245100Y136200D02*
D03*
X249700Y158200D02*
D03*
X274600Y139100D02*
D03*
X444000Y127300D02*
D03*
X373400Y185100D02*
D03*
X362700Y136600D02*
D03*
X274600Y143300D02*
D03*
X449300Y129900D02*
D03*
X390200Y135100D02*
D03*
X357000Y140600D02*
D03*
X339400Y142900D02*
D03*
X400200Y140600D02*
D03*
X410300D02*
D03*
X420200D02*
D03*
X344000Y108900D02*
D03*
X344100Y144200D02*
D03*
X262600Y153700D02*
D03*
X330200Y148100D02*
D03*
X263900Y156900D02*
D03*
X350100Y151000D02*
D03*
X460200Y149700D02*
D03*
X470200D02*
D03*
X315500Y154200D02*
D03*
X310000Y159500D02*
D03*
X346200Y154900D02*
D03*
X282800Y160500D02*
D03*
X322400Y160200D02*
D03*
X280200Y168000D02*
D03*
X331000Y167400D02*
D03*
X337700D02*
D03*
X381000Y167900D02*
D03*
X332400Y171800D02*
D03*
X279800Y189300D02*
D03*
X297200Y177500D02*
D03*
X300100D02*
D03*
X303000D02*
D03*
X280200Y183000D02*
D03*
X296000Y187200D02*
D03*
X371200Y98400D02*
D03*
X326800Y179600D02*
D03*
X339000Y100500D02*
D03*
X333500D02*
D03*
X380500Y104700D02*
D03*
X373300Y106800D02*
D03*
X383100Y114100D02*
D03*
X326800Y167400D02*
D03*
X312900Y179800D02*
D03*
X295900Y161100D02*
D03*
X297300Y164200D02*
D03*
X305100Y213900D02*
D03*
X329700Y211500D02*
D03*
X326800Y120000D02*
D03*
Y117000D02*
D03*
X278200Y205300D02*
D03*
Y202300D02*
D03*
X278070Y67700D02*
D03*
Y70600D02*
D03*
Y73500D02*
D03*
X310000Y177500D02*
D03*
Y150800D02*
D03*
X315500Y146700D02*
D03*
X296100Y131400D02*
D03*
X302900Y128600D02*
D03*
Y125700D02*
D03*
Y122800D02*
D03*
X296000Y128600D02*
D03*
Y125700D02*
D03*
X295988Y122788D02*
D03*
X308600Y128600D02*
D03*
Y125700D02*
D03*
Y122800D02*
D03*
X315500Y128600D02*
D03*
Y125700D02*
D03*
X318400Y167000D02*
D03*
X315500Y122800D02*
D03*
X310297Y85760D02*
D03*
X306100Y83200D02*
D03*
X615615Y217187D02*
D03*
Y221518D02*
D03*
X619945Y217187D02*
D03*
Y221518D02*
D03*
X601800Y198000D02*
D03*
X38300Y241200D02*
D03*
X42300D02*
D03*
Y245200D02*
D03*
X38300D02*
D03*
Y249200D02*
D03*
X42300D02*
D03*
Y253200D02*
D03*
X38300D02*
D03*
X30300D02*
D03*
X26300D02*
D03*
Y249200D02*
D03*
X30300D02*
D03*
Y245200D02*
D03*
X26300D02*
D03*
Y241200D02*
D03*
X30300D02*
D03*
X34300D02*
D03*
Y245200D02*
D03*
Y253200D02*
D03*
Y249200D02*
D03*
X38300Y51400D02*
D03*
X42300D02*
D03*
Y55400D02*
D03*
X38300D02*
D03*
Y59400D02*
D03*
X42300D02*
D03*
Y63400D02*
D03*
X38300D02*
D03*
X30300D02*
D03*
X26300D02*
D03*
Y59400D02*
D03*
X30300D02*
D03*
Y55400D02*
D03*
X26300D02*
D03*
Y51400D02*
D03*
X30300D02*
D03*
X34300D02*
D03*
Y55400D02*
D03*
Y63400D02*
D03*
Y59400D02*
D03*
X38300Y143700D02*
D03*
X42300D02*
D03*
Y147700D02*
D03*
X38300D02*
D03*
Y151700D02*
D03*
X42300D02*
D03*
Y155700D02*
D03*
X38300D02*
D03*
X30300D02*
D03*
X26300D02*
D03*
Y151700D02*
D03*
X30300D02*
D03*
Y147700D02*
D03*
X26300D02*
D03*
Y143700D02*
D03*
X30300D02*
D03*
X34300D02*
D03*
Y147700D02*
D03*
Y155700D02*
D03*
Y151700D02*
D03*
X13500Y228500D02*
D03*
X16300D02*
D03*
X19200D02*
D03*
X13500Y131000D02*
D03*
X16300D02*
D03*
X19200D02*
D03*
Y38700D02*
D03*
X16300D02*
D03*
X13500D02*
D03*
X105200Y168705D02*
D03*
X95400Y143000D02*
D03*
X26800Y37800D02*
D03*
X31800D02*
D03*
X36800D02*
D03*
X26800Y130100D02*
D03*
X31800D02*
D03*
X36800D02*
D03*
Y227600D02*
D03*
X31800D02*
D03*
X26800D02*
D03*
X88200Y147500D02*
D03*
X99700Y179500D02*
D03*
X92955Y163587D02*
D03*
Y167918D02*
D03*
X97285Y163587D02*
D03*
Y167918D02*
D03*
X90883Y176186D02*
D03*
X95420Y155320D02*
D03*
X105200Y162800D02*
D03*
X80600Y159800D02*
D03*
Y171800D02*
D03*
X605900Y225400D02*
D03*
Y213400D02*
D03*
X617780Y209520D02*
D03*
X628000Y216400D02*
D03*
X613243Y229457D02*
D03*
X619748Y229451D02*
D03*
X467400Y52100D02*
D03*
X466800Y61900D02*
D03*
X389400Y35200D02*
D03*
X425100Y30700D02*
D03*
X619200Y10600D02*
D03*
X620300Y59800D02*
D03*
X619900Y101900D02*
D03*
X620100Y145800D02*
D03*
X619600Y196600D02*
D03*
X619700Y248800D02*
D03*
X624200Y314400D02*
D03*
X558800Y275900D02*
D03*
X564600Y257500D02*
D03*
X612400Y236100D02*
D03*
X513500Y281100D02*
D03*
X513700Y252100D02*
D03*
X511500Y224100D02*
D03*
X450200Y215700D02*
D03*
X400200Y220600D02*
D03*
X69300Y188000D02*
D03*
X62000Y147200D02*
D03*
X595100Y317200D02*
D03*
X549400Y318100D02*
D03*
X501900Y318200D02*
D03*
X449600D02*
D03*
X404700Y318000D02*
D03*
X356800Y318300D02*
D03*
X316600Y318600D02*
D03*
X277400Y318300D02*
D03*
X207900Y318500D02*
D03*
X157500Y318800D02*
D03*
X106900Y318300D02*
D03*
X58300Y317800D02*
D03*
X5900Y318500D02*
D03*
X5400Y272500D02*
D03*
X5300Y212400D02*
D03*
X6200Y117700D02*
D03*
X5900Y70300D02*
D03*
X6500Y6300D02*
D03*
X83100Y5900D02*
D03*
X139100Y6400D02*
D03*
X275000Y5600D02*
D03*
X325300Y5000D02*
D03*
X377600Y6200D02*
D03*
X429800Y6000D02*
D03*
X500600Y5800D02*
D03*
X562700Y5500D02*
D03*
G54D136*
X256348Y121852D02*
D03*
X337400Y30905D02*
D03*
X333300Y30900D02*
D03*
X509700Y76000D02*
D03*
X473500Y104600D02*
D03*
X479600D02*
D03*
X483000Y101200D02*
D03*
Y95300D02*
D03*
Y89400D02*
D03*
X479700Y86028D02*
D03*
X473500Y86000D02*
D03*
X513300Y88000D02*
D03*
X511400Y84300D02*
D03*
X507300D02*
D03*
X509200Y113300D02*
D03*
X80300Y148400D02*
D03*
X223915Y141715D02*
D03*
X223985Y145485D02*
D03*
X306975Y50800D02*
D03*
X284800D02*
D03*
X312600Y69000D02*
D03*
X305600Y55400D02*
D03*
X312600Y58800D02*
D03*
X314600Y75100D02*
D03*
X302500Y69000D02*
D03*
X323500Y82200D02*
D03*
Y78300D02*
D03*
X280700Y102913D02*
D03*
X281300Y116600D02*
D03*
X322200Y110800D02*
D03*
X288600Y124400D02*
D03*
X271000Y78100D02*
D03*
X270900Y102900D02*
D03*
X271100Y116600D02*
D03*
X288600Y134100D02*
D03*
X331900Y111613D02*
D03*
X284400Y124370D02*
D03*
Y134070D02*
D03*
X318630Y71070D02*
D03*
X323500Y71100D02*
D03*
X307600Y74400D02*
D03*
X270900Y97700D02*
D03*
M02*
